%TF.GenerationSoftware,KiCad,Pcbnew,8.0.4*%
%TF.CreationDate,2024-07-31T10:58:40+02:00*%
%TF.ProjectId,esim,6573696d-2e6b-4696-9361-645f70636258,rev?*%
%TF.SameCoordinates,Original*%
%TF.FileFunction,Drillmap*%
%TF.FilePolarity,Positive*%
%FSLAX45Y45*%
G04 Gerber Fmt 4.5, Leading zero omitted, Abs format (unit mm)*
G04 Created by KiCad (PCBNEW 8.0.4) date 2024-07-31 10:58:40*
%MOMM*%
%LPD*%
G01*
G04 APERTURE LIST*
%ADD10C,0.050000*%
%ADD11C,0.200000*%
%ADD12C,0.530000*%
G04 APERTURE END LIST*
D10*
X1000000Y-1000000D02*
X11000000Y-1000000D01*
X11000000Y-11000000D01*
X1000000Y-11000000D01*
X1000000Y-1000000D01*
D11*
D12*
X1235000Y-1235000D02*
X1765000Y-1765000D01*
X1765000Y-1235000D02*
X1235000Y-1765000D01*
X1235000Y-10235000D02*
X1765000Y-10765000D01*
X1765000Y-10235000D02*
X1235000Y-10765000D01*
X10235000Y-1235000D02*
X10765000Y-1765000D01*
X10765000Y-1235000D02*
X10235000Y-1765000D01*
X10235000Y-10235000D02*
X10765000Y-10765000D01*
X10765000Y-10235000D02*
X10235000Y-10765000D01*
D11*
X1258277Y-11313984D02*
X1258277Y-11113984D01*
X1258277Y-11113984D02*
X1305896Y-11113984D01*
X1305896Y-11113984D02*
X1334467Y-11123508D01*
X1334467Y-11123508D02*
X1353515Y-11142555D01*
X1353515Y-11142555D02*
X1363039Y-11161603D01*
X1363039Y-11161603D02*
X1372563Y-11199698D01*
X1372563Y-11199698D02*
X1372563Y-11228269D01*
X1372563Y-11228269D02*
X1363039Y-11266365D01*
X1363039Y-11266365D02*
X1353515Y-11285412D01*
X1353515Y-11285412D02*
X1334467Y-11304460D01*
X1334467Y-11304460D02*
X1305896Y-11313984D01*
X1305896Y-11313984D02*
X1258277Y-11313984D01*
X1458277Y-11313984D02*
X1458277Y-11180650D01*
X1458277Y-11218746D02*
X1467801Y-11199698D01*
X1467801Y-11199698D02*
X1477324Y-11190174D01*
X1477324Y-11190174D02*
X1496372Y-11180650D01*
X1496372Y-11180650D02*
X1515420Y-11180650D01*
X1582086Y-11313984D02*
X1582086Y-11180650D01*
X1582086Y-11113984D02*
X1572562Y-11123508D01*
X1572562Y-11123508D02*
X1582086Y-11133031D01*
X1582086Y-11133031D02*
X1591610Y-11123508D01*
X1591610Y-11123508D02*
X1582086Y-11113984D01*
X1582086Y-11113984D02*
X1582086Y-11133031D01*
X1705896Y-11313984D02*
X1686848Y-11304460D01*
X1686848Y-11304460D02*
X1677324Y-11285412D01*
X1677324Y-11285412D02*
X1677324Y-11113984D01*
X1810658Y-11313984D02*
X1791610Y-11304460D01*
X1791610Y-11304460D02*
X1782086Y-11285412D01*
X1782086Y-11285412D02*
X1782086Y-11113984D01*
X2039229Y-11313984D02*
X2039229Y-11113984D01*
X2039229Y-11113984D02*
X2105896Y-11256841D01*
X2105896Y-11256841D02*
X2172563Y-11113984D01*
X2172563Y-11113984D02*
X2172563Y-11313984D01*
X2353515Y-11313984D02*
X2353515Y-11209222D01*
X2353515Y-11209222D02*
X2343991Y-11190174D01*
X2343991Y-11190174D02*
X2324944Y-11180650D01*
X2324944Y-11180650D02*
X2286848Y-11180650D01*
X2286848Y-11180650D02*
X2267801Y-11190174D01*
X2353515Y-11304460D02*
X2334467Y-11313984D01*
X2334467Y-11313984D02*
X2286848Y-11313984D01*
X2286848Y-11313984D02*
X2267801Y-11304460D01*
X2267801Y-11304460D02*
X2258277Y-11285412D01*
X2258277Y-11285412D02*
X2258277Y-11266365D01*
X2258277Y-11266365D02*
X2267801Y-11247317D01*
X2267801Y-11247317D02*
X2286848Y-11237793D01*
X2286848Y-11237793D02*
X2334467Y-11237793D01*
X2334467Y-11237793D02*
X2353515Y-11228269D01*
X2448753Y-11180650D02*
X2448753Y-11380650D01*
X2448753Y-11190174D02*
X2467801Y-11180650D01*
X2467801Y-11180650D02*
X2505896Y-11180650D01*
X2505896Y-11180650D02*
X2524944Y-11190174D01*
X2524944Y-11190174D02*
X2534467Y-11199698D01*
X2534467Y-11199698D02*
X2543991Y-11218746D01*
X2543991Y-11218746D02*
X2543991Y-11275888D01*
X2543991Y-11275888D02*
X2534467Y-11294936D01*
X2534467Y-11294936D02*
X2524944Y-11304460D01*
X2524944Y-11304460D02*
X2505896Y-11313984D01*
X2505896Y-11313984D02*
X2467801Y-11313984D01*
X2467801Y-11313984D02*
X2448753Y-11304460D01*
X2629705Y-11294936D02*
X2639229Y-11304460D01*
X2639229Y-11304460D02*
X2629705Y-11313984D01*
X2629705Y-11313984D02*
X2620182Y-11304460D01*
X2620182Y-11304460D02*
X2629705Y-11294936D01*
X2629705Y-11294936D02*
X2629705Y-11313984D01*
X2629705Y-11190174D02*
X2639229Y-11199698D01*
X2639229Y-11199698D02*
X2629705Y-11209222D01*
X2629705Y-11209222D02*
X2620182Y-11199698D01*
X2620182Y-11199698D02*
X2629705Y-11190174D01*
X2629705Y-11190174D02*
X2629705Y-11209222D01*
X797500Y-11542500D02*
X997500Y-11742500D01*
X997500Y-11542500D02*
X797500Y-11742500D01*
X1353515Y-11533984D02*
X1258277Y-11533984D01*
X1258277Y-11533984D02*
X1248753Y-11629222D01*
X1248753Y-11629222D02*
X1258277Y-11619698D01*
X1258277Y-11619698D02*
X1277324Y-11610174D01*
X1277324Y-11610174D02*
X1324944Y-11610174D01*
X1324944Y-11610174D02*
X1343991Y-11619698D01*
X1343991Y-11619698D02*
X1353515Y-11629222D01*
X1353515Y-11629222D02*
X1363039Y-11648269D01*
X1363039Y-11648269D02*
X1363039Y-11695888D01*
X1363039Y-11695888D02*
X1353515Y-11714936D01*
X1353515Y-11714936D02*
X1343991Y-11724460D01*
X1343991Y-11724460D02*
X1324944Y-11733984D01*
X1324944Y-11733984D02*
X1277324Y-11733984D01*
X1277324Y-11733984D02*
X1258277Y-11724460D01*
X1258277Y-11724460D02*
X1248753Y-11714936D01*
X1448753Y-11714936D02*
X1458277Y-11724460D01*
X1458277Y-11724460D02*
X1448753Y-11733984D01*
X1448753Y-11733984D02*
X1439229Y-11724460D01*
X1439229Y-11724460D02*
X1448753Y-11714936D01*
X1448753Y-11714936D02*
X1448753Y-11733984D01*
X1524943Y-11533984D02*
X1648753Y-11533984D01*
X1648753Y-11533984D02*
X1582086Y-11610174D01*
X1582086Y-11610174D02*
X1610658Y-11610174D01*
X1610658Y-11610174D02*
X1629705Y-11619698D01*
X1629705Y-11619698D02*
X1639229Y-11629222D01*
X1639229Y-11629222D02*
X1648753Y-11648269D01*
X1648753Y-11648269D02*
X1648753Y-11695888D01*
X1648753Y-11695888D02*
X1639229Y-11714936D01*
X1639229Y-11714936D02*
X1629705Y-11724460D01*
X1629705Y-11724460D02*
X1610658Y-11733984D01*
X1610658Y-11733984D02*
X1553515Y-11733984D01*
X1553515Y-11733984D02*
X1534467Y-11724460D01*
X1534467Y-11724460D02*
X1524943Y-11714936D01*
X1772562Y-11533984D02*
X1791610Y-11533984D01*
X1791610Y-11533984D02*
X1810658Y-11543508D01*
X1810658Y-11543508D02*
X1820182Y-11553031D01*
X1820182Y-11553031D02*
X1829705Y-11572079D01*
X1829705Y-11572079D02*
X1839229Y-11610174D01*
X1839229Y-11610174D02*
X1839229Y-11657793D01*
X1839229Y-11657793D02*
X1829705Y-11695888D01*
X1829705Y-11695888D02*
X1820182Y-11714936D01*
X1820182Y-11714936D02*
X1810658Y-11724460D01*
X1810658Y-11724460D02*
X1791610Y-11733984D01*
X1791610Y-11733984D02*
X1772562Y-11733984D01*
X1772562Y-11733984D02*
X1753515Y-11724460D01*
X1753515Y-11724460D02*
X1743991Y-11714936D01*
X1743991Y-11714936D02*
X1734467Y-11695888D01*
X1734467Y-11695888D02*
X1724943Y-11657793D01*
X1724943Y-11657793D02*
X1724943Y-11610174D01*
X1724943Y-11610174D02*
X1734467Y-11572079D01*
X1734467Y-11572079D02*
X1743991Y-11553031D01*
X1743991Y-11553031D02*
X1753515Y-11543508D01*
X1753515Y-11543508D02*
X1772562Y-11533984D01*
X1963039Y-11533984D02*
X1982086Y-11533984D01*
X1982086Y-11533984D02*
X2001134Y-11543508D01*
X2001134Y-11543508D02*
X2010658Y-11553031D01*
X2010658Y-11553031D02*
X2020182Y-11572079D01*
X2020182Y-11572079D02*
X2029705Y-11610174D01*
X2029705Y-11610174D02*
X2029705Y-11657793D01*
X2029705Y-11657793D02*
X2020182Y-11695888D01*
X2020182Y-11695888D02*
X2010658Y-11714936D01*
X2010658Y-11714936D02*
X2001134Y-11724460D01*
X2001134Y-11724460D02*
X1982086Y-11733984D01*
X1982086Y-11733984D02*
X1963039Y-11733984D01*
X1963039Y-11733984D02*
X1943991Y-11724460D01*
X1943991Y-11724460D02*
X1934467Y-11714936D01*
X1934467Y-11714936D02*
X1924943Y-11695888D01*
X1924943Y-11695888D02*
X1915420Y-11657793D01*
X1915420Y-11657793D02*
X1915420Y-11610174D01*
X1915420Y-11610174D02*
X1924943Y-11572079D01*
X1924943Y-11572079D02*
X1934467Y-11553031D01*
X1934467Y-11553031D02*
X1943991Y-11543508D01*
X1943991Y-11543508D02*
X1963039Y-11533984D01*
X2115420Y-11733984D02*
X2115420Y-11600650D01*
X2115420Y-11619698D02*
X2124944Y-11610174D01*
X2124944Y-11610174D02*
X2143991Y-11600650D01*
X2143991Y-11600650D02*
X2172563Y-11600650D01*
X2172563Y-11600650D02*
X2191610Y-11610174D01*
X2191610Y-11610174D02*
X2201134Y-11629222D01*
X2201134Y-11629222D02*
X2201134Y-11733984D01*
X2201134Y-11629222D02*
X2210658Y-11610174D01*
X2210658Y-11610174D02*
X2229705Y-11600650D01*
X2229705Y-11600650D02*
X2258277Y-11600650D01*
X2258277Y-11600650D02*
X2277325Y-11610174D01*
X2277325Y-11610174D02*
X2286848Y-11629222D01*
X2286848Y-11629222D02*
X2286848Y-11733984D01*
X2382086Y-11733984D02*
X2382086Y-11600650D01*
X2382086Y-11619698D02*
X2391610Y-11610174D01*
X2391610Y-11610174D02*
X2410658Y-11600650D01*
X2410658Y-11600650D02*
X2439229Y-11600650D01*
X2439229Y-11600650D02*
X2458277Y-11610174D01*
X2458277Y-11610174D02*
X2467801Y-11629222D01*
X2467801Y-11629222D02*
X2467801Y-11733984D01*
X2467801Y-11629222D02*
X2477325Y-11610174D01*
X2477325Y-11610174D02*
X2496372Y-11600650D01*
X2496372Y-11600650D02*
X2524944Y-11600650D01*
X2524944Y-11600650D02*
X2543991Y-11610174D01*
X2543991Y-11610174D02*
X2553515Y-11629222D01*
X2553515Y-11629222D02*
X2553515Y-11733984D01*
X2943991Y-11524460D02*
X2772563Y-11781603D01*
X3201134Y-11533984D02*
X3220182Y-11533984D01*
X3220182Y-11533984D02*
X3239229Y-11543508D01*
X3239229Y-11543508D02*
X3248753Y-11553031D01*
X3248753Y-11553031D02*
X3258277Y-11572079D01*
X3258277Y-11572079D02*
X3267801Y-11610174D01*
X3267801Y-11610174D02*
X3267801Y-11657793D01*
X3267801Y-11657793D02*
X3258277Y-11695888D01*
X3258277Y-11695888D02*
X3248753Y-11714936D01*
X3248753Y-11714936D02*
X3239229Y-11724460D01*
X3239229Y-11724460D02*
X3220182Y-11733984D01*
X3220182Y-11733984D02*
X3201134Y-11733984D01*
X3201134Y-11733984D02*
X3182086Y-11724460D01*
X3182086Y-11724460D02*
X3172563Y-11714936D01*
X3172563Y-11714936D02*
X3163039Y-11695888D01*
X3163039Y-11695888D02*
X3153515Y-11657793D01*
X3153515Y-11657793D02*
X3153515Y-11610174D01*
X3153515Y-11610174D02*
X3163039Y-11572079D01*
X3163039Y-11572079D02*
X3172563Y-11553031D01*
X3172563Y-11553031D02*
X3182086Y-11543508D01*
X3182086Y-11543508D02*
X3201134Y-11533984D01*
X3353515Y-11714936D02*
X3363039Y-11724460D01*
X3363039Y-11724460D02*
X3353515Y-11733984D01*
X3353515Y-11733984D02*
X3343991Y-11724460D01*
X3343991Y-11724460D02*
X3353515Y-11714936D01*
X3353515Y-11714936D02*
X3353515Y-11733984D01*
X3439229Y-11553031D02*
X3448753Y-11543508D01*
X3448753Y-11543508D02*
X3467801Y-11533984D01*
X3467801Y-11533984D02*
X3515420Y-11533984D01*
X3515420Y-11533984D02*
X3534467Y-11543508D01*
X3534467Y-11543508D02*
X3543991Y-11553031D01*
X3543991Y-11553031D02*
X3553515Y-11572079D01*
X3553515Y-11572079D02*
X3553515Y-11591127D01*
X3553515Y-11591127D02*
X3543991Y-11619698D01*
X3543991Y-11619698D02*
X3429706Y-11733984D01*
X3429706Y-11733984D02*
X3553515Y-11733984D01*
X3677325Y-11533984D02*
X3696372Y-11533984D01*
X3696372Y-11533984D02*
X3715420Y-11543508D01*
X3715420Y-11543508D02*
X3724944Y-11553031D01*
X3724944Y-11553031D02*
X3734467Y-11572079D01*
X3734467Y-11572079D02*
X3743991Y-11610174D01*
X3743991Y-11610174D02*
X3743991Y-11657793D01*
X3743991Y-11657793D02*
X3734467Y-11695888D01*
X3734467Y-11695888D02*
X3724944Y-11714936D01*
X3724944Y-11714936D02*
X3715420Y-11724460D01*
X3715420Y-11724460D02*
X3696372Y-11733984D01*
X3696372Y-11733984D02*
X3677325Y-11733984D01*
X3677325Y-11733984D02*
X3658277Y-11724460D01*
X3658277Y-11724460D02*
X3648753Y-11714936D01*
X3648753Y-11714936D02*
X3639229Y-11695888D01*
X3639229Y-11695888D02*
X3629706Y-11657793D01*
X3629706Y-11657793D02*
X3629706Y-11610174D01*
X3629706Y-11610174D02*
X3639229Y-11572079D01*
X3639229Y-11572079D02*
X3648753Y-11553031D01*
X3648753Y-11553031D02*
X3658277Y-11543508D01*
X3658277Y-11543508D02*
X3677325Y-11533984D01*
X3858277Y-11619698D02*
X3839229Y-11610174D01*
X3839229Y-11610174D02*
X3829706Y-11600650D01*
X3829706Y-11600650D02*
X3820182Y-11581603D01*
X3820182Y-11581603D02*
X3820182Y-11572079D01*
X3820182Y-11572079D02*
X3829706Y-11553031D01*
X3829706Y-11553031D02*
X3839229Y-11543508D01*
X3839229Y-11543508D02*
X3858277Y-11533984D01*
X3858277Y-11533984D02*
X3896372Y-11533984D01*
X3896372Y-11533984D02*
X3915420Y-11543508D01*
X3915420Y-11543508D02*
X3924944Y-11553031D01*
X3924944Y-11553031D02*
X3934467Y-11572079D01*
X3934467Y-11572079D02*
X3934467Y-11581603D01*
X3934467Y-11581603D02*
X3924944Y-11600650D01*
X3924944Y-11600650D02*
X3915420Y-11610174D01*
X3915420Y-11610174D02*
X3896372Y-11619698D01*
X3896372Y-11619698D02*
X3858277Y-11619698D01*
X3858277Y-11619698D02*
X3839229Y-11629222D01*
X3839229Y-11629222D02*
X3829706Y-11638746D01*
X3829706Y-11638746D02*
X3820182Y-11657793D01*
X3820182Y-11657793D02*
X3820182Y-11695888D01*
X3820182Y-11695888D02*
X3829706Y-11714936D01*
X3829706Y-11714936D02*
X3839229Y-11724460D01*
X3839229Y-11724460D02*
X3858277Y-11733984D01*
X3858277Y-11733984D02*
X3896372Y-11733984D01*
X3896372Y-11733984D02*
X3915420Y-11724460D01*
X3915420Y-11724460D02*
X3924944Y-11714936D01*
X3924944Y-11714936D02*
X3934467Y-11695888D01*
X3934467Y-11695888D02*
X3934467Y-11657793D01*
X3934467Y-11657793D02*
X3924944Y-11638746D01*
X3924944Y-11638746D02*
X3915420Y-11629222D01*
X3915420Y-11629222D02*
X3896372Y-11619698D01*
X4001134Y-11533984D02*
X4134467Y-11533984D01*
X4134467Y-11533984D02*
X4048753Y-11733984D01*
X4201134Y-11533984D02*
X4201134Y-11572079D01*
X4277325Y-11533984D02*
X4277325Y-11572079D01*
X4572563Y-11810174D02*
X4563039Y-11800650D01*
X4563039Y-11800650D02*
X4543991Y-11772079D01*
X4543991Y-11772079D02*
X4534468Y-11753031D01*
X4534468Y-11753031D02*
X4524944Y-11724460D01*
X4524944Y-11724460D02*
X4515420Y-11676841D01*
X4515420Y-11676841D02*
X4515420Y-11638746D01*
X4515420Y-11638746D02*
X4524944Y-11591127D01*
X4524944Y-11591127D02*
X4534468Y-11562555D01*
X4534468Y-11562555D02*
X4543991Y-11543508D01*
X4543991Y-11543508D02*
X4563039Y-11514936D01*
X4563039Y-11514936D02*
X4572563Y-11505412D01*
X4734468Y-11600650D02*
X4734468Y-11733984D01*
X4686849Y-11524460D02*
X4639230Y-11667317D01*
X4639230Y-11667317D02*
X4763039Y-11667317D01*
X4991611Y-11733984D02*
X4991611Y-11533984D01*
X5077325Y-11733984D02*
X5077325Y-11629222D01*
X5077325Y-11629222D02*
X5067801Y-11610174D01*
X5067801Y-11610174D02*
X5048753Y-11600650D01*
X5048753Y-11600650D02*
X5020182Y-11600650D01*
X5020182Y-11600650D02*
X5001134Y-11610174D01*
X5001134Y-11610174D02*
X4991611Y-11619698D01*
X5201134Y-11733984D02*
X5182087Y-11724460D01*
X5182087Y-11724460D02*
X5172563Y-11714936D01*
X5172563Y-11714936D02*
X5163039Y-11695888D01*
X5163039Y-11695888D02*
X5163039Y-11638746D01*
X5163039Y-11638746D02*
X5172563Y-11619698D01*
X5172563Y-11619698D02*
X5182087Y-11610174D01*
X5182087Y-11610174D02*
X5201134Y-11600650D01*
X5201134Y-11600650D02*
X5229706Y-11600650D01*
X5229706Y-11600650D02*
X5248753Y-11610174D01*
X5248753Y-11610174D02*
X5258277Y-11619698D01*
X5258277Y-11619698D02*
X5267801Y-11638746D01*
X5267801Y-11638746D02*
X5267801Y-11695888D01*
X5267801Y-11695888D02*
X5258277Y-11714936D01*
X5258277Y-11714936D02*
X5248753Y-11724460D01*
X5248753Y-11724460D02*
X5229706Y-11733984D01*
X5229706Y-11733984D02*
X5201134Y-11733984D01*
X5382087Y-11733984D02*
X5363039Y-11724460D01*
X5363039Y-11724460D02*
X5353515Y-11705412D01*
X5353515Y-11705412D02*
X5353515Y-11533984D01*
X5534468Y-11724460D02*
X5515420Y-11733984D01*
X5515420Y-11733984D02*
X5477325Y-11733984D01*
X5477325Y-11733984D02*
X5458277Y-11724460D01*
X5458277Y-11724460D02*
X5448753Y-11705412D01*
X5448753Y-11705412D02*
X5448753Y-11629222D01*
X5448753Y-11629222D02*
X5458277Y-11610174D01*
X5458277Y-11610174D02*
X5477325Y-11600650D01*
X5477325Y-11600650D02*
X5515420Y-11600650D01*
X5515420Y-11600650D02*
X5534468Y-11610174D01*
X5534468Y-11610174D02*
X5543992Y-11629222D01*
X5543992Y-11629222D02*
X5543992Y-11648269D01*
X5543992Y-11648269D02*
X5448753Y-11667317D01*
X5620182Y-11724460D02*
X5639230Y-11733984D01*
X5639230Y-11733984D02*
X5677325Y-11733984D01*
X5677325Y-11733984D02*
X5696372Y-11724460D01*
X5696372Y-11724460D02*
X5705896Y-11705412D01*
X5705896Y-11705412D02*
X5705896Y-11695888D01*
X5705896Y-11695888D02*
X5696372Y-11676841D01*
X5696372Y-11676841D02*
X5677325Y-11667317D01*
X5677325Y-11667317D02*
X5648753Y-11667317D01*
X5648753Y-11667317D02*
X5629706Y-11657793D01*
X5629706Y-11657793D02*
X5620182Y-11638746D01*
X5620182Y-11638746D02*
X5620182Y-11629222D01*
X5620182Y-11629222D02*
X5629706Y-11610174D01*
X5629706Y-11610174D02*
X5648753Y-11600650D01*
X5648753Y-11600650D02*
X5677325Y-11600650D01*
X5677325Y-11600650D02*
X5696372Y-11610174D01*
X5772563Y-11810174D02*
X5782087Y-11800650D01*
X5782087Y-11800650D02*
X5801134Y-11772079D01*
X5801134Y-11772079D02*
X5810658Y-11753031D01*
X5810658Y-11753031D02*
X5820182Y-11724460D01*
X5820182Y-11724460D02*
X5829706Y-11676841D01*
X5829706Y-11676841D02*
X5829706Y-11638746D01*
X5829706Y-11638746D02*
X5820182Y-11591127D01*
X5820182Y-11591127D02*
X5810658Y-11562555D01*
X5810658Y-11562555D02*
X5801134Y-11543508D01*
X5801134Y-11543508D02*
X5782087Y-11514936D01*
X5782087Y-11514936D02*
X5772563Y-11505412D01*
X6134468Y-11810174D02*
X6124944Y-11800650D01*
X6124944Y-11800650D02*
X6105896Y-11772079D01*
X6105896Y-11772079D02*
X6096372Y-11753031D01*
X6096372Y-11753031D02*
X6086849Y-11724460D01*
X6086849Y-11724460D02*
X6077325Y-11676841D01*
X6077325Y-11676841D02*
X6077325Y-11638746D01*
X6077325Y-11638746D02*
X6086849Y-11591127D01*
X6086849Y-11591127D02*
X6096372Y-11562555D01*
X6096372Y-11562555D02*
X6105896Y-11543508D01*
X6105896Y-11543508D02*
X6124944Y-11514936D01*
X6124944Y-11514936D02*
X6134468Y-11505412D01*
X6210658Y-11600650D02*
X6210658Y-11733984D01*
X6210658Y-11619698D02*
X6220182Y-11610174D01*
X6220182Y-11610174D02*
X6239230Y-11600650D01*
X6239230Y-11600650D02*
X6267801Y-11600650D01*
X6267801Y-11600650D02*
X6286849Y-11610174D01*
X6286849Y-11610174D02*
X6296372Y-11629222D01*
X6296372Y-11629222D02*
X6296372Y-11733984D01*
X6420182Y-11733984D02*
X6401134Y-11724460D01*
X6401134Y-11724460D02*
X6391611Y-11714936D01*
X6391611Y-11714936D02*
X6382087Y-11695888D01*
X6382087Y-11695888D02*
X6382087Y-11638746D01*
X6382087Y-11638746D02*
X6391611Y-11619698D01*
X6391611Y-11619698D02*
X6401134Y-11610174D01*
X6401134Y-11610174D02*
X6420182Y-11600650D01*
X6420182Y-11600650D02*
X6448753Y-11600650D01*
X6448753Y-11600650D02*
X6467801Y-11610174D01*
X6467801Y-11610174D02*
X6477325Y-11619698D01*
X6477325Y-11619698D02*
X6486849Y-11638746D01*
X6486849Y-11638746D02*
X6486849Y-11695888D01*
X6486849Y-11695888D02*
X6477325Y-11714936D01*
X6477325Y-11714936D02*
X6467801Y-11724460D01*
X6467801Y-11724460D02*
X6448753Y-11733984D01*
X6448753Y-11733984D02*
X6420182Y-11733984D01*
X6543992Y-11600650D02*
X6620182Y-11600650D01*
X6572563Y-11533984D02*
X6572563Y-11705412D01*
X6572563Y-11705412D02*
X6582087Y-11724460D01*
X6582087Y-11724460D02*
X6601134Y-11733984D01*
X6601134Y-11733984D02*
X6620182Y-11733984D01*
X6839230Y-11600650D02*
X6839230Y-11800650D01*
X6839230Y-11610174D02*
X6858277Y-11600650D01*
X6858277Y-11600650D02*
X6896373Y-11600650D01*
X6896373Y-11600650D02*
X6915420Y-11610174D01*
X6915420Y-11610174D02*
X6924944Y-11619698D01*
X6924944Y-11619698D02*
X6934468Y-11638746D01*
X6934468Y-11638746D02*
X6934468Y-11695888D01*
X6934468Y-11695888D02*
X6924944Y-11714936D01*
X6924944Y-11714936D02*
X6915420Y-11724460D01*
X6915420Y-11724460D02*
X6896373Y-11733984D01*
X6896373Y-11733984D02*
X6858277Y-11733984D01*
X6858277Y-11733984D02*
X6839230Y-11724460D01*
X7048753Y-11733984D02*
X7029706Y-11724460D01*
X7029706Y-11724460D02*
X7020182Y-11705412D01*
X7020182Y-11705412D02*
X7020182Y-11533984D01*
X7210658Y-11733984D02*
X7210658Y-11629222D01*
X7210658Y-11629222D02*
X7201134Y-11610174D01*
X7201134Y-11610174D02*
X7182087Y-11600650D01*
X7182087Y-11600650D02*
X7143992Y-11600650D01*
X7143992Y-11600650D02*
X7124944Y-11610174D01*
X7210658Y-11724460D02*
X7191611Y-11733984D01*
X7191611Y-11733984D02*
X7143992Y-11733984D01*
X7143992Y-11733984D02*
X7124944Y-11724460D01*
X7124944Y-11724460D02*
X7115420Y-11705412D01*
X7115420Y-11705412D02*
X7115420Y-11686365D01*
X7115420Y-11686365D02*
X7124944Y-11667317D01*
X7124944Y-11667317D02*
X7143992Y-11657793D01*
X7143992Y-11657793D02*
X7191611Y-11657793D01*
X7191611Y-11657793D02*
X7210658Y-11648269D01*
X7277325Y-11600650D02*
X7353515Y-11600650D01*
X7305896Y-11533984D02*
X7305896Y-11705412D01*
X7305896Y-11705412D02*
X7315420Y-11724460D01*
X7315420Y-11724460D02*
X7334468Y-11733984D01*
X7334468Y-11733984D02*
X7353515Y-11733984D01*
X7496373Y-11724460D02*
X7477325Y-11733984D01*
X7477325Y-11733984D02*
X7439230Y-11733984D01*
X7439230Y-11733984D02*
X7420182Y-11724460D01*
X7420182Y-11724460D02*
X7410658Y-11705412D01*
X7410658Y-11705412D02*
X7410658Y-11629222D01*
X7410658Y-11629222D02*
X7420182Y-11610174D01*
X7420182Y-11610174D02*
X7439230Y-11600650D01*
X7439230Y-11600650D02*
X7477325Y-11600650D01*
X7477325Y-11600650D02*
X7496373Y-11610174D01*
X7496373Y-11610174D02*
X7505896Y-11629222D01*
X7505896Y-11629222D02*
X7505896Y-11648269D01*
X7505896Y-11648269D02*
X7410658Y-11667317D01*
X7677325Y-11733984D02*
X7677325Y-11533984D01*
X7677325Y-11724460D02*
X7658277Y-11733984D01*
X7658277Y-11733984D02*
X7620182Y-11733984D01*
X7620182Y-11733984D02*
X7601134Y-11724460D01*
X7601134Y-11724460D02*
X7591611Y-11714936D01*
X7591611Y-11714936D02*
X7582087Y-11695888D01*
X7582087Y-11695888D02*
X7582087Y-11638746D01*
X7582087Y-11638746D02*
X7591611Y-11619698D01*
X7591611Y-11619698D02*
X7601134Y-11610174D01*
X7601134Y-11610174D02*
X7620182Y-11600650D01*
X7620182Y-11600650D02*
X7658277Y-11600650D01*
X7658277Y-11600650D02*
X7677325Y-11610174D01*
X7753515Y-11810174D02*
X7763039Y-11800650D01*
X7763039Y-11800650D02*
X7782087Y-11772079D01*
X7782087Y-11772079D02*
X7791611Y-11753031D01*
X7791611Y-11753031D02*
X7801134Y-11724460D01*
X7801134Y-11724460D02*
X7810658Y-11676841D01*
X7810658Y-11676841D02*
X7810658Y-11638746D01*
X7810658Y-11638746D02*
X7801134Y-11591127D01*
X7801134Y-11591127D02*
X7791611Y-11562555D01*
X7791611Y-11562555D02*
X7782087Y-11543508D01*
X7782087Y-11543508D02*
X7763039Y-11514936D01*
X7763039Y-11514936D02*
X7753515Y-11505412D01*
M02*
