G04 #@! TF.GenerationSoftware,KiCad,Pcbnew,8.0.4*
G04 #@! TF.CreationDate,2024-07-31T10:58:34+02:00*
G04 #@! TF.ProjectId,esim,6573696d-2e6b-4696-9361-645f70636258,rev?*
G04 #@! TF.SameCoordinates,Original*
G04 #@! TF.FileFunction,Soldermask,Bot*
G04 #@! TF.FilePolarity,Negative*
%FSLAX46Y46*%
G04 Gerber Fmt 4.6, Leading zero omitted, Abs format (unit mm)*
G04 Created by KiCad (PCBNEW 8.0.4) date 2024-07-31 10:58:34*
%MOMM*%
%LPD*%
G01*
G04 APERTURE LIST*
%ADD10R,1.700000X1.700000*%
%ADD11O,1.700000X1.700000*%
%ADD12R,2.400000X1.600000*%
%ADD13O,2.400000X1.600000*%
%ADD14C,1.600000*%
%ADD15C,5.300000*%
%ADD16R,1.600000X1.600000*%
%ADD17O,1.600000X1.600000*%
%ADD18C,1.500000*%
%ADD19C,1.400000*%
%ADD20O,1.400000X1.400000*%
%ADD21C,2.000000*%
G04 APERTURE END LIST*
D10*
X21640000Y-107500000D03*
D11*
X21640000Y-104960000D03*
X24180000Y-107500000D03*
X24180000Y-104960000D03*
X26720000Y-107500000D03*
X26720000Y-104960000D03*
X29260000Y-107500000D03*
X29260000Y-104960000D03*
X31800000Y-107500000D03*
X31800000Y-104960000D03*
X34340000Y-107500000D03*
X34340000Y-104960000D03*
X36880000Y-107500000D03*
X36880000Y-104960000D03*
X39420000Y-107500000D03*
X39420000Y-104960000D03*
X41960000Y-107500000D03*
X41960000Y-104960000D03*
X44500000Y-107500000D03*
X44500000Y-104960000D03*
X47040000Y-107500000D03*
X47040000Y-104960000D03*
X49580000Y-107500000D03*
X49580000Y-104960000D03*
X52120000Y-107500000D03*
X52120000Y-104960000D03*
X54660000Y-107500000D03*
X54660000Y-104960000D03*
X57200000Y-107500000D03*
X57200000Y-104960000D03*
X59740000Y-107500000D03*
X59740000Y-104960000D03*
X62280000Y-107500000D03*
X62280000Y-104960000D03*
X64820000Y-107500000D03*
X64820000Y-104960000D03*
X67360000Y-107500000D03*
X67360000Y-104960000D03*
X69900000Y-107500000D03*
X69900000Y-104960000D03*
X72440000Y-107500000D03*
X72440000Y-104960000D03*
X74980000Y-107500000D03*
X74980000Y-104960000D03*
X77520000Y-107500000D03*
X77520000Y-104960000D03*
X80060000Y-107500000D03*
X80060000Y-104960000D03*
X82600000Y-107500000D03*
X82600000Y-104960000D03*
X85140000Y-107500000D03*
X85140000Y-104960000D03*
X87680000Y-107500000D03*
X87680000Y-104960000D03*
X90220000Y-107500000D03*
X90220000Y-104960000D03*
X92760000Y-107500000D03*
X92760000Y-104960000D03*
X95300000Y-107500000D03*
X95300000Y-104960000D03*
X97840000Y-107500000D03*
X97840000Y-104960000D03*
D10*
X21640000Y-102500000D03*
D11*
X21640000Y-99960000D03*
X24180000Y-102500000D03*
X24180000Y-99960000D03*
X26720000Y-102500000D03*
X26720000Y-99960000D03*
X29260000Y-102500000D03*
X29260000Y-99960000D03*
X31800000Y-102500000D03*
X31800000Y-99960000D03*
X34340000Y-102500000D03*
X34340000Y-99960000D03*
X36880000Y-102500000D03*
X36880000Y-99960000D03*
X39420000Y-102500000D03*
X39420000Y-99960000D03*
X41960000Y-102500000D03*
X41960000Y-99960000D03*
X44500000Y-102500000D03*
X44500000Y-99960000D03*
X47040000Y-102500000D03*
X47040000Y-99960000D03*
X49580000Y-102500000D03*
X49580000Y-99960000D03*
X52120000Y-102500000D03*
X52120000Y-99960000D03*
X54660000Y-102500000D03*
X54660000Y-99960000D03*
X57200000Y-102500000D03*
X57200000Y-99960000D03*
X59740000Y-102500000D03*
X59740000Y-99960000D03*
X62280000Y-102500000D03*
X62280000Y-99960000D03*
X64820000Y-102500000D03*
X64820000Y-99960000D03*
X67360000Y-102500000D03*
X67360000Y-99960000D03*
X69900000Y-102500000D03*
X69900000Y-99960000D03*
X72440000Y-102500000D03*
X72440000Y-99960000D03*
X74980000Y-102500000D03*
X74980000Y-99960000D03*
X77520000Y-102500000D03*
X77520000Y-99960000D03*
X80060000Y-102500000D03*
X80060000Y-99960000D03*
X82600000Y-102500000D03*
X82600000Y-99960000D03*
X85140000Y-102500000D03*
X85140000Y-99960000D03*
X87680000Y-102500000D03*
X87680000Y-99960000D03*
X90220000Y-102500000D03*
X90220000Y-99960000D03*
X92760000Y-102500000D03*
X92760000Y-99960000D03*
X95300000Y-102500000D03*
X95300000Y-99960000D03*
X97840000Y-102500000D03*
X97840000Y-99960000D03*
D10*
X14000000Y-97500000D03*
D11*
X14000000Y-94960000D03*
X16540000Y-97500000D03*
X16540000Y-94960000D03*
X19080000Y-97500000D03*
X19080000Y-94960000D03*
X21620000Y-97500000D03*
X21620000Y-94960000D03*
X24160000Y-97500000D03*
X24160000Y-94960000D03*
X26700000Y-97500000D03*
X26700000Y-94960000D03*
X29240000Y-97500000D03*
X29240000Y-94960000D03*
X31780000Y-97500000D03*
X31780000Y-94960000D03*
X34320000Y-97500000D03*
X34320000Y-94960000D03*
X36860000Y-97500000D03*
X36860000Y-94960000D03*
X39400000Y-97500000D03*
X39400000Y-94960000D03*
X41940000Y-97500000D03*
X41940000Y-94960000D03*
X44480000Y-97500000D03*
X44480000Y-94960000D03*
X47020000Y-97500000D03*
X47020000Y-94960000D03*
X49560000Y-97500000D03*
X49560000Y-94960000D03*
X52100000Y-97500000D03*
X52100000Y-94960000D03*
X54640000Y-97500000D03*
X54640000Y-94960000D03*
X57180000Y-97500000D03*
X57180000Y-94960000D03*
X59720000Y-97500000D03*
X59720000Y-94960000D03*
X62260000Y-97500000D03*
X62260000Y-94960000D03*
X64800000Y-97500000D03*
X64800000Y-94960000D03*
X67340000Y-97500000D03*
X67340000Y-94960000D03*
X69880000Y-97500000D03*
X69880000Y-94960000D03*
X72420000Y-97500000D03*
X72420000Y-94960000D03*
X74960000Y-97500000D03*
X74960000Y-94960000D03*
X77500000Y-97500000D03*
X77500000Y-94960000D03*
X80040000Y-97500000D03*
X80040000Y-94960000D03*
X82580000Y-97500000D03*
X82580000Y-94960000D03*
X85120000Y-97500000D03*
X85120000Y-94960000D03*
X87660000Y-97500000D03*
X87660000Y-94960000D03*
X90200000Y-97500000D03*
X90200000Y-94960000D03*
X92740000Y-97500000D03*
X92740000Y-94960000D03*
X95280000Y-97500000D03*
X95280000Y-94960000D03*
X97820000Y-97500000D03*
X97820000Y-94960000D03*
X100360000Y-97500000D03*
X100360000Y-94960000D03*
X102900000Y-97500000D03*
X102900000Y-94960000D03*
X105440000Y-97500000D03*
X105440000Y-94960000D03*
X107980000Y-97500000D03*
X107980000Y-94960000D03*
D10*
X14000000Y-92500000D03*
D11*
X14000000Y-89960000D03*
X16540000Y-92500000D03*
X16540000Y-89960000D03*
X19080000Y-92500000D03*
X19080000Y-89960000D03*
X21620000Y-92500000D03*
X21620000Y-89960000D03*
X24160000Y-92500000D03*
X24160000Y-89960000D03*
X26700000Y-92500000D03*
X26700000Y-89960000D03*
X29240000Y-92500000D03*
X29240000Y-89960000D03*
X31780000Y-92500000D03*
X31780000Y-89960000D03*
X34320000Y-92500000D03*
X34320000Y-89960000D03*
X36860000Y-92500000D03*
X36860000Y-89960000D03*
X39400000Y-92500000D03*
X39400000Y-89960000D03*
X41940000Y-92500000D03*
X41940000Y-89960000D03*
X44480000Y-92500000D03*
X44480000Y-89960000D03*
X47020000Y-92500000D03*
X47020000Y-89960000D03*
X49560000Y-92500000D03*
X49560000Y-89960000D03*
X52100000Y-92500000D03*
X52100000Y-89960000D03*
X54640000Y-92500000D03*
X54640000Y-89960000D03*
X57180000Y-92500000D03*
X57180000Y-89960000D03*
X59720000Y-92500000D03*
X59720000Y-89960000D03*
X62260000Y-92500000D03*
X62260000Y-89960000D03*
X64800000Y-92500000D03*
X64800000Y-89960000D03*
X67340000Y-92500000D03*
X67340000Y-89960000D03*
X69880000Y-92500000D03*
X69880000Y-89960000D03*
X72420000Y-92500000D03*
X72420000Y-89960000D03*
X74960000Y-92500000D03*
X74960000Y-89960000D03*
X77500000Y-92500000D03*
X77500000Y-89960000D03*
X80040000Y-92500000D03*
X80040000Y-89960000D03*
X82580000Y-92500000D03*
X82580000Y-89960000D03*
X85120000Y-92500000D03*
X85120000Y-89960000D03*
X87660000Y-92500000D03*
X87660000Y-89960000D03*
X90200000Y-92500000D03*
X90200000Y-89960000D03*
X92740000Y-92500000D03*
X92740000Y-89960000D03*
X95280000Y-92500000D03*
X95280000Y-89960000D03*
X97820000Y-92500000D03*
X97820000Y-89960000D03*
X100360000Y-92500000D03*
X100360000Y-89960000D03*
X102900000Y-92500000D03*
X102900000Y-89960000D03*
X105440000Y-92500000D03*
X105440000Y-89960000D03*
X107980000Y-92500000D03*
X107980000Y-89960000D03*
D10*
X14000000Y-87500000D03*
D11*
X14000000Y-84960000D03*
X16540000Y-87500000D03*
X16540000Y-84960000D03*
X19080000Y-87500000D03*
X19080000Y-84960000D03*
X21620000Y-87500000D03*
X21620000Y-84960000D03*
X24160000Y-87500000D03*
X24160000Y-84960000D03*
X26700000Y-87500000D03*
X26700000Y-84960000D03*
X29240000Y-87500000D03*
X29240000Y-84960000D03*
X31780000Y-87500000D03*
X31780000Y-84960000D03*
X34320000Y-87500000D03*
X34320000Y-84960000D03*
X36860000Y-87500000D03*
X36860000Y-84960000D03*
X39400000Y-87500000D03*
X39400000Y-84960000D03*
X41940000Y-87500000D03*
X41940000Y-84960000D03*
X44480000Y-87500000D03*
X44480000Y-84960000D03*
X47020000Y-87500000D03*
X47020000Y-84960000D03*
X49560000Y-87500000D03*
X49560000Y-84960000D03*
X52100000Y-87500000D03*
X52100000Y-84960000D03*
X54640000Y-87500000D03*
X54640000Y-84960000D03*
X57180000Y-87500000D03*
X57180000Y-84960000D03*
X59720000Y-87500000D03*
X59720000Y-84960000D03*
X62260000Y-87500000D03*
X62260000Y-84960000D03*
X64800000Y-87500000D03*
X64800000Y-84960000D03*
X67340000Y-87500000D03*
X67340000Y-84960000D03*
X69880000Y-87500000D03*
X69880000Y-84960000D03*
X72420000Y-87500000D03*
X72420000Y-84960000D03*
X74960000Y-87500000D03*
X74960000Y-84960000D03*
X77500000Y-87500000D03*
X77500000Y-84960000D03*
X80040000Y-87500000D03*
X80040000Y-84960000D03*
X82580000Y-87500000D03*
X82580000Y-84960000D03*
X85120000Y-87500000D03*
X85120000Y-84960000D03*
X87660000Y-87500000D03*
X87660000Y-84960000D03*
X90200000Y-87500000D03*
X90200000Y-84960000D03*
X92740000Y-87500000D03*
X92740000Y-84960000D03*
X95280000Y-87500000D03*
X95280000Y-84960000D03*
X97820000Y-87500000D03*
X97820000Y-84960000D03*
X100360000Y-87500000D03*
X100360000Y-84960000D03*
X102900000Y-87500000D03*
X102900000Y-84960000D03*
X105440000Y-87500000D03*
X105440000Y-84960000D03*
X107980000Y-87500000D03*
X107980000Y-84960000D03*
D10*
X14000000Y-82500000D03*
D11*
X14000000Y-79960000D03*
X16540000Y-82500000D03*
X16540000Y-79960000D03*
X19080000Y-82500000D03*
X19080000Y-79960000D03*
X21620000Y-82500000D03*
X21620000Y-79960000D03*
X24160000Y-82500000D03*
X24160000Y-79960000D03*
X26700000Y-82500000D03*
X26700000Y-79960000D03*
X29240000Y-82500000D03*
X29240000Y-79960000D03*
X31780000Y-82500000D03*
X31780000Y-79960000D03*
X34320000Y-82500000D03*
X34320000Y-79960000D03*
X36860000Y-82500000D03*
X36860000Y-79960000D03*
X39400000Y-82500000D03*
X39400000Y-79960000D03*
X41940000Y-82500000D03*
X41940000Y-79960000D03*
X44480000Y-82500000D03*
X44480000Y-79960000D03*
X47020000Y-82500000D03*
X47020000Y-79960000D03*
X49560000Y-82500000D03*
X49560000Y-79960000D03*
X52100000Y-82500000D03*
X52100000Y-79960000D03*
X54640000Y-82500000D03*
X54640000Y-79960000D03*
X57180000Y-82500000D03*
X57180000Y-79960000D03*
X59720000Y-82500000D03*
X59720000Y-79960000D03*
X62260000Y-82500000D03*
X62260000Y-79960000D03*
X64800000Y-82500000D03*
X64800000Y-79960000D03*
X67340000Y-82500000D03*
X67340000Y-79960000D03*
X69880000Y-82500000D03*
X69880000Y-79960000D03*
X72420000Y-82500000D03*
X72420000Y-79960000D03*
X74960000Y-82500000D03*
X74960000Y-79960000D03*
X77500000Y-82500000D03*
X77500000Y-79960000D03*
X80040000Y-82500000D03*
X80040000Y-79960000D03*
X82580000Y-82500000D03*
X82580000Y-79960000D03*
X85120000Y-82500000D03*
X85120000Y-79960000D03*
X87660000Y-82500000D03*
X87660000Y-79960000D03*
X90200000Y-82500000D03*
X90200000Y-79960000D03*
X92740000Y-82500000D03*
X92740000Y-79960000D03*
X95280000Y-82500000D03*
X95280000Y-79960000D03*
X97820000Y-82500000D03*
X97820000Y-79960000D03*
X100360000Y-82500000D03*
X100360000Y-79960000D03*
X102900000Y-82500000D03*
X102900000Y-79960000D03*
X105440000Y-82500000D03*
X105440000Y-79960000D03*
X107980000Y-82500000D03*
X107980000Y-79960000D03*
D12*
X35880000Y-23020000D03*
D13*
X35880000Y-25560000D03*
X35880000Y-28100000D03*
X35880000Y-30640000D03*
X35880000Y-33180000D03*
X35880000Y-35720000D03*
X35880000Y-38260000D03*
X35880000Y-40800000D03*
X35880000Y-43340000D03*
X35880000Y-45880000D03*
X43500000Y-45880000D03*
X43500000Y-43340000D03*
X43500000Y-40800000D03*
X43500000Y-38260000D03*
X43500000Y-35720000D03*
X43500000Y-33180000D03*
X43500000Y-30640000D03*
X43500000Y-28100000D03*
X43500000Y-25560000D03*
X43500000Y-23020000D03*
D14*
X69000000Y-62250000D03*
X74000000Y-62250000D03*
D15*
X15000000Y-15000000D03*
D14*
X92000000Y-67250000D03*
X94500000Y-67250000D03*
D12*
X35880000Y-52140000D03*
D13*
X35880000Y-54680000D03*
X35880000Y-57220000D03*
X35880000Y-59760000D03*
X35880000Y-62300000D03*
X35880000Y-64840000D03*
X35880000Y-67380000D03*
X35880000Y-69920000D03*
X35880000Y-72460000D03*
X35880000Y-75000000D03*
X43500000Y-75000000D03*
X43500000Y-72460000D03*
X43500000Y-69920000D03*
X43500000Y-67380000D03*
X43500000Y-64840000D03*
X43500000Y-62300000D03*
X43500000Y-59760000D03*
X43500000Y-57220000D03*
X43500000Y-54680000D03*
X43500000Y-52140000D03*
D10*
X105000000Y-55800000D03*
D11*
X105000000Y-53260000D03*
X105000000Y-50720000D03*
X105000000Y-48180000D03*
D16*
X105000000Y-22210000D03*
D17*
X105000000Y-24750000D03*
X105000000Y-27290000D03*
X105000000Y-29830000D03*
X105000000Y-32370000D03*
X105000000Y-34910000D03*
X105000000Y-37450000D03*
X105000000Y-39990000D03*
X105000000Y-42530000D03*
D15*
X105000000Y-15000000D03*
D18*
X93240000Y-63050000D03*
X93240000Y-59250000D03*
D16*
X63500000Y-22830000D03*
D17*
X63500000Y-25370000D03*
X63500000Y-27910000D03*
X63500000Y-30450000D03*
X63500000Y-32990000D03*
X63500000Y-35530000D03*
X63500000Y-38070000D03*
X63500000Y-40610000D03*
X63500000Y-43150000D03*
X63500000Y-45690000D03*
X63500000Y-48230000D03*
X63500000Y-50770000D03*
X63500000Y-53310000D03*
X63500000Y-55850000D03*
X78740000Y-55850000D03*
X78740000Y-53310000D03*
X78740000Y-50770000D03*
X78740000Y-48230000D03*
X78740000Y-45690000D03*
X78740000Y-43150000D03*
X78740000Y-40610000D03*
X78740000Y-38070000D03*
X78740000Y-35530000D03*
X78740000Y-32990000D03*
X78740000Y-30450000D03*
X78740000Y-27910000D03*
X78740000Y-25370000D03*
X78740000Y-22830000D03*
D19*
X50500000Y-52130000D03*
D20*
X50500000Y-59750000D03*
D15*
X15000000Y-105000000D03*
D21*
X90000000Y-12750000D03*
X96500000Y-12750000D03*
X90000000Y-17250000D03*
X96500000Y-17250000D03*
D14*
X105000000Y-71000000D03*
X105000000Y-66000000D03*
D15*
X105000000Y-105000000D03*
D12*
X50740000Y-23090000D03*
D13*
X50740000Y-25630000D03*
X50740000Y-28170000D03*
X50740000Y-30710000D03*
X50740000Y-33250000D03*
X50740000Y-35790000D03*
X50740000Y-38330000D03*
X50740000Y-40870000D03*
X50740000Y-43410000D03*
X50740000Y-45950000D03*
X58360000Y-45950000D03*
X58360000Y-43410000D03*
X58360000Y-40870000D03*
X58360000Y-38330000D03*
X58360000Y-35790000D03*
X58360000Y-33250000D03*
X58360000Y-30710000D03*
X58360000Y-28170000D03*
X58360000Y-25630000D03*
X58360000Y-23090000D03*
D16*
X83000000Y-16205100D03*
D14*
X83000000Y-13705100D03*
D16*
X85500000Y-22370000D03*
D17*
X85500000Y-24910000D03*
X85500000Y-27450000D03*
X85500000Y-29990000D03*
X85500000Y-32530000D03*
X85500000Y-35070000D03*
X85500000Y-37610000D03*
X85500000Y-40150000D03*
X85500000Y-42690000D03*
X85500000Y-45230000D03*
X85500000Y-47770000D03*
X85500000Y-50310000D03*
X85500000Y-52850000D03*
X85500000Y-55390000D03*
X85500000Y-57930000D03*
X85500000Y-60470000D03*
X85500000Y-63010000D03*
X85500000Y-65550000D03*
X85500000Y-68090000D03*
X85500000Y-70630000D03*
X100740000Y-70630000D03*
X100740000Y-68090000D03*
X100740000Y-65550000D03*
X100740000Y-63010000D03*
X100740000Y-60470000D03*
X100740000Y-57930000D03*
X100740000Y-55390000D03*
X100740000Y-52850000D03*
X100740000Y-50310000D03*
X100740000Y-47770000D03*
X100740000Y-45230000D03*
X100740000Y-42690000D03*
X100740000Y-40150000D03*
X100740000Y-37610000D03*
X100740000Y-35070000D03*
X100740000Y-32530000D03*
X100740000Y-29990000D03*
X100740000Y-27450000D03*
X100740000Y-24910000D03*
X100740000Y-22370000D03*
D16*
X12875000Y-23000000D03*
D17*
X12875000Y-25540000D03*
X12875000Y-28080000D03*
X12875000Y-30620000D03*
X12875000Y-33160000D03*
X12875000Y-35700000D03*
X12875000Y-38240000D03*
X12875000Y-40780000D03*
X12875000Y-43320000D03*
X12875000Y-45860000D03*
X12875000Y-48400000D03*
X12875000Y-50940000D03*
X12875000Y-53480000D03*
X12875000Y-56020000D03*
X28115000Y-56020000D03*
X28115000Y-53480000D03*
X28115000Y-50940000D03*
X28115000Y-48400000D03*
X28115000Y-45860000D03*
X28115000Y-43320000D03*
X28115000Y-40780000D03*
X28115000Y-38240000D03*
X28115000Y-35700000D03*
X28115000Y-33160000D03*
X28115000Y-30620000D03*
X28115000Y-28080000D03*
X28115000Y-25540000D03*
X28115000Y-23000000D03*
D14*
X92000000Y-54750000D03*
X94500000Y-54750000D03*
X18000000Y-62500000D03*
X23000000Y-62500000D03*
D19*
X93500000Y-26000000D03*
D20*
X93500000Y-33620000D03*
M02*
