G04 #@! TF.GenerationSoftware,KiCad,Pcbnew,8.0.4*
G04 #@! TF.CreationDate,2024-07-31T10:58:34+02:00*
G04 #@! TF.ProjectId,esim,6573696d-2e6b-4696-9361-645f70636258,rev?*
G04 #@! TF.SameCoordinates,Original*
G04 #@! TF.FileFunction,Legend,Top*
G04 #@! TF.FilePolarity,Positive*
%FSLAX46Y46*%
G04 Gerber Fmt 4.6, Leading zero omitted, Abs format (unit mm)*
G04 Created by KiCad (PCBNEW 8.0.4) date 2024-07-31 10:58:34*
%MOMM*%
%LPD*%
G01*
G04 APERTURE LIST*
%ADD10C,0.150000*%
%ADD11C,0.120000*%
%ADD12R,1.700000X1.700000*%
%ADD13O,1.700000X1.700000*%
%ADD14R,2.400000X1.600000*%
%ADD15O,2.400000X1.600000*%
%ADD16C,1.600000*%
%ADD17C,5.300000*%
%ADD18R,1.600000X1.600000*%
%ADD19O,1.600000X1.600000*%
%ADD20C,1.500000*%
%ADD21C,1.400000*%
%ADD22O,1.400000X1.400000*%
%ADD23C,2.000000*%
G04 APERTURE END LIST*
D10*
X35475714Y-20144819D02*
X35475714Y-20954342D01*
X35475714Y-20954342D02*
X35523333Y-21049580D01*
X35523333Y-21049580D02*
X35570952Y-21097200D01*
X35570952Y-21097200D02*
X35666190Y-21144819D01*
X35666190Y-21144819D02*
X35856666Y-21144819D01*
X35856666Y-21144819D02*
X35951904Y-21097200D01*
X35951904Y-21097200D02*
X35999523Y-21049580D01*
X35999523Y-21049580D02*
X36047142Y-20954342D01*
X36047142Y-20954342D02*
X36047142Y-20144819D01*
X36951904Y-20478152D02*
X36951904Y-21144819D01*
X36713809Y-20097200D02*
X36475714Y-20811485D01*
X36475714Y-20811485D02*
X37094761Y-20811485D01*
X37475714Y-20763866D02*
X38237619Y-20763866D01*
X38666190Y-20859104D02*
X39142380Y-20859104D01*
X38570952Y-21144819D02*
X38904285Y-20144819D01*
X38904285Y-20144819D02*
X39237618Y-21144819D01*
X39570952Y-21144819D02*
X39570952Y-20144819D01*
X39570952Y-20144819D02*
X39809047Y-20144819D01*
X39809047Y-20144819D02*
X39951904Y-20192438D01*
X39951904Y-20192438D02*
X40047142Y-20287676D01*
X40047142Y-20287676D02*
X40094761Y-20382914D01*
X40094761Y-20382914D02*
X40142380Y-20573390D01*
X40142380Y-20573390D02*
X40142380Y-20716247D01*
X40142380Y-20716247D02*
X40094761Y-20906723D01*
X40094761Y-20906723D02*
X40047142Y-21001961D01*
X40047142Y-21001961D02*
X39951904Y-21097200D01*
X39951904Y-21097200D02*
X39809047Y-21144819D01*
X39809047Y-21144819D02*
X39570952Y-21144819D01*
X41142380Y-21144819D02*
X40809047Y-20668628D01*
X40570952Y-21144819D02*
X40570952Y-20144819D01*
X40570952Y-20144819D02*
X40951904Y-20144819D01*
X40951904Y-20144819D02*
X41047142Y-20192438D01*
X41047142Y-20192438D02*
X41094761Y-20240057D01*
X41094761Y-20240057D02*
X41142380Y-20335295D01*
X41142380Y-20335295D02*
X41142380Y-20478152D01*
X41142380Y-20478152D02*
X41094761Y-20573390D01*
X41094761Y-20573390D02*
X41047142Y-20621009D01*
X41047142Y-20621009D02*
X40951904Y-20668628D01*
X40951904Y-20668628D02*
X40570952Y-20668628D01*
X42047142Y-21144819D02*
X41570952Y-21144819D01*
X41570952Y-21144819D02*
X41570952Y-20144819D01*
X42570952Y-20144819D02*
X42761428Y-20144819D01*
X42761428Y-20144819D02*
X42856666Y-20192438D01*
X42856666Y-20192438D02*
X42951904Y-20287676D01*
X42951904Y-20287676D02*
X42999523Y-20478152D01*
X42999523Y-20478152D02*
X42999523Y-20811485D01*
X42999523Y-20811485D02*
X42951904Y-21001961D01*
X42951904Y-21001961D02*
X42856666Y-21097200D01*
X42856666Y-21097200D02*
X42761428Y-21144819D01*
X42761428Y-21144819D02*
X42570952Y-21144819D01*
X42570952Y-21144819D02*
X42475714Y-21097200D01*
X42475714Y-21097200D02*
X42380476Y-21001961D01*
X42380476Y-21001961D02*
X42332857Y-20811485D01*
X42332857Y-20811485D02*
X42332857Y-20478152D01*
X42332857Y-20478152D02*
X42380476Y-20287676D01*
X42380476Y-20287676D02*
X42475714Y-20192438D01*
X42475714Y-20192438D02*
X42570952Y-20144819D01*
X43951904Y-21144819D02*
X43380476Y-21144819D01*
X43666190Y-21144819D02*
X43666190Y-20144819D01*
X43666190Y-20144819D02*
X43570952Y-20287676D01*
X43570952Y-20287676D02*
X43475714Y-20382914D01*
X43475714Y-20382914D02*
X43380476Y-20430533D01*
X36570952Y-47664819D02*
X37237618Y-47664819D01*
X37237618Y-47664819D02*
X36809047Y-48664819D01*
X38047142Y-47998152D02*
X38047142Y-48664819D01*
X37809047Y-47617200D02*
X37570952Y-48331485D01*
X37570952Y-48331485D02*
X38189999Y-48331485D01*
X39047142Y-48664819D02*
X38570952Y-48664819D01*
X38570952Y-48664819D02*
X38570952Y-47664819D01*
X39332857Y-48617200D02*
X39475714Y-48664819D01*
X39475714Y-48664819D02*
X39713809Y-48664819D01*
X39713809Y-48664819D02*
X39809047Y-48617200D01*
X39809047Y-48617200D02*
X39856666Y-48569580D01*
X39856666Y-48569580D02*
X39904285Y-48474342D01*
X39904285Y-48474342D02*
X39904285Y-48379104D01*
X39904285Y-48379104D02*
X39856666Y-48283866D01*
X39856666Y-48283866D02*
X39809047Y-48236247D01*
X39809047Y-48236247D02*
X39713809Y-48188628D01*
X39713809Y-48188628D02*
X39523333Y-48141009D01*
X39523333Y-48141009D02*
X39428095Y-48093390D01*
X39428095Y-48093390D02*
X39380476Y-48045771D01*
X39380476Y-48045771D02*
X39332857Y-47950533D01*
X39332857Y-47950533D02*
X39332857Y-47855295D01*
X39332857Y-47855295D02*
X39380476Y-47760057D01*
X39380476Y-47760057D02*
X39428095Y-47712438D01*
X39428095Y-47712438D02*
X39523333Y-47664819D01*
X39523333Y-47664819D02*
X39761428Y-47664819D01*
X39761428Y-47664819D02*
X39904285Y-47712438D01*
X40285238Y-47760057D02*
X40332857Y-47712438D01*
X40332857Y-47712438D02*
X40428095Y-47664819D01*
X40428095Y-47664819D02*
X40666190Y-47664819D01*
X40666190Y-47664819D02*
X40761428Y-47712438D01*
X40761428Y-47712438D02*
X40809047Y-47760057D01*
X40809047Y-47760057D02*
X40856666Y-47855295D01*
X40856666Y-47855295D02*
X40856666Y-47950533D01*
X40856666Y-47950533D02*
X40809047Y-48093390D01*
X40809047Y-48093390D02*
X40237619Y-48664819D01*
X40237619Y-48664819D02*
X40856666Y-48664819D01*
X41713809Y-47998152D02*
X41713809Y-48664819D01*
X41475714Y-47617200D02*
X41237619Y-48331485D01*
X41237619Y-48331485D02*
X41856666Y-48331485D01*
X42713809Y-47664819D02*
X42237619Y-47664819D01*
X42237619Y-47664819D02*
X42190000Y-48141009D01*
X42190000Y-48141009D02*
X42237619Y-48093390D01*
X42237619Y-48093390D02*
X42332857Y-48045771D01*
X42332857Y-48045771D02*
X42570952Y-48045771D01*
X42570952Y-48045771D02*
X42666190Y-48093390D01*
X42666190Y-48093390D02*
X42713809Y-48141009D01*
X42713809Y-48141009D02*
X42761428Y-48236247D01*
X42761428Y-48236247D02*
X42761428Y-48474342D01*
X42761428Y-48474342D02*
X42713809Y-48569580D01*
X42713809Y-48569580D02*
X42666190Y-48617200D01*
X42666190Y-48617200D02*
X42570952Y-48664819D01*
X42570952Y-48664819D02*
X42332857Y-48664819D01*
X42332857Y-48664819D02*
X42237619Y-48617200D01*
X42237619Y-48617200D02*
X42190000Y-48569580D01*
X71333333Y-60109580D02*
X71285714Y-60157200D01*
X71285714Y-60157200D02*
X71142857Y-60204819D01*
X71142857Y-60204819D02*
X71047619Y-60204819D01*
X71047619Y-60204819D02*
X70904762Y-60157200D01*
X70904762Y-60157200D02*
X70809524Y-60061961D01*
X70809524Y-60061961D02*
X70761905Y-59966723D01*
X70761905Y-59966723D02*
X70714286Y-59776247D01*
X70714286Y-59776247D02*
X70714286Y-59633390D01*
X70714286Y-59633390D02*
X70761905Y-59442914D01*
X70761905Y-59442914D02*
X70809524Y-59347676D01*
X70809524Y-59347676D02*
X70904762Y-59252438D01*
X70904762Y-59252438D02*
X71047619Y-59204819D01*
X71047619Y-59204819D02*
X71142857Y-59204819D01*
X71142857Y-59204819D02*
X71285714Y-59252438D01*
X71285714Y-59252438D02*
X71333333Y-59300057D01*
X72190476Y-59204819D02*
X72000000Y-59204819D01*
X72000000Y-59204819D02*
X71904762Y-59252438D01*
X71904762Y-59252438D02*
X71857143Y-59300057D01*
X71857143Y-59300057D02*
X71761905Y-59442914D01*
X71761905Y-59442914D02*
X71714286Y-59633390D01*
X71714286Y-59633390D02*
X71714286Y-60014342D01*
X71714286Y-60014342D02*
X71761905Y-60109580D01*
X71761905Y-60109580D02*
X71809524Y-60157200D01*
X71809524Y-60157200D02*
X71904762Y-60204819D01*
X71904762Y-60204819D02*
X72095238Y-60204819D01*
X72095238Y-60204819D02*
X72190476Y-60157200D01*
X72190476Y-60157200D02*
X72238095Y-60109580D01*
X72238095Y-60109580D02*
X72285714Y-60014342D01*
X72285714Y-60014342D02*
X72285714Y-59776247D01*
X72285714Y-59776247D02*
X72238095Y-59681009D01*
X72238095Y-59681009D02*
X72190476Y-59633390D01*
X72190476Y-59633390D02*
X72095238Y-59585771D01*
X72095238Y-59585771D02*
X71904762Y-59585771D01*
X71904762Y-59585771D02*
X71809524Y-59633390D01*
X71809524Y-59633390D02*
X71761905Y-59681009D01*
X71761905Y-59681009D02*
X71714286Y-59776247D01*
X69952380Y-65204819D02*
X69380952Y-65204819D01*
X69666666Y-65204819D02*
X69666666Y-64204819D01*
X69666666Y-64204819D02*
X69571428Y-64347676D01*
X69571428Y-64347676D02*
X69476190Y-64442914D01*
X69476190Y-64442914D02*
X69380952Y-64490533D01*
X70571428Y-64204819D02*
X70666666Y-64204819D01*
X70666666Y-64204819D02*
X70761904Y-64252438D01*
X70761904Y-64252438D02*
X70809523Y-64300057D01*
X70809523Y-64300057D02*
X70857142Y-64395295D01*
X70857142Y-64395295D02*
X70904761Y-64585771D01*
X70904761Y-64585771D02*
X70904761Y-64823866D01*
X70904761Y-64823866D02*
X70857142Y-65014342D01*
X70857142Y-65014342D02*
X70809523Y-65109580D01*
X70809523Y-65109580D02*
X70761904Y-65157200D01*
X70761904Y-65157200D02*
X70666666Y-65204819D01*
X70666666Y-65204819D02*
X70571428Y-65204819D01*
X70571428Y-65204819D02*
X70476190Y-65157200D01*
X70476190Y-65157200D02*
X70428571Y-65109580D01*
X70428571Y-65109580D02*
X70380952Y-65014342D01*
X70380952Y-65014342D02*
X70333333Y-64823866D01*
X70333333Y-64823866D02*
X70333333Y-64585771D01*
X70333333Y-64585771D02*
X70380952Y-64395295D01*
X70380952Y-64395295D02*
X70428571Y-64300057D01*
X70428571Y-64300057D02*
X70476190Y-64252438D01*
X70476190Y-64252438D02*
X70571428Y-64204819D01*
X71523809Y-64204819D02*
X71619047Y-64204819D01*
X71619047Y-64204819D02*
X71714285Y-64252438D01*
X71714285Y-64252438D02*
X71761904Y-64300057D01*
X71761904Y-64300057D02*
X71809523Y-64395295D01*
X71809523Y-64395295D02*
X71857142Y-64585771D01*
X71857142Y-64585771D02*
X71857142Y-64823866D01*
X71857142Y-64823866D02*
X71809523Y-65014342D01*
X71809523Y-65014342D02*
X71761904Y-65109580D01*
X71761904Y-65109580D02*
X71714285Y-65157200D01*
X71714285Y-65157200D02*
X71619047Y-65204819D01*
X71619047Y-65204819D02*
X71523809Y-65204819D01*
X71523809Y-65204819D02*
X71428571Y-65157200D01*
X71428571Y-65157200D02*
X71380952Y-65109580D01*
X71380952Y-65109580D02*
X71333333Y-65014342D01*
X71333333Y-65014342D02*
X71285714Y-64823866D01*
X71285714Y-64823866D02*
X71285714Y-64585771D01*
X71285714Y-64585771D02*
X71333333Y-64395295D01*
X71333333Y-64395295D02*
X71380952Y-64300057D01*
X71380952Y-64300057D02*
X71428571Y-64252438D01*
X71428571Y-64252438D02*
X71523809Y-64204819D01*
X72285714Y-64538152D02*
X72285714Y-65204819D01*
X72285714Y-64633390D02*
X72333333Y-64585771D01*
X72333333Y-64585771D02*
X72428571Y-64538152D01*
X72428571Y-64538152D02*
X72571428Y-64538152D01*
X72571428Y-64538152D02*
X72666666Y-64585771D01*
X72666666Y-64585771D02*
X72714285Y-64681009D01*
X72714285Y-64681009D02*
X72714285Y-65204819D01*
X73523809Y-64681009D02*
X73190476Y-64681009D01*
X73190476Y-65204819D02*
X73190476Y-64204819D01*
X73190476Y-64204819D02*
X73666666Y-64204819D01*
X90359580Y-67416666D02*
X90407200Y-67464285D01*
X90407200Y-67464285D02*
X90454819Y-67607142D01*
X90454819Y-67607142D02*
X90454819Y-67702380D01*
X90454819Y-67702380D02*
X90407200Y-67845237D01*
X90407200Y-67845237D02*
X90311961Y-67940475D01*
X90311961Y-67940475D02*
X90216723Y-67988094D01*
X90216723Y-67988094D02*
X90026247Y-68035713D01*
X90026247Y-68035713D02*
X89883390Y-68035713D01*
X89883390Y-68035713D02*
X89692914Y-67988094D01*
X89692914Y-67988094D02*
X89597676Y-67940475D01*
X89597676Y-67940475D02*
X89502438Y-67845237D01*
X89502438Y-67845237D02*
X89454819Y-67702380D01*
X89454819Y-67702380D02*
X89454819Y-67607142D01*
X89454819Y-67607142D02*
X89502438Y-67464285D01*
X89502438Y-67464285D02*
X89550057Y-67416666D01*
X89550057Y-67035713D02*
X89502438Y-66988094D01*
X89502438Y-66988094D02*
X89454819Y-66892856D01*
X89454819Y-66892856D02*
X89454819Y-66654761D01*
X89454819Y-66654761D02*
X89502438Y-66559523D01*
X89502438Y-66559523D02*
X89550057Y-66511904D01*
X89550057Y-66511904D02*
X89645295Y-66464285D01*
X89645295Y-66464285D02*
X89740533Y-66464285D01*
X89740533Y-66464285D02*
X89883390Y-66511904D01*
X89883390Y-66511904D02*
X90454819Y-67083332D01*
X90454819Y-67083332D02*
X90454819Y-66464285D01*
X91702381Y-68754819D02*
X92321428Y-68754819D01*
X92321428Y-68754819D02*
X91988095Y-69135771D01*
X91988095Y-69135771D02*
X92130952Y-69135771D01*
X92130952Y-69135771D02*
X92226190Y-69183390D01*
X92226190Y-69183390D02*
X92273809Y-69231009D01*
X92273809Y-69231009D02*
X92321428Y-69326247D01*
X92321428Y-69326247D02*
X92321428Y-69564342D01*
X92321428Y-69564342D02*
X92273809Y-69659580D01*
X92273809Y-69659580D02*
X92226190Y-69707200D01*
X92226190Y-69707200D02*
X92130952Y-69754819D01*
X92130952Y-69754819D02*
X91845238Y-69754819D01*
X91845238Y-69754819D02*
X91750000Y-69707200D01*
X91750000Y-69707200D02*
X91702381Y-69659580D01*
X92940476Y-68754819D02*
X93035714Y-68754819D01*
X93035714Y-68754819D02*
X93130952Y-68802438D01*
X93130952Y-68802438D02*
X93178571Y-68850057D01*
X93178571Y-68850057D02*
X93226190Y-68945295D01*
X93226190Y-68945295D02*
X93273809Y-69135771D01*
X93273809Y-69135771D02*
X93273809Y-69373866D01*
X93273809Y-69373866D02*
X93226190Y-69564342D01*
X93226190Y-69564342D02*
X93178571Y-69659580D01*
X93178571Y-69659580D02*
X93130952Y-69707200D01*
X93130952Y-69707200D02*
X93035714Y-69754819D01*
X93035714Y-69754819D02*
X92940476Y-69754819D01*
X92940476Y-69754819D02*
X92845238Y-69707200D01*
X92845238Y-69707200D02*
X92797619Y-69659580D01*
X92797619Y-69659580D02*
X92750000Y-69564342D01*
X92750000Y-69564342D02*
X92702381Y-69373866D01*
X92702381Y-69373866D02*
X92702381Y-69135771D01*
X92702381Y-69135771D02*
X92750000Y-68945295D01*
X92750000Y-68945295D02*
X92797619Y-68850057D01*
X92797619Y-68850057D02*
X92845238Y-68802438D01*
X92845238Y-68802438D02*
X92940476Y-68754819D01*
X93702381Y-69088152D02*
X93702381Y-69754819D01*
X93702381Y-69183390D02*
X93750000Y-69135771D01*
X93750000Y-69135771D02*
X93845238Y-69088152D01*
X93845238Y-69088152D02*
X93988095Y-69088152D01*
X93988095Y-69088152D02*
X94083333Y-69135771D01*
X94083333Y-69135771D02*
X94130952Y-69231009D01*
X94130952Y-69231009D02*
X94130952Y-69754819D01*
X94464286Y-69088152D02*
X94845238Y-69088152D01*
X94607143Y-69754819D02*
X94607143Y-68897676D01*
X94607143Y-68897676D02*
X94654762Y-68802438D01*
X94654762Y-68802438D02*
X94750000Y-68754819D01*
X94750000Y-68754819D02*
X94845238Y-68754819D01*
X36094762Y-49264819D02*
X36094762Y-50074342D01*
X36094762Y-50074342D02*
X36142381Y-50169580D01*
X36142381Y-50169580D02*
X36190000Y-50217200D01*
X36190000Y-50217200D02*
X36285238Y-50264819D01*
X36285238Y-50264819D02*
X36475714Y-50264819D01*
X36475714Y-50264819D02*
X36570952Y-50217200D01*
X36570952Y-50217200D02*
X36618571Y-50169580D01*
X36618571Y-50169580D02*
X36666190Y-50074342D01*
X36666190Y-50074342D02*
X36666190Y-49264819D01*
X37570952Y-49264819D02*
X37380476Y-49264819D01*
X37380476Y-49264819D02*
X37285238Y-49312438D01*
X37285238Y-49312438D02*
X37237619Y-49360057D01*
X37237619Y-49360057D02*
X37142381Y-49502914D01*
X37142381Y-49502914D02*
X37094762Y-49693390D01*
X37094762Y-49693390D02*
X37094762Y-50074342D01*
X37094762Y-50074342D02*
X37142381Y-50169580D01*
X37142381Y-50169580D02*
X37190000Y-50217200D01*
X37190000Y-50217200D02*
X37285238Y-50264819D01*
X37285238Y-50264819D02*
X37475714Y-50264819D01*
X37475714Y-50264819D02*
X37570952Y-50217200D01*
X37570952Y-50217200D02*
X37618571Y-50169580D01*
X37618571Y-50169580D02*
X37666190Y-50074342D01*
X37666190Y-50074342D02*
X37666190Y-49836247D01*
X37666190Y-49836247D02*
X37618571Y-49741009D01*
X37618571Y-49741009D02*
X37570952Y-49693390D01*
X37570952Y-49693390D02*
X37475714Y-49645771D01*
X37475714Y-49645771D02*
X37285238Y-49645771D01*
X37285238Y-49645771D02*
X37190000Y-49693390D01*
X37190000Y-49693390D02*
X37142381Y-49741009D01*
X37142381Y-49741009D02*
X37094762Y-49836247D01*
X38094762Y-49883866D02*
X38856667Y-49883866D01*
X39332857Y-50264819D02*
X39332857Y-49264819D01*
X39332857Y-49264819D02*
X39570952Y-49264819D01*
X39570952Y-49264819D02*
X39713809Y-49312438D01*
X39713809Y-49312438D02*
X39809047Y-49407676D01*
X39809047Y-49407676D02*
X39856666Y-49502914D01*
X39856666Y-49502914D02*
X39904285Y-49693390D01*
X39904285Y-49693390D02*
X39904285Y-49836247D01*
X39904285Y-49836247D02*
X39856666Y-50026723D01*
X39856666Y-50026723D02*
X39809047Y-50121961D01*
X39809047Y-50121961D02*
X39713809Y-50217200D01*
X39713809Y-50217200D02*
X39570952Y-50264819D01*
X39570952Y-50264819D02*
X39332857Y-50264819D01*
X40285238Y-49979104D02*
X40761428Y-49979104D01*
X40190000Y-50264819D02*
X40523333Y-49264819D01*
X40523333Y-49264819D02*
X40856666Y-50264819D01*
X41047143Y-49264819D02*
X41618571Y-49264819D01*
X41332857Y-50264819D02*
X41332857Y-49264819D01*
X41904286Y-49979104D02*
X42380476Y-49979104D01*
X41809048Y-50264819D02*
X42142381Y-49264819D01*
X42142381Y-49264819D02*
X42475714Y-50264819D01*
X43332857Y-50264819D02*
X42761429Y-50264819D01*
X43047143Y-50264819D02*
X43047143Y-49264819D01*
X43047143Y-49264819D02*
X42951905Y-49407676D01*
X42951905Y-49407676D02*
X42856667Y-49502914D01*
X42856667Y-49502914D02*
X42761429Y-49550533D01*
X36570952Y-76784819D02*
X37237618Y-76784819D01*
X37237618Y-76784819D02*
X36809047Y-77784819D01*
X38047142Y-77118152D02*
X38047142Y-77784819D01*
X37809047Y-76737200D02*
X37570952Y-77451485D01*
X37570952Y-77451485D02*
X38189999Y-77451485D01*
X39047142Y-77784819D02*
X38570952Y-77784819D01*
X38570952Y-77784819D02*
X38570952Y-76784819D01*
X39332857Y-77737200D02*
X39475714Y-77784819D01*
X39475714Y-77784819D02*
X39713809Y-77784819D01*
X39713809Y-77784819D02*
X39809047Y-77737200D01*
X39809047Y-77737200D02*
X39856666Y-77689580D01*
X39856666Y-77689580D02*
X39904285Y-77594342D01*
X39904285Y-77594342D02*
X39904285Y-77499104D01*
X39904285Y-77499104D02*
X39856666Y-77403866D01*
X39856666Y-77403866D02*
X39809047Y-77356247D01*
X39809047Y-77356247D02*
X39713809Y-77308628D01*
X39713809Y-77308628D02*
X39523333Y-77261009D01*
X39523333Y-77261009D02*
X39428095Y-77213390D01*
X39428095Y-77213390D02*
X39380476Y-77165771D01*
X39380476Y-77165771D02*
X39332857Y-77070533D01*
X39332857Y-77070533D02*
X39332857Y-76975295D01*
X39332857Y-76975295D02*
X39380476Y-76880057D01*
X39380476Y-76880057D02*
X39428095Y-76832438D01*
X39428095Y-76832438D02*
X39523333Y-76784819D01*
X39523333Y-76784819D02*
X39761428Y-76784819D01*
X39761428Y-76784819D02*
X39904285Y-76832438D01*
X40285238Y-76880057D02*
X40332857Y-76832438D01*
X40332857Y-76832438D02*
X40428095Y-76784819D01*
X40428095Y-76784819D02*
X40666190Y-76784819D01*
X40666190Y-76784819D02*
X40761428Y-76832438D01*
X40761428Y-76832438D02*
X40809047Y-76880057D01*
X40809047Y-76880057D02*
X40856666Y-76975295D01*
X40856666Y-76975295D02*
X40856666Y-77070533D01*
X40856666Y-77070533D02*
X40809047Y-77213390D01*
X40809047Y-77213390D02*
X40237619Y-77784819D01*
X40237619Y-77784819D02*
X40856666Y-77784819D01*
X41713809Y-77118152D02*
X41713809Y-77784819D01*
X41475714Y-76737200D02*
X41237619Y-77451485D01*
X41237619Y-77451485D02*
X41856666Y-77451485D01*
X42713809Y-76784819D02*
X42237619Y-76784819D01*
X42237619Y-76784819D02*
X42190000Y-77261009D01*
X42190000Y-77261009D02*
X42237619Y-77213390D01*
X42237619Y-77213390D02*
X42332857Y-77165771D01*
X42332857Y-77165771D02*
X42570952Y-77165771D01*
X42570952Y-77165771D02*
X42666190Y-77213390D01*
X42666190Y-77213390D02*
X42713809Y-77261009D01*
X42713809Y-77261009D02*
X42761428Y-77356247D01*
X42761428Y-77356247D02*
X42761428Y-77594342D01*
X42761428Y-77594342D02*
X42713809Y-77689580D01*
X42713809Y-77689580D02*
X42666190Y-77737200D01*
X42666190Y-77737200D02*
X42570952Y-77784819D01*
X42570952Y-77784819D02*
X42332857Y-77784819D01*
X42332857Y-77784819D02*
X42237619Y-77737200D01*
X42237619Y-77737200D02*
X42190000Y-77689580D01*
X104666666Y-57584819D02*
X104666666Y-58299104D01*
X104666666Y-58299104D02*
X104619047Y-58441961D01*
X104619047Y-58441961D02*
X104523809Y-58537200D01*
X104523809Y-58537200D02*
X104380952Y-58584819D01*
X104380952Y-58584819D02*
X104285714Y-58584819D01*
X105666666Y-58584819D02*
X105095238Y-58584819D01*
X105380952Y-58584819D02*
X105380952Y-57584819D01*
X105380952Y-57584819D02*
X105285714Y-57727676D01*
X105285714Y-57727676D02*
X105190476Y-57822914D01*
X105190476Y-57822914D02*
X105095238Y-57870533D01*
X107502438Y-57657143D02*
X107454819Y-57752381D01*
X107454819Y-57752381D02*
X107454819Y-57895238D01*
X107454819Y-57895238D02*
X107502438Y-58038095D01*
X107502438Y-58038095D02*
X107597676Y-58133333D01*
X107597676Y-58133333D02*
X107692914Y-58180952D01*
X107692914Y-58180952D02*
X107883390Y-58228571D01*
X107883390Y-58228571D02*
X108026247Y-58228571D01*
X108026247Y-58228571D02*
X108216723Y-58180952D01*
X108216723Y-58180952D02*
X108311961Y-58133333D01*
X108311961Y-58133333D02*
X108407200Y-58038095D01*
X108407200Y-58038095D02*
X108454819Y-57895238D01*
X108454819Y-57895238D02*
X108454819Y-57800000D01*
X108454819Y-57800000D02*
X108407200Y-57657143D01*
X108407200Y-57657143D02*
X108359580Y-57609524D01*
X108359580Y-57609524D02*
X108026247Y-57609524D01*
X108026247Y-57609524D02*
X108026247Y-57800000D01*
X108454819Y-57180952D02*
X107454819Y-57180952D01*
X107454819Y-57180952D02*
X108454819Y-56609524D01*
X108454819Y-56609524D02*
X107454819Y-56609524D01*
X108454819Y-56133333D02*
X107454819Y-56133333D01*
X107454819Y-56133333D02*
X107454819Y-55895238D01*
X107454819Y-55895238D02*
X107502438Y-55752381D01*
X107502438Y-55752381D02*
X107597676Y-55657143D01*
X107597676Y-55657143D02*
X107692914Y-55609524D01*
X107692914Y-55609524D02*
X107883390Y-55561905D01*
X107883390Y-55561905D02*
X108026247Y-55561905D01*
X108026247Y-55561905D02*
X108216723Y-55609524D01*
X108216723Y-55609524D02*
X108311961Y-55657143D01*
X108311961Y-55657143D02*
X108407200Y-55752381D01*
X108407200Y-55752381D02*
X108454819Y-55895238D01*
X108454819Y-55895238D02*
X108454819Y-56133333D01*
X108073866Y-54371428D02*
X108073866Y-53609524D01*
X108454819Y-53990476D02*
X107692914Y-53990476D01*
X107454819Y-52514285D02*
X107454819Y-51942857D01*
X108454819Y-52228571D02*
X107454819Y-52228571D01*
X107454819Y-51704761D02*
X108454819Y-51038095D01*
X107454819Y-51038095D02*
X108454819Y-51704761D01*
X108454819Y-50657142D02*
X107454819Y-50657142D01*
X107454819Y-50657142D02*
X107454819Y-50419047D01*
X107454819Y-50419047D02*
X107502438Y-50276190D01*
X107502438Y-50276190D02*
X107597676Y-50180952D01*
X107597676Y-50180952D02*
X107692914Y-50133333D01*
X107692914Y-50133333D02*
X107883390Y-50085714D01*
X107883390Y-50085714D02*
X108026247Y-50085714D01*
X108026247Y-50085714D02*
X108216723Y-50133333D01*
X108216723Y-50133333D02*
X108311961Y-50180952D01*
X108311961Y-50180952D02*
X108407200Y-50276190D01*
X108407200Y-50276190D02*
X108454819Y-50419047D01*
X108454819Y-50419047D02*
X108454819Y-50657142D01*
X108454819Y-48323809D02*
X107978628Y-48657142D01*
X108454819Y-48895237D02*
X107454819Y-48895237D01*
X107454819Y-48895237D02*
X107454819Y-48514285D01*
X107454819Y-48514285D02*
X107502438Y-48419047D01*
X107502438Y-48419047D02*
X107550057Y-48371428D01*
X107550057Y-48371428D02*
X107645295Y-48323809D01*
X107645295Y-48323809D02*
X107788152Y-48323809D01*
X107788152Y-48323809D02*
X107883390Y-48371428D01*
X107883390Y-48371428D02*
X107931009Y-48419047D01*
X107931009Y-48419047D02*
X107978628Y-48514285D01*
X107978628Y-48514285D02*
X107978628Y-48895237D01*
X107454819Y-47990475D02*
X108454819Y-47323809D01*
X107454819Y-47323809D02*
X108454819Y-47990475D01*
X108454819Y-46942856D02*
X107454819Y-46942856D01*
X107454819Y-46942856D02*
X107454819Y-46704761D01*
X107454819Y-46704761D02*
X107502438Y-46561904D01*
X107502438Y-46561904D02*
X107597676Y-46466666D01*
X107597676Y-46466666D02*
X107692914Y-46419047D01*
X107692914Y-46419047D02*
X107883390Y-46371428D01*
X107883390Y-46371428D02*
X108026247Y-46371428D01*
X108026247Y-46371428D02*
X108216723Y-46419047D01*
X108216723Y-46419047D02*
X108311961Y-46466666D01*
X108311961Y-46466666D02*
X108407200Y-46561904D01*
X108407200Y-46561904D02*
X108454819Y-46704761D01*
X108454819Y-46704761D02*
X108454819Y-46942856D01*
X107954819Y-34345238D02*
X107954819Y-34916666D01*
X107954819Y-34630952D02*
X106954819Y-34630952D01*
X106954819Y-34630952D02*
X107097676Y-34726190D01*
X107097676Y-34726190D02*
X107192914Y-34821428D01*
X107192914Y-34821428D02*
X107240533Y-34916666D01*
X106954819Y-33726190D02*
X106954819Y-33630952D01*
X106954819Y-33630952D02*
X107002438Y-33535714D01*
X107002438Y-33535714D02*
X107050057Y-33488095D01*
X107050057Y-33488095D02*
X107145295Y-33440476D01*
X107145295Y-33440476D02*
X107335771Y-33392857D01*
X107335771Y-33392857D02*
X107573866Y-33392857D01*
X107573866Y-33392857D02*
X107764342Y-33440476D01*
X107764342Y-33440476D02*
X107859580Y-33488095D01*
X107859580Y-33488095D02*
X107907200Y-33535714D01*
X107907200Y-33535714D02*
X107954819Y-33630952D01*
X107954819Y-33630952D02*
X107954819Y-33726190D01*
X107954819Y-33726190D02*
X107907200Y-33821428D01*
X107907200Y-33821428D02*
X107859580Y-33869047D01*
X107859580Y-33869047D02*
X107764342Y-33916666D01*
X107764342Y-33916666D02*
X107573866Y-33964285D01*
X107573866Y-33964285D02*
X107335771Y-33964285D01*
X107335771Y-33964285D02*
X107145295Y-33916666D01*
X107145295Y-33916666D02*
X107050057Y-33869047D01*
X107050057Y-33869047D02*
X107002438Y-33821428D01*
X107002438Y-33821428D02*
X106954819Y-33726190D01*
X107954819Y-32964285D02*
X106954819Y-32964285D01*
X107573866Y-32869047D02*
X107954819Y-32583333D01*
X107288152Y-32583333D02*
X107669104Y-32964285D01*
X107954819Y-37940476D02*
X107478628Y-38273809D01*
X107954819Y-38511904D02*
X106954819Y-38511904D01*
X106954819Y-38511904D02*
X106954819Y-38130952D01*
X106954819Y-38130952D02*
X107002438Y-38035714D01*
X107002438Y-38035714D02*
X107050057Y-37988095D01*
X107050057Y-37988095D02*
X107145295Y-37940476D01*
X107145295Y-37940476D02*
X107288152Y-37940476D01*
X107288152Y-37940476D02*
X107383390Y-37988095D01*
X107383390Y-37988095D02*
X107431009Y-38035714D01*
X107431009Y-38035714D02*
X107478628Y-38130952D01*
X107478628Y-38130952D02*
X107478628Y-38511904D01*
X107954819Y-37511904D02*
X106954819Y-37511904D01*
X106954819Y-37511904D02*
X107954819Y-36940476D01*
X107954819Y-36940476D02*
X106954819Y-36940476D01*
X107954819Y-35940476D02*
X107954819Y-36511904D01*
X107954819Y-36226190D02*
X106954819Y-36226190D01*
X106954819Y-36226190D02*
X107097676Y-36321428D01*
X107097676Y-36321428D02*
X107192914Y-36416666D01*
X107192914Y-36416666D02*
X107240533Y-36511904D01*
X90368628Y-61726190D02*
X90844819Y-61726190D01*
X89844819Y-62059523D02*
X90368628Y-61726190D01*
X90368628Y-61726190D02*
X89844819Y-61392857D01*
X90844819Y-60535714D02*
X90844819Y-61107142D01*
X90844819Y-60821428D02*
X89844819Y-60821428D01*
X89844819Y-60821428D02*
X89987676Y-60916666D01*
X89987676Y-60916666D02*
X90082914Y-61011904D01*
X90082914Y-61011904D02*
X90130533Y-61107142D01*
X70358095Y-19954819D02*
X70358095Y-20764342D01*
X70358095Y-20764342D02*
X70405714Y-20859580D01*
X70405714Y-20859580D02*
X70453333Y-20907200D01*
X70453333Y-20907200D02*
X70548571Y-20954819D01*
X70548571Y-20954819D02*
X70739047Y-20954819D01*
X70739047Y-20954819D02*
X70834285Y-20907200D01*
X70834285Y-20907200D02*
X70881904Y-20859580D01*
X70881904Y-20859580D02*
X70929523Y-20764342D01*
X70929523Y-20764342D02*
X70929523Y-19954819D01*
X71358095Y-20050057D02*
X71405714Y-20002438D01*
X71405714Y-20002438D02*
X71500952Y-19954819D01*
X71500952Y-19954819D02*
X71739047Y-19954819D01*
X71739047Y-19954819D02*
X71834285Y-20002438D01*
X71834285Y-20002438D02*
X71881904Y-20050057D01*
X71881904Y-20050057D02*
X71929523Y-20145295D01*
X71929523Y-20145295D02*
X71929523Y-20240533D01*
X71929523Y-20240533D02*
X71881904Y-20383390D01*
X71881904Y-20383390D02*
X71310476Y-20954819D01*
X71310476Y-20954819D02*
X71929523Y-20954819D01*
X66048571Y-58539580D02*
X66000952Y-58587200D01*
X66000952Y-58587200D02*
X65858095Y-58634819D01*
X65858095Y-58634819D02*
X65762857Y-58634819D01*
X65762857Y-58634819D02*
X65620000Y-58587200D01*
X65620000Y-58587200D02*
X65524762Y-58491961D01*
X65524762Y-58491961D02*
X65477143Y-58396723D01*
X65477143Y-58396723D02*
X65429524Y-58206247D01*
X65429524Y-58206247D02*
X65429524Y-58063390D01*
X65429524Y-58063390D02*
X65477143Y-57872914D01*
X65477143Y-57872914D02*
X65524762Y-57777676D01*
X65524762Y-57777676D02*
X65620000Y-57682438D01*
X65620000Y-57682438D02*
X65762857Y-57634819D01*
X65762857Y-57634819D02*
X65858095Y-57634819D01*
X65858095Y-57634819D02*
X66000952Y-57682438D01*
X66000952Y-57682438D02*
X66048571Y-57730057D01*
X66667619Y-58158628D02*
X66667619Y-58634819D01*
X66334286Y-57634819D02*
X66667619Y-58158628D01*
X66667619Y-58158628D02*
X67000952Y-57634819D01*
X67762857Y-57634819D02*
X67572381Y-57634819D01*
X67572381Y-57634819D02*
X67477143Y-57682438D01*
X67477143Y-57682438D02*
X67429524Y-57730057D01*
X67429524Y-57730057D02*
X67334286Y-57872914D01*
X67334286Y-57872914D02*
X67286667Y-58063390D01*
X67286667Y-58063390D02*
X67286667Y-58444342D01*
X67286667Y-58444342D02*
X67334286Y-58539580D01*
X67334286Y-58539580D02*
X67381905Y-58587200D01*
X67381905Y-58587200D02*
X67477143Y-58634819D01*
X67477143Y-58634819D02*
X67667619Y-58634819D01*
X67667619Y-58634819D02*
X67762857Y-58587200D01*
X67762857Y-58587200D02*
X67810476Y-58539580D01*
X67810476Y-58539580D02*
X67858095Y-58444342D01*
X67858095Y-58444342D02*
X67858095Y-58206247D01*
X67858095Y-58206247D02*
X67810476Y-58111009D01*
X67810476Y-58111009D02*
X67762857Y-58063390D01*
X67762857Y-58063390D02*
X67667619Y-58015771D01*
X67667619Y-58015771D02*
X67477143Y-58015771D01*
X67477143Y-58015771D02*
X67381905Y-58063390D01*
X67381905Y-58063390D02*
X67334286Y-58111009D01*
X67334286Y-58111009D02*
X67286667Y-58206247D01*
X68239048Y-57730057D02*
X68286667Y-57682438D01*
X68286667Y-57682438D02*
X68381905Y-57634819D01*
X68381905Y-57634819D02*
X68620000Y-57634819D01*
X68620000Y-57634819D02*
X68715238Y-57682438D01*
X68715238Y-57682438D02*
X68762857Y-57730057D01*
X68762857Y-57730057D02*
X68810476Y-57825295D01*
X68810476Y-57825295D02*
X68810476Y-57920533D01*
X68810476Y-57920533D02*
X68762857Y-58063390D01*
X68762857Y-58063390D02*
X68191429Y-58634819D01*
X68191429Y-58634819D02*
X68810476Y-58634819D01*
X69191429Y-57730057D02*
X69239048Y-57682438D01*
X69239048Y-57682438D02*
X69334286Y-57634819D01*
X69334286Y-57634819D02*
X69572381Y-57634819D01*
X69572381Y-57634819D02*
X69667619Y-57682438D01*
X69667619Y-57682438D02*
X69715238Y-57730057D01*
X69715238Y-57730057D02*
X69762857Y-57825295D01*
X69762857Y-57825295D02*
X69762857Y-57920533D01*
X69762857Y-57920533D02*
X69715238Y-58063390D01*
X69715238Y-58063390D02*
X69143810Y-58634819D01*
X69143810Y-58634819D02*
X69762857Y-58634819D01*
X70667619Y-57634819D02*
X70191429Y-57634819D01*
X70191429Y-57634819D02*
X70143810Y-58111009D01*
X70143810Y-58111009D02*
X70191429Y-58063390D01*
X70191429Y-58063390D02*
X70286667Y-58015771D01*
X70286667Y-58015771D02*
X70524762Y-58015771D01*
X70524762Y-58015771D02*
X70620000Y-58063390D01*
X70620000Y-58063390D02*
X70667619Y-58111009D01*
X70667619Y-58111009D02*
X70715238Y-58206247D01*
X70715238Y-58206247D02*
X70715238Y-58444342D01*
X70715238Y-58444342D02*
X70667619Y-58539580D01*
X70667619Y-58539580D02*
X70620000Y-58587200D01*
X70620000Y-58587200D02*
X70524762Y-58634819D01*
X70524762Y-58634819D02*
X70286667Y-58634819D01*
X70286667Y-58634819D02*
X70191429Y-58587200D01*
X70191429Y-58587200D02*
X70143810Y-58539580D01*
X71572381Y-57634819D02*
X71381905Y-57634819D01*
X71381905Y-57634819D02*
X71286667Y-57682438D01*
X71286667Y-57682438D02*
X71239048Y-57730057D01*
X71239048Y-57730057D02*
X71143810Y-57872914D01*
X71143810Y-57872914D02*
X71096191Y-58063390D01*
X71096191Y-58063390D02*
X71096191Y-58444342D01*
X71096191Y-58444342D02*
X71143810Y-58539580D01*
X71143810Y-58539580D02*
X71191429Y-58587200D01*
X71191429Y-58587200D02*
X71286667Y-58634819D01*
X71286667Y-58634819D02*
X71477143Y-58634819D01*
X71477143Y-58634819D02*
X71572381Y-58587200D01*
X71572381Y-58587200D02*
X71620000Y-58539580D01*
X71620000Y-58539580D02*
X71667619Y-58444342D01*
X71667619Y-58444342D02*
X71667619Y-58206247D01*
X71667619Y-58206247D02*
X71620000Y-58111009D01*
X71620000Y-58111009D02*
X71572381Y-58063390D01*
X71572381Y-58063390D02*
X71477143Y-58015771D01*
X71477143Y-58015771D02*
X71286667Y-58015771D01*
X71286667Y-58015771D02*
X71191429Y-58063390D01*
X71191429Y-58063390D02*
X71143810Y-58111009D01*
X71143810Y-58111009D02*
X71096191Y-58206247D01*
X72096191Y-58253866D02*
X72858096Y-58253866D01*
X73239048Y-57634819D02*
X73905714Y-57634819D01*
X73905714Y-57634819D02*
X73477143Y-58634819D01*
X74477143Y-57634819D02*
X74572381Y-57634819D01*
X74572381Y-57634819D02*
X74667619Y-57682438D01*
X74667619Y-57682438D02*
X74715238Y-57730057D01*
X74715238Y-57730057D02*
X74762857Y-57825295D01*
X74762857Y-57825295D02*
X74810476Y-58015771D01*
X74810476Y-58015771D02*
X74810476Y-58253866D01*
X74810476Y-58253866D02*
X74762857Y-58444342D01*
X74762857Y-58444342D02*
X74715238Y-58539580D01*
X74715238Y-58539580D02*
X74667619Y-58587200D01*
X74667619Y-58587200D02*
X74572381Y-58634819D01*
X74572381Y-58634819D02*
X74477143Y-58634819D01*
X74477143Y-58634819D02*
X74381905Y-58587200D01*
X74381905Y-58587200D02*
X74334286Y-58539580D01*
X74334286Y-58539580D02*
X74286667Y-58444342D01*
X74286667Y-58444342D02*
X74239048Y-58253866D01*
X74239048Y-58253866D02*
X74239048Y-58015771D01*
X74239048Y-58015771D02*
X74286667Y-57825295D01*
X74286667Y-57825295D02*
X74334286Y-57730057D01*
X74334286Y-57730057D02*
X74381905Y-57682438D01*
X74381905Y-57682438D02*
X74477143Y-57634819D01*
X75239048Y-58634819D02*
X75239048Y-57634819D01*
X75239048Y-57634819D02*
X75620000Y-57634819D01*
X75620000Y-57634819D02*
X75715238Y-57682438D01*
X75715238Y-57682438D02*
X75762857Y-57730057D01*
X75762857Y-57730057D02*
X75810476Y-57825295D01*
X75810476Y-57825295D02*
X75810476Y-57968152D01*
X75810476Y-57968152D02*
X75762857Y-58063390D01*
X75762857Y-58063390D02*
X75715238Y-58111009D01*
X75715238Y-58111009D02*
X75620000Y-58158628D01*
X75620000Y-58158628D02*
X75239048Y-58158628D01*
X76810476Y-58539580D02*
X76762857Y-58587200D01*
X76762857Y-58587200D02*
X76620000Y-58634819D01*
X76620000Y-58634819D02*
X76524762Y-58634819D01*
X76524762Y-58634819D02*
X76381905Y-58587200D01*
X76381905Y-58587200D02*
X76286667Y-58491961D01*
X76286667Y-58491961D02*
X76239048Y-58396723D01*
X76239048Y-58396723D02*
X76191429Y-58206247D01*
X76191429Y-58206247D02*
X76191429Y-58063390D01*
X76191429Y-58063390D02*
X76239048Y-57872914D01*
X76239048Y-57872914D02*
X76286667Y-57777676D01*
X76286667Y-57777676D02*
X76381905Y-57682438D01*
X76381905Y-57682438D02*
X76524762Y-57634819D01*
X76524762Y-57634819D02*
X76620000Y-57634819D01*
X76620000Y-57634819D02*
X76762857Y-57682438D01*
X76762857Y-57682438D02*
X76810476Y-57730057D01*
X52874819Y-56106666D02*
X52398628Y-56439999D01*
X52874819Y-56678094D02*
X51874819Y-56678094D01*
X51874819Y-56678094D02*
X51874819Y-56297142D01*
X51874819Y-56297142D02*
X51922438Y-56201904D01*
X51922438Y-56201904D02*
X51970057Y-56154285D01*
X51970057Y-56154285D02*
X52065295Y-56106666D01*
X52065295Y-56106666D02*
X52208152Y-56106666D01*
X52208152Y-56106666D02*
X52303390Y-56154285D01*
X52303390Y-56154285D02*
X52351009Y-56201904D01*
X52351009Y-56201904D02*
X52398628Y-56297142D01*
X52398628Y-56297142D02*
X52398628Y-56678094D01*
X51970057Y-55725713D02*
X51922438Y-55678094D01*
X51922438Y-55678094D02*
X51874819Y-55582856D01*
X51874819Y-55582856D02*
X51874819Y-55344761D01*
X51874819Y-55344761D02*
X51922438Y-55249523D01*
X51922438Y-55249523D02*
X51970057Y-55201904D01*
X51970057Y-55201904D02*
X52065295Y-55154285D01*
X52065295Y-55154285D02*
X52160533Y-55154285D01*
X52160533Y-55154285D02*
X52303390Y-55201904D01*
X52303390Y-55201904D02*
X52874819Y-55773332D01*
X52874819Y-55773332D02*
X52874819Y-55154285D01*
X49034819Y-56535238D02*
X49034819Y-57106666D01*
X49034819Y-56820952D02*
X48034819Y-56820952D01*
X48034819Y-56820952D02*
X48177676Y-56916190D01*
X48177676Y-56916190D02*
X48272914Y-57011428D01*
X48272914Y-57011428D02*
X48320533Y-57106666D01*
X48034819Y-55916190D02*
X48034819Y-55820952D01*
X48034819Y-55820952D02*
X48082438Y-55725714D01*
X48082438Y-55725714D02*
X48130057Y-55678095D01*
X48130057Y-55678095D02*
X48225295Y-55630476D01*
X48225295Y-55630476D02*
X48415771Y-55582857D01*
X48415771Y-55582857D02*
X48653866Y-55582857D01*
X48653866Y-55582857D02*
X48844342Y-55630476D01*
X48844342Y-55630476D02*
X48939580Y-55678095D01*
X48939580Y-55678095D02*
X48987200Y-55725714D01*
X48987200Y-55725714D02*
X49034819Y-55820952D01*
X49034819Y-55820952D02*
X49034819Y-55916190D01*
X49034819Y-55916190D02*
X48987200Y-56011428D01*
X48987200Y-56011428D02*
X48939580Y-56059047D01*
X48939580Y-56059047D02*
X48844342Y-56106666D01*
X48844342Y-56106666D02*
X48653866Y-56154285D01*
X48653866Y-56154285D02*
X48415771Y-56154285D01*
X48415771Y-56154285D02*
X48225295Y-56106666D01*
X48225295Y-56106666D02*
X48130057Y-56059047D01*
X48130057Y-56059047D02*
X48082438Y-56011428D01*
X48082438Y-56011428D02*
X48034819Y-55916190D01*
X49034819Y-55154285D02*
X48034819Y-55154285D01*
X48653866Y-55059047D02*
X49034819Y-54773333D01*
X48368152Y-54773333D02*
X48749104Y-55154285D01*
X91916667Y-11157200D02*
X92059524Y-11204819D01*
X92059524Y-11204819D02*
X92297619Y-11204819D01*
X92297619Y-11204819D02*
X92392857Y-11157200D01*
X92392857Y-11157200D02*
X92440476Y-11109580D01*
X92440476Y-11109580D02*
X92488095Y-11014342D01*
X92488095Y-11014342D02*
X92488095Y-10919104D01*
X92488095Y-10919104D02*
X92440476Y-10823866D01*
X92440476Y-10823866D02*
X92392857Y-10776247D01*
X92392857Y-10776247D02*
X92297619Y-10728628D01*
X92297619Y-10728628D02*
X92107143Y-10681009D01*
X92107143Y-10681009D02*
X92011905Y-10633390D01*
X92011905Y-10633390D02*
X91964286Y-10585771D01*
X91964286Y-10585771D02*
X91916667Y-10490533D01*
X91916667Y-10490533D02*
X91916667Y-10395295D01*
X91916667Y-10395295D02*
X91964286Y-10300057D01*
X91964286Y-10300057D02*
X92011905Y-10252438D01*
X92011905Y-10252438D02*
X92107143Y-10204819D01*
X92107143Y-10204819D02*
X92345238Y-10204819D01*
X92345238Y-10204819D02*
X92488095Y-10252438D01*
X92821429Y-10204819D02*
X93059524Y-11204819D01*
X93059524Y-11204819D02*
X93250000Y-10490533D01*
X93250000Y-10490533D02*
X93440476Y-11204819D01*
X93440476Y-11204819D02*
X93678572Y-10204819D01*
X94583333Y-11204819D02*
X94011905Y-11204819D01*
X94297619Y-11204819D02*
X94297619Y-10204819D01*
X94297619Y-10204819D02*
X94202381Y-10347676D01*
X94202381Y-10347676D02*
X94107143Y-10442914D01*
X94107143Y-10442914D02*
X94011905Y-10490533D01*
X92511904Y-19904819D02*
X92178571Y-19428628D01*
X91940476Y-19904819D02*
X91940476Y-18904819D01*
X91940476Y-18904819D02*
X92321428Y-18904819D01*
X92321428Y-18904819D02*
X92416666Y-18952438D01*
X92416666Y-18952438D02*
X92464285Y-19000057D01*
X92464285Y-19000057D02*
X92511904Y-19095295D01*
X92511904Y-19095295D02*
X92511904Y-19238152D01*
X92511904Y-19238152D02*
X92464285Y-19333390D01*
X92464285Y-19333390D02*
X92416666Y-19381009D01*
X92416666Y-19381009D02*
X92321428Y-19428628D01*
X92321428Y-19428628D02*
X91940476Y-19428628D01*
X93321428Y-19857200D02*
X93226190Y-19904819D01*
X93226190Y-19904819D02*
X93035714Y-19904819D01*
X93035714Y-19904819D02*
X92940476Y-19857200D01*
X92940476Y-19857200D02*
X92892857Y-19761961D01*
X92892857Y-19761961D02*
X92892857Y-19381009D01*
X92892857Y-19381009D02*
X92940476Y-19285771D01*
X92940476Y-19285771D02*
X93035714Y-19238152D01*
X93035714Y-19238152D02*
X93226190Y-19238152D01*
X93226190Y-19238152D02*
X93321428Y-19285771D01*
X93321428Y-19285771D02*
X93369047Y-19381009D01*
X93369047Y-19381009D02*
X93369047Y-19476247D01*
X93369047Y-19476247D02*
X92892857Y-19571485D01*
X93750000Y-19857200D02*
X93845238Y-19904819D01*
X93845238Y-19904819D02*
X94035714Y-19904819D01*
X94035714Y-19904819D02*
X94130952Y-19857200D01*
X94130952Y-19857200D02*
X94178571Y-19761961D01*
X94178571Y-19761961D02*
X94178571Y-19714342D01*
X94178571Y-19714342D02*
X94130952Y-19619104D01*
X94130952Y-19619104D02*
X94035714Y-19571485D01*
X94035714Y-19571485D02*
X93892857Y-19571485D01*
X93892857Y-19571485D02*
X93797619Y-19523866D01*
X93797619Y-19523866D02*
X93750000Y-19428628D01*
X93750000Y-19428628D02*
X93750000Y-19381009D01*
X93750000Y-19381009D02*
X93797619Y-19285771D01*
X93797619Y-19285771D02*
X93892857Y-19238152D01*
X93892857Y-19238152D02*
X94035714Y-19238152D01*
X94035714Y-19238152D02*
X94130952Y-19285771D01*
X94988095Y-19857200D02*
X94892857Y-19904819D01*
X94892857Y-19904819D02*
X94702381Y-19904819D01*
X94702381Y-19904819D02*
X94607143Y-19857200D01*
X94607143Y-19857200D02*
X94559524Y-19761961D01*
X94559524Y-19761961D02*
X94559524Y-19381009D01*
X94559524Y-19381009D02*
X94607143Y-19285771D01*
X94607143Y-19285771D02*
X94702381Y-19238152D01*
X94702381Y-19238152D02*
X94892857Y-19238152D01*
X94892857Y-19238152D02*
X94988095Y-19285771D01*
X94988095Y-19285771D02*
X95035714Y-19381009D01*
X95035714Y-19381009D02*
X95035714Y-19476247D01*
X95035714Y-19476247D02*
X94559524Y-19571485D01*
X95321429Y-19238152D02*
X95702381Y-19238152D01*
X95464286Y-18904819D02*
X95464286Y-19761961D01*
X95464286Y-19761961D02*
X95511905Y-19857200D01*
X95511905Y-19857200D02*
X95607143Y-19904819D01*
X95607143Y-19904819D02*
X95702381Y-19904819D01*
X102859580Y-68666666D02*
X102907200Y-68714285D01*
X102907200Y-68714285D02*
X102954819Y-68857142D01*
X102954819Y-68857142D02*
X102954819Y-68952380D01*
X102954819Y-68952380D02*
X102907200Y-69095237D01*
X102907200Y-69095237D02*
X102811961Y-69190475D01*
X102811961Y-69190475D02*
X102716723Y-69238094D01*
X102716723Y-69238094D02*
X102526247Y-69285713D01*
X102526247Y-69285713D02*
X102383390Y-69285713D01*
X102383390Y-69285713D02*
X102192914Y-69238094D01*
X102192914Y-69238094D02*
X102097676Y-69190475D01*
X102097676Y-69190475D02*
X102002438Y-69095237D01*
X102002438Y-69095237D02*
X101954819Y-68952380D01*
X101954819Y-68952380D02*
X101954819Y-68857142D01*
X101954819Y-68857142D02*
X102002438Y-68714285D01*
X102002438Y-68714285D02*
X102050057Y-68666666D01*
X101954819Y-67761904D02*
X101954819Y-68238094D01*
X101954819Y-68238094D02*
X102431009Y-68285713D01*
X102431009Y-68285713D02*
X102383390Y-68238094D01*
X102383390Y-68238094D02*
X102335771Y-68142856D01*
X102335771Y-68142856D02*
X102335771Y-67904761D01*
X102335771Y-67904761D02*
X102383390Y-67809523D01*
X102383390Y-67809523D02*
X102431009Y-67761904D01*
X102431009Y-67761904D02*
X102526247Y-67714285D01*
X102526247Y-67714285D02*
X102764342Y-67714285D01*
X102764342Y-67714285D02*
X102859580Y-67761904D01*
X102859580Y-67761904D02*
X102907200Y-67809523D01*
X102907200Y-67809523D02*
X102954819Y-67904761D01*
X102954819Y-67904761D02*
X102954819Y-68142856D01*
X102954819Y-68142856D02*
X102907200Y-68238094D01*
X102907200Y-68238094D02*
X102859580Y-68285713D01*
X107954819Y-70047619D02*
X107954819Y-70619047D01*
X107954819Y-70333333D02*
X106954819Y-70333333D01*
X106954819Y-70333333D02*
X107097676Y-70428571D01*
X107097676Y-70428571D02*
X107192914Y-70523809D01*
X107192914Y-70523809D02*
X107240533Y-70619047D01*
X106954819Y-69428571D02*
X106954819Y-69333333D01*
X106954819Y-69333333D02*
X107002438Y-69238095D01*
X107002438Y-69238095D02*
X107050057Y-69190476D01*
X107050057Y-69190476D02*
X107145295Y-69142857D01*
X107145295Y-69142857D02*
X107335771Y-69095238D01*
X107335771Y-69095238D02*
X107573866Y-69095238D01*
X107573866Y-69095238D02*
X107764342Y-69142857D01*
X107764342Y-69142857D02*
X107859580Y-69190476D01*
X107859580Y-69190476D02*
X107907200Y-69238095D01*
X107907200Y-69238095D02*
X107954819Y-69333333D01*
X107954819Y-69333333D02*
X107954819Y-69428571D01*
X107954819Y-69428571D02*
X107907200Y-69523809D01*
X107907200Y-69523809D02*
X107859580Y-69571428D01*
X107859580Y-69571428D02*
X107764342Y-69619047D01*
X107764342Y-69619047D02*
X107573866Y-69666666D01*
X107573866Y-69666666D02*
X107335771Y-69666666D01*
X107335771Y-69666666D02*
X107145295Y-69619047D01*
X107145295Y-69619047D02*
X107050057Y-69571428D01*
X107050057Y-69571428D02*
X107002438Y-69523809D01*
X107002438Y-69523809D02*
X106954819Y-69428571D01*
X106954819Y-68476190D02*
X106954819Y-68380952D01*
X106954819Y-68380952D02*
X107002438Y-68285714D01*
X107002438Y-68285714D02*
X107050057Y-68238095D01*
X107050057Y-68238095D02*
X107145295Y-68190476D01*
X107145295Y-68190476D02*
X107335771Y-68142857D01*
X107335771Y-68142857D02*
X107573866Y-68142857D01*
X107573866Y-68142857D02*
X107764342Y-68190476D01*
X107764342Y-68190476D02*
X107859580Y-68238095D01*
X107859580Y-68238095D02*
X107907200Y-68285714D01*
X107907200Y-68285714D02*
X107954819Y-68380952D01*
X107954819Y-68380952D02*
X107954819Y-68476190D01*
X107954819Y-68476190D02*
X107907200Y-68571428D01*
X107907200Y-68571428D02*
X107859580Y-68619047D01*
X107859580Y-68619047D02*
X107764342Y-68666666D01*
X107764342Y-68666666D02*
X107573866Y-68714285D01*
X107573866Y-68714285D02*
X107335771Y-68714285D01*
X107335771Y-68714285D02*
X107145295Y-68666666D01*
X107145295Y-68666666D02*
X107050057Y-68619047D01*
X107050057Y-68619047D02*
X107002438Y-68571428D01*
X107002438Y-68571428D02*
X106954819Y-68476190D01*
X107288152Y-67714285D02*
X107954819Y-67714285D01*
X107383390Y-67714285D02*
X107335771Y-67666666D01*
X107335771Y-67666666D02*
X107288152Y-67571428D01*
X107288152Y-67571428D02*
X107288152Y-67428571D01*
X107288152Y-67428571D02*
X107335771Y-67333333D01*
X107335771Y-67333333D02*
X107431009Y-67285714D01*
X107431009Y-67285714D02*
X107954819Y-67285714D01*
X107431009Y-66476190D02*
X107431009Y-66809523D01*
X107954819Y-66809523D02*
X106954819Y-66809523D01*
X106954819Y-66809523D02*
X106954819Y-66333333D01*
X50502381Y-20214819D02*
X50502381Y-21024342D01*
X50502381Y-21024342D02*
X50550000Y-21119580D01*
X50550000Y-21119580D02*
X50597619Y-21167200D01*
X50597619Y-21167200D02*
X50692857Y-21214819D01*
X50692857Y-21214819D02*
X50883333Y-21214819D01*
X50883333Y-21214819D02*
X50978571Y-21167200D01*
X50978571Y-21167200D02*
X51026190Y-21119580D01*
X51026190Y-21119580D02*
X51073809Y-21024342D01*
X51073809Y-21024342D02*
X51073809Y-20214819D01*
X52026190Y-20214819D02*
X51550000Y-20214819D01*
X51550000Y-20214819D02*
X51502381Y-20691009D01*
X51502381Y-20691009D02*
X51550000Y-20643390D01*
X51550000Y-20643390D02*
X51645238Y-20595771D01*
X51645238Y-20595771D02*
X51883333Y-20595771D01*
X51883333Y-20595771D02*
X51978571Y-20643390D01*
X51978571Y-20643390D02*
X52026190Y-20691009D01*
X52026190Y-20691009D02*
X52073809Y-20786247D01*
X52073809Y-20786247D02*
X52073809Y-21024342D01*
X52073809Y-21024342D02*
X52026190Y-21119580D01*
X52026190Y-21119580D02*
X51978571Y-21167200D01*
X51978571Y-21167200D02*
X51883333Y-21214819D01*
X51883333Y-21214819D02*
X51645238Y-21214819D01*
X51645238Y-21214819D02*
X51550000Y-21167200D01*
X51550000Y-21167200D02*
X51502381Y-21119580D01*
X52502381Y-20833866D02*
X53264286Y-20833866D01*
X53692857Y-20929104D02*
X54169047Y-20929104D01*
X53597619Y-21214819D02*
X53930952Y-20214819D01*
X53930952Y-20214819D02*
X54264285Y-21214819D01*
X54597619Y-21214819D02*
X54597619Y-20214819D01*
X54597619Y-20214819D02*
X54835714Y-20214819D01*
X54835714Y-20214819D02*
X54978571Y-20262438D01*
X54978571Y-20262438D02*
X55073809Y-20357676D01*
X55073809Y-20357676D02*
X55121428Y-20452914D01*
X55121428Y-20452914D02*
X55169047Y-20643390D01*
X55169047Y-20643390D02*
X55169047Y-20786247D01*
X55169047Y-20786247D02*
X55121428Y-20976723D01*
X55121428Y-20976723D02*
X55073809Y-21071961D01*
X55073809Y-21071961D02*
X54978571Y-21167200D01*
X54978571Y-21167200D02*
X54835714Y-21214819D01*
X54835714Y-21214819D02*
X54597619Y-21214819D01*
X56169047Y-21214819D02*
X55835714Y-20738628D01*
X55597619Y-21214819D02*
X55597619Y-20214819D01*
X55597619Y-20214819D02*
X55978571Y-20214819D01*
X55978571Y-20214819D02*
X56073809Y-20262438D01*
X56073809Y-20262438D02*
X56121428Y-20310057D01*
X56121428Y-20310057D02*
X56169047Y-20405295D01*
X56169047Y-20405295D02*
X56169047Y-20548152D01*
X56169047Y-20548152D02*
X56121428Y-20643390D01*
X56121428Y-20643390D02*
X56073809Y-20691009D01*
X56073809Y-20691009D02*
X55978571Y-20738628D01*
X55978571Y-20738628D02*
X55597619Y-20738628D01*
X56597619Y-21214819D02*
X56597619Y-20214819D01*
X56597619Y-20691009D02*
X57169047Y-20691009D01*
X57169047Y-21214819D02*
X57169047Y-20214819D01*
X57645238Y-21214819D02*
X57645238Y-20214819D01*
X58645237Y-21214819D02*
X58073809Y-21214819D01*
X58359523Y-21214819D02*
X58359523Y-20214819D01*
X58359523Y-20214819D02*
X58264285Y-20357676D01*
X58264285Y-20357676D02*
X58169047Y-20452914D01*
X58169047Y-20452914D02*
X58073809Y-20500533D01*
X51430952Y-47734819D02*
X52097618Y-47734819D01*
X52097618Y-47734819D02*
X51669047Y-48734819D01*
X52907142Y-48068152D02*
X52907142Y-48734819D01*
X52669047Y-47687200D02*
X52430952Y-48401485D01*
X52430952Y-48401485D02*
X53049999Y-48401485D01*
X53907142Y-48734819D02*
X53430952Y-48734819D01*
X53430952Y-48734819D02*
X53430952Y-47734819D01*
X54192857Y-48687200D02*
X54335714Y-48734819D01*
X54335714Y-48734819D02*
X54573809Y-48734819D01*
X54573809Y-48734819D02*
X54669047Y-48687200D01*
X54669047Y-48687200D02*
X54716666Y-48639580D01*
X54716666Y-48639580D02*
X54764285Y-48544342D01*
X54764285Y-48544342D02*
X54764285Y-48449104D01*
X54764285Y-48449104D02*
X54716666Y-48353866D01*
X54716666Y-48353866D02*
X54669047Y-48306247D01*
X54669047Y-48306247D02*
X54573809Y-48258628D01*
X54573809Y-48258628D02*
X54383333Y-48211009D01*
X54383333Y-48211009D02*
X54288095Y-48163390D01*
X54288095Y-48163390D02*
X54240476Y-48115771D01*
X54240476Y-48115771D02*
X54192857Y-48020533D01*
X54192857Y-48020533D02*
X54192857Y-47925295D01*
X54192857Y-47925295D02*
X54240476Y-47830057D01*
X54240476Y-47830057D02*
X54288095Y-47782438D01*
X54288095Y-47782438D02*
X54383333Y-47734819D01*
X54383333Y-47734819D02*
X54621428Y-47734819D01*
X54621428Y-47734819D02*
X54764285Y-47782438D01*
X55145238Y-47830057D02*
X55192857Y-47782438D01*
X55192857Y-47782438D02*
X55288095Y-47734819D01*
X55288095Y-47734819D02*
X55526190Y-47734819D01*
X55526190Y-47734819D02*
X55621428Y-47782438D01*
X55621428Y-47782438D02*
X55669047Y-47830057D01*
X55669047Y-47830057D02*
X55716666Y-47925295D01*
X55716666Y-47925295D02*
X55716666Y-48020533D01*
X55716666Y-48020533D02*
X55669047Y-48163390D01*
X55669047Y-48163390D02*
X55097619Y-48734819D01*
X55097619Y-48734819D02*
X55716666Y-48734819D01*
X56573809Y-48068152D02*
X56573809Y-48734819D01*
X56335714Y-47687200D02*
X56097619Y-48401485D01*
X56097619Y-48401485D02*
X56716666Y-48401485D01*
X57573809Y-47734819D02*
X57097619Y-47734819D01*
X57097619Y-47734819D02*
X57050000Y-48211009D01*
X57050000Y-48211009D02*
X57097619Y-48163390D01*
X57097619Y-48163390D02*
X57192857Y-48115771D01*
X57192857Y-48115771D02*
X57430952Y-48115771D01*
X57430952Y-48115771D02*
X57526190Y-48163390D01*
X57526190Y-48163390D02*
X57573809Y-48211009D01*
X57573809Y-48211009D02*
X57621428Y-48306247D01*
X57621428Y-48306247D02*
X57621428Y-48544342D01*
X57621428Y-48544342D02*
X57573809Y-48639580D01*
X57573809Y-48639580D02*
X57526190Y-48687200D01*
X57526190Y-48687200D02*
X57430952Y-48734819D01*
X57430952Y-48734819D02*
X57192857Y-48734819D01*
X57192857Y-48734819D02*
X57097619Y-48687200D01*
X57097619Y-48687200D02*
X57050000Y-48639580D01*
X79609580Y-15121766D02*
X79657200Y-15169385D01*
X79657200Y-15169385D02*
X79704819Y-15312242D01*
X79704819Y-15312242D02*
X79704819Y-15407480D01*
X79704819Y-15407480D02*
X79657200Y-15550337D01*
X79657200Y-15550337D02*
X79561961Y-15645575D01*
X79561961Y-15645575D02*
X79466723Y-15693194D01*
X79466723Y-15693194D02*
X79276247Y-15740813D01*
X79276247Y-15740813D02*
X79133390Y-15740813D01*
X79133390Y-15740813D02*
X78942914Y-15693194D01*
X78942914Y-15693194D02*
X78847676Y-15645575D01*
X78847676Y-15645575D02*
X78752438Y-15550337D01*
X78752438Y-15550337D02*
X78704819Y-15407480D01*
X78704819Y-15407480D02*
X78704819Y-15312242D01*
X78704819Y-15312242D02*
X78752438Y-15169385D01*
X78752438Y-15169385D02*
X78800057Y-15121766D01*
X79704819Y-14169385D02*
X79704819Y-14740813D01*
X79704819Y-14455099D02*
X78704819Y-14455099D01*
X78704819Y-14455099D02*
X78847676Y-14550337D01*
X78847676Y-14550337D02*
X78942914Y-14645575D01*
X78942914Y-14645575D02*
X78990533Y-14740813D01*
X92358095Y-19494819D02*
X92358095Y-20304342D01*
X92358095Y-20304342D02*
X92405714Y-20399580D01*
X92405714Y-20399580D02*
X92453333Y-20447200D01*
X92453333Y-20447200D02*
X92548571Y-20494819D01*
X92548571Y-20494819D02*
X92739047Y-20494819D01*
X92739047Y-20494819D02*
X92834285Y-20447200D01*
X92834285Y-20447200D02*
X92881904Y-20399580D01*
X92881904Y-20399580D02*
X92929523Y-20304342D01*
X92929523Y-20304342D02*
X92929523Y-19494819D01*
X93929523Y-20494819D02*
X93358095Y-20494819D01*
X93643809Y-20494819D02*
X93643809Y-19494819D01*
X93643809Y-19494819D02*
X93548571Y-19637676D01*
X93548571Y-19637676D02*
X93453333Y-19732914D01*
X93453333Y-19732914D02*
X93358095Y-19780533D01*
X19733095Y-20124819D02*
X19733095Y-20934342D01*
X19733095Y-20934342D02*
X19780714Y-21029580D01*
X19780714Y-21029580D02*
X19828333Y-21077200D01*
X19828333Y-21077200D02*
X19923571Y-21124819D01*
X19923571Y-21124819D02*
X20114047Y-21124819D01*
X20114047Y-21124819D02*
X20209285Y-21077200D01*
X20209285Y-21077200D02*
X20256904Y-21029580D01*
X20256904Y-21029580D02*
X20304523Y-20934342D01*
X20304523Y-20934342D02*
X20304523Y-20124819D01*
X20685476Y-20124819D02*
X21304523Y-20124819D01*
X21304523Y-20124819D02*
X20971190Y-20505771D01*
X20971190Y-20505771D02*
X21114047Y-20505771D01*
X21114047Y-20505771D02*
X21209285Y-20553390D01*
X21209285Y-20553390D02*
X21256904Y-20601009D01*
X21256904Y-20601009D02*
X21304523Y-20696247D01*
X21304523Y-20696247D02*
X21304523Y-20934342D01*
X21304523Y-20934342D02*
X21256904Y-21029580D01*
X21256904Y-21029580D02*
X21209285Y-21077200D01*
X21209285Y-21077200D02*
X21114047Y-21124819D01*
X21114047Y-21124819D02*
X20828333Y-21124819D01*
X20828333Y-21124819D02*
X20733095Y-21077200D01*
X20733095Y-21077200D02*
X20685476Y-21029580D01*
X15423571Y-58709580D02*
X15375952Y-58757200D01*
X15375952Y-58757200D02*
X15233095Y-58804819D01*
X15233095Y-58804819D02*
X15137857Y-58804819D01*
X15137857Y-58804819D02*
X14995000Y-58757200D01*
X14995000Y-58757200D02*
X14899762Y-58661961D01*
X14899762Y-58661961D02*
X14852143Y-58566723D01*
X14852143Y-58566723D02*
X14804524Y-58376247D01*
X14804524Y-58376247D02*
X14804524Y-58233390D01*
X14804524Y-58233390D02*
X14852143Y-58042914D01*
X14852143Y-58042914D02*
X14899762Y-57947676D01*
X14899762Y-57947676D02*
X14995000Y-57852438D01*
X14995000Y-57852438D02*
X15137857Y-57804819D01*
X15137857Y-57804819D02*
X15233095Y-57804819D01*
X15233095Y-57804819D02*
X15375952Y-57852438D01*
X15375952Y-57852438D02*
X15423571Y-57900057D01*
X16042619Y-58328628D02*
X16042619Y-58804819D01*
X15709286Y-57804819D02*
X16042619Y-58328628D01*
X16042619Y-58328628D02*
X16375952Y-57804819D01*
X17137857Y-57804819D02*
X16947381Y-57804819D01*
X16947381Y-57804819D02*
X16852143Y-57852438D01*
X16852143Y-57852438D02*
X16804524Y-57900057D01*
X16804524Y-57900057D02*
X16709286Y-58042914D01*
X16709286Y-58042914D02*
X16661667Y-58233390D01*
X16661667Y-58233390D02*
X16661667Y-58614342D01*
X16661667Y-58614342D02*
X16709286Y-58709580D01*
X16709286Y-58709580D02*
X16756905Y-58757200D01*
X16756905Y-58757200D02*
X16852143Y-58804819D01*
X16852143Y-58804819D02*
X17042619Y-58804819D01*
X17042619Y-58804819D02*
X17137857Y-58757200D01*
X17137857Y-58757200D02*
X17185476Y-58709580D01*
X17185476Y-58709580D02*
X17233095Y-58614342D01*
X17233095Y-58614342D02*
X17233095Y-58376247D01*
X17233095Y-58376247D02*
X17185476Y-58281009D01*
X17185476Y-58281009D02*
X17137857Y-58233390D01*
X17137857Y-58233390D02*
X17042619Y-58185771D01*
X17042619Y-58185771D02*
X16852143Y-58185771D01*
X16852143Y-58185771D02*
X16756905Y-58233390D01*
X16756905Y-58233390D02*
X16709286Y-58281009D01*
X16709286Y-58281009D02*
X16661667Y-58376247D01*
X17614048Y-57900057D02*
X17661667Y-57852438D01*
X17661667Y-57852438D02*
X17756905Y-57804819D01*
X17756905Y-57804819D02*
X17995000Y-57804819D01*
X17995000Y-57804819D02*
X18090238Y-57852438D01*
X18090238Y-57852438D02*
X18137857Y-57900057D01*
X18137857Y-57900057D02*
X18185476Y-57995295D01*
X18185476Y-57995295D02*
X18185476Y-58090533D01*
X18185476Y-58090533D02*
X18137857Y-58233390D01*
X18137857Y-58233390D02*
X17566429Y-58804819D01*
X17566429Y-58804819D02*
X18185476Y-58804819D01*
X18566429Y-57900057D02*
X18614048Y-57852438D01*
X18614048Y-57852438D02*
X18709286Y-57804819D01*
X18709286Y-57804819D02*
X18947381Y-57804819D01*
X18947381Y-57804819D02*
X19042619Y-57852438D01*
X19042619Y-57852438D02*
X19090238Y-57900057D01*
X19090238Y-57900057D02*
X19137857Y-57995295D01*
X19137857Y-57995295D02*
X19137857Y-58090533D01*
X19137857Y-58090533D02*
X19090238Y-58233390D01*
X19090238Y-58233390D02*
X18518810Y-58804819D01*
X18518810Y-58804819D02*
X19137857Y-58804819D01*
X20042619Y-57804819D02*
X19566429Y-57804819D01*
X19566429Y-57804819D02*
X19518810Y-58281009D01*
X19518810Y-58281009D02*
X19566429Y-58233390D01*
X19566429Y-58233390D02*
X19661667Y-58185771D01*
X19661667Y-58185771D02*
X19899762Y-58185771D01*
X19899762Y-58185771D02*
X19995000Y-58233390D01*
X19995000Y-58233390D02*
X20042619Y-58281009D01*
X20042619Y-58281009D02*
X20090238Y-58376247D01*
X20090238Y-58376247D02*
X20090238Y-58614342D01*
X20090238Y-58614342D02*
X20042619Y-58709580D01*
X20042619Y-58709580D02*
X19995000Y-58757200D01*
X19995000Y-58757200D02*
X19899762Y-58804819D01*
X19899762Y-58804819D02*
X19661667Y-58804819D01*
X19661667Y-58804819D02*
X19566429Y-58757200D01*
X19566429Y-58757200D02*
X19518810Y-58709580D01*
X20947381Y-57804819D02*
X20756905Y-57804819D01*
X20756905Y-57804819D02*
X20661667Y-57852438D01*
X20661667Y-57852438D02*
X20614048Y-57900057D01*
X20614048Y-57900057D02*
X20518810Y-58042914D01*
X20518810Y-58042914D02*
X20471191Y-58233390D01*
X20471191Y-58233390D02*
X20471191Y-58614342D01*
X20471191Y-58614342D02*
X20518810Y-58709580D01*
X20518810Y-58709580D02*
X20566429Y-58757200D01*
X20566429Y-58757200D02*
X20661667Y-58804819D01*
X20661667Y-58804819D02*
X20852143Y-58804819D01*
X20852143Y-58804819D02*
X20947381Y-58757200D01*
X20947381Y-58757200D02*
X20995000Y-58709580D01*
X20995000Y-58709580D02*
X21042619Y-58614342D01*
X21042619Y-58614342D02*
X21042619Y-58376247D01*
X21042619Y-58376247D02*
X20995000Y-58281009D01*
X20995000Y-58281009D02*
X20947381Y-58233390D01*
X20947381Y-58233390D02*
X20852143Y-58185771D01*
X20852143Y-58185771D02*
X20661667Y-58185771D01*
X20661667Y-58185771D02*
X20566429Y-58233390D01*
X20566429Y-58233390D02*
X20518810Y-58281009D01*
X20518810Y-58281009D02*
X20471191Y-58376247D01*
X21471191Y-58423866D02*
X22233096Y-58423866D01*
X22614048Y-57804819D02*
X23280714Y-57804819D01*
X23280714Y-57804819D02*
X22852143Y-58804819D01*
X23852143Y-57804819D02*
X23947381Y-57804819D01*
X23947381Y-57804819D02*
X24042619Y-57852438D01*
X24042619Y-57852438D02*
X24090238Y-57900057D01*
X24090238Y-57900057D02*
X24137857Y-57995295D01*
X24137857Y-57995295D02*
X24185476Y-58185771D01*
X24185476Y-58185771D02*
X24185476Y-58423866D01*
X24185476Y-58423866D02*
X24137857Y-58614342D01*
X24137857Y-58614342D02*
X24090238Y-58709580D01*
X24090238Y-58709580D02*
X24042619Y-58757200D01*
X24042619Y-58757200D02*
X23947381Y-58804819D01*
X23947381Y-58804819D02*
X23852143Y-58804819D01*
X23852143Y-58804819D02*
X23756905Y-58757200D01*
X23756905Y-58757200D02*
X23709286Y-58709580D01*
X23709286Y-58709580D02*
X23661667Y-58614342D01*
X23661667Y-58614342D02*
X23614048Y-58423866D01*
X23614048Y-58423866D02*
X23614048Y-58185771D01*
X23614048Y-58185771D02*
X23661667Y-57995295D01*
X23661667Y-57995295D02*
X23709286Y-57900057D01*
X23709286Y-57900057D02*
X23756905Y-57852438D01*
X23756905Y-57852438D02*
X23852143Y-57804819D01*
X24614048Y-58804819D02*
X24614048Y-57804819D01*
X24614048Y-57804819D02*
X24995000Y-57804819D01*
X24995000Y-57804819D02*
X25090238Y-57852438D01*
X25090238Y-57852438D02*
X25137857Y-57900057D01*
X25137857Y-57900057D02*
X25185476Y-57995295D01*
X25185476Y-57995295D02*
X25185476Y-58138152D01*
X25185476Y-58138152D02*
X25137857Y-58233390D01*
X25137857Y-58233390D02*
X25090238Y-58281009D01*
X25090238Y-58281009D02*
X24995000Y-58328628D01*
X24995000Y-58328628D02*
X24614048Y-58328628D01*
X26185476Y-58709580D02*
X26137857Y-58757200D01*
X26137857Y-58757200D02*
X25995000Y-58804819D01*
X25995000Y-58804819D02*
X25899762Y-58804819D01*
X25899762Y-58804819D02*
X25756905Y-58757200D01*
X25756905Y-58757200D02*
X25661667Y-58661961D01*
X25661667Y-58661961D02*
X25614048Y-58566723D01*
X25614048Y-58566723D02*
X25566429Y-58376247D01*
X25566429Y-58376247D02*
X25566429Y-58233390D01*
X25566429Y-58233390D02*
X25614048Y-58042914D01*
X25614048Y-58042914D02*
X25661667Y-57947676D01*
X25661667Y-57947676D02*
X25756905Y-57852438D01*
X25756905Y-57852438D02*
X25899762Y-57804819D01*
X25899762Y-57804819D02*
X25995000Y-57804819D01*
X25995000Y-57804819D02*
X26137857Y-57852438D01*
X26137857Y-57852438D02*
X26185476Y-57900057D01*
X90359580Y-54916666D02*
X90407200Y-54964285D01*
X90407200Y-54964285D02*
X90454819Y-55107142D01*
X90454819Y-55107142D02*
X90454819Y-55202380D01*
X90454819Y-55202380D02*
X90407200Y-55345237D01*
X90407200Y-55345237D02*
X90311961Y-55440475D01*
X90311961Y-55440475D02*
X90216723Y-55488094D01*
X90216723Y-55488094D02*
X90026247Y-55535713D01*
X90026247Y-55535713D02*
X89883390Y-55535713D01*
X89883390Y-55535713D02*
X89692914Y-55488094D01*
X89692914Y-55488094D02*
X89597676Y-55440475D01*
X89597676Y-55440475D02*
X89502438Y-55345237D01*
X89502438Y-55345237D02*
X89454819Y-55202380D01*
X89454819Y-55202380D02*
X89454819Y-55107142D01*
X89454819Y-55107142D02*
X89502438Y-54964285D01*
X89502438Y-54964285D02*
X89550057Y-54916666D01*
X89454819Y-54583332D02*
X89454819Y-53964285D01*
X89454819Y-53964285D02*
X89835771Y-54297618D01*
X89835771Y-54297618D02*
X89835771Y-54154761D01*
X89835771Y-54154761D02*
X89883390Y-54059523D01*
X89883390Y-54059523D02*
X89931009Y-54011904D01*
X89931009Y-54011904D02*
X90026247Y-53964285D01*
X90026247Y-53964285D02*
X90264342Y-53964285D01*
X90264342Y-53964285D02*
X90359580Y-54011904D01*
X90359580Y-54011904D02*
X90407200Y-54059523D01*
X90407200Y-54059523D02*
X90454819Y-54154761D01*
X90454819Y-54154761D02*
X90454819Y-54440475D01*
X90454819Y-54440475D02*
X90407200Y-54535713D01*
X90407200Y-54535713D02*
X90359580Y-54583332D01*
X91559524Y-52204819D02*
X92178571Y-52204819D01*
X92178571Y-52204819D02*
X91845238Y-52585771D01*
X91845238Y-52585771D02*
X91988095Y-52585771D01*
X91988095Y-52585771D02*
X92083333Y-52633390D01*
X92083333Y-52633390D02*
X92130952Y-52681009D01*
X92130952Y-52681009D02*
X92178571Y-52776247D01*
X92178571Y-52776247D02*
X92178571Y-53014342D01*
X92178571Y-53014342D02*
X92130952Y-53109580D01*
X92130952Y-53109580D02*
X92083333Y-53157200D01*
X92083333Y-53157200D02*
X91988095Y-53204819D01*
X91988095Y-53204819D02*
X91702381Y-53204819D01*
X91702381Y-53204819D02*
X91607143Y-53157200D01*
X91607143Y-53157200D02*
X91559524Y-53109580D01*
X92797619Y-52204819D02*
X92892857Y-52204819D01*
X92892857Y-52204819D02*
X92988095Y-52252438D01*
X92988095Y-52252438D02*
X93035714Y-52300057D01*
X93035714Y-52300057D02*
X93083333Y-52395295D01*
X93083333Y-52395295D02*
X93130952Y-52585771D01*
X93130952Y-52585771D02*
X93130952Y-52823866D01*
X93130952Y-52823866D02*
X93083333Y-53014342D01*
X93083333Y-53014342D02*
X93035714Y-53109580D01*
X93035714Y-53109580D02*
X92988095Y-53157200D01*
X92988095Y-53157200D02*
X92892857Y-53204819D01*
X92892857Y-53204819D02*
X92797619Y-53204819D01*
X92797619Y-53204819D02*
X92702381Y-53157200D01*
X92702381Y-53157200D02*
X92654762Y-53109580D01*
X92654762Y-53109580D02*
X92607143Y-53014342D01*
X92607143Y-53014342D02*
X92559524Y-52823866D01*
X92559524Y-52823866D02*
X92559524Y-52585771D01*
X92559524Y-52585771D02*
X92607143Y-52395295D01*
X92607143Y-52395295D02*
X92654762Y-52300057D01*
X92654762Y-52300057D02*
X92702381Y-52252438D01*
X92702381Y-52252438D02*
X92797619Y-52204819D01*
X93559524Y-52538152D02*
X93559524Y-53204819D01*
X93559524Y-52633390D02*
X93607143Y-52585771D01*
X93607143Y-52585771D02*
X93702381Y-52538152D01*
X93702381Y-52538152D02*
X93845238Y-52538152D01*
X93845238Y-52538152D02*
X93940476Y-52585771D01*
X93940476Y-52585771D02*
X93988095Y-52681009D01*
X93988095Y-52681009D02*
X93988095Y-53204819D01*
X94797619Y-52681009D02*
X94464286Y-52681009D01*
X94464286Y-53204819D02*
X94464286Y-52204819D01*
X94464286Y-52204819D02*
X94940476Y-52204819D01*
X20333333Y-60359580D02*
X20285714Y-60407200D01*
X20285714Y-60407200D02*
X20142857Y-60454819D01*
X20142857Y-60454819D02*
X20047619Y-60454819D01*
X20047619Y-60454819D02*
X19904762Y-60407200D01*
X19904762Y-60407200D02*
X19809524Y-60311961D01*
X19809524Y-60311961D02*
X19761905Y-60216723D01*
X19761905Y-60216723D02*
X19714286Y-60026247D01*
X19714286Y-60026247D02*
X19714286Y-59883390D01*
X19714286Y-59883390D02*
X19761905Y-59692914D01*
X19761905Y-59692914D02*
X19809524Y-59597676D01*
X19809524Y-59597676D02*
X19904762Y-59502438D01*
X19904762Y-59502438D02*
X20047619Y-59454819D01*
X20047619Y-59454819D02*
X20142857Y-59454819D01*
X20142857Y-59454819D02*
X20285714Y-59502438D01*
X20285714Y-59502438D02*
X20333333Y-59550057D01*
X21190476Y-59788152D02*
X21190476Y-60454819D01*
X20952381Y-59407200D02*
X20714286Y-60121485D01*
X20714286Y-60121485D02*
X21333333Y-60121485D01*
X18952380Y-65454819D02*
X18380952Y-65454819D01*
X18666666Y-65454819D02*
X18666666Y-64454819D01*
X18666666Y-64454819D02*
X18571428Y-64597676D01*
X18571428Y-64597676D02*
X18476190Y-64692914D01*
X18476190Y-64692914D02*
X18380952Y-64740533D01*
X19571428Y-64454819D02*
X19666666Y-64454819D01*
X19666666Y-64454819D02*
X19761904Y-64502438D01*
X19761904Y-64502438D02*
X19809523Y-64550057D01*
X19809523Y-64550057D02*
X19857142Y-64645295D01*
X19857142Y-64645295D02*
X19904761Y-64835771D01*
X19904761Y-64835771D02*
X19904761Y-65073866D01*
X19904761Y-65073866D02*
X19857142Y-65264342D01*
X19857142Y-65264342D02*
X19809523Y-65359580D01*
X19809523Y-65359580D02*
X19761904Y-65407200D01*
X19761904Y-65407200D02*
X19666666Y-65454819D01*
X19666666Y-65454819D02*
X19571428Y-65454819D01*
X19571428Y-65454819D02*
X19476190Y-65407200D01*
X19476190Y-65407200D02*
X19428571Y-65359580D01*
X19428571Y-65359580D02*
X19380952Y-65264342D01*
X19380952Y-65264342D02*
X19333333Y-65073866D01*
X19333333Y-65073866D02*
X19333333Y-64835771D01*
X19333333Y-64835771D02*
X19380952Y-64645295D01*
X19380952Y-64645295D02*
X19428571Y-64550057D01*
X19428571Y-64550057D02*
X19476190Y-64502438D01*
X19476190Y-64502438D02*
X19571428Y-64454819D01*
X20523809Y-64454819D02*
X20619047Y-64454819D01*
X20619047Y-64454819D02*
X20714285Y-64502438D01*
X20714285Y-64502438D02*
X20761904Y-64550057D01*
X20761904Y-64550057D02*
X20809523Y-64645295D01*
X20809523Y-64645295D02*
X20857142Y-64835771D01*
X20857142Y-64835771D02*
X20857142Y-65073866D01*
X20857142Y-65073866D02*
X20809523Y-65264342D01*
X20809523Y-65264342D02*
X20761904Y-65359580D01*
X20761904Y-65359580D02*
X20714285Y-65407200D01*
X20714285Y-65407200D02*
X20619047Y-65454819D01*
X20619047Y-65454819D02*
X20523809Y-65454819D01*
X20523809Y-65454819D02*
X20428571Y-65407200D01*
X20428571Y-65407200D02*
X20380952Y-65359580D01*
X20380952Y-65359580D02*
X20333333Y-65264342D01*
X20333333Y-65264342D02*
X20285714Y-65073866D01*
X20285714Y-65073866D02*
X20285714Y-64835771D01*
X20285714Y-64835771D02*
X20333333Y-64645295D01*
X20333333Y-64645295D02*
X20380952Y-64550057D01*
X20380952Y-64550057D02*
X20428571Y-64502438D01*
X20428571Y-64502438D02*
X20523809Y-64454819D01*
X21285714Y-64788152D02*
X21285714Y-65454819D01*
X21285714Y-64883390D02*
X21333333Y-64835771D01*
X21333333Y-64835771D02*
X21428571Y-64788152D01*
X21428571Y-64788152D02*
X21571428Y-64788152D01*
X21571428Y-64788152D02*
X21666666Y-64835771D01*
X21666666Y-64835771D02*
X21714285Y-64931009D01*
X21714285Y-64931009D02*
X21714285Y-65454819D01*
X22523809Y-64931009D02*
X22190476Y-64931009D01*
X22190476Y-65454819D02*
X22190476Y-64454819D01*
X22190476Y-64454819D02*
X22666666Y-64454819D01*
X95874819Y-29976666D02*
X95398628Y-30309999D01*
X95874819Y-30548094D02*
X94874819Y-30548094D01*
X94874819Y-30548094D02*
X94874819Y-30167142D01*
X94874819Y-30167142D02*
X94922438Y-30071904D01*
X94922438Y-30071904D02*
X94970057Y-30024285D01*
X94970057Y-30024285D02*
X95065295Y-29976666D01*
X95065295Y-29976666D02*
X95208152Y-29976666D01*
X95208152Y-29976666D02*
X95303390Y-30024285D01*
X95303390Y-30024285D02*
X95351009Y-30071904D01*
X95351009Y-30071904D02*
X95398628Y-30167142D01*
X95398628Y-30167142D02*
X95398628Y-30548094D01*
X95874819Y-29024285D02*
X95874819Y-29595713D01*
X95874819Y-29309999D02*
X94874819Y-29309999D01*
X94874819Y-29309999D02*
X95017676Y-29405237D01*
X95017676Y-29405237D02*
X95112914Y-29500475D01*
X95112914Y-29500475D02*
X95160533Y-29595713D01*
X92034819Y-30405238D02*
X92034819Y-30976666D01*
X92034819Y-30690952D02*
X91034819Y-30690952D01*
X91034819Y-30690952D02*
X91177676Y-30786190D01*
X91177676Y-30786190D02*
X91272914Y-30881428D01*
X91272914Y-30881428D02*
X91320533Y-30976666D01*
X91034819Y-29786190D02*
X91034819Y-29690952D01*
X91034819Y-29690952D02*
X91082438Y-29595714D01*
X91082438Y-29595714D02*
X91130057Y-29548095D01*
X91130057Y-29548095D02*
X91225295Y-29500476D01*
X91225295Y-29500476D02*
X91415771Y-29452857D01*
X91415771Y-29452857D02*
X91653866Y-29452857D01*
X91653866Y-29452857D02*
X91844342Y-29500476D01*
X91844342Y-29500476D02*
X91939580Y-29548095D01*
X91939580Y-29548095D02*
X91987200Y-29595714D01*
X91987200Y-29595714D02*
X92034819Y-29690952D01*
X92034819Y-29690952D02*
X92034819Y-29786190D01*
X92034819Y-29786190D02*
X91987200Y-29881428D01*
X91987200Y-29881428D02*
X91939580Y-29929047D01*
X91939580Y-29929047D02*
X91844342Y-29976666D01*
X91844342Y-29976666D02*
X91653866Y-30024285D01*
X91653866Y-30024285D02*
X91415771Y-30024285D01*
X91415771Y-30024285D02*
X91225295Y-29976666D01*
X91225295Y-29976666D02*
X91130057Y-29929047D01*
X91130057Y-29929047D02*
X91082438Y-29881428D01*
X91082438Y-29881428D02*
X91034819Y-29786190D01*
X92034819Y-29024285D02*
X91034819Y-29024285D01*
X91653866Y-28929047D02*
X92034819Y-28643333D01*
X91368152Y-28643333D02*
X91749104Y-29024285D01*
D11*
X20310000Y-108830000D02*
X20310000Y-107500000D01*
X21640000Y-108830000D02*
X20310000Y-108830000D01*
X22910000Y-108830000D02*
X99170000Y-108830000D01*
X22910000Y-108830000D02*
X22910000Y-106230000D01*
X99170000Y-108830000D02*
X99170000Y-103630000D01*
X20310000Y-106230000D02*
X20310000Y-103630000D01*
X22910000Y-106230000D02*
X20310000Y-106230000D01*
X20310000Y-103630000D02*
X99170000Y-103630000D01*
X20310000Y-103830000D02*
X20310000Y-102500000D01*
X21640000Y-103830000D02*
X20310000Y-103830000D01*
X22910000Y-103830000D02*
X99170000Y-103830000D01*
X22910000Y-103830000D02*
X22910000Y-101230000D01*
X99170000Y-103830000D02*
X99170000Y-98630000D01*
X20310000Y-101230000D02*
X20310000Y-98630000D01*
X22910000Y-101230000D02*
X20310000Y-101230000D01*
X20310000Y-98630000D02*
X99170000Y-98630000D01*
X12670000Y-98830000D02*
X12670000Y-97500000D01*
X14000000Y-98830000D02*
X12670000Y-98830000D01*
X15270000Y-98830000D02*
X109310000Y-98830000D01*
X15270000Y-98830000D02*
X15270000Y-96230000D01*
X109310000Y-98830000D02*
X109310000Y-93630000D01*
X12670000Y-96230000D02*
X12670000Y-93630000D01*
X15270000Y-96230000D02*
X12670000Y-96230000D01*
X12670000Y-93630000D02*
X109310000Y-93630000D01*
X12670000Y-93830000D02*
X12670000Y-92500000D01*
X14000000Y-93830000D02*
X12670000Y-93830000D01*
X15270000Y-93830000D02*
X109310000Y-93830000D01*
X15270000Y-93830000D02*
X15270000Y-91230000D01*
X109310000Y-93830000D02*
X109310000Y-88630000D01*
X12670000Y-91230000D02*
X12670000Y-88630000D01*
X15270000Y-91230000D02*
X12670000Y-91230000D01*
X12670000Y-88630000D02*
X109310000Y-88630000D01*
X12670000Y-88830000D02*
X12670000Y-87500000D01*
X14000000Y-88830000D02*
X12670000Y-88830000D01*
X15270000Y-88830000D02*
X109310000Y-88830000D01*
X15270000Y-88830000D02*
X15270000Y-86230000D01*
X109310000Y-88830000D02*
X109310000Y-83630000D01*
X12670000Y-86230000D02*
X12670000Y-83630000D01*
X15270000Y-86230000D02*
X12670000Y-86230000D01*
X12670000Y-83630000D02*
X109310000Y-83630000D01*
X12670000Y-83830000D02*
X12670000Y-82500000D01*
X14000000Y-83830000D02*
X12670000Y-83830000D01*
X15270000Y-83830000D02*
X109310000Y-83830000D01*
X15270000Y-83830000D02*
X15270000Y-81230000D01*
X109310000Y-83830000D02*
X109310000Y-78630000D01*
X12670000Y-81230000D02*
X12670000Y-78630000D01*
X15270000Y-81230000D02*
X12670000Y-81230000D01*
X12670000Y-78630000D02*
X109310000Y-78630000D01*
X37440000Y-21690000D02*
X37440000Y-47210000D01*
X37440000Y-47210000D02*
X41940000Y-47210000D01*
X38690000Y-21690000D02*
X37440000Y-21690000D01*
X41940000Y-21690000D02*
X40690000Y-21690000D01*
X41940000Y-47210000D02*
X41940000Y-21690000D01*
X40690000Y-21690000D02*
G75*
G02*
X38690000Y-21690000I-1000000J0D01*
G01*
X68880000Y-60880000D02*
X68880000Y-61195000D01*
X68880000Y-60880000D02*
X74120000Y-60880000D01*
X68880000Y-63305000D02*
X68880000Y-63620000D01*
X68880000Y-63620000D02*
X74120000Y-63620000D01*
X74120000Y-60880000D02*
X74120000Y-61195000D01*
X74120000Y-63305000D02*
X74120000Y-63620000D01*
X92621000Y-66330000D02*
X93879000Y-66330000D01*
X92621000Y-68170000D02*
X93879000Y-68170000D01*
X37440000Y-50810000D02*
X37440000Y-76330000D01*
X37440000Y-76330000D02*
X41940000Y-76330000D01*
X38690000Y-50810000D02*
X37440000Y-50810000D01*
X41940000Y-50810000D02*
X40690000Y-50810000D01*
X41940000Y-76330000D02*
X41940000Y-50810000D01*
X40690000Y-50810000D02*
G75*
G02*
X38690000Y-50810000I-1000000J0D01*
G01*
X103670000Y-54530000D02*
X103670000Y-46850000D01*
X106330000Y-46850000D02*
X103670000Y-46850000D01*
X106330000Y-54530000D02*
X103670000Y-54530000D01*
X106330000Y-54530000D02*
X106330000Y-46850000D01*
X106330000Y-55800000D02*
X106330000Y-57130000D01*
X106330000Y-57130000D02*
X105000000Y-57130000D01*
X103600000Y-20770000D02*
X103600000Y-43970000D01*
X103600000Y-43970000D02*
X106400000Y-43970000D01*
X106400000Y-20770000D02*
X103600000Y-20770000D01*
X106400000Y-23480000D02*
X103600000Y-23480000D01*
X106400000Y-43970000D02*
X106400000Y-20770000D01*
X91390000Y-63500000D02*
X91390000Y-58800000D01*
X95090000Y-63500000D02*
X95090000Y-58800000D01*
X91390000Y-58800000D02*
G75*
G02*
X95090000Y-58800000I1850000J0D01*
G01*
X95090000Y-63500000D02*
G75*
G02*
X91390000Y-63500000I-1850000J0D01*
G01*
X64660000Y-21500000D02*
X64660000Y-57180000D01*
X64660000Y-57180000D02*
X77580000Y-57180000D01*
X70120000Y-21500000D02*
X64660000Y-21500000D01*
X77580000Y-21500000D02*
X72120000Y-21500000D01*
X77580000Y-57180000D02*
X77580000Y-21500000D01*
X72120000Y-21500000D02*
G75*
G02*
X70120000Y-21500000I-1000000J0D01*
G01*
X49580000Y-54020000D02*
X49580000Y-57860000D01*
X49580000Y-57860000D02*
X51420000Y-57860000D01*
X50500000Y-53070000D02*
X50500000Y-54020000D01*
X50500000Y-58810000D02*
X50500000Y-57860000D01*
X51420000Y-54020000D02*
X49580000Y-54020000D01*
X51420000Y-57860000D02*
X51420000Y-54020000D01*
X96750000Y-15750000D02*
X96750000Y-14250000D01*
X95500000Y-11750000D02*
X91000000Y-11750000D01*
X91000000Y-18250000D02*
X95500000Y-18250000D01*
X89750000Y-14250000D02*
X89750000Y-15750000D01*
X103630000Y-71120000D02*
X103945000Y-71120000D01*
X103630000Y-71120000D02*
X103630000Y-65880000D01*
X106055000Y-71120000D02*
X106370000Y-71120000D01*
X106370000Y-71120000D02*
X106370000Y-65880000D01*
X103630000Y-65880000D02*
X103945000Y-65880000D01*
X106055000Y-65880000D02*
X106370000Y-65880000D01*
X52300000Y-21760000D02*
X52300000Y-47280000D01*
X52300000Y-47280000D02*
X56800000Y-47280000D01*
X53550000Y-21760000D02*
X52300000Y-21760000D01*
X56800000Y-21760000D02*
X55550000Y-21760000D01*
X56800000Y-47280000D02*
X56800000Y-21760000D01*
X55550000Y-21760000D02*
G75*
G02*
X53550000Y-21760000I-1000000J0D01*
G01*
X81525000Y-17759875D02*
X81525000Y-17259875D01*
X81275000Y-17509875D02*
X81775000Y-17509875D01*
X80420000Y-14955100D02*
X85580000Y-14955100D01*
X80420000Y-14915100D02*
X85580000Y-14915100D01*
X80421000Y-14875100D02*
X85579000Y-14875100D01*
X80422000Y-14835100D02*
X85578000Y-14835100D01*
X80424000Y-14795100D02*
X85576000Y-14795100D01*
X80427000Y-14755100D02*
X85573000Y-14755100D01*
X80431000Y-14715100D02*
X81960000Y-14715100D01*
X84040000Y-14715100D02*
X85569000Y-14715100D01*
X80435000Y-14675100D02*
X81960000Y-14675100D01*
X84040000Y-14675100D02*
X85565000Y-14675100D01*
X80439000Y-14635100D02*
X81960000Y-14635100D01*
X84040000Y-14635100D02*
X85561000Y-14635100D01*
X80444000Y-14595100D02*
X81960000Y-14595100D01*
X84040000Y-14595100D02*
X85556000Y-14595100D01*
X80450000Y-14555100D02*
X81960000Y-14555100D01*
X84040000Y-14555100D02*
X85550000Y-14555100D01*
X80457000Y-14515100D02*
X81960000Y-14515100D01*
X84040000Y-14515100D02*
X85543000Y-14515100D01*
X80464000Y-14475100D02*
X81960000Y-14475100D01*
X84040000Y-14475100D02*
X85536000Y-14475100D01*
X80472000Y-14435100D02*
X81960000Y-14435100D01*
X84040000Y-14435100D02*
X85528000Y-14435100D01*
X80480000Y-14395100D02*
X81960000Y-14395100D01*
X84040000Y-14395100D02*
X85520000Y-14395100D01*
X80489000Y-14355100D02*
X81960000Y-14355100D01*
X84040000Y-14355100D02*
X85511000Y-14355100D01*
X80499000Y-14315100D02*
X81960000Y-14315100D01*
X84040000Y-14315100D02*
X85501000Y-14315100D01*
X80509000Y-14275100D02*
X81960000Y-14275100D01*
X84040000Y-14275100D02*
X85491000Y-14275100D01*
X80520000Y-14234100D02*
X81960000Y-14234100D01*
X84040000Y-14234100D02*
X85480000Y-14234100D01*
X80532000Y-14194100D02*
X81960000Y-14194100D01*
X84040000Y-14194100D02*
X85468000Y-14194100D01*
X80545000Y-14154100D02*
X81960000Y-14154100D01*
X84040000Y-14154100D02*
X85455000Y-14154100D01*
X80558000Y-14114100D02*
X81960000Y-14114100D01*
X84040000Y-14114100D02*
X85442000Y-14114100D01*
X80572000Y-14074100D02*
X81960000Y-14074100D01*
X84040000Y-14074100D02*
X85428000Y-14074100D01*
X80586000Y-14034100D02*
X81960000Y-14034100D01*
X84040000Y-14034100D02*
X85414000Y-14034100D01*
X80602000Y-13994100D02*
X81960000Y-13994100D01*
X84040000Y-13994100D02*
X85398000Y-13994100D01*
X80618000Y-13954100D02*
X81960000Y-13954100D01*
X84040000Y-13954100D02*
X85382000Y-13954100D01*
X80635000Y-13914100D02*
X81960000Y-13914100D01*
X84040000Y-13914100D02*
X85365000Y-13914100D01*
X80652000Y-13874100D02*
X81960000Y-13874100D01*
X84040000Y-13874100D02*
X85348000Y-13874100D01*
X80671000Y-13834100D02*
X81960000Y-13834100D01*
X84040000Y-13834100D02*
X85329000Y-13834100D01*
X80690000Y-13794100D02*
X81960000Y-13794100D01*
X84040000Y-13794100D02*
X85310000Y-13794100D01*
X80710000Y-13754100D02*
X81960000Y-13754100D01*
X84040000Y-13754100D02*
X85290000Y-13754100D01*
X80732000Y-13714100D02*
X81960000Y-13714100D01*
X84040000Y-13714100D02*
X85268000Y-13714100D01*
X80753000Y-13674100D02*
X81960000Y-13674100D01*
X84040000Y-13674100D02*
X85247000Y-13674100D01*
X80776000Y-13634100D02*
X81960000Y-13634100D01*
X84040000Y-13634100D02*
X85224000Y-13634100D01*
X80800000Y-13594100D02*
X81960000Y-13594100D01*
X84040000Y-13594100D02*
X85200000Y-13594100D01*
X80825000Y-13554100D02*
X81960000Y-13554100D01*
X84040000Y-13554100D02*
X85175000Y-13554100D01*
X80851000Y-13514100D02*
X81960000Y-13514100D01*
X84040000Y-13514100D02*
X85149000Y-13514100D01*
X80878000Y-13474100D02*
X81960000Y-13474100D01*
X84040000Y-13474100D02*
X85122000Y-13474100D01*
X80905000Y-13434100D02*
X81960000Y-13434100D01*
X84040000Y-13434100D02*
X85095000Y-13434100D01*
X80935000Y-13394100D02*
X81960000Y-13394100D01*
X84040000Y-13394100D02*
X85065000Y-13394100D01*
X80965000Y-13354100D02*
X81960000Y-13354100D01*
X84040000Y-13354100D02*
X85035000Y-13354100D01*
X80996000Y-13314100D02*
X81960000Y-13314100D01*
X84040000Y-13314100D02*
X85004000Y-13314100D01*
X81029000Y-13274100D02*
X81960000Y-13274100D01*
X84040000Y-13274100D02*
X84971000Y-13274100D01*
X81063000Y-13234100D02*
X81960000Y-13234100D01*
X84040000Y-13234100D02*
X84937000Y-13234100D01*
X81099000Y-13194100D02*
X81960000Y-13194100D01*
X84040000Y-13194100D02*
X84901000Y-13194100D01*
X81136000Y-13154100D02*
X81960000Y-13154100D01*
X84040000Y-13154100D02*
X84864000Y-13154100D01*
X81174000Y-13114100D02*
X81960000Y-13114100D01*
X84040000Y-13114100D02*
X84826000Y-13114100D01*
X81215000Y-13074100D02*
X81960000Y-13074100D01*
X84040000Y-13074100D02*
X84785000Y-13074100D01*
X81257000Y-13034100D02*
X81960000Y-13034100D01*
X84040000Y-13034100D02*
X84743000Y-13034100D01*
X81301000Y-12994100D02*
X81960000Y-12994100D01*
X84040000Y-12994100D02*
X84699000Y-12994100D01*
X81347000Y-12954100D02*
X81960000Y-12954100D01*
X84040000Y-12954100D02*
X84653000Y-12954100D01*
X81395000Y-12914100D02*
X81960000Y-12914100D01*
X84040000Y-12914100D02*
X84605000Y-12914100D01*
X81446000Y-12874100D02*
X81960000Y-12874100D01*
X84040000Y-12874100D02*
X84554000Y-12874100D01*
X81500000Y-12834100D02*
X81960000Y-12834100D01*
X84040000Y-12834100D02*
X84500000Y-12834100D01*
X81557000Y-12794100D02*
X81960000Y-12794100D01*
X84040000Y-12794100D02*
X84443000Y-12794100D01*
X81617000Y-12754100D02*
X81960000Y-12754100D01*
X84040000Y-12754100D02*
X84383000Y-12754100D01*
X81681000Y-12714100D02*
X81960000Y-12714100D01*
X84040000Y-12714100D02*
X84319000Y-12714100D01*
X81749000Y-12674100D02*
X81960000Y-12674100D01*
X84040000Y-12674100D02*
X84251000Y-12674100D01*
X81822000Y-12634100D02*
X84178000Y-12634100D01*
X81902000Y-12594100D02*
X84098000Y-12594100D01*
X81989000Y-12554100D02*
X84011000Y-12554100D01*
X82085000Y-12514100D02*
X83915000Y-12514100D01*
X82195000Y-12474100D02*
X83805000Y-12474100D01*
X82323000Y-12434100D02*
X83677000Y-12434100D01*
X82482000Y-12394100D02*
X83518000Y-12394100D01*
X82716000Y-12354100D02*
X83284000Y-12354100D01*
X85620000Y-14955100D02*
G75*
G02*
X80380000Y-14955100I-2620000J0D01*
G01*
X80380000Y-14955100D02*
G75*
G02*
X85620000Y-14955100I2620000J0D01*
G01*
X86660000Y-21040000D02*
X86660000Y-71960000D01*
X86660000Y-71960000D02*
X99580000Y-71960000D01*
X92120000Y-21040000D02*
X86660000Y-21040000D01*
X99580000Y-21040000D02*
X94120000Y-21040000D01*
X99580000Y-71960000D02*
X99580000Y-21040000D01*
X94120000Y-21040000D02*
G75*
G02*
X92120000Y-21040000I-1000000J0D01*
G01*
X14035000Y-21670000D02*
X14035000Y-57350000D01*
X14035000Y-57350000D02*
X26955000Y-57350000D01*
X19495000Y-21670000D02*
X14035000Y-21670000D01*
X26955000Y-21670000D02*
X21495000Y-21670000D01*
X26955000Y-57350000D02*
X26955000Y-21670000D01*
X21495000Y-21670000D02*
G75*
G02*
X19495000Y-21670000I-1000000J0D01*
G01*
X92621000Y-53830000D02*
X93879000Y-53830000D01*
X92621000Y-55670000D02*
X93879000Y-55670000D01*
X17880000Y-61130000D02*
X17880000Y-61445000D01*
X17880000Y-61130000D02*
X23120000Y-61130000D01*
X17880000Y-63555000D02*
X17880000Y-63870000D01*
X17880000Y-63870000D02*
X23120000Y-63870000D01*
X23120000Y-61130000D02*
X23120000Y-61445000D01*
X23120000Y-63555000D02*
X23120000Y-63870000D01*
X92580000Y-27890000D02*
X92580000Y-31730000D01*
X92580000Y-31730000D02*
X94420000Y-31730000D01*
X93500000Y-26940000D02*
X93500000Y-27890000D01*
X93500000Y-32680000D02*
X93500000Y-31730000D01*
X94420000Y-27890000D02*
X92580000Y-27890000D01*
X94420000Y-31730000D02*
X94420000Y-27890000D01*
%LPC*%
D12*
X21640000Y-107500000D03*
D13*
X21640000Y-104960000D03*
X24180000Y-107500000D03*
X24180000Y-104960000D03*
X26720000Y-107500000D03*
X26720000Y-104960000D03*
X29260000Y-107500000D03*
X29260000Y-104960000D03*
X31800000Y-107500000D03*
X31800000Y-104960000D03*
X34340000Y-107500000D03*
X34340000Y-104960000D03*
X36880000Y-107500000D03*
X36880000Y-104960000D03*
X39420000Y-107500000D03*
X39420000Y-104960000D03*
X41960000Y-107500000D03*
X41960000Y-104960000D03*
X44500000Y-107500000D03*
X44500000Y-104960000D03*
X47040000Y-107500000D03*
X47040000Y-104960000D03*
X49580000Y-107500000D03*
X49580000Y-104960000D03*
X52120000Y-107500000D03*
X52120000Y-104960000D03*
X54660000Y-107500000D03*
X54660000Y-104960000D03*
X57200000Y-107500000D03*
X57200000Y-104960000D03*
X59740000Y-107500000D03*
X59740000Y-104960000D03*
X62280000Y-107500000D03*
X62280000Y-104960000D03*
X64820000Y-107500000D03*
X64820000Y-104960000D03*
X67360000Y-107500000D03*
X67360000Y-104960000D03*
X69900000Y-107500000D03*
X69900000Y-104960000D03*
X72440000Y-107500000D03*
X72440000Y-104960000D03*
X74980000Y-107500000D03*
X74980000Y-104960000D03*
X77520000Y-107500000D03*
X77520000Y-104960000D03*
X80060000Y-107500000D03*
X80060000Y-104960000D03*
X82600000Y-107500000D03*
X82600000Y-104960000D03*
X85140000Y-107500000D03*
X85140000Y-104960000D03*
X87680000Y-107500000D03*
X87680000Y-104960000D03*
X90220000Y-107500000D03*
X90220000Y-104960000D03*
X92760000Y-107500000D03*
X92760000Y-104960000D03*
X95300000Y-107500000D03*
X95300000Y-104960000D03*
X97840000Y-107500000D03*
X97840000Y-104960000D03*
D12*
X21640000Y-102500000D03*
D13*
X21640000Y-99960000D03*
X24180000Y-102500000D03*
X24180000Y-99960000D03*
X26720000Y-102500000D03*
X26720000Y-99960000D03*
X29260000Y-102500000D03*
X29260000Y-99960000D03*
X31800000Y-102500000D03*
X31800000Y-99960000D03*
X34340000Y-102500000D03*
X34340000Y-99960000D03*
X36880000Y-102500000D03*
X36880000Y-99960000D03*
X39420000Y-102500000D03*
X39420000Y-99960000D03*
X41960000Y-102500000D03*
X41960000Y-99960000D03*
X44500000Y-102500000D03*
X44500000Y-99960000D03*
X47040000Y-102500000D03*
X47040000Y-99960000D03*
X49580000Y-102500000D03*
X49580000Y-99960000D03*
X52120000Y-102500000D03*
X52120000Y-99960000D03*
X54660000Y-102500000D03*
X54660000Y-99960000D03*
X57200000Y-102500000D03*
X57200000Y-99960000D03*
X59740000Y-102500000D03*
X59740000Y-99960000D03*
X62280000Y-102500000D03*
X62280000Y-99960000D03*
X64820000Y-102500000D03*
X64820000Y-99960000D03*
X67360000Y-102500000D03*
X67360000Y-99960000D03*
X69900000Y-102500000D03*
X69900000Y-99960000D03*
X72440000Y-102500000D03*
X72440000Y-99960000D03*
X74980000Y-102500000D03*
X74980000Y-99960000D03*
X77520000Y-102500000D03*
X77520000Y-99960000D03*
X80060000Y-102500000D03*
X80060000Y-99960000D03*
X82600000Y-102500000D03*
X82600000Y-99960000D03*
X85140000Y-102500000D03*
X85140000Y-99960000D03*
X87680000Y-102500000D03*
X87680000Y-99960000D03*
X90220000Y-102500000D03*
X90220000Y-99960000D03*
X92760000Y-102500000D03*
X92760000Y-99960000D03*
X95300000Y-102500000D03*
X95300000Y-99960000D03*
X97840000Y-102500000D03*
X97840000Y-99960000D03*
D12*
X14000000Y-97500000D03*
D13*
X14000000Y-94960000D03*
X16540000Y-97500000D03*
X16540000Y-94960000D03*
X19080000Y-97500000D03*
X19080000Y-94960000D03*
X21620000Y-97500000D03*
X21620000Y-94960000D03*
X24160000Y-97500000D03*
X24160000Y-94960000D03*
X26700000Y-97500000D03*
X26700000Y-94960000D03*
X29240000Y-97500000D03*
X29240000Y-94960000D03*
X31780000Y-97500000D03*
X31780000Y-94960000D03*
X34320000Y-97500000D03*
X34320000Y-94960000D03*
X36860000Y-97500000D03*
X36860000Y-94960000D03*
X39400000Y-97500000D03*
X39400000Y-94960000D03*
X41940000Y-97500000D03*
X41940000Y-94960000D03*
X44480000Y-97500000D03*
X44480000Y-94960000D03*
X47020000Y-97500000D03*
X47020000Y-94960000D03*
X49560000Y-97500000D03*
X49560000Y-94960000D03*
X52100000Y-97500000D03*
X52100000Y-94960000D03*
X54640000Y-97500000D03*
X54640000Y-94960000D03*
X57180000Y-97500000D03*
X57180000Y-94960000D03*
X59720000Y-97500000D03*
X59720000Y-94960000D03*
X62260000Y-97500000D03*
X62260000Y-94960000D03*
X64800000Y-97500000D03*
X64800000Y-94960000D03*
X67340000Y-97500000D03*
X67340000Y-94960000D03*
X69880000Y-97500000D03*
X69880000Y-94960000D03*
X72420000Y-97500000D03*
X72420000Y-94960000D03*
X74960000Y-97500000D03*
X74960000Y-94960000D03*
X77500000Y-97500000D03*
X77500000Y-94960000D03*
X80040000Y-97500000D03*
X80040000Y-94960000D03*
X82580000Y-97500000D03*
X82580000Y-94960000D03*
X85120000Y-97500000D03*
X85120000Y-94960000D03*
X87660000Y-97500000D03*
X87660000Y-94960000D03*
X90200000Y-97500000D03*
X90200000Y-94960000D03*
X92740000Y-97500000D03*
X92740000Y-94960000D03*
X95280000Y-97500000D03*
X95280000Y-94960000D03*
X97820000Y-97500000D03*
X97820000Y-94960000D03*
X100360000Y-97500000D03*
X100360000Y-94960000D03*
X102900000Y-97500000D03*
X102900000Y-94960000D03*
X105440000Y-97500000D03*
X105440000Y-94960000D03*
X107980000Y-97500000D03*
X107980000Y-94960000D03*
D12*
X14000000Y-92500000D03*
D13*
X14000000Y-89960000D03*
X16540000Y-92500000D03*
X16540000Y-89960000D03*
X19080000Y-92500000D03*
X19080000Y-89960000D03*
X21620000Y-92500000D03*
X21620000Y-89960000D03*
X24160000Y-92500000D03*
X24160000Y-89960000D03*
X26700000Y-92500000D03*
X26700000Y-89960000D03*
X29240000Y-92500000D03*
X29240000Y-89960000D03*
X31780000Y-92500000D03*
X31780000Y-89960000D03*
X34320000Y-92500000D03*
X34320000Y-89960000D03*
X36860000Y-92500000D03*
X36860000Y-89960000D03*
X39400000Y-92500000D03*
X39400000Y-89960000D03*
X41940000Y-92500000D03*
X41940000Y-89960000D03*
X44480000Y-92500000D03*
X44480000Y-89960000D03*
X47020000Y-92500000D03*
X47020000Y-89960000D03*
X49560000Y-92500000D03*
X49560000Y-89960000D03*
X52100000Y-92500000D03*
X52100000Y-89960000D03*
X54640000Y-92500000D03*
X54640000Y-89960000D03*
X57180000Y-92500000D03*
X57180000Y-89960000D03*
X59720000Y-92500000D03*
X59720000Y-89960000D03*
X62260000Y-92500000D03*
X62260000Y-89960000D03*
X64800000Y-92500000D03*
X64800000Y-89960000D03*
X67340000Y-92500000D03*
X67340000Y-89960000D03*
X69880000Y-92500000D03*
X69880000Y-89960000D03*
X72420000Y-92500000D03*
X72420000Y-89960000D03*
X74960000Y-92500000D03*
X74960000Y-89960000D03*
X77500000Y-92500000D03*
X77500000Y-89960000D03*
X80040000Y-92500000D03*
X80040000Y-89960000D03*
X82580000Y-92500000D03*
X82580000Y-89960000D03*
X85120000Y-92500000D03*
X85120000Y-89960000D03*
X87660000Y-92500000D03*
X87660000Y-89960000D03*
X90200000Y-92500000D03*
X90200000Y-89960000D03*
X92740000Y-92500000D03*
X92740000Y-89960000D03*
X95280000Y-92500000D03*
X95280000Y-89960000D03*
X97820000Y-92500000D03*
X97820000Y-89960000D03*
X100360000Y-92500000D03*
X100360000Y-89960000D03*
X102900000Y-92500000D03*
X102900000Y-89960000D03*
X105440000Y-92500000D03*
X105440000Y-89960000D03*
X107980000Y-92500000D03*
X107980000Y-89960000D03*
D12*
X14000000Y-87500000D03*
D13*
X14000000Y-84960000D03*
X16540000Y-87500000D03*
X16540000Y-84960000D03*
X19080000Y-87500000D03*
X19080000Y-84960000D03*
X21620000Y-87500000D03*
X21620000Y-84960000D03*
X24160000Y-87500000D03*
X24160000Y-84960000D03*
X26700000Y-87500000D03*
X26700000Y-84960000D03*
X29240000Y-87500000D03*
X29240000Y-84960000D03*
X31780000Y-87500000D03*
X31780000Y-84960000D03*
X34320000Y-87500000D03*
X34320000Y-84960000D03*
X36860000Y-87500000D03*
X36860000Y-84960000D03*
X39400000Y-87500000D03*
X39400000Y-84960000D03*
X41940000Y-87500000D03*
X41940000Y-84960000D03*
X44480000Y-87500000D03*
X44480000Y-84960000D03*
X47020000Y-87500000D03*
X47020000Y-84960000D03*
X49560000Y-87500000D03*
X49560000Y-84960000D03*
X52100000Y-87500000D03*
X52100000Y-84960000D03*
X54640000Y-87500000D03*
X54640000Y-84960000D03*
X57180000Y-87500000D03*
X57180000Y-84960000D03*
X59720000Y-87500000D03*
X59720000Y-84960000D03*
X62260000Y-87500000D03*
X62260000Y-84960000D03*
X64800000Y-87500000D03*
X64800000Y-84960000D03*
X67340000Y-87500000D03*
X67340000Y-84960000D03*
X69880000Y-87500000D03*
X69880000Y-84960000D03*
X72420000Y-87500000D03*
X72420000Y-84960000D03*
X74960000Y-87500000D03*
X74960000Y-84960000D03*
X77500000Y-87500000D03*
X77500000Y-84960000D03*
X80040000Y-87500000D03*
X80040000Y-84960000D03*
X82580000Y-87500000D03*
X82580000Y-84960000D03*
X85120000Y-87500000D03*
X85120000Y-84960000D03*
X87660000Y-87500000D03*
X87660000Y-84960000D03*
X90200000Y-87500000D03*
X90200000Y-84960000D03*
X92740000Y-87500000D03*
X92740000Y-84960000D03*
X95280000Y-87500000D03*
X95280000Y-84960000D03*
X97820000Y-87500000D03*
X97820000Y-84960000D03*
X100360000Y-87500000D03*
X100360000Y-84960000D03*
X102900000Y-87500000D03*
X102900000Y-84960000D03*
X105440000Y-87500000D03*
X105440000Y-84960000D03*
X107980000Y-87500000D03*
X107980000Y-84960000D03*
D12*
X14000000Y-82500000D03*
D13*
X14000000Y-79960000D03*
X16540000Y-82500000D03*
X16540000Y-79960000D03*
X19080000Y-82500000D03*
X19080000Y-79960000D03*
X21620000Y-82500000D03*
X21620000Y-79960000D03*
X24160000Y-82500000D03*
X24160000Y-79960000D03*
X26700000Y-82500000D03*
X26700000Y-79960000D03*
X29240000Y-82500000D03*
X29240000Y-79960000D03*
X31780000Y-82500000D03*
X31780000Y-79960000D03*
X34320000Y-82500000D03*
X34320000Y-79960000D03*
X36860000Y-82500000D03*
X36860000Y-79960000D03*
X39400000Y-82500000D03*
X39400000Y-79960000D03*
X41940000Y-82500000D03*
X41940000Y-79960000D03*
X44480000Y-82500000D03*
X44480000Y-79960000D03*
X47020000Y-82500000D03*
X47020000Y-79960000D03*
X49560000Y-82500000D03*
X49560000Y-79960000D03*
X52100000Y-82500000D03*
X52100000Y-79960000D03*
X54640000Y-82500000D03*
X54640000Y-79960000D03*
X57180000Y-82500000D03*
X57180000Y-79960000D03*
X59720000Y-82500000D03*
X59720000Y-79960000D03*
X62260000Y-82500000D03*
X62260000Y-79960000D03*
X64800000Y-82500000D03*
X64800000Y-79960000D03*
X67340000Y-82500000D03*
X67340000Y-79960000D03*
X69880000Y-82500000D03*
X69880000Y-79960000D03*
X72420000Y-82500000D03*
X72420000Y-79960000D03*
X74960000Y-82500000D03*
X74960000Y-79960000D03*
X77500000Y-82500000D03*
X77500000Y-79960000D03*
X80040000Y-82500000D03*
X80040000Y-79960000D03*
X82580000Y-82500000D03*
X82580000Y-79960000D03*
X85120000Y-82500000D03*
X85120000Y-79960000D03*
X87660000Y-82500000D03*
X87660000Y-79960000D03*
X90200000Y-82500000D03*
X90200000Y-79960000D03*
X92740000Y-82500000D03*
X92740000Y-79960000D03*
X95280000Y-82500000D03*
X95280000Y-79960000D03*
X97820000Y-82500000D03*
X97820000Y-79960000D03*
X100360000Y-82500000D03*
X100360000Y-79960000D03*
X102900000Y-82500000D03*
X102900000Y-79960000D03*
X105440000Y-82500000D03*
X105440000Y-79960000D03*
X107980000Y-82500000D03*
X107980000Y-79960000D03*
D14*
X35880000Y-23020000D03*
D15*
X35880000Y-25560000D03*
X35880000Y-28100000D03*
X35880000Y-30640000D03*
X35880000Y-33180000D03*
X35880000Y-35720000D03*
X35880000Y-38260000D03*
X35880000Y-40800000D03*
X35880000Y-43340000D03*
X35880000Y-45880000D03*
X43500000Y-45880000D03*
X43500000Y-43340000D03*
X43500000Y-40800000D03*
X43500000Y-38260000D03*
X43500000Y-35720000D03*
X43500000Y-33180000D03*
X43500000Y-30640000D03*
X43500000Y-28100000D03*
X43500000Y-25560000D03*
X43500000Y-23020000D03*
D16*
X69000000Y-62250000D03*
X74000000Y-62250000D03*
D17*
X15000000Y-15000000D03*
D16*
X92000000Y-67250000D03*
X94500000Y-67250000D03*
D14*
X35880000Y-52140000D03*
D15*
X35880000Y-54680000D03*
X35880000Y-57220000D03*
X35880000Y-59760000D03*
X35880000Y-62300000D03*
X35880000Y-64840000D03*
X35880000Y-67380000D03*
X35880000Y-69920000D03*
X35880000Y-72460000D03*
X35880000Y-75000000D03*
X43500000Y-75000000D03*
X43500000Y-72460000D03*
X43500000Y-69920000D03*
X43500000Y-67380000D03*
X43500000Y-64840000D03*
X43500000Y-62300000D03*
X43500000Y-59760000D03*
X43500000Y-57220000D03*
X43500000Y-54680000D03*
X43500000Y-52140000D03*
D12*
X105000000Y-55800000D03*
D13*
X105000000Y-53260000D03*
X105000000Y-50720000D03*
X105000000Y-48180000D03*
D18*
X105000000Y-22210000D03*
D19*
X105000000Y-24750000D03*
X105000000Y-27290000D03*
X105000000Y-29830000D03*
X105000000Y-32370000D03*
X105000000Y-34910000D03*
X105000000Y-37450000D03*
X105000000Y-39990000D03*
X105000000Y-42530000D03*
D17*
X105000000Y-15000000D03*
D20*
X93240000Y-63050000D03*
X93240000Y-59250000D03*
D18*
X63500000Y-22830000D03*
D19*
X63500000Y-25370000D03*
X63500000Y-27910000D03*
X63500000Y-30450000D03*
X63500000Y-32990000D03*
X63500000Y-35530000D03*
X63500000Y-38070000D03*
X63500000Y-40610000D03*
X63500000Y-43150000D03*
X63500000Y-45690000D03*
X63500000Y-48230000D03*
X63500000Y-50770000D03*
X63500000Y-53310000D03*
X63500000Y-55850000D03*
X78740000Y-55850000D03*
X78740000Y-53310000D03*
X78740000Y-50770000D03*
X78740000Y-48230000D03*
X78740000Y-45690000D03*
X78740000Y-43150000D03*
X78740000Y-40610000D03*
X78740000Y-38070000D03*
X78740000Y-35530000D03*
X78740000Y-32990000D03*
X78740000Y-30450000D03*
X78740000Y-27910000D03*
X78740000Y-25370000D03*
X78740000Y-22830000D03*
D21*
X50500000Y-52130000D03*
D22*
X50500000Y-59750000D03*
D17*
X15000000Y-105000000D03*
D23*
X90000000Y-12750000D03*
X96500000Y-12750000D03*
X90000000Y-17250000D03*
X96500000Y-17250000D03*
D16*
X105000000Y-71000000D03*
X105000000Y-66000000D03*
D17*
X105000000Y-105000000D03*
D14*
X50740000Y-23090000D03*
D15*
X50740000Y-25630000D03*
X50740000Y-28170000D03*
X50740000Y-30710000D03*
X50740000Y-33250000D03*
X50740000Y-35790000D03*
X50740000Y-38330000D03*
X50740000Y-40870000D03*
X50740000Y-43410000D03*
X50740000Y-45950000D03*
X58360000Y-45950000D03*
X58360000Y-43410000D03*
X58360000Y-40870000D03*
X58360000Y-38330000D03*
X58360000Y-35790000D03*
X58360000Y-33250000D03*
X58360000Y-30710000D03*
X58360000Y-28170000D03*
X58360000Y-25630000D03*
X58360000Y-23090000D03*
D18*
X83000000Y-16205100D03*
D16*
X83000000Y-13705100D03*
D18*
X85500000Y-22370000D03*
D19*
X85500000Y-24910000D03*
X85500000Y-27450000D03*
X85500000Y-29990000D03*
X85500000Y-32530000D03*
X85500000Y-35070000D03*
X85500000Y-37610000D03*
X85500000Y-40150000D03*
X85500000Y-42690000D03*
X85500000Y-45230000D03*
X85500000Y-47770000D03*
X85500000Y-50310000D03*
X85500000Y-52850000D03*
X85500000Y-55390000D03*
X85500000Y-57930000D03*
X85500000Y-60470000D03*
X85500000Y-63010000D03*
X85500000Y-65550000D03*
X85500000Y-68090000D03*
X85500000Y-70630000D03*
X100740000Y-70630000D03*
X100740000Y-68090000D03*
X100740000Y-65550000D03*
X100740000Y-63010000D03*
X100740000Y-60470000D03*
X100740000Y-57930000D03*
X100740000Y-55390000D03*
X100740000Y-52850000D03*
X100740000Y-50310000D03*
X100740000Y-47770000D03*
X100740000Y-45230000D03*
X100740000Y-42690000D03*
X100740000Y-40150000D03*
X100740000Y-37610000D03*
X100740000Y-35070000D03*
X100740000Y-32530000D03*
X100740000Y-29990000D03*
X100740000Y-27450000D03*
X100740000Y-24910000D03*
X100740000Y-22370000D03*
D18*
X12875000Y-23000000D03*
D19*
X12875000Y-25540000D03*
X12875000Y-28080000D03*
X12875000Y-30620000D03*
X12875000Y-33160000D03*
X12875000Y-35700000D03*
X12875000Y-38240000D03*
X12875000Y-40780000D03*
X12875000Y-43320000D03*
X12875000Y-45860000D03*
X12875000Y-48400000D03*
X12875000Y-50940000D03*
X12875000Y-53480000D03*
X12875000Y-56020000D03*
X28115000Y-56020000D03*
X28115000Y-53480000D03*
X28115000Y-50940000D03*
X28115000Y-48400000D03*
X28115000Y-45860000D03*
X28115000Y-43320000D03*
X28115000Y-40780000D03*
X28115000Y-38240000D03*
X28115000Y-35700000D03*
X28115000Y-33160000D03*
X28115000Y-30620000D03*
X28115000Y-28080000D03*
X28115000Y-25540000D03*
X28115000Y-23000000D03*
D16*
X92000000Y-54750000D03*
X94500000Y-54750000D03*
X18000000Y-62500000D03*
X23000000Y-62500000D03*
D21*
X93500000Y-26000000D03*
D22*
X93500000Y-33620000D03*
%LPD*%
M02*
