M48
; DRILL file {KiCad 8.0.4} date 2024-07-31T10:58:39+0200
; FORMAT={-:-/ absolute / metric / decimal}
; #@! TF.CreationDate,2024-07-31T10:58:39+02:00
; #@! TF.GenerationSoftware,Kicad,Pcbnew,8.0.4
; #@! TF.FileFunction,Plated,1,2,PTH
FMAT,2
METRIC
; #@! TA.AperFunction,Plated,PTH,ViaDrill
T1C0.300
; #@! TA.AperFunction,Plated,PTH,ComponentDrill
T2C0.700
; #@! TA.AperFunction,Plated,PTH,ComponentDrill
T3C0.800
; #@! TA.AperFunction,Plated,PTH,ComponentDrill
T4C1.000
; #@! TA.AperFunction,Plated,PTH,ComponentDrill
T5C1.100
%
G90
G05
T1
X31.211Y-45.425
X31.474Y-46.679
X32.192Y-44.884
X32.966Y-46.257
X33.156Y-49.551
X38.838Y-57.526
X41.664Y-21.513
X45.818Y-54.96
X47.175Y-23.448
X49.979Y-49.531
X52.674Y-47.828
X53.589Y-48.85
X53.936Y-44.818
X54.572Y-25.163
X55.785Y-50.816
X59.991Y-40.215
X68.443Y-31.88
X68.486Y-20.414
X69.095Y-22.428
X69.988Y-38.884
X70.51Y-31.049
X72.561Y-35.398
X73.825Y-46.133
X75.321Y-23.002
X75.413Y-42.743
X76.747Y-34.124
X77.154Y-21.403
X77.381Y-41.435
X80.84Y-52.731
X81.387Y-36.39
X82.457Y-36.829
X82.461Y-44.44
X88.594Y-49.415
X93.892Y-46.497
T2
X50.5Y-52.13
X50.5Y-59.75
X93.5Y-26.0
X93.5Y-33.62
T3
X12.875Y-23.0
X12.875Y-25.54
X12.875Y-28.08
X12.875Y-30.62
X12.875Y-33.16
X12.875Y-35.7
X12.875Y-38.24
X12.875Y-40.78
X12.875Y-43.32
X12.875Y-45.86
X12.875Y-48.4
X12.875Y-50.94
X12.875Y-53.48
X12.875Y-56.02
X18.0Y-62.5
X23.0Y-62.5
X28.115Y-23.0
X28.115Y-25.54
X28.115Y-28.08
X28.115Y-30.62
X28.115Y-33.16
X28.115Y-35.7
X28.115Y-38.24
X28.115Y-40.78
X28.115Y-43.32
X28.115Y-45.86
X28.115Y-48.4
X28.115Y-50.94
X28.115Y-53.48
X28.115Y-56.02
X35.88Y-23.02
X35.88Y-25.56
X35.88Y-28.1
X35.88Y-30.64
X35.88Y-33.18
X35.88Y-35.72
X35.88Y-38.26
X35.88Y-40.8
X35.88Y-43.34
X35.88Y-45.88
X35.88Y-52.14
X35.88Y-54.68
X35.88Y-57.22
X35.88Y-59.76
X35.88Y-62.3
X35.88Y-64.84
X35.88Y-67.38
X35.88Y-69.92
X35.88Y-72.46
X35.88Y-75.0
X43.5Y-23.02
X43.5Y-25.56
X43.5Y-28.1
X43.5Y-30.64
X43.5Y-33.18
X43.5Y-35.72
X43.5Y-38.26
X43.5Y-40.8
X43.5Y-43.34
X43.5Y-45.88
X43.5Y-52.14
X43.5Y-54.68
X43.5Y-57.22
X43.5Y-59.76
X43.5Y-62.3
X43.5Y-64.84
X43.5Y-67.38
X43.5Y-69.92
X43.5Y-72.46
X43.5Y-75.0
X50.74Y-23.09
X50.74Y-25.63
X50.74Y-28.17
X50.74Y-30.71
X50.74Y-33.25
X50.74Y-35.79
X50.74Y-38.33
X50.74Y-40.87
X50.74Y-43.41
X50.74Y-45.95
X58.36Y-23.09
X58.36Y-25.63
X58.36Y-28.17
X58.36Y-30.71
X58.36Y-33.25
X58.36Y-35.79
X58.36Y-38.33
X58.36Y-40.87
X58.36Y-43.41
X58.36Y-45.95
X63.5Y-22.83
X63.5Y-25.37
X63.5Y-27.91
X63.5Y-30.45
X63.5Y-32.99
X63.5Y-35.53
X63.5Y-38.07
X63.5Y-40.61
X63.5Y-43.15
X63.5Y-45.69
X63.5Y-48.23
X63.5Y-50.77
X63.5Y-53.31
X63.5Y-55.85
X69.0Y-62.25
X74.0Y-62.25
X78.74Y-22.83
X78.74Y-25.37
X78.74Y-27.91
X78.74Y-30.45
X78.74Y-32.99
X78.74Y-35.53
X78.74Y-38.07
X78.74Y-40.61
X78.74Y-43.15
X78.74Y-45.69
X78.74Y-48.23
X78.74Y-50.77
X78.74Y-53.31
X78.74Y-55.85
X83.0Y-13.705
X83.0Y-16.205
X85.5Y-22.37
X85.5Y-24.91
X85.5Y-27.45
X85.5Y-29.99
X85.5Y-32.53
X85.5Y-35.07
X85.5Y-37.61
X85.5Y-40.15
X85.5Y-42.69
X85.5Y-45.23
X85.5Y-47.77
X85.5Y-50.31
X85.5Y-52.85
X85.5Y-55.39
X85.5Y-57.93
X85.5Y-60.47
X85.5Y-63.01
X85.5Y-65.55
X85.5Y-68.09
X85.5Y-70.63
X92.0Y-54.75
X92.0Y-67.25
X93.24Y-59.25
X93.24Y-63.05
X94.5Y-54.75
X94.5Y-67.25
X100.74Y-22.37
X100.74Y-24.91
X100.74Y-27.45
X100.74Y-29.99
X100.74Y-32.53
X100.74Y-35.07
X100.74Y-37.61
X100.74Y-40.15
X100.74Y-42.69
X100.74Y-45.23
X100.74Y-47.77
X100.74Y-50.31
X100.74Y-52.85
X100.74Y-55.39
X100.74Y-57.93
X100.74Y-60.47
X100.74Y-63.01
X100.74Y-65.55
X100.74Y-68.09
X100.74Y-70.63
X105.0Y-22.21
X105.0Y-24.75
X105.0Y-27.29
X105.0Y-29.83
X105.0Y-32.37
X105.0Y-34.91
X105.0Y-37.45
X105.0Y-39.99
X105.0Y-42.53
X105.0Y-66.0
X105.0Y-71.0
T4
X14.0Y-79.96
X14.0Y-82.5
X14.0Y-84.96
X14.0Y-87.5
X14.0Y-89.96
X14.0Y-92.5
X14.0Y-94.96
X14.0Y-97.5
X16.54Y-79.96
X16.54Y-82.5
X16.54Y-84.96
X16.54Y-87.5
X16.54Y-89.96
X16.54Y-92.5
X16.54Y-94.96
X16.54Y-97.5
X19.08Y-79.96
X19.08Y-82.5
X19.08Y-84.96
X19.08Y-87.5
X19.08Y-89.96
X19.08Y-92.5
X19.08Y-94.96
X19.08Y-97.5
X21.62Y-79.96
X21.62Y-82.5
X21.62Y-84.96
X21.62Y-87.5
X21.62Y-89.96
X21.62Y-92.5
X21.62Y-94.96
X21.62Y-97.5
X21.64Y-99.96
X21.64Y-102.5
X21.64Y-104.96
X21.64Y-107.5
X24.16Y-79.96
X24.16Y-82.5
X24.16Y-84.96
X24.16Y-87.5
X24.16Y-89.96
X24.16Y-92.5
X24.16Y-94.96
X24.16Y-97.5
X24.18Y-99.96
X24.18Y-102.5
X24.18Y-104.96
X24.18Y-107.5
X26.7Y-79.96
X26.7Y-82.5
X26.7Y-84.96
X26.7Y-87.5
X26.7Y-89.96
X26.7Y-92.5
X26.7Y-94.96
X26.7Y-97.5
X26.72Y-99.96
X26.72Y-102.5
X26.72Y-104.96
X26.72Y-107.5
X29.24Y-79.96
X29.24Y-82.5
X29.24Y-84.96
X29.24Y-87.5
X29.24Y-89.96
X29.24Y-92.5
X29.24Y-94.96
X29.24Y-97.5
X29.26Y-99.96
X29.26Y-102.5
X29.26Y-104.96
X29.26Y-107.5
X31.78Y-79.96
X31.78Y-82.5
X31.78Y-84.96
X31.78Y-87.5
X31.78Y-89.96
X31.78Y-92.5
X31.78Y-94.96
X31.78Y-97.5
X31.8Y-99.96
X31.8Y-102.5
X31.8Y-104.96
X31.8Y-107.5
X34.32Y-79.96
X34.32Y-82.5
X34.32Y-84.96
X34.32Y-87.5
X34.32Y-89.96
X34.32Y-92.5
X34.32Y-94.96
X34.32Y-97.5
X34.34Y-99.96
X34.34Y-102.5
X34.34Y-104.96
X34.34Y-107.5
X36.86Y-79.96
X36.86Y-82.5
X36.86Y-84.96
X36.86Y-87.5
X36.86Y-89.96
X36.86Y-92.5
X36.86Y-94.96
X36.86Y-97.5
X36.88Y-99.96
X36.88Y-102.5
X36.88Y-104.96
X36.88Y-107.5
X39.4Y-79.96
X39.4Y-82.5
X39.4Y-84.96
X39.4Y-87.5
X39.4Y-89.96
X39.4Y-92.5
X39.4Y-94.96
X39.4Y-97.5
X39.42Y-99.96
X39.42Y-102.5
X39.42Y-104.96
X39.42Y-107.5
X41.94Y-79.96
X41.94Y-82.5
X41.94Y-84.96
X41.94Y-87.5
X41.94Y-89.96
X41.94Y-92.5
X41.94Y-94.96
X41.94Y-97.5
X41.96Y-99.96
X41.96Y-102.5
X41.96Y-104.96
X41.96Y-107.5
X44.48Y-79.96
X44.48Y-82.5
X44.48Y-84.96
X44.48Y-87.5
X44.48Y-89.96
X44.48Y-92.5
X44.48Y-94.96
X44.48Y-97.5
X44.5Y-99.96
X44.5Y-102.5
X44.5Y-104.96
X44.5Y-107.5
X47.02Y-79.96
X47.02Y-82.5
X47.02Y-84.96
X47.02Y-87.5
X47.02Y-89.96
X47.02Y-92.5
X47.02Y-94.96
X47.02Y-97.5
X47.04Y-99.96
X47.04Y-102.5
X47.04Y-104.96
X47.04Y-107.5
X49.56Y-79.96
X49.56Y-82.5
X49.56Y-84.96
X49.56Y-87.5
X49.56Y-89.96
X49.56Y-92.5
X49.56Y-94.96
X49.56Y-97.5
X49.58Y-99.96
X49.58Y-102.5
X49.58Y-104.96
X49.58Y-107.5
X52.1Y-79.96
X52.1Y-82.5
X52.1Y-84.96
X52.1Y-87.5
X52.1Y-89.96
X52.1Y-92.5
X52.1Y-94.96
X52.1Y-97.5
X52.12Y-99.96
X52.12Y-102.5
X52.12Y-104.96
X52.12Y-107.5
X54.64Y-79.96
X54.64Y-82.5
X54.64Y-84.96
X54.64Y-87.5
X54.64Y-89.96
X54.64Y-92.5
X54.64Y-94.96
X54.64Y-97.5
X54.66Y-99.96
X54.66Y-102.5
X54.66Y-104.96
X54.66Y-107.5
X57.18Y-79.96
X57.18Y-82.5
X57.18Y-84.96
X57.18Y-87.5
X57.18Y-89.96
X57.18Y-92.5
X57.18Y-94.96
X57.18Y-97.5
X57.2Y-99.96
X57.2Y-102.5
X57.2Y-104.96
X57.2Y-107.5
X59.72Y-79.96
X59.72Y-82.5
X59.72Y-84.96
X59.72Y-87.5
X59.72Y-89.96
X59.72Y-92.5
X59.72Y-94.96
X59.72Y-97.5
X59.74Y-99.96
X59.74Y-102.5
X59.74Y-104.96
X59.74Y-107.5
X62.26Y-79.96
X62.26Y-82.5
X62.26Y-84.96
X62.26Y-87.5
X62.26Y-89.96
X62.26Y-92.5
X62.26Y-94.96
X62.26Y-97.5
X62.28Y-99.96
X62.28Y-102.5
X62.28Y-104.96
X62.28Y-107.5
X64.8Y-79.96
X64.8Y-82.5
X64.8Y-84.96
X64.8Y-87.5
X64.8Y-89.96
X64.8Y-92.5
X64.8Y-94.96
X64.8Y-97.5
X64.82Y-99.96
X64.82Y-102.5
X64.82Y-104.96
X64.82Y-107.5
X67.34Y-79.96
X67.34Y-82.5
X67.34Y-84.96
X67.34Y-87.5
X67.34Y-89.96
X67.34Y-92.5
X67.34Y-94.96
X67.34Y-97.5
X67.36Y-99.96
X67.36Y-102.5
X67.36Y-104.96
X67.36Y-107.5
X69.88Y-79.96
X69.88Y-82.5
X69.88Y-84.96
X69.88Y-87.5
X69.88Y-89.96
X69.88Y-92.5
X69.88Y-94.96
X69.88Y-97.5
X69.9Y-99.96
X69.9Y-102.5
X69.9Y-104.96
X69.9Y-107.5
X72.42Y-79.96
X72.42Y-82.5
X72.42Y-84.96
X72.42Y-87.5
X72.42Y-89.96
X72.42Y-92.5
X72.42Y-94.96
X72.42Y-97.5
X72.44Y-99.96
X72.44Y-102.5
X72.44Y-104.96
X72.44Y-107.5
X74.96Y-79.96
X74.96Y-82.5
X74.96Y-84.96
X74.96Y-87.5
X74.96Y-89.96
X74.96Y-92.5
X74.96Y-94.96
X74.96Y-97.5
X74.98Y-99.96
X74.98Y-102.5
X74.98Y-104.96
X74.98Y-107.5
X77.5Y-79.96
X77.5Y-82.5
X77.5Y-84.96
X77.5Y-87.5
X77.5Y-89.96
X77.5Y-92.5
X77.5Y-94.96
X77.5Y-97.5
X77.52Y-99.96
X77.52Y-102.5
X77.52Y-104.96
X77.52Y-107.5
X80.04Y-79.96
X80.04Y-82.5
X80.04Y-84.96
X80.04Y-87.5
X80.04Y-89.96
X80.04Y-92.5
X80.04Y-94.96
X80.04Y-97.5
X80.06Y-99.96
X80.06Y-102.5
X80.06Y-104.96
X80.06Y-107.5
X82.58Y-79.96
X82.58Y-82.5
X82.58Y-84.96
X82.58Y-87.5
X82.58Y-89.96
X82.58Y-92.5
X82.58Y-94.96
X82.58Y-97.5
X82.6Y-99.96
X82.6Y-102.5
X82.6Y-104.96
X82.6Y-107.5
X85.12Y-79.96
X85.12Y-82.5
X85.12Y-84.96
X85.12Y-87.5
X85.12Y-89.96
X85.12Y-92.5
X85.12Y-94.96
X85.12Y-97.5
X85.14Y-99.96
X85.14Y-102.5
X85.14Y-104.96
X85.14Y-107.5
X87.66Y-79.96
X87.66Y-82.5
X87.66Y-84.96
X87.66Y-87.5
X87.66Y-89.96
X87.66Y-92.5
X87.66Y-94.96
X87.66Y-97.5
X87.68Y-99.96
X87.68Y-102.5
X87.68Y-104.96
X87.68Y-107.5
X90.2Y-79.96
X90.2Y-82.5
X90.2Y-84.96
X90.2Y-87.5
X90.2Y-89.96
X90.2Y-92.5
X90.2Y-94.96
X90.2Y-97.5
X90.22Y-99.96
X90.22Y-102.5
X90.22Y-104.96
X90.22Y-107.5
X92.74Y-79.96
X92.74Y-82.5
X92.74Y-84.96
X92.74Y-87.5
X92.74Y-89.96
X92.74Y-92.5
X92.74Y-94.96
X92.74Y-97.5
X92.76Y-99.96
X92.76Y-102.5
X92.76Y-104.96
X92.76Y-107.5
X95.28Y-79.96
X95.28Y-82.5
X95.28Y-84.96
X95.28Y-87.5
X95.28Y-89.96
X95.28Y-92.5
X95.28Y-94.96
X95.28Y-97.5
X95.3Y-99.96
X95.3Y-102.5
X95.3Y-104.96
X95.3Y-107.5
X97.82Y-79.96
X97.82Y-82.5
X97.82Y-84.96
X97.82Y-87.5
X97.82Y-89.96
X97.82Y-92.5
X97.82Y-94.96
X97.82Y-97.5
X97.84Y-99.96
X97.84Y-102.5
X97.84Y-104.96
X97.84Y-107.5
X100.36Y-79.96
X100.36Y-82.5
X100.36Y-84.96
X100.36Y-87.5
X100.36Y-89.96
X100.36Y-92.5
X100.36Y-94.96
X100.36Y-97.5
X102.9Y-79.96
X102.9Y-82.5
X102.9Y-84.96
X102.9Y-87.5
X102.9Y-89.96
X102.9Y-92.5
X102.9Y-94.96
X102.9Y-97.5
X105.0Y-48.18
X105.0Y-50.72
X105.0Y-53.26
X105.0Y-55.8
X105.44Y-79.96
X105.44Y-82.5
X105.44Y-84.96
X105.44Y-87.5
X105.44Y-89.96
X105.44Y-92.5
X105.44Y-94.96
X105.44Y-97.5
X107.98Y-79.96
X107.98Y-82.5
X107.98Y-84.96
X107.98Y-87.5
X107.98Y-89.96
X107.98Y-92.5
X107.98Y-94.96
X107.98Y-97.5
T5
X90.0Y-12.75
X90.0Y-17.25
X96.5Y-12.75
X96.5Y-17.25
M30
