%TF.GenerationSoftware,KiCad,Pcbnew,8.0.4*%
%TF.CreationDate,2024-07-31T10:58:40+02:00*%
%TF.ProjectId,esim,6573696d-2e6b-4696-9361-645f70636258,rev?*%
%TF.SameCoordinates,Original*%
%TF.FileFunction,Drillmap*%
%TF.FilePolarity,Positive*%
%FSLAX45Y45*%
G04 Gerber Fmt 4.5, Leading zero omitted, Abs format (unit mm)*
G04 Created by KiCad (PCBNEW 8.0.4) date 2024-07-31 10:58:40*
%MOMM*%
%LPD*%
G01*
G04 APERTURE LIST*
%ADD10C,0.050000*%
%ADD11C,0.200000*%
%ADD12C,0.100000*%
%ADD13C,0.110000*%
G04 APERTURE END LIST*
D10*
X1000000Y-1000000D02*
X11000000Y-1000000D01*
X11000000Y-11000000D01*
X1000000Y-11000000D01*
X1000000Y-1000000D01*
D11*
D12*
X3106080Y-4527460D02*
X3136080Y-4557460D01*
X3136080Y-4527460D02*
X3106080Y-4557460D01*
X3132430Y-4652930D02*
X3162430Y-4682930D01*
X3162430Y-4652930D02*
X3132430Y-4682930D01*
X3204180Y-4473380D02*
X3234180Y-4503380D01*
X3234180Y-4473380D02*
X3204180Y-4503380D01*
X3281570Y-4610740D02*
X3311570Y-4640740D01*
X3311570Y-4610740D02*
X3281570Y-4640740D01*
X3300570Y-4940140D02*
X3330570Y-4970140D01*
X3330570Y-4940140D02*
X3300570Y-4970140D01*
X3868810Y-5737560D02*
X3898810Y-5767560D01*
X3898810Y-5737560D02*
X3868810Y-5767560D01*
X4151450Y-2136260D02*
X4181450Y-2166260D01*
X4181450Y-2136260D02*
X4151450Y-2166260D01*
X4566810Y-5481040D02*
X4596810Y-5511040D01*
X4596810Y-5481040D02*
X4566810Y-5511040D01*
X4702520Y-2329760D02*
X4732520Y-2359760D01*
X4732520Y-2329760D02*
X4702520Y-2359760D01*
X4982950Y-4938140D02*
X5012950Y-4968140D01*
X5012950Y-4938140D02*
X4982950Y-4968140D01*
X5252360Y-4767760D02*
X5282360Y-4797760D01*
X5282360Y-4767760D02*
X5252360Y-4797760D01*
X5343900Y-4870050D02*
X5373900Y-4900050D01*
X5373900Y-4870050D02*
X5343900Y-4900050D01*
X5378640Y-4466820D02*
X5408640Y-4496820D01*
X5408640Y-4466820D02*
X5378640Y-4496820D01*
X5442170Y-2501280D02*
X5472170Y-2531280D01*
X5472170Y-2501280D02*
X5442170Y-2531280D01*
X5563540Y-5066590D02*
X5593540Y-5096590D01*
X5593540Y-5066590D02*
X5563540Y-5096590D01*
X5984060Y-4006510D02*
X6014060Y-4036510D01*
X6014060Y-4006510D02*
X5984060Y-4036510D01*
X6829340Y-3173010D02*
X6859340Y-3203010D01*
X6859340Y-3173010D02*
X6829340Y-3203010D01*
X6833580Y-2026380D02*
X6863580Y-2056380D01*
X6863580Y-2026380D02*
X6833580Y-2056380D01*
X6894510Y-2227850D02*
X6924510Y-2257850D01*
X6924510Y-2227850D02*
X6894510Y-2257850D01*
X6983800Y-3873390D02*
X7013800Y-3903390D01*
X7013800Y-3873390D02*
X6983800Y-3903390D01*
X7036040Y-3089910D02*
X7066040Y-3119910D01*
X7066040Y-3089910D02*
X7036040Y-3119910D01*
X7241110Y-3524790D02*
X7271110Y-3554790D01*
X7271110Y-3524790D02*
X7241110Y-3554790D01*
X7367490Y-4598320D02*
X7397490Y-4628320D01*
X7397490Y-4598320D02*
X7367490Y-4628320D01*
X7517140Y-2285170D02*
X7547140Y-2315170D01*
X7547140Y-2285170D02*
X7517140Y-2315170D01*
X7526330Y-4259310D02*
X7556330Y-4289310D01*
X7556330Y-4259310D02*
X7526330Y-4289310D01*
X7659730Y-3397400D02*
X7689730Y-3427400D01*
X7689730Y-3397400D02*
X7659730Y-3427400D01*
X7700400Y-2125350D02*
X7730400Y-2155350D01*
X7730400Y-2125350D02*
X7700400Y-2155350D01*
X7723060Y-4128530D02*
X7753060Y-4158530D01*
X7753060Y-4128530D02*
X7723060Y-4158530D01*
X8069050Y-5258090D02*
X8099050Y-5288090D01*
X8099050Y-5258090D02*
X8069050Y-5288090D01*
X8123690Y-3624000D02*
X8153690Y-3654000D01*
X8153690Y-3624000D02*
X8123690Y-3654000D01*
X8230690Y-3667950D02*
X8260690Y-3697950D01*
X8260690Y-3667950D02*
X8230690Y-3697950D01*
X8231110Y-4429000D02*
X8261110Y-4459000D01*
X8261110Y-4429000D02*
X8231110Y-4459000D01*
X8844420Y-4926530D02*
X8874420Y-4956530D01*
X8874420Y-4926530D02*
X8844420Y-4956530D01*
X9374240Y-4634680D02*
X9404240Y-4664680D01*
X9404240Y-4634680D02*
X9374240Y-4664680D01*
X5085000Y-5213000D02*
G75*
G02*
X5015000Y-5213000I-35000J0D01*
G01*
X5015000Y-5213000D02*
G75*
G02*
X5085000Y-5213000I35000J0D01*
G01*
X5085000Y-5975000D02*
G75*
G02*
X5015000Y-5975000I-35000J0D01*
G01*
X5015000Y-5975000D02*
G75*
G02*
X5085000Y-5975000I35000J0D01*
G01*
X9385000Y-2600000D02*
G75*
G02*
X9315000Y-2600000I-35000J0D01*
G01*
X9315000Y-2600000D02*
G75*
G02*
X9385000Y-2600000I35000J0D01*
G01*
X9385000Y-3362000D02*
G75*
G02*
X9315000Y-3362000I-35000J0D01*
G01*
X9315000Y-3362000D02*
G75*
G02*
X9385000Y-3362000I35000J0D01*
G01*
X1287500Y-2260000D02*
X1287500Y-2340000D01*
X1247500Y-2300000D02*
X1327500Y-2300000D01*
X1287500Y-2514000D02*
X1287500Y-2594000D01*
X1247500Y-2554000D02*
X1327500Y-2554000D01*
X1287500Y-2768000D02*
X1287500Y-2848000D01*
X1247500Y-2808000D02*
X1327500Y-2808000D01*
X1287500Y-3022000D02*
X1287500Y-3102000D01*
X1247500Y-3062000D02*
X1327500Y-3062000D01*
X1287500Y-3276000D02*
X1287500Y-3356000D01*
X1247500Y-3316000D02*
X1327500Y-3316000D01*
X1287500Y-3530000D02*
X1287500Y-3610000D01*
X1247500Y-3570000D02*
X1327500Y-3570000D01*
X1287500Y-3784000D02*
X1287500Y-3864000D01*
X1247500Y-3824000D02*
X1327500Y-3824000D01*
X1287500Y-4038000D02*
X1287500Y-4118000D01*
X1247500Y-4078000D02*
X1327500Y-4078000D01*
X1287500Y-4292000D02*
X1287500Y-4372000D01*
X1247500Y-4332000D02*
X1327500Y-4332000D01*
X1287500Y-4546000D02*
X1287500Y-4626000D01*
X1247500Y-4586000D02*
X1327500Y-4586000D01*
X1287500Y-4800000D02*
X1287500Y-4880000D01*
X1247500Y-4840000D02*
X1327500Y-4840000D01*
X1287500Y-5054000D02*
X1287500Y-5134000D01*
X1247500Y-5094000D02*
X1327500Y-5094000D01*
X1287500Y-5308000D02*
X1287500Y-5388000D01*
X1247500Y-5348000D02*
X1327500Y-5348000D01*
X1287500Y-5562000D02*
X1287500Y-5642000D01*
X1247500Y-5602000D02*
X1327500Y-5602000D01*
X1800000Y-6210000D02*
X1800000Y-6290000D01*
X1760000Y-6250000D02*
X1840000Y-6250000D01*
X2300000Y-6210000D02*
X2300000Y-6290000D01*
X2260000Y-6250000D02*
X2340000Y-6250000D01*
X2811500Y-2260000D02*
X2811500Y-2340000D01*
X2771500Y-2300000D02*
X2851500Y-2300000D01*
X2811500Y-2514000D02*
X2811500Y-2594000D01*
X2771500Y-2554000D02*
X2851500Y-2554000D01*
X2811500Y-2768000D02*
X2811500Y-2848000D01*
X2771500Y-2808000D02*
X2851500Y-2808000D01*
X2811500Y-3022000D02*
X2811500Y-3102000D01*
X2771500Y-3062000D02*
X2851500Y-3062000D01*
X2811500Y-3276000D02*
X2811500Y-3356000D01*
X2771500Y-3316000D02*
X2851500Y-3316000D01*
X2811500Y-3530000D02*
X2811500Y-3610000D01*
X2771500Y-3570000D02*
X2851500Y-3570000D01*
X2811500Y-3784000D02*
X2811500Y-3864000D01*
X2771500Y-3824000D02*
X2851500Y-3824000D01*
X2811500Y-4038000D02*
X2811500Y-4118000D01*
X2771500Y-4078000D02*
X2851500Y-4078000D01*
X2811500Y-4292000D02*
X2811500Y-4372000D01*
X2771500Y-4332000D02*
X2851500Y-4332000D01*
X2811500Y-4546000D02*
X2811500Y-4626000D01*
X2771500Y-4586000D02*
X2851500Y-4586000D01*
X2811500Y-4800000D02*
X2811500Y-4880000D01*
X2771500Y-4840000D02*
X2851500Y-4840000D01*
X2811500Y-5054000D02*
X2811500Y-5134000D01*
X2771500Y-5094000D02*
X2851500Y-5094000D01*
X2811500Y-5308000D02*
X2811500Y-5388000D01*
X2771500Y-5348000D02*
X2851500Y-5348000D01*
X2811500Y-5562000D02*
X2811500Y-5642000D01*
X2771500Y-5602000D02*
X2851500Y-5602000D01*
X3588000Y-2262000D02*
X3588000Y-2342000D01*
X3548000Y-2302000D02*
X3628000Y-2302000D01*
X3588000Y-2516000D02*
X3588000Y-2596000D01*
X3548000Y-2556000D02*
X3628000Y-2556000D01*
X3588000Y-2770000D02*
X3588000Y-2850000D01*
X3548000Y-2810000D02*
X3628000Y-2810000D01*
X3588000Y-3024000D02*
X3588000Y-3104000D01*
X3548000Y-3064000D02*
X3628000Y-3064000D01*
X3588000Y-3278000D02*
X3588000Y-3358000D01*
X3548000Y-3318000D02*
X3628000Y-3318000D01*
X3588000Y-3532000D02*
X3588000Y-3612000D01*
X3548000Y-3572000D02*
X3628000Y-3572000D01*
X3588000Y-3786000D02*
X3588000Y-3866000D01*
X3548000Y-3826000D02*
X3628000Y-3826000D01*
X3588000Y-4040000D02*
X3588000Y-4120000D01*
X3548000Y-4080000D02*
X3628000Y-4080000D01*
X3588000Y-4294000D02*
X3588000Y-4374000D01*
X3548000Y-4334000D02*
X3628000Y-4334000D01*
X3588000Y-4548000D02*
X3588000Y-4628000D01*
X3548000Y-4588000D02*
X3628000Y-4588000D01*
X3588000Y-5174000D02*
X3588000Y-5254000D01*
X3548000Y-5214000D02*
X3628000Y-5214000D01*
X3588000Y-5428000D02*
X3588000Y-5508000D01*
X3548000Y-5468000D02*
X3628000Y-5468000D01*
X3588000Y-5682000D02*
X3588000Y-5762000D01*
X3548000Y-5722000D02*
X3628000Y-5722000D01*
X3588000Y-5936000D02*
X3588000Y-6016000D01*
X3548000Y-5976000D02*
X3628000Y-5976000D01*
X3588000Y-6190000D02*
X3588000Y-6270000D01*
X3548000Y-6230000D02*
X3628000Y-6230000D01*
X3588000Y-6444000D02*
X3588000Y-6524000D01*
X3548000Y-6484000D02*
X3628000Y-6484000D01*
X3588000Y-6698000D02*
X3588000Y-6778000D01*
X3548000Y-6738000D02*
X3628000Y-6738000D01*
X3588000Y-6952000D02*
X3588000Y-7032000D01*
X3548000Y-6992000D02*
X3628000Y-6992000D01*
X3588000Y-7206000D02*
X3588000Y-7286000D01*
X3548000Y-7246000D02*
X3628000Y-7246000D01*
X3588000Y-7460000D02*
X3588000Y-7540000D01*
X3548000Y-7500000D02*
X3628000Y-7500000D01*
X4350000Y-2262000D02*
X4350000Y-2342000D01*
X4310000Y-2302000D02*
X4390000Y-2302000D01*
X4350000Y-2516000D02*
X4350000Y-2596000D01*
X4310000Y-2556000D02*
X4390000Y-2556000D01*
X4350000Y-2770000D02*
X4350000Y-2850000D01*
X4310000Y-2810000D02*
X4390000Y-2810000D01*
X4350000Y-3024000D02*
X4350000Y-3104000D01*
X4310000Y-3064000D02*
X4390000Y-3064000D01*
X4350000Y-3278000D02*
X4350000Y-3358000D01*
X4310000Y-3318000D02*
X4390000Y-3318000D01*
X4350000Y-3532000D02*
X4350000Y-3612000D01*
X4310000Y-3572000D02*
X4390000Y-3572000D01*
X4350000Y-3786000D02*
X4350000Y-3866000D01*
X4310000Y-3826000D02*
X4390000Y-3826000D01*
X4350000Y-4040000D02*
X4350000Y-4120000D01*
X4310000Y-4080000D02*
X4390000Y-4080000D01*
X4350000Y-4294000D02*
X4350000Y-4374000D01*
X4310000Y-4334000D02*
X4390000Y-4334000D01*
X4350000Y-4548000D02*
X4350000Y-4628000D01*
X4310000Y-4588000D02*
X4390000Y-4588000D01*
X4350000Y-5174000D02*
X4350000Y-5254000D01*
X4310000Y-5214000D02*
X4390000Y-5214000D01*
X4350000Y-5428000D02*
X4350000Y-5508000D01*
X4310000Y-5468000D02*
X4390000Y-5468000D01*
X4350000Y-5682000D02*
X4350000Y-5762000D01*
X4310000Y-5722000D02*
X4390000Y-5722000D01*
X4350000Y-5936000D02*
X4350000Y-6016000D01*
X4310000Y-5976000D02*
X4390000Y-5976000D01*
X4350000Y-6190000D02*
X4350000Y-6270000D01*
X4310000Y-6230000D02*
X4390000Y-6230000D01*
X4350000Y-6444000D02*
X4350000Y-6524000D01*
X4310000Y-6484000D02*
X4390000Y-6484000D01*
X4350000Y-6698000D02*
X4350000Y-6778000D01*
X4310000Y-6738000D02*
X4390000Y-6738000D01*
X4350000Y-6952000D02*
X4350000Y-7032000D01*
X4310000Y-6992000D02*
X4390000Y-6992000D01*
X4350000Y-7206000D02*
X4350000Y-7286000D01*
X4310000Y-7246000D02*
X4390000Y-7246000D01*
X4350000Y-7460000D02*
X4350000Y-7540000D01*
X4310000Y-7500000D02*
X4390000Y-7500000D01*
X5074000Y-2269000D02*
X5074000Y-2349000D01*
X5034000Y-2309000D02*
X5114000Y-2309000D01*
X5074000Y-2523000D02*
X5074000Y-2603000D01*
X5034000Y-2563000D02*
X5114000Y-2563000D01*
X5074000Y-2777000D02*
X5074000Y-2857000D01*
X5034000Y-2817000D02*
X5114000Y-2817000D01*
X5074000Y-3031000D02*
X5074000Y-3111000D01*
X5034000Y-3071000D02*
X5114000Y-3071000D01*
X5074000Y-3285000D02*
X5074000Y-3365000D01*
X5034000Y-3325000D02*
X5114000Y-3325000D01*
X5074000Y-3539000D02*
X5074000Y-3619000D01*
X5034000Y-3579000D02*
X5114000Y-3579000D01*
X5074000Y-3793000D02*
X5074000Y-3873000D01*
X5034000Y-3833000D02*
X5114000Y-3833000D01*
X5074000Y-4047000D02*
X5074000Y-4127000D01*
X5034000Y-4087000D02*
X5114000Y-4087000D01*
X5074000Y-4301000D02*
X5074000Y-4381000D01*
X5034000Y-4341000D02*
X5114000Y-4341000D01*
X5074000Y-4555000D02*
X5074000Y-4635000D01*
X5034000Y-4595000D02*
X5114000Y-4595000D01*
X5836000Y-2269000D02*
X5836000Y-2349000D01*
X5796000Y-2309000D02*
X5876000Y-2309000D01*
X5836000Y-2523000D02*
X5836000Y-2603000D01*
X5796000Y-2563000D02*
X5876000Y-2563000D01*
X5836000Y-2777000D02*
X5836000Y-2857000D01*
X5796000Y-2817000D02*
X5876000Y-2817000D01*
X5836000Y-3031000D02*
X5836000Y-3111000D01*
X5796000Y-3071000D02*
X5876000Y-3071000D01*
X5836000Y-3285000D02*
X5836000Y-3365000D01*
X5796000Y-3325000D02*
X5876000Y-3325000D01*
X5836000Y-3539000D02*
X5836000Y-3619000D01*
X5796000Y-3579000D02*
X5876000Y-3579000D01*
X5836000Y-3793000D02*
X5836000Y-3873000D01*
X5796000Y-3833000D02*
X5876000Y-3833000D01*
X5836000Y-4047000D02*
X5836000Y-4127000D01*
X5796000Y-4087000D02*
X5876000Y-4087000D01*
X5836000Y-4301000D02*
X5836000Y-4381000D01*
X5796000Y-4341000D02*
X5876000Y-4341000D01*
X5836000Y-4555000D02*
X5836000Y-4635000D01*
X5796000Y-4595000D02*
X5876000Y-4595000D01*
X6350000Y-2243000D02*
X6350000Y-2323000D01*
X6310000Y-2283000D02*
X6390000Y-2283000D01*
X6350000Y-2497000D02*
X6350000Y-2577000D01*
X6310000Y-2537000D02*
X6390000Y-2537000D01*
X6350000Y-2751000D02*
X6350000Y-2831000D01*
X6310000Y-2791000D02*
X6390000Y-2791000D01*
X6350000Y-3005000D02*
X6350000Y-3085000D01*
X6310000Y-3045000D02*
X6390000Y-3045000D01*
X6350000Y-3259000D02*
X6350000Y-3339000D01*
X6310000Y-3299000D02*
X6390000Y-3299000D01*
X6350000Y-3513000D02*
X6350000Y-3593000D01*
X6310000Y-3553000D02*
X6390000Y-3553000D01*
X6350000Y-3767000D02*
X6350000Y-3847000D01*
X6310000Y-3807000D02*
X6390000Y-3807000D01*
X6350000Y-4021000D02*
X6350000Y-4101000D01*
X6310000Y-4061000D02*
X6390000Y-4061000D01*
X6350000Y-4275000D02*
X6350000Y-4355000D01*
X6310000Y-4315000D02*
X6390000Y-4315000D01*
X6350000Y-4529000D02*
X6350000Y-4609000D01*
X6310000Y-4569000D02*
X6390000Y-4569000D01*
X6350000Y-4783000D02*
X6350000Y-4863000D01*
X6310000Y-4823000D02*
X6390000Y-4823000D01*
X6350000Y-5037000D02*
X6350000Y-5117000D01*
X6310000Y-5077000D02*
X6390000Y-5077000D01*
X6350000Y-5291000D02*
X6350000Y-5371000D01*
X6310000Y-5331000D02*
X6390000Y-5331000D01*
X6350000Y-5545000D02*
X6350000Y-5625000D01*
X6310000Y-5585000D02*
X6390000Y-5585000D01*
X6900000Y-6185000D02*
X6900000Y-6265000D01*
X6860000Y-6225000D02*
X6940000Y-6225000D01*
X7400000Y-6185000D02*
X7400000Y-6265000D01*
X7360000Y-6225000D02*
X7440000Y-6225000D01*
X7874000Y-2243000D02*
X7874000Y-2323000D01*
X7834000Y-2283000D02*
X7914000Y-2283000D01*
X7874000Y-2497000D02*
X7874000Y-2577000D01*
X7834000Y-2537000D02*
X7914000Y-2537000D01*
X7874000Y-2751000D02*
X7874000Y-2831000D01*
X7834000Y-2791000D02*
X7914000Y-2791000D01*
X7874000Y-3005000D02*
X7874000Y-3085000D01*
X7834000Y-3045000D02*
X7914000Y-3045000D01*
X7874000Y-3259000D02*
X7874000Y-3339000D01*
X7834000Y-3299000D02*
X7914000Y-3299000D01*
X7874000Y-3513000D02*
X7874000Y-3593000D01*
X7834000Y-3553000D02*
X7914000Y-3553000D01*
X7874000Y-3767000D02*
X7874000Y-3847000D01*
X7834000Y-3807000D02*
X7914000Y-3807000D01*
X7874000Y-4021000D02*
X7874000Y-4101000D01*
X7834000Y-4061000D02*
X7914000Y-4061000D01*
X7874000Y-4275000D02*
X7874000Y-4355000D01*
X7834000Y-4315000D02*
X7914000Y-4315000D01*
X7874000Y-4529000D02*
X7874000Y-4609000D01*
X7834000Y-4569000D02*
X7914000Y-4569000D01*
X7874000Y-4783000D02*
X7874000Y-4863000D01*
X7834000Y-4823000D02*
X7914000Y-4823000D01*
X7874000Y-5037000D02*
X7874000Y-5117000D01*
X7834000Y-5077000D02*
X7914000Y-5077000D01*
X7874000Y-5291000D02*
X7874000Y-5371000D01*
X7834000Y-5331000D02*
X7914000Y-5331000D01*
X7874000Y-5545000D02*
X7874000Y-5625000D01*
X7834000Y-5585000D02*
X7914000Y-5585000D01*
X8300000Y-1330510D02*
X8300000Y-1410510D01*
X8260000Y-1370510D02*
X8340000Y-1370510D01*
X8300000Y-1580510D02*
X8300000Y-1660510D01*
X8260000Y-1620510D02*
X8340000Y-1620510D01*
X8550000Y-2197000D02*
X8550000Y-2277000D01*
X8510000Y-2237000D02*
X8590000Y-2237000D01*
X8550000Y-2451000D02*
X8550000Y-2531000D01*
X8510000Y-2491000D02*
X8590000Y-2491000D01*
X8550000Y-2705000D02*
X8550000Y-2785000D01*
X8510000Y-2745000D02*
X8590000Y-2745000D01*
X8550000Y-2959000D02*
X8550000Y-3039000D01*
X8510000Y-2999000D02*
X8590000Y-2999000D01*
X8550000Y-3213000D02*
X8550000Y-3293000D01*
X8510000Y-3253000D02*
X8590000Y-3253000D01*
X8550000Y-3467000D02*
X8550000Y-3547000D01*
X8510000Y-3507000D02*
X8590000Y-3507000D01*
X8550000Y-3721000D02*
X8550000Y-3801000D01*
X8510000Y-3761000D02*
X8590000Y-3761000D01*
X8550000Y-3975000D02*
X8550000Y-4055000D01*
X8510000Y-4015000D02*
X8590000Y-4015000D01*
X8550000Y-4229000D02*
X8550000Y-4309000D01*
X8510000Y-4269000D02*
X8590000Y-4269000D01*
X8550000Y-4483000D02*
X8550000Y-4563000D01*
X8510000Y-4523000D02*
X8590000Y-4523000D01*
X8550000Y-4737000D02*
X8550000Y-4817000D01*
X8510000Y-4777000D02*
X8590000Y-4777000D01*
X8550000Y-4991000D02*
X8550000Y-5071000D01*
X8510000Y-5031000D02*
X8590000Y-5031000D01*
X8550000Y-5245000D02*
X8550000Y-5325000D01*
X8510000Y-5285000D02*
X8590000Y-5285000D01*
X8550000Y-5499000D02*
X8550000Y-5579000D01*
X8510000Y-5539000D02*
X8590000Y-5539000D01*
X8550000Y-5753000D02*
X8550000Y-5833000D01*
X8510000Y-5793000D02*
X8590000Y-5793000D01*
X8550000Y-6007000D02*
X8550000Y-6087000D01*
X8510000Y-6047000D02*
X8590000Y-6047000D01*
X8550000Y-6261000D02*
X8550000Y-6341000D01*
X8510000Y-6301000D02*
X8590000Y-6301000D01*
X8550000Y-6515000D02*
X8550000Y-6595000D01*
X8510000Y-6555000D02*
X8590000Y-6555000D01*
X8550000Y-6769000D02*
X8550000Y-6849000D01*
X8510000Y-6809000D02*
X8590000Y-6809000D01*
X8550000Y-7023000D02*
X8550000Y-7103000D01*
X8510000Y-7063000D02*
X8590000Y-7063000D01*
X9200000Y-5435000D02*
X9200000Y-5515000D01*
X9160000Y-5475000D02*
X9240000Y-5475000D01*
X9200000Y-6685000D02*
X9200000Y-6765000D01*
X9160000Y-6725000D02*
X9240000Y-6725000D01*
X9324000Y-5885000D02*
X9324000Y-5965000D01*
X9284000Y-5925000D02*
X9364000Y-5925000D01*
X9324000Y-6265000D02*
X9324000Y-6345000D01*
X9284000Y-6305000D02*
X9364000Y-6305000D01*
X9450000Y-5435000D02*
X9450000Y-5515000D01*
X9410000Y-5475000D02*
X9490000Y-5475000D01*
X9450000Y-6685000D02*
X9450000Y-6765000D01*
X9410000Y-6725000D02*
X9490000Y-6725000D01*
X10074000Y-2197000D02*
X10074000Y-2277000D01*
X10034000Y-2237000D02*
X10114000Y-2237000D01*
X10074000Y-2451000D02*
X10074000Y-2531000D01*
X10034000Y-2491000D02*
X10114000Y-2491000D01*
X10074000Y-2705000D02*
X10074000Y-2785000D01*
X10034000Y-2745000D02*
X10114000Y-2745000D01*
X10074000Y-2959000D02*
X10074000Y-3039000D01*
X10034000Y-2999000D02*
X10114000Y-2999000D01*
X10074000Y-3213000D02*
X10074000Y-3293000D01*
X10034000Y-3253000D02*
X10114000Y-3253000D01*
X10074000Y-3467000D02*
X10074000Y-3547000D01*
X10034000Y-3507000D02*
X10114000Y-3507000D01*
X10074000Y-3721000D02*
X10074000Y-3801000D01*
X10034000Y-3761000D02*
X10114000Y-3761000D01*
X10074000Y-3975000D02*
X10074000Y-4055000D01*
X10034000Y-4015000D02*
X10114000Y-4015000D01*
X10074000Y-4229000D02*
X10074000Y-4309000D01*
X10034000Y-4269000D02*
X10114000Y-4269000D01*
X10074000Y-4483000D02*
X10074000Y-4563000D01*
X10034000Y-4523000D02*
X10114000Y-4523000D01*
X10074000Y-4737000D02*
X10074000Y-4817000D01*
X10034000Y-4777000D02*
X10114000Y-4777000D01*
X10074000Y-4991000D02*
X10074000Y-5071000D01*
X10034000Y-5031000D02*
X10114000Y-5031000D01*
X10074000Y-5245000D02*
X10074000Y-5325000D01*
X10034000Y-5285000D02*
X10114000Y-5285000D01*
X10074000Y-5499000D02*
X10074000Y-5579000D01*
X10034000Y-5539000D02*
X10114000Y-5539000D01*
X10074000Y-5753000D02*
X10074000Y-5833000D01*
X10034000Y-5793000D02*
X10114000Y-5793000D01*
X10074000Y-6007000D02*
X10074000Y-6087000D01*
X10034000Y-6047000D02*
X10114000Y-6047000D01*
X10074000Y-6261000D02*
X10074000Y-6341000D01*
X10034000Y-6301000D02*
X10114000Y-6301000D01*
X10074000Y-6515000D02*
X10074000Y-6595000D01*
X10034000Y-6555000D02*
X10114000Y-6555000D01*
X10074000Y-6769000D02*
X10074000Y-6849000D01*
X10034000Y-6809000D02*
X10114000Y-6809000D01*
X10074000Y-7023000D02*
X10074000Y-7103000D01*
X10034000Y-7063000D02*
X10114000Y-7063000D01*
X10500000Y-2181000D02*
X10500000Y-2261000D01*
X10460000Y-2221000D02*
X10540000Y-2221000D01*
X10500000Y-2435000D02*
X10500000Y-2515000D01*
X10460000Y-2475000D02*
X10540000Y-2475000D01*
X10500000Y-2689000D02*
X10500000Y-2769000D01*
X10460000Y-2729000D02*
X10540000Y-2729000D01*
X10500000Y-2943000D02*
X10500000Y-3023000D01*
X10460000Y-2983000D02*
X10540000Y-2983000D01*
X10500000Y-3197000D02*
X10500000Y-3277000D01*
X10460000Y-3237000D02*
X10540000Y-3237000D01*
X10500000Y-3451000D02*
X10500000Y-3531000D01*
X10460000Y-3491000D02*
X10540000Y-3491000D01*
X10500000Y-3705000D02*
X10500000Y-3785000D01*
X10460000Y-3745000D02*
X10540000Y-3745000D01*
X10500000Y-3959000D02*
X10500000Y-4039000D01*
X10460000Y-3999000D02*
X10540000Y-3999000D01*
X10500000Y-4213000D02*
X10500000Y-4293000D01*
X10460000Y-4253000D02*
X10540000Y-4253000D01*
X10500000Y-6560000D02*
X10500000Y-6640000D01*
X10460000Y-6600000D02*
X10540000Y-6600000D01*
X10500000Y-7060000D02*
X10500000Y-7140000D01*
X10460000Y-7100000D02*
X10540000Y-7100000D01*
X1435356Y-8031356D02*
X1435356Y-7960644D01*
X1364644Y-7960644D01*
X1364644Y-8031356D01*
X1435356Y-8031356D01*
X1435356Y-8285356D02*
X1435356Y-8214644D01*
X1364644Y-8214644D01*
X1364644Y-8285356D01*
X1435356Y-8285356D01*
X1435356Y-8531356D02*
X1435356Y-8460644D01*
X1364644Y-8460644D01*
X1364644Y-8531356D01*
X1435356Y-8531356D01*
X1435356Y-8785356D02*
X1435356Y-8714644D01*
X1364644Y-8714644D01*
X1364644Y-8785356D01*
X1435356Y-8785356D01*
X1435356Y-9031356D02*
X1435356Y-8960644D01*
X1364644Y-8960644D01*
X1364644Y-9031356D01*
X1435356Y-9031356D01*
X1435356Y-9285356D02*
X1435356Y-9214644D01*
X1364644Y-9214644D01*
X1364644Y-9285356D01*
X1435356Y-9285356D01*
X1435356Y-9531356D02*
X1435356Y-9460644D01*
X1364644Y-9460644D01*
X1364644Y-9531356D01*
X1435356Y-9531356D01*
X1435356Y-9785356D02*
X1435356Y-9714644D01*
X1364644Y-9714644D01*
X1364644Y-9785356D01*
X1435356Y-9785356D01*
X1689356Y-8031356D02*
X1689356Y-7960644D01*
X1618644Y-7960644D01*
X1618644Y-8031356D01*
X1689356Y-8031356D01*
X1689356Y-8285356D02*
X1689356Y-8214644D01*
X1618644Y-8214644D01*
X1618644Y-8285356D01*
X1689356Y-8285356D01*
X1689356Y-8531356D02*
X1689356Y-8460644D01*
X1618644Y-8460644D01*
X1618644Y-8531356D01*
X1689356Y-8531356D01*
X1689356Y-8785356D02*
X1689356Y-8714644D01*
X1618644Y-8714644D01*
X1618644Y-8785356D01*
X1689356Y-8785356D01*
X1689356Y-9031356D02*
X1689356Y-8960644D01*
X1618644Y-8960644D01*
X1618644Y-9031356D01*
X1689356Y-9031356D01*
X1689356Y-9285356D02*
X1689356Y-9214644D01*
X1618644Y-9214644D01*
X1618644Y-9285356D01*
X1689356Y-9285356D01*
X1689356Y-9531356D02*
X1689356Y-9460644D01*
X1618644Y-9460644D01*
X1618644Y-9531356D01*
X1689356Y-9531356D01*
X1689356Y-9785356D02*
X1689356Y-9714644D01*
X1618644Y-9714644D01*
X1618644Y-9785356D01*
X1689356Y-9785356D01*
X1943356Y-8031356D02*
X1943356Y-7960644D01*
X1872644Y-7960644D01*
X1872644Y-8031356D01*
X1943356Y-8031356D01*
X1943356Y-8285356D02*
X1943356Y-8214644D01*
X1872644Y-8214644D01*
X1872644Y-8285356D01*
X1943356Y-8285356D01*
X1943356Y-8531356D02*
X1943356Y-8460644D01*
X1872644Y-8460644D01*
X1872644Y-8531356D01*
X1943356Y-8531356D01*
X1943356Y-8785356D02*
X1943356Y-8714644D01*
X1872644Y-8714644D01*
X1872644Y-8785356D01*
X1943356Y-8785356D01*
X1943356Y-9031356D02*
X1943356Y-8960644D01*
X1872644Y-8960644D01*
X1872644Y-9031356D01*
X1943356Y-9031356D01*
X1943356Y-9285356D02*
X1943356Y-9214644D01*
X1872644Y-9214644D01*
X1872644Y-9285356D01*
X1943356Y-9285356D01*
X1943356Y-9531356D02*
X1943356Y-9460644D01*
X1872644Y-9460644D01*
X1872644Y-9531356D01*
X1943356Y-9531356D01*
X1943356Y-9785356D02*
X1943356Y-9714644D01*
X1872644Y-9714644D01*
X1872644Y-9785356D01*
X1943356Y-9785356D01*
X2197356Y-8031356D02*
X2197356Y-7960644D01*
X2126644Y-7960644D01*
X2126644Y-8031356D01*
X2197356Y-8031356D01*
X2197356Y-8285356D02*
X2197356Y-8214644D01*
X2126644Y-8214644D01*
X2126644Y-8285356D01*
X2197356Y-8285356D01*
X2197356Y-8531356D02*
X2197356Y-8460644D01*
X2126644Y-8460644D01*
X2126644Y-8531356D01*
X2197356Y-8531356D01*
X2197356Y-8785356D02*
X2197356Y-8714644D01*
X2126644Y-8714644D01*
X2126644Y-8785356D01*
X2197356Y-8785356D01*
X2197356Y-9031356D02*
X2197356Y-8960644D01*
X2126644Y-8960644D01*
X2126644Y-9031356D01*
X2197356Y-9031356D01*
X2197356Y-9285356D02*
X2197356Y-9214644D01*
X2126644Y-9214644D01*
X2126644Y-9285356D01*
X2197356Y-9285356D01*
X2197356Y-9531356D02*
X2197356Y-9460644D01*
X2126644Y-9460644D01*
X2126644Y-9531356D01*
X2197356Y-9531356D01*
X2197356Y-9785356D02*
X2197356Y-9714644D01*
X2126644Y-9714644D01*
X2126644Y-9785356D01*
X2197356Y-9785356D01*
X2199356Y-10031356D02*
X2199356Y-9960644D01*
X2128644Y-9960644D01*
X2128644Y-10031356D01*
X2199356Y-10031356D01*
X2199356Y-10285356D02*
X2199356Y-10214644D01*
X2128644Y-10214644D01*
X2128644Y-10285356D01*
X2199356Y-10285356D01*
X2199356Y-10531356D02*
X2199356Y-10460644D01*
X2128644Y-10460644D01*
X2128644Y-10531356D01*
X2199356Y-10531356D01*
X2199356Y-10785356D02*
X2199356Y-10714644D01*
X2128644Y-10714644D01*
X2128644Y-10785356D01*
X2199356Y-10785356D01*
X2451356Y-8031356D02*
X2451356Y-7960644D01*
X2380644Y-7960644D01*
X2380644Y-8031356D01*
X2451356Y-8031356D01*
X2451356Y-8285356D02*
X2451356Y-8214644D01*
X2380644Y-8214644D01*
X2380644Y-8285356D01*
X2451356Y-8285356D01*
X2451356Y-8531356D02*
X2451356Y-8460644D01*
X2380644Y-8460644D01*
X2380644Y-8531356D01*
X2451356Y-8531356D01*
X2451356Y-8785356D02*
X2451356Y-8714644D01*
X2380644Y-8714644D01*
X2380644Y-8785356D01*
X2451356Y-8785356D01*
X2451356Y-9031356D02*
X2451356Y-8960644D01*
X2380644Y-8960644D01*
X2380644Y-9031356D01*
X2451356Y-9031356D01*
X2451356Y-9285356D02*
X2451356Y-9214644D01*
X2380644Y-9214644D01*
X2380644Y-9285356D01*
X2451356Y-9285356D01*
X2451356Y-9531356D02*
X2451356Y-9460644D01*
X2380644Y-9460644D01*
X2380644Y-9531356D01*
X2451356Y-9531356D01*
X2451356Y-9785356D02*
X2451356Y-9714644D01*
X2380644Y-9714644D01*
X2380644Y-9785356D01*
X2451356Y-9785356D01*
X2453356Y-10031356D02*
X2453356Y-9960644D01*
X2382644Y-9960644D01*
X2382644Y-10031356D01*
X2453356Y-10031356D01*
X2453356Y-10285356D02*
X2453356Y-10214644D01*
X2382644Y-10214644D01*
X2382644Y-10285356D01*
X2453356Y-10285356D01*
X2453356Y-10531356D02*
X2453356Y-10460644D01*
X2382644Y-10460644D01*
X2382644Y-10531356D01*
X2453356Y-10531356D01*
X2453356Y-10785356D02*
X2453356Y-10714644D01*
X2382644Y-10714644D01*
X2382644Y-10785356D01*
X2453356Y-10785356D01*
X2705356Y-8031356D02*
X2705356Y-7960644D01*
X2634644Y-7960644D01*
X2634644Y-8031356D01*
X2705356Y-8031356D01*
X2705356Y-8285356D02*
X2705356Y-8214644D01*
X2634644Y-8214644D01*
X2634644Y-8285356D01*
X2705356Y-8285356D01*
X2705356Y-8531356D02*
X2705356Y-8460644D01*
X2634644Y-8460644D01*
X2634644Y-8531356D01*
X2705356Y-8531356D01*
X2705356Y-8785356D02*
X2705356Y-8714644D01*
X2634644Y-8714644D01*
X2634644Y-8785356D01*
X2705356Y-8785356D01*
X2705356Y-9031356D02*
X2705356Y-8960644D01*
X2634644Y-8960644D01*
X2634644Y-9031356D01*
X2705356Y-9031356D01*
X2705356Y-9285356D02*
X2705356Y-9214644D01*
X2634644Y-9214644D01*
X2634644Y-9285356D01*
X2705356Y-9285356D01*
X2705356Y-9531356D02*
X2705356Y-9460644D01*
X2634644Y-9460644D01*
X2634644Y-9531356D01*
X2705356Y-9531356D01*
X2705356Y-9785356D02*
X2705356Y-9714644D01*
X2634644Y-9714644D01*
X2634644Y-9785356D01*
X2705356Y-9785356D01*
X2707356Y-10031356D02*
X2707356Y-9960644D01*
X2636644Y-9960644D01*
X2636644Y-10031356D01*
X2707356Y-10031356D01*
X2707356Y-10285356D02*
X2707356Y-10214644D01*
X2636644Y-10214644D01*
X2636644Y-10285356D01*
X2707356Y-10285356D01*
X2707356Y-10531356D02*
X2707356Y-10460644D01*
X2636644Y-10460644D01*
X2636644Y-10531356D01*
X2707356Y-10531356D01*
X2707356Y-10785356D02*
X2707356Y-10714644D01*
X2636644Y-10714644D01*
X2636644Y-10785356D01*
X2707356Y-10785356D01*
X2959356Y-8031356D02*
X2959356Y-7960644D01*
X2888644Y-7960644D01*
X2888644Y-8031356D01*
X2959356Y-8031356D01*
X2959356Y-8285356D02*
X2959356Y-8214644D01*
X2888644Y-8214644D01*
X2888644Y-8285356D01*
X2959356Y-8285356D01*
X2959356Y-8531356D02*
X2959356Y-8460644D01*
X2888644Y-8460644D01*
X2888644Y-8531356D01*
X2959356Y-8531356D01*
X2959356Y-8785356D02*
X2959356Y-8714644D01*
X2888644Y-8714644D01*
X2888644Y-8785356D01*
X2959356Y-8785356D01*
X2959356Y-9031356D02*
X2959356Y-8960644D01*
X2888644Y-8960644D01*
X2888644Y-9031356D01*
X2959356Y-9031356D01*
X2959356Y-9285356D02*
X2959356Y-9214644D01*
X2888644Y-9214644D01*
X2888644Y-9285356D01*
X2959356Y-9285356D01*
X2959356Y-9531356D02*
X2959356Y-9460644D01*
X2888644Y-9460644D01*
X2888644Y-9531356D01*
X2959356Y-9531356D01*
X2959356Y-9785356D02*
X2959356Y-9714644D01*
X2888644Y-9714644D01*
X2888644Y-9785356D01*
X2959356Y-9785356D01*
X2961356Y-10031356D02*
X2961356Y-9960644D01*
X2890644Y-9960644D01*
X2890644Y-10031356D01*
X2961356Y-10031356D01*
X2961356Y-10285356D02*
X2961356Y-10214644D01*
X2890644Y-10214644D01*
X2890644Y-10285356D01*
X2961356Y-10285356D01*
X2961356Y-10531356D02*
X2961356Y-10460644D01*
X2890644Y-10460644D01*
X2890644Y-10531356D01*
X2961356Y-10531356D01*
X2961356Y-10785356D02*
X2961356Y-10714644D01*
X2890644Y-10714644D01*
X2890644Y-10785356D01*
X2961356Y-10785356D01*
X3213356Y-8031356D02*
X3213356Y-7960644D01*
X3142644Y-7960644D01*
X3142644Y-8031356D01*
X3213356Y-8031356D01*
X3213356Y-8285356D02*
X3213356Y-8214644D01*
X3142644Y-8214644D01*
X3142644Y-8285356D01*
X3213356Y-8285356D01*
X3213356Y-8531356D02*
X3213356Y-8460644D01*
X3142644Y-8460644D01*
X3142644Y-8531356D01*
X3213356Y-8531356D01*
X3213356Y-8785356D02*
X3213356Y-8714644D01*
X3142644Y-8714644D01*
X3142644Y-8785356D01*
X3213356Y-8785356D01*
X3213356Y-9031356D02*
X3213356Y-8960644D01*
X3142644Y-8960644D01*
X3142644Y-9031356D01*
X3213356Y-9031356D01*
X3213356Y-9285356D02*
X3213356Y-9214644D01*
X3142644Y-9214644D01*
X3142644Y-9285356D01*
X3213356Y-9285356D01*
X3213356Y-9531356D02*
X3213356Y-9460644D01*
X3142644Y-9460644D01*
X3142644Y-9531356D01*
X3213356Y-9531356D01*
X3213356Y-9785356D02*
X3213356Y-9714644D01*
X3142644Y-9714644D01*
X3142644Y-9785356D01*
X3213356Y-9785356D01*
X3215356Y-10031356D02*
X3215356Y-9960644D01*
X3144644Y-9960644D01*
X3144644Y-10031356D01*
X3215356Y-10031356D01*
X3215356Y-10285356D02*
X3215356Y-10214644D01*
X3144644Y-10214644D01*
X3144644Y-10285356D01*
X3215356Y-10285356D01*
X3215356Y-10531356D02*
X3215356Y-10460644D01*
X3144644Y-10460644D01*
X3144644Y-10531356D01*
X3215356Y-10531356D01*
X3215356Y-10785356D02*
X3215356Y-10714644D01*
X3144644Y-10714644D01*
X3144644Y-10785356D01*
X3215356Y-10785356D01*
X3467356Y-8031356D02*
X3467356Y-7960644D01*
X3396644Y-7960644D01*
X3396644Y-8031356D01*
X3467356Y-8031356D01*
X3467356Y-8285356D02*
X3467356Y-8214644D01*
X3396644Y-8214644D01*
X3396644Y-8285356D01*
X3467356Y-8285356D01*
X3467356Y-8531356D02*
X3467356Y-8460644D01*
X3396644Y-8460644D01*
X3396644Y-8531356D01*
X3467356Y-8531356D01*
X3467356Y-8785356D02*
X3467356Y-8714644D01*
X3396644Y-8714644D01*
X3396644Y-8785356D01*
X3467356Y-8785356D01*
X3467356Y-9031356D02*
X3467356Y-8960644D01*
X3396644Y-8960644D01*
X3396644Y-9031356D01*
X3467356Y-9031356D01*
X3467356Y-9285356D02*
X3467356Y-9214644D01*
X3396644Y-9214644D01*
X3396644Y-9285356D01*
X3467356Y-9285356D01*
X3467356Y-9531356D02*
X3467356Y-9460644D01*
X3396644Y-9460644D01*
X3396644Y-9531356D01*
X3467356Y-9531356D01*
X3467356Y-9785356D02*
X3467356Y-9714644D01*
X3396644Y-9714644D01*
X3396644Y-9785356D01*
X3467356Y-9785356D01*
X3469356Y-10031356D02*
X3469356Y-9960644D01*
X3398644Y-9960644D01*
X3398644Y-10031356D01*
X3469356Y-10031356D01*
X3469356Y-10285356D02*
X3469356Y-10214644D01*
X3398644Y-10214644D01*
X3398644Y-10285356D01*
X3469356Y-10285356D01*
X3469356Y-10531356D02*
X3469356Y-10460644D01*
X3398644Y-10460644D01*
X3398644Y-10531356D01*
X3469356Y-10531356D01*
X3469356Y-10785356D02*
X3469356Y-10714644D01*
X3398644Y-10714644D01*
X3398644Y-10785356D01*
X3469356Y-10785356D01*
X3721356Y-8031356D02*
X3721356Y-7960644D01*
X3650644Y-7960644D01*
X3650644Y-8031356D01*
X3721356Y-8031356D01*
X3721356Y-8285356D02*
X3721356Y-8214644D01*
X3650644Y-8214644D01*
X3650644Y-8285356D01*
X3721356Y-8285356D01*
X3721356Y-8531356D02*
X3721356Y-8460644D01*
X3650644Y-8460644D01*
X3650644Y-8531356D01*
X3721356Y-8531356D01*
X3721356Y-8785356D02*
X3721356Y-8714644D01*
X3650644Y-8714644D01*
X3650644Y-8785356D01*
X3721356Y-8785356D01*
X3721356Y-9031356D02*
X3721356Y-8960644D01*
X3650644Y-8960644D01*
X3650644Y-9031356D01*
X3721356Y-9031356D01*
X3721356Y-9285356D02*
X3721356Y-9214644D01*
X3650644Y-9214644D01*
X3650644Y-9285356D01*
X3721356Y-9285356D01*
X3721356Y-9531356D02*
X3721356Y-9460644D01*
X3650644Y-9460644D01*
X3650644Y-9531356D01*
X3721356Y-9531356D01*
X3721356Y-9785356D02*
X3721356Y-9714644D01*
X3650644Y-9714644D01*
X3650644Y-9785356D01*
X3721356Y-9785356D01*
X3723356Y-10031356D02*
X3723356Y-9960644D01*
X3652644Y-9960644D01*
X3652644Y-10031356D01*
X3723356Y-10031356D01*
X3723356Y-10285356D02*
X3723356Y-10214644D01*
X3652644Y-10214644D01*
X3652644Y-10285356D01*
X3723356Y-10285356D01*
X3723356Y-10531356D02*
X3723356Y-10460644D01*
X3652644Y-10460644D01*
X3652644Y-10531356D01*
X3723356Y-10531356D01*
X3723356Y-10785356D02*
X3723356Y-10714644D01*
X3652644Y-10714644D01*
X3652644Y-10785356D01*
X3723356Y-10785356D01*
X3975356Y-8031356D02*
X3975356Y-7960644D01*
X3904644Y-7960644D01*
X3904644Y-8031356D01*
X3975356Y-8031356D01*
X3975356Y-8285356D02*
X3975356Y-8214644D01*
X3904644Y-8214644D01*
X3904644Y-8285356D01*
X3975356Y-8285356D01*
X3975356Y-8531356D02*
X3975356Y-8460644D01*
X3904644Y-8460644D01*
X3904644Y-8531356D01*
X3975356Y-8531356D01*
X3975356Y-8785356D02*
X3975356Y-8714644D01*
X3904644Y-8714644D01*
X3904644Y-8785356D01*
X3975356Y-8785356D01*
X3975356Y-9031356D02*
X3975356Y-8960644D01*
X3904644Y-8960644D01*
X3904644Y-9031356D01*
X3975356Y-9031356D01*
X3975356Y-9285356D02*
X3975356Y-9214644D01*
X3904644Y-9214644D01*
X3904644Y-9285356D01*
X3975356Y-9285356D01*
X3975356Y-9531356D02*
X3975356Y-9460644D01*
X3904644Y-9460644D01*
X3904644Y-9531356D01*
X3975356Y-9531356D01*
X3975356Y-9785356D02*
X3975356Y-9714644D01*
X3904644Y-9714644D01*
X3904644Y-9785356D01*
X3975356Y-9785356D01*
X3977356Y-10031356D02*
X3977356Y-9960644D01*
X3906644Y-9960644D01*
X3906644Y-10031356D01*
X3977356Y-10031356D01*
X3977356Y-10285356D02*
X3977356Y-10214644D01*
X3906644Y-10214644D01*
X3906644Y-10285356D01*
X3977356Y-10285356D01*
X3977356Y-10531356D02*
X3977356Y-10460644D01*
X3906644Y-10460644D01*
X3906644Y-10531356D01*
X3977356Y-10531356D01*
X3977356Y-10785356D02*
X3977356Y-10714644D01*
X3906644Y-10714644D01*
X3906644Y-10785356D01*
X3977356Y-10785356D01*
X4229356Y-8031356D02*
X4229356Y-7960644D01*
X4158644Y-7960644D01*
X4158644Y-8031356D01*
X4229356Y-8031356D01*
X4229356Y-8285356D02*
X4229356Y-8214644D01*
X4158644Y-8214644D01*
X4158644Y-8285356D01*
X4229356Y-8285356D01*
X4229356Y-8531356D02*
X4229356Y-8460644D01*
X4158644Y-8460644D01*
X4158644Y-8531356D01*
X4229356Y-8531356D01*
X4229356Y-8785356D02*
X4229356Y-8714644D01*
X4158644Y-8714644D01*
X4158644Y-8785356D01*
X4229356Y-8785356D01*
X4229356Y-9031356D02*
X4229356Y-8960644D01*
X4158644Y-8960644D01*
X4158644Y-9031356D01*
X4229356Y-9031356D01*
X4229356Y-9285356D02*
X4229356Y-9214644D01*
X4158644Y-9214644D01*
X4158644Y-9285356D01*
X4229356Y-9285356D01*
X4229356Y-9531356D02*
X4229356Y-9460644D01*
X4158644Y-9460644D01*
X4158644Y-9531356D01*
X4229356Y-9531356D01*
X4229356Y-9785356D02*
X4229356Y-9714644D01*
X4158644Y-9714644D01*
X4158644Y-9785356D01*
X4229356Y-9785356D01*
X4231356Y-10031356D02*
X4231356Y-9960644D01*
X4160644Y-9960644D01*
X4160644Y-10031356D01*
X4231356Y-10031356D01*
X4231356Y-10285356D02*
X4231356Y-10214644D01*
X4160644Y-10214644D01*
X4160644Y-10285356D01*
X4231356Y-10285356D01*
X4231356Y-10531356D02*
X4231356Y-10460644D01*
X4160644Y-10460644D01*
X4160644Y-10531356D01*
X4231356Y-10531356D01*
X4231356Y-10785356D02*
X4231356Y-10714644D01*
X4160644Y-10714644D01*
X4160644Y-10785356D01*
X4231356Y-10785356D01*
X4483356Y-8031356D02*
X4483356Y-7960644D01*
X4412644Y-7960644D01*
X4412644Y-8031356D01*
X4483356Y-8031356D01*
X4483356Y-8285356D02*
X4483356Y-8214644D01*
X4412644Y-8214644D01*
X4412644Y-8285356D01*
X4483356Y-8285356D01*
X4483356Y-8531356D02*
X4483356Y-8460644D01*
X4412644Y-8460644D01*
X4412644Y-8531356D01*
X4483356Y-8531356D01*
X4483356Y-8785356D02*
X4483356Y-8714644D01*
X4412644Y-8714644D01*
X4412644Y-8785356D01*
X4483356Y-8785356D01*
X4483356Y-9031356D02*
X4483356Y-8960644D01*
X4412644Y-8960644D01*
X4412644Y-9031356D01*
X4483356Y-9031356D01*
X4483356Y-9285356D02*
X4483356Y-9214644D01*
X4412644Y-9214644D01*
X4412644Y-9285356D01*
X4483356Y-9285356D01*
X4483356Y-9531356D02*
X4483356Y-9460644D01*
X4412644Y-9460644D01*
X4412644Y-9531356D01*
X4483356Y-9531356D01*
X4483356Y-9785356D02*
X4483356Y-9714644D01*
X4412644Y-9714644D01*
X4412644Y-9785356D01*
X4483356Y-9785356D01*
X4485356Y-10031356D02*
X4485356Y-9960644D01*
X4414644Y-9960644D01*
X4414644Y-10031356D01*
X4485356Y-10031356D01*
X4485356Y-10285356D02*
X4485356Y-10214644D01*
X4414644Y-10214644D01*
X4414644Y-10285356D01*
X4485356Y-10285356D01*
X4485356Y-10531356D02*
X4485356Y-10460644D01*
X4414644Y-10460644D01*
X4414644Y-10531356D01*
X4485356Y-10531356D01*
X4485356Y-10785356D02*
X4485356Y-10714644D01*
X4414644Y-10714644D01*
X4414644Y-10785356D01*
X4485356Y-10785356D01*
X4737356Y-8031356D02*
X4737356Y-7960644D01*
X4666644Y-7960644D01*
X4666644Y-8031356D01*
X4737356Y-8031356D01*
X4737356Y-8285356D02*
X4737356Y-8214644D01*
X4666644Y-8214644D01*
X4666644Y-8285356D01*
X4737356Y-8285356D01*
X4737356Y-8531356D02*
X4737356Y-8460644D01*
X4666644Y-8460644D01*
X4666644Y-8531356D01*
X4737356Y-8531356D01*
X4737356Y-8785356D02*
X4737356Y-8714644D01*
X4666644Y-8714644D01*
X4666644Y-8785356D01*
X4737356Y-8785356D01*
X4737356Y-9031356D02*
X4737356Y-8960644D01*
X4666644Y-8960644D01*
X4666644Y-9031356D01*
X4737356Y-9031356D01*
X4737356Y-9285356D02*
X4737356Y-9214644D01*
X4666644Y-9214644D01*
X4666644Y-9285356D01*
X4737356Y-9285356D01*
X4737356Y-9531356D02*
X4737356Y-9460644D01*
X4666644Y-9460644D01*
X4666644Y-9531356D01*
X4737356Y-9531356D01*
X4737356Y-9785356D02*
X4737356Y-9714644D01*
X4666644Y-9714644D01*
X4666644Y-9785356D01*
X4737356Y-9785356D01*
X4739356Y-10031356D02*
X4739356Y-9960644D01*
X4668644Y-9960644D01*
X4668644Y-10031356D01*
X4739356Y-10031356D01*
X4739356Y-10285356D02*
X4739356Y-10214644D01*
X4668644Y-10214644D01*
X4668644Y-10285356D01*
X4739356Y-10285356D01*
X4739356Y-10531356D02*
X4739356Y-10460644D01*
X4668644Y-10460644D01*
X4668644Y-10531356D01*
X4739356Y-10531356D01*
X4739356Y-10785356D02*
X4739356Y-10714644D01*
X4668644Y-10714644D01*
X4668644Y-10785356D01*
X4739356Y-10785356D01*
X4991356Y-8031356D02*
X4991356Y-7960644D01*
X4920644Y-7960644D01*
X4920644Y-8031356D01*
X4991356Y-8031356D01*
X4991356Y-8285356D02*
X4991356Y-8214644D01*
X4920644Y-8214644D01*
X4920644Y-8285356D01*
X4991356Y-8285356D01*
X4991356Y-8531356D02*
X4991356Y-8460644D01*
X4920644Y-8460644D01*
X4920644Y-8531356D01*
X4991356Y-8531356D01*
X4991356Y-8785356D02*
X4991356Y-8714644D01*
X4920644Y-8714644D01*
X4920644Y-8785356D01*
X4991356Y-8785356D01*
X4991356Y-9031356D02*
X4991356Y-8960644D01*
X4920644Y-8960644D01*
X4920644Y-9031356D01*
X4991356Y-9031356D01*
X4991356Y-9285356D02*
X4991356Y-9214644D01*
X4920644Y-9214644D01*
X4920644Y-9285356D01*
X4991356Y-9285356D01*
X4991356Y-9531356D02*
X4991356Y-9460644D01*
X4920644Y-9460644D01*
X4920644Y-9531356D01*
X4991356Y-9531356D01*
X4991356Y-9785356D02*
X4991356Y-9714644D01*
X4920644Y-9714644D01*
X4920644Y-9785356D01*
X4991356Y-9785356D01*
X4993356Y-10031356D02*
X4993356Y-9960644D01*
X4922644Y-9960644D01*
X4922644Y-10031356D01*
X4993356Y-10031356D01*
X4993356Y-10285356D02*
X4993356Y-10214644D01*
X4922644Y-10214644D01*
X4922644Y-10285356D01*
X4993356Y-10285356D01*
X4993356Y-10531356D02*
X4993356Y-10460644D01*
X4922644Y-10460644D01*
X4922644Y-10531356D01*
X4993356Y-10531356D01*
X4993356Y-10785356D02*
X4993356Y-10714644D01*
X4922644Y-10714644D01*
X4922644Y-10785356D01*
X4993356Y-10785356D01*
X5245356Y-8031356D02*
X5245356Y-7960644D01*
X5174644Y-7960644D01*
X5174644Y-8031356D01*
X5245356Y-8031356D01*
X5245356Y-8285356D02*
X5245356Y-8214644D01*
X5174644Y-8214644D01*
X5174644Y-8285356D01*
X5245356Y-8285356D01*
X5245356Y-8531356D02*
X5245356Y-8460644D01*
X5174644Y-8460644D01*
X5174644Y-8531356D01*
X5245356Y-8531356D01*
X5245356Y-8785356D02*
X5245356Y-8714644D01*
X5174644Y-8714644D01*
X5174644Y-8785356D01*
X5245356Y-8785356D01*
X5245356Y-9031356D02*
X5245356Y-8960644D01*
X5174644Y-8960644D01*
X5174644Y-9031356D01*
X5245356Y-9031356D01*
X5245356Y-9285356D02*
X5245356Y-9214644D01*
X5174644Y-9214644D01*
X5174644Y-9285356D01*
X5245356Y-9285356D01*
X5245356Y-9531356D02*
X5245356Y-9460644D01*
X5174644Y-9460644D01*
X5174644Y-9531356D01*
X5245356Y-9531356D01*
X5245356Y-9785356D02*
X5245356Y-9714644D01*
X5174644Y-9714644D01*
X5174644Y-9785356D01*
X5245356Y-9785356D01*
X5247356Y-10031356D02*
X5247356Y-9960644D01*
X5176644Y-9960644D01*
X5176644Y-10031356D01*
X5247356Y-10031356D01*
X5247356Y-10285356D02*
X5247356Y-10214644D01*
X5176644Y-10214644D01*
X5176644Y-10285356D01*
X5247356Y-10285356D01*
X5247356Y-10531356D02*
X5247356Y-10460644D01*
X5176644Y-10460644D01*
X5176644Y-10531356D01*
X5247356Y-10531356D01*
X5247356Y-10785356D02*
X5247356Y-10714644D01*
X5176644Y-10714644D01*
X5176644Y-10785356D01*
X5247356Y-10785356D01*
X5499356Y-8031356D02*
X5499356Y-7960644D01*
X5428644Y-7960644D01*
X5428644Y-8031356D01*
X5499356Y-8031356D01*
X5499356Y-8285356D02*
X5499356Y-8214644D01*
X5428644Y-8214644D01*
X5428644Y-8285356D01*
X5499356Y-8285356D01*
X5499356Y-8531356D02*
X5499356Y-8460644D01*
X5428644Y-8460644D01*
X5428644Y-8531356D01*
X5499356Y-8531356D01*
X5499356Y-8785356D02*
X5499356Y-8714644D01*
X5428644Y-8714644D01*
X5428644Y-8785356D01*
X5499356Y-8785356D01*
X5499356Y-9031356D02*
X5499356Y-8960644D01*
X5428644Y-8960644D01*
X5428644Y-9031356D01*
X5499356Y-9031356D01*
X5499356Y-9285356D02*
X5499356Y-9214644D01*
X5428644Y-9214644D01*
X5428644Y-9285356D01*
X5499356Y-9285356D01*
X5499356Y-9531356D02*
X5499356Y-9460644D01*
X5428644Y-9460644D01*
X5428644Y-9531356D01*
X5499356Y-9531356D01*
X5499356Y-9785356D02*
X5499356Y-9714644D01*
X5428644Y-9714644D01*
X5428644Y-9785356D01*
X5499356Y-9785356D01*
X5501356Y-10031356D02*
X5501356Y-9960644D01*
X5430644Y-9960644D01*
X5430644Y-10031356D01*
X5501356Y-10031356D01*
X5501356Y-10285356D02*
X5501356Y-10214644D01*
X5430644Y-10214644D01*
X5430644Y-10285356D01*
X5501356Y-10285356D01*
X5501356Y-10531356D02*
X5501356Y-10460644D01*
X5430644Y-10460644D01*
X5430644Y-10531356D01*
X5501356Y-10531356D01*
X5501356Y-10785356D02*
X5501356Y-10714644D01*
X5430644Y-10714644D01*
X5430644Y-10785356D01*
X5501356Y-10785356D01*
X5753356Y-8031356D02*
X5753356Y-7960644D01*
X5682644Y-7960644D01*
X5682644Y-8031356D01*
X5753356Y-8031356D01*
X5753356Y-8285356D02*
X5753356Y-8214644D01*
X5682644Y-8214644D01*
X5682644Y-8285356D01*
X5753356Y-8285356D01*
X5753356Y-8531356D02*
X5753356Y-8460644D01*
X5682644Y-8460644D01*
X5682644Y-8531356D01*
X5753356Y-8531356D01*
X5753356Y-8785356D02*
X5753356Y-8714644D01*
X5682644Y-8714644D01*
X5682644Y-8785356D01*
X5753356Y-8785356D01*
X5753356Y-9031356D02*
X5753356Y-8960644D01*
X5682644Y-8960644D01*
X5682644Y-9031356D01*
X5753356Y-9031356D01*
X5753356Y-9285356D02*
X5753356Y-9214644D01*
X5682644Y-9214644D01*
X5682644Y-9285356D01*
X5753356Y-9285356D01*
X5753356Y-9531356D02*
X5753356Y-9460644D01*
X5682644Y-9460644D01*
X5682644Y-9531356D01*
X5753356Y-9531356D01*
X5753356Y-9785356D02*
X5753356Y-9714644D01*
X5682644Y-9714644D01*
X5682644Y-9785356D01*
X5753356Y-9785356D01*
X5755356Y-10031356D02*
X5755356Y-9960644D01*
X5684644Y-9960644D01*
X5684644Y-10031356D01*
X5755356Y-10031356D01*
X5755356Y-10285356D02*
X5755356Y-10214644D01*
X5684644Y-10214644D01*
X5684644Y-10285356D01*
X5755356Y-10285356D01*
X5755356Y-10531356D02*
X5755356Y-10460644D01*
X5684644Y-10460644D01*
X5684644Y-10531356D01*
X5755356Y-10531356D01*
X5755356Y-10785356D02*
X5755356Y-10714644D01*
X5684644Y-10714644D01*
X5684644Y-10785356D01*
X5755356Y-10785356D01*
X6007356Y-8031356D02*
X6007356Y-7960644D01*
X5936644Y-7960644D01*
X5936644Y-8031356D01*
X6007356Y-8031356D01*
X6007356Y-8285356D02*
X6007356Y-8214644D01*
X5936644Y-8214644D01*
X5936644Y-8285356D01*
X6007356Y-8285356D01*
X6007356Y-8531356D02*
X6007356Y-8460644D01*
X5936644Y-8460644D01*
X5936644Y-8531356D01*
X6007356Y-8531356D01*
X6007356Y-8785356D02*
X6007356Y-8714644D01*
X5936644Y-8714644D01*
X5936644Y-8785356D01*
X6007356Y-8785356D01*
X6007356Y-9031356D02*
X6007356Y-8960644D01*
X5936644Y-8960644D01*
X5936644Y-9031356D01*
X6007356Y-9031356D01*
X6007356Y-9285356D02*
X6007356Y-9214644D01*
X5936644Y-9214644D01*
X5936644Y-9285356D01*
X6007356Y-9285356D01*
X6007356Y-9531356D02*
X6007356Y-9460644D01*
X5936644Y-9460644D01*
X5936644Y-9531356D01*
X6007356Y-9531356D01*
X6007356Y-9785356D02*
X6007356Y-9714644D01*
X5936644Y-9714644D01*
X5936644Y-9785356D01*
X6007356Y-9785356D01*
X6009356Y-10031356D02*
X6009356Y-9960644D01*
X5938644Y-9960644D01*
X5938644Y-10031356D01*
X6009356Y-10031356D01*
X6009356Y-10285356D02*
X6009356Y-10214644D01*
X5938644Y-10214644D01*
X5938644Y-10285356D01*
X6009356Y-10285356D01*
X6009356Y-10531356D02*
X6009356Y-10460644D01*
X5938644Y-10460644D01*
X5938644Y-10531356D01*
X6009356Y-10531356D01*
X6009356Y-10785356D02*
X6009356Y-10714644D01*
X5938644Y-10714644D01*
X5938644Y-10785356D01*
X6009356Y-10785356D01*
X6261356Y-8031356D02*
X6261356Y-7960644D01*
X6190644Y-7960644D01*
X6190644Y-8031356D01*
X6261356Y-8031356D01*
X6261356Y-8285356D02*
X6261356Y-8214644D01*
X6190644Y-8214644D01*
X6190644Y-8285356D01*
X6261356Y-8285356D01*
X6261356Y-8531356D02*
X6261356Y-8460644D01*
X6190644Y-8460644D01*
X6190644Y-8531356D01*
X6261356Y-8531356D01*
X6261356Y-8785356D02*
X6261356Y-8714644D01*
X6190644Y-8714644D01*
X6190644Y-8785356D01*
X6261356Y-8785356D01*
X6261356Y-9031356D02*
X6261356Y-8960644D01*
X6190644Y-8960644D01*
X6190644Y-9031356D01*
X6261356Y-9031356D01*
X6261356Y-9285356D02*
X6261356Y-9214644D01*
X6190644Y-9214644D01*
X6190644Y-9285356D01*
X6261356Y-9285356D01*
X6261356Y-9531356D02*
X6261356Y-9460644D01*
X6190644Y-9460644D01*
X6190644Y-9531356D01*
X6261356Y-9531356D01*
X6261356Y-9785356D02*
X6261356Y-9714644D01*
X6190644Y-9714644D01*
X6190644Y-9785356D01*
X6261356Y-9785356D01*
X6263356Y-10031356D02*
X6263356Y-9960644D01*
X6192644Y-9960644D01*
X6192644Y-10031356D01*
X6263356Y-10031356D01*
X6263356Y-10285356D02*
X6263356Y-10214644D01*
X6192644Y-10214644D01*
X6192644Y-10285356D01*
X6263356Y-10285356D01*
X6263356Y-10531356D02*
X6263356Y-10460644D01*
X6192644Y-10460644D01*
X6192644Y-10531356D01*
X6263356Y-10531356D01*
X6263356Y-10785356D02*
X6263356Y-10714644D01*
X6192644Y-10714644D01*
X6192644Y-10785356D01*
X6263356Y-10785356D01*
X6515356Y-8031356D02*
X6515356Y-7960644D01*
X6444644Y-7960644D01*
X6444644Y-8031356D01*
X6515356Y-8031356D01*
X6515356Y-8285356D02*
X6515356Y-8214644D01*
X6444644Y-8214644D01*
X6444644Y-8285356D01*
X6515356Y-8285356D01*
X6515356Y-8531356D02*
X6515356Y-8460644D01*
X6444644Y-8460644D01*
X6444644Y-8531356D01*
X6515356Y-8531356D01*
X6515356Y-8785356D02*
X6515356Y-8714644D01*
X6444644Y-8714644D01*
X6444644Y-8785356D01*
X6515356Y-8785356D01*
X6515356Y-9031356D02*
X6515356Y-8960644D01*
X6444644Y-8960644D01*
X6444644Y-9031356D01*
X6515356Y-9031356D01*
X6515356Y-9285356D02*
X6515356Y-9214644D01*
X6444644Y-9214644D01*
X6444644Y-9285356D01*
X6515356Y-9285356D01*
X6515356Y-9531356D02*
X6515356Y-9460644D01*
X6444644Y-9460644D01*
X6444644Y-9531356D01*
X6515356Y-9531356D01*
X6515356Y-9785356D02*
X6515356Y-9714644D01*
X6444644Y-9714644D01*
X6444644Y-9785356D01*
X6515356Y-9785356D01*
X6517356Y-10031356D02*
X6517356Y-9960644D01*
X6446644Y-9960644D01*
X6446644Y-10031356D01*
X6517356Y-10031356D01*
X6517356Y-10285356D02*
X6517356Y-10214644D01*
X6446644Y-10214644D01*
X6446644Y-10285356D01*
X6517356Y-10285356D01*
X6517356Y-10531356D02*
X6517356Y-10460644D01*
X6446644Y-10460644D01*
X6446644Y-10531356D01*
X6517356Y-10531356D01*
X6517356Y-10785356D02*
X6517356Y-10714644D01*
X6446644Y-10714644D01*
X6446644Y-10785356D01*
X6517356Y-10785356D01*
X6769356Y-8031356D02*
X6769356Y-7960644D01*
X6698644Y-7960644D01*
X6698644Y-8031356D01*
X6769356Y-8031356D01*
X6769356Y-8285356D02*
X6769356Y-8214644D01*
X6698644Y-8214644D01*
X6698644Y-8285356D01*
X6769356Y-8285356D01*
X6769356Y-8531356D02*
X6769356Y-8460644D01*
X6698644Y-8460644D01*
X6698644Y-8531356D01*
X6769356Y-8531356D01*
X6769356Y-8785356D02*
X6769356Y-8714644D01*
X6698644Y-8714644D01*
X6698644Y-8785356D01*
X6769356Y-8785356D01*
X6769356Y-9031356D02*
X6769356Y-8960644D01*
X6698644Y-8960644D01*
X6698644Y-9031356D01*
X6769356Y-9031356D01*
X6769356Y-9285356D02*
X6769356Y-9214644D01*
X6698644Y-9214644D01*
X6698644Y-9285356D01*
X6769356Y-9285356D01*
X6769356Y-9531356D02*
X6769356Y-9460644D01*
X6698644Y-9460644D01*
X6698644Y-9531356D01*
X6769356Y-9531356D01*
X6769356Y-9785356D02*
X6769356Y-9714644D01*
X6698644Y-9714644D01*
X6698644Y-9785356D01*
X6769356Y-9785356D01*
X6771356Y-10031356D02*
X6771356Y-9960644D01*
X6700644Y-9960644D01*
X6700644Y-10031356D01*
X6771356Y-10031356D01*
X6771356Y-10285356D02*
X6771356Y-10214644D01*
X6700644Y-10214644D01*
X6700644Y-10285356D01*
X6771356Y-10285356D01*
X6771356Y-10531356D02*
X6771356Y-10460644D01*
X6700644Y-10460644D01*
X6700644Y-10531356D01*
X6771356Y-10531356D01*
X6771356Y-10785356D02*
X6771356Y-10714644D01*
X6700644Y-10714644D01*
X6700644Y-10785356D01*
X6771356Y-10785356D01*
X7023356Y-8031356D02*
X7023356Y-7960644D01*
X6952644Y-7960644D01*
X6952644Y-8031356D01*
X7023356Y-8031356D01*
X7023356Y-8285356D02*
X7023356Y-8214644D01*
X6952644Y-8214644D01*
X6952644Y-8285356D01*
X7023356Y-8285356D01*
X7023356Y-8531356D02*
X7023356Y-8460644D01*
X6952644Y-8460644D01*
X6952644Y-8531356D01*
X7023356Y-8531356D01*
X7023356Y-8785356D02*
X7023356Y-8714644D01*
X6952644Y-8714644D01*
X6952644Y-8785356D01*
X7023356Y-8785356D01*
X7023356Y-9031356D02*
X7023356Y-8960644D01*
X6952644Y-8960644D01*
X6952644Y-9031356D01*
X7023356Y-9031356D01*
X7023356Y-9285356D02*
X7023356Y-9214644D01*
X6952644Y-9214644D01*
X6952644Y-9285356D01*
X7023356Y-9285356D01*
X7023356Y-9531356D02*
X7023356Y-9460644D01*
X6952644Y-9460644D01*
X6952644Y-9531356D01*
X7023356Y-9531356D01*
X7023356Y-9785356D02*
X7023356Y-9714644D01*
X6952644Y-9714644D01*
X6952644Y-9785356D01*
X7023356Y-9785356D01*
X7025356Y-10031356D02*
X7025356Y-9960644D01*
X6954644Y-9960644D01*
X6954644Y-10031356D01*
X7025356Y-10031356D01*
X7025356Y-10285356D02*
X7025356Y-10214644D01*
X6954644Y-10214644D01*
X6954644Y-10285356D01*
X7025356Y-10285356D01*
X7025356Y-10531356D02*
X7025356Y-10460644D01*
X6954644Y-10460644D01*
X6954644Y-10531356D01*
X7025356Y-10531356D01*
X7025356Y-10785356D02*
X7025356Y-10714644D01*
X6954644Y-10714644D01*
X6954644Y-10785356D01*
X7025356Y-10785356D01*
X7277356Y-8031356D02*
X7277356Y-7960644D01*
X7206644Y-7960644D01*
X7206644Y-8031356D01*
X7277356Y-8031356D01*
X7277356Y-8285356D02*
X7277356Y-8214644D01*
X7206644Y-8214644D01*
X7206644Y-8285356D01*
X7277356Y-8285356D01*
X7277356Y-8531356D02*
X7277356Y-8460644D01*
X7206644Y-8460644D01*
X7206644Y-8531356D01*
X7277356Y-8531356D01*
X7277356Y-8785356D02*
X7277356Y-8714644D01*
X7206644Y-8714644D01*
X7206644Y-8785356D01*
X7277356Y-8785356D01*
X7277356Y-9031356D02*
X7277356Y-8960644D01*
X7206644Y-8960644D01*
X7206644Y-9031356D01*
X7277356Y-9031356D01*
X7277356Y-9285356D02*
X7277356Y-9214644D01*
X7206644Y-9214644D01*
X7206644Y-9285356D01*
X7277356Y-9285356D01*
X7277356Y-9531356D02*
X7277356Y-9460644D01*
X7206644Y-9460644D01*
X7206644Y-9531356D01*
X7277356Y-9531356D01*
X7277356Y-9785356D02*
X7277356Y-9714644D01*
X7206644Y-9714644D01*
X7206644Y-9785356D01*
X7277356Y-9785356D01*
X7279356Y-10031356D02*
X7279356Y-9960644D01*
X7208644Y-9960644D01*
X7208644Y-10031356D01*
X7279356Y-10031356D01*
X7279356Y-10285356D02*
X7279356Y-10214644D01*
X7208644Y-10214644D01*
X7208644Y-10285356D01*
X7279356Y-10285356D01*
X7279356Y-10531356D02*
X7279356Y-10460644D01*
X7208644Y-10460644D01*
X7208644Y-10531356D01*
X7279356Y-10531356D01*
X7279356Y-10785356D02*
X7279356Y-10714644D01*
X7208644Y-10714644D01*
X7208644Y-10785356D01*
X7279356Y-10785356D01*
X7531356Y-8031356D02*
X7531356Y-7960644D01*
X7460644Y-7960644D01*
X7460644Y-8031356D01*
X7531356Y-8031356D01*
X7531356Y-8285356D02*
X7531356Y-8214644D01*
X7460644Y-8214644D01*
X7460644Y-8285356D01*
X7531356Y-8285356D01*
X7531356Y-8531356D02*
X7531356Y-8460644D01*
X7460644Y-8460644D01*
X7460644Y-8531356D01*
X7531356Y-8531356D01*
X7531356Y-8785356D02*
X7531356Y-8714644D01*
X7460644Y-8714644D01*
X7460644Y-8785356D01*
X7531356Y-8785356D01*
X7531356Y-9031356D02*
X7531356Y-8960644D01*
X7460644Y-8960644D01*
X7460644Y-9031356D01*
X7531356Y-9031356D01*
X7531356Y-9285356D02*
X7531356Y-9214644D01*
X7460644Y-9214644D01*
X7460644Y-9285356D01*
X7531356Y-9285356D01*
X7531356Y-9531356D02*
X7531356Y-9460644D01*
X7460644Y-9460644D01*
X7460644Y-9531356D01*
X7531356Y-9531356D01*
X7531356Y-9785356D02*
X7531356Y-9714644D01*
X7460644Y-9714644D01*
X7460644Y-9785356D01*
X7531356Y-9785356D01*
X7533356Y-10031356D02*
X7533356Y-9960644D01*
X7462644Y-9960644D01*
X7462644Y-10031356D01*
X7533356Y-10031356D01*
X7533356Y-10285356D02*
X7533356Y-10214644D01*
X7462644Y-10214644D01*
X7462644Y-10285356D01*
X7533356Y-10285356D01*
X7533356Y-10531356D02*
X7533356Y-10460644D01*
X7462644Y-10460644D01*
X7462644Y-10531356D01*
X7533356Y-10531356D01*
X7533356Y-10785356D02*
X7533356Y-10714644D01*
X7462644Y-10714644D01*
X7462644Y-10785356D01*
X7533356Y-10785356D01*
X7785356Y-8031356D02*
X7785356Y-7960644D01*
X7714644Y-7960644D01*
X7714644Y-8031356D01*
X7785356Y-8031356D01*
X7785356Y-8285356D02*
X7785356Y-8214644D01*
X7714644Y-8214644D01*
X7714644Y-8285356D01*
X7785356Y-8285356D01*
X7785356Y-8531356D02*
X7785356Y-8460644D01*
X7714644Y-8460644D01*
X7714644Y-8531356D01*
X7785356Y-8531356D01*
X7785356Y-8785356D02*
X7785356Y-8714644D01*
X7714644Y-8714644D01*
X7714644Y-8785356D01*
X7785356Y-8785356D01*
X7785356Y-9031356D02*
X7785356Y-8960644D01*
X7714644Y-8960644D01*
X7714644Y-9031356D01*
X7785356Y-9031356D01*
X7785356Y-9285356D02*
X7785356Y-9214644D01*
X7714644Y-9214644D01*
X7714644Y-9285356D01*
X7785356Y-9285356D01*
X7785356Y-9531356D02*
X7785356Y-9460644D01*
X7714644Y-9460644D01*
X7714644Y-9531356D01*
X7785356Y-9531356D01*
X7785356Y-9785356D02*
X7785356Y-9714644D01*
X7714644Y-9714644D01*
X7714644Y-9785356D01*
X7785356Y-9785356D01*
X7787356Y-10031356D02*
X7787356Y-9960644D01*
X7716644Y-9960644D01*
X7716644Y-10031356D01*
X7787356Y-10031356D01*
X7787356Y-10285356D02*
X7787356Y-10214644D01*
X7716644Y-10214644D01*
X7716644Y-10285356D01*
X7787356Y-10285356D01*
X7787356Y-10531356D02*
X7787356Y-10460644D01*
X7716644Y-10460644D01*
X7716644Y-10531356D01*
X7787356Y-10531356D01*
X7787356Y-10785356D02*
X7787356Y-10714644D01*
X7716644Y-10714644D01*
X7716644Y-10785356D01*
X7787356Y-10785356D01*
X8039356Y-8031356D02*
X8039356Y-7960644D01*
X7968644Y-7960644D01*
X7968644Y-8031356D01*
X8039356Y-8031356D01*
X8039356Y-8285356D02*
X8039356Y-8214644D01*
X7968644Y-8214644D01*
X7968644Y-8285356D01*
X8039356Y-8285356D01*
X8039356Y-8531356D02*
X8039356Y-8460644D01*
X7968644Y-8460644D01*
X7968644Y-8531356D01*
X8039356Y-8531356D01*
X8039356Y-8785356D02*
X8039356Y-8714644D01*
X7968644Y-8714644D01*
X7968644Y-8785356D01*
X8039356Y-8785356D01*
X8039356Y-9031356D02*
X8039356Y-8960644D01*
X7968644Y-8960644D01*
X7968644Y-9031356D01*
X8039356Y-9031356D01*
X8039356Y-9285356D02*
X8039356Y-9214644D01*
X7968644Y-9214644D01*
X7968644Y-9285356D01*
X8039356Y-9285356D01*
X8039356Y-9531356D02*
X8039356Y-9460644D01*
X7968644Y-9460644D01*
X7968644Y-9531356D01*
X8039356Y-9531356D01*
X8039356Y-9785356D02*
X8039356Y-9714644D01*
X7968644Y-9714644D01*
X7968644Y-9785356D01*
X8039356Y-9785356D01*
X8041356Y-10031356D02*
X8041356Y-9960644D01*
X7970644Y-9960644D01*
X7970644Y-10031356D01*
X8041356Y-10031356D01*
X8041356Y-10285356D02*
X8041356Y-10214644D01*
X7970644Y-10214644D01*
X7970644Y-10285356D01*
X8041356Y-10285356D01*
X8041356Y-10531356D02*
X8041356Y-10460644D01*
X7970644Y-10460644D01*
X7970644Y-10531356D01*
X8041356Y-10531356D01*
X8041356Y-10785356D02*
X8041356Y-10714644D01*
X7970644Y-10714644D01*
X7970644Y-10785356D01*
X8041356Y-10785356D01*
X8293356Y-8031356D02*
X8293356Y-7960644D01*
X8222644Y-7960644D01*
X8222644Y-8031356D01*
X8293356Y-8031356D01*
X8293356Y-8285356D02*
X8293356Y-8214644D01*
X8222644Y-8214644D01*
X8222644Y-8285356D01*
X8293356Y-8285356D01*
X8293356Y-8531356D02*
X8293356Y-8460644D01*
X8222644Y-8460644D01*
X8222644Y-8531356D01*
X8293356Y-8531356D01*
X8293356Y-8785356D02*
X8293356Y-8714644D01*
X8222644Y-8714644D01*
X8222644Y-8785356D01*
X8293356Y-8785356D01*
X8293356Y-9031356D02*
X8293356Y-8960644D01*
X8222644Y-8960644D01*
X8222644Y-9031356D01*
X8293356Y-9031356D01*
X8293356Y-9285356D02*
X8293356Y-9214644D01*
X8222644Y-9214644D01*
X8222644Y-9285356D01*
X8293356Y-9285356D01*
X8293356Y-9531356D02*
X8293356Y-9460644D01*
X8222644Y-9460644D01*
X8222644Y-9531356D01*
X8293356Y-9531356D01*
X8293356Y-9785356D02*
X8293356Y-9714644D01*
X8222644Y-9714644D01*
X8222644Y-9785356D01*
X8293356Y-9785356D01*
X8295356Y-10031356D02*
X8295356Y-9960644D01*
X8224644Y-9960644D01*
X8224644Y-10031356D01*
X8295356Y-10031356D01*
X8295356Y-10285356D02*
X8295356Y-10214644D01*
X8224644Y-10214644D01*
X8224644Y-10285356D01*
X8295356Y-10285356D01*
X8295356Y-10531356D02*
X8295356Y-10460644D01*
X8224644Y-10460644D01*
X8224644Y-10531356D01*
X8295356Y-10531356D01*
X8295356Y-10785356D02*
X8295356Y-10714644D01*
X8224644Y-10714644D01*
X8224644Y-10785356D01*
X8295356Y-10785356D01*
X8547356Y-8031356D02*
X8547356Y-7960644D01*
X8476644Y-7960644D01*
X8476644Y-8031356D01*
X8547356Y-8031356D01*
X8547356Y-8285356D02*
X8547356Y-8214644D01*
X8476644Y-8214644D01*
X8476644Y-8285356D01*
X8547356Y-8285356D01*
X8547356Y-8531356D02*
X8547356Y-8460644D01*
X8476644Y-8460644D01*
X8476644Y-8531356D01*
X8547356Y-8531356D01*
X8547356Y-8785356D02*
X8547356Y-8714644D01*
X8476644Y-8714644D01*
X8476644Y-8785356D01*
X8547356Y-8785356D01*
X8547356Y-9031356D02*
X8547356Y-8960644D01*
X8476644Y-8960644D01*
X8476644Y-9031356D01*
X8547356Y-9031356D01*
X8547356Y-9285356D02*
X8547356Y-9214644D01*
X8476644Y-9214644D01*
X8476644Y-9285356D01*
X8547356Y-9285356D01*
X8547356Y-9531356D02*
X8547356Y-9460644D01*
X8476644Y-9460644D01*
X8476644Y-9531356D01*
X8547356Y-9531356D01*
X8547356Y-9785356D02*
X8547356Y-9714644D01*
X8476644Y-9714644D01*
X8476644Y-9785356D01*
X8547356Y-9785356D01*
X8549356Y-10031356D02*
X8549356Y-9960644D01*
X8478644Y-9960644D01*
X8478644Y-10031356D01*
X8549356Y-10031356D01*
X8549356Y-10285356D02*
X8549356Y-10214644D01*
X8478644Y-10214644D01*
X8478644Y-10285356D01*
X8549356Y-10285356D01*
X8549356Y-10531356D02*
X8549356Y-10460644D01*
X8478644Y-10460644D01*
X8478644Y-10531356D01*
X8549356Y-10531356D01*
X8549356Y-10785356D02*
X8549356Y-10714644D01*
X8478644Y-10714644D01*
X8478644Y-10785356D01*
X8549356Y-10785356D01*
X8801356Y-8031356D02*
X8801356Y-7960644D01*
X8730644Y-7960644D01*
X8730644Y-8031356D01*
X8801356Y-8031356D01*
X8801356Y-8285356D02*
X8801356Y-8214644D01*
X8730644Y-8214644D01*
X8730644Y-8285356D01*
X8801356Y-8285356D01*
X8801356Y-8531356D02*
X8801356Y-8460644D01*
X8730644Y-8460644D01*
X8730644Y-8531356D01*
X8801356Y-8531356D01*
X8801356Y-8785356D02*
X8801356Y-8714644D01*
X8730644Y-8714644D01*
X8730644Y-8785356D01*
X8801356Y-8785356D01*
X8801356Y-9031356D02*
X8801356Y-8960644D01*
X8730644Y-8960644D01*
X8730644Y-9031356D01*
X8801356Y-9031356D01*
X8801356Y-9285356D02*
X8801356Y-9214644D01*
X8730644Y-9214644D01*
X8730644Y-9285356D01*
X8801356Y-9285356D01*
X8801356Y-9531356D02*
X8801356Y-9460644D01*
X8730644Y-9460644D01*
X8730644Y-9531356D01*
X8801356Y-9531356D01*
X8801356Y-9785356D02*
X8801356Y-9714644D01*
X8730644Y-9714644D01*
X8730644Y-9785356D01*
X8801356Y-9785356D01*
X8803356Y-10031356D02*
X8803356Y-9960644D01*
X8732644Y-9960644D01*
X8732644Y-10031356D01*
X8803356Y-10031356D01*
X8803356Y-10285356D02*
X8803356Y-10214644D01*
X8732644Y-10214644D01*
X8732644Y-10285356D01*
X8803356Y-10285356D01*
X8803356Y-10531356D02*
X8803356Y-10460644D01*
X8732644Y-10460644D01*
X8732644Y-10531356D01*
X8803356Y-10531356D01*
X8803356Y-10785356D02*
X8803356Y-10714644D01*
X8732644Y-10714644D01*
X8732644Y-10785356D01*
X8803356Y-10785356D01*
X9055356Y-8031356D02*
X9055356Y-7960644D01*
X8984644Y-7960644D01*
X8984644Y-8031356D01*
X9055356Y-8031356D01*
X9055356Y-8285356D02*
X9055356Y-8214644D01*
X8984644Y-8214644D01*
X8984644Y-8285356D01*
X9055356Y-8285356D01*
X9055356Y-8531356D02*
X9055356Y-8460644D01*
X8984644Y-8460644D01*
X8984644Y-8531356D01*
X9055356Y-8531356D01*
X9055356Y-8785356D02*
X9055356Y-8714644D01*
X8984644Y-8714644D01*
X8984644Y-8785356D01*
X9055356Y-8785356D01*
X9055356Y-9031356D02*
X9055356Y-8960644D01*
X8984644Y-8960644D01*
X8984644Y-9031356D01*
X9055356Y-9031356D01*
X9055356Y-9285356D02*
X9055356Y-9214644D01*
X8984644Y-9214644D01*
X8984644Y-9285356D01*
X9055356Y-9285356D01*
X9055356Y-9531356D02*
X9055356Y-9460644D01*
X8984644Y-9460644D01*
X8984644Y-9531356D01*
X9055356Y-9531356D01*
X9055356Y-9785356D02*
X9055356Y-9714644D01*
X8984644Y-9714644D01*
X8984644Y-9785356D01*
X9055356Y-9785356D01*
X9057356Y-10031356D02*
X9057356Y-9960644D01*
X8986644Y-9960644D01*
X8986644Y-10031356D01*
X9057356Y-10031356D01*
X9057356Y-10285356D02*
X9057356Y-10214644D01*
X8986644Y-10214644D01*
X8986644Y-10285356D01*
X9057356Y-10285356D01*
X9057356Y-10531356D02*
X9057356Y-10460644D01*
X8986644Y-10460644D01*
X8986644Y-10531356D01*
X9057356Y-10531356D01*
X9057356Y-10785356D02*
X9057356Y-10714644D01*
X8986644Y-10714644D01*
X8986644Y-10785356D01*
X9057356Y-10785356D01*
X9309356Y-8031356D02*
X9309356Y-7960644D01*
X9238644Y-7960644D01*
X9238644Y-8031356D01*
X9309356Y-8031356D01*
X9309356Y-8285356D02*
X9309356Y-8214644D01*
X9238644Y-8214644D01*
X9238644Y-8285356D01*
X9309356Y-8285356D01*
X9309356Y-8531356D02*
X9309356Y-8460644D01*
X9238644Y-8460644D01*
X9238644Y-8531356D01*
X9309356Y-8531356D01*
X9309356Y-8785356D02*
X9309356Y-8714644D01*
X9238644Y-8714644D01*
X9238644Y-8785356D01*
X9309356Y-8785356D01*
X9309356Y-9031356D02*
X9309356Y-8960644D01*
X9238644Y-8960644D01*
X9238644Y-9031356D01*
X9309356Y-9031356D01*
X9309356Y-9285356D02*
X9309356Y-9214644D01*
X9238644Y-9214644D01*
X9238644Y-9285356D01*
X9309356Y-9285356D01*
X9309356Y-9531356D02*
X9309356Y-9460644D01*
X9238644Y-9460644D01*
X9238644Y-9531356D01*
X9309356Y-9531356D01*
X9309356Y-9785356D02*
X9309356Y-9714644D01*
X9238644Y-9714644D01*
X9238644Y-9785356D01*
X9309356Y-9785356D01*
X9311356Y-10031356D02*
X9311356Y-9960644D01*
X9240644Y-9960644D01*
X9240644Y-10031356D01*
X9311356Y-10031356D01*
X9311356Y-10285356D02*
X9311356Y-10214644D01*
X9240644Y-10214644D01*
X9240644Y-10285356D01*
X9311356Y-10285356D01*
X9311356Y-10531356D02*
X9311356Y-10460644D01*
X9240644Y-10460644D01*
X9240644Y-10531356D01*
X9311356Y-10531356D01*
X9311356Y-10785356D02*
X9311356Y-10714644D01*
X9240644Y-10714644D01*
X9240644Y-10785356D01*
X9311356Y-10785356D01*
X9563356Y-8031356D02*
X9563356Y-7960644D01*
X9492644Y-7960644D01*
X9492644Y-8031356D01*
X9563356Y-8031356D01*
X9563356Y-8285356D02*
X9563356Y-8214644D01*
X9492644Y-8214644D01*
X9492644Y-8285356D01*
X9563356Y-8285356D01*
X9563356Y-8531356D02*
X9563356Y-8460644D01*
X9492644Y-8460644D01*
X9492644Y-8531356D01*
X9563356Y-8531356D01*
X9563356Y-8785356D02*
X9563356Y-8714644D01*
X9492644Y-8714644D01*
X9492644Y-8785356D01*
X9563356Y-8785356D01*
X9563356Y-9031356D02*
X9563356Y-8960644D01*
X9492644Y-8960644D01*
X9492644Y-9031356D01*
X9563356Y-9031356D01*
X9563356Y-9285356D02*
X9563356Y-9214644D01*
X9492644Y-9214644D01*
X9492644Y-9285356D01*
X9563356Y-9285356D01*
X9563356Y-9531356D02*
X9563356Y-9460644D01*
X9492644Y-9460644D01*
X9492644Y-9531356D01*
X9563356Y-9531356D01*
X9563356Y-9785356D02*
X9563356Y-9714644D01*
X9492644Y-9714644D01*
X9492644Y-9785356D01*
X9563356Y-9785356D01*
X9565356Y-10031356D02*
X9565356Y-9960644D01*
X9494644Y-9960644D01*
X9494644Y-10031356D01*
X9565356Y-10031356D01*
X9565356Y-10285356D02*
X9565356Y-10214644D01*
X9494644Y-10214644D01*
X9494644Y-10285356D01*
X9565356Y-10285356D01*
X9565356Y-10531356D02*
X9565356Y-10460644D01*
X9494644Y-10460644D01*
X9494644Y-10531356D01*
X9565356Y-10531356D01*
X9565356Y-10785356D02*
X9565356Y-10714644D01*
X9494644Y-10714644D01*
X9494644Y-10785356D01*
X9565356Y-10785356D01*
X9817356Y-8031356D02*
X9817356Y-7960644D01*
X9746644Y-7960644D01*
X9746644Y-8031356D01*
X9817356Y-8031356D01*
X9817356Y-8285356D02*
X9817356Y-8214644D01*
X9746644Y-8214644D01*
X9746644Y-8285356D01*
X9817356Y-8285356D01*
X9817356Y-8531356D02*
X9817356Y-8460644D01*
X9746644Y-8460644D01*
X9746644Y-8531356D01*
X9817356Y-8531356D01*
X9817356Y-8785356D02*
X9817356Y-8714644D01*
X9746644Y-8714644D01*
X9746644Y-8785356D01*
X9817356Y-8785356D01*
X9817356Y-9031356D02*
X9817356Y-8960644D01*
X9746644Y-8960644D01*
X9746644Y-9031356D01*
X9817356Y-9031356D01*
X9817356Y-9285356D02*
X9817356Y-9214644D01*
X9746644Y-9214644D01*
X9746644Y-9285356D01*
X9817356Y-9285356D01*
X9817356Y-9531356D02*
X9817356Y-9460644D01*
X9746644Y-9460644D01*
X9746644Y-9531356D01*
X9817356Y-9531356D01*
X9817356Y-9785356D02*
X9817356Y-9714644D01*
X9746644Y-9714644D01*
X9746644Y-9785356D01*
X9817356Y-9785356D01*
X9819356Y-10031356D02*
X9819356Y-9960644D01*
X9748644Y-9960644D01*
X9748644Y-10031356D01*
X9819356Y-10031356D01*
X9819356Y-10285356D02*
X9819356Y-10214644D01*
X9748644Y-10214644D01*
X9748644Y-10285356D01*
X9819356Y-10285356D01*
X9819356Y-10531356D02*
X9819356Y-10460644D01*
X9748644Y-10460644D01*
X9748644Y-10531356D01*
X9819356Y-10531356D01*
X9819356Y-10785356D02*
X9819356Y-10714644D01*
X9748644Y-10714644D01*
X9748644Y-10785356D01*
X9819356Y-10785356D01*
X10071356Y-8031356D02*
X10071356Y-7960644D01*
X10000644Y-7960644D01*
X10000644Y-8031356D01*
X10071356Y-8031356D01*
X10071356Y-8285356D02*
X10071356Y-8214644D01*
X10000644Y-8214644D01*
X10000644Y-8285356D01*
X10071356Y-8285356D01*
X10071356Y-8531356D02*
X10071356Y-8460644D01*
X10000644Y-8460644D01*
X10000644Y-8531356D01*
X10071356Y-8531356D01*
X10071356Y-8785356D02*
X10071356Y-8714644D01*
X10000644Y-8714644D01*
X10000644Y-8785356D01*
X10071356Y-8785356D01*
X10071356Y-9031356D02*
X10071356Y-8960644D01*
X10000644Y-8960644D01*
X10000644Y-9031356D01*
X10071356Y-9031356D01*
X10071356Y-9285356D02*
X10071356Y-9214644D01*
X10000644Y-9214644D01*
X10000644Y-9285356D01*
X10071356Y-9285356D01*
X10071356Y-9531356D02*
X10071356Y-9460644D01*
X10000644Y-9460644D01*
X10000644Y-9531356D01*
X10071356Y-9531356D01*
X10071356Y-9785356D02*
X10071356Y-9714644D01*
X10000644Y-9714644D01*
X10000644Y-9785356D01*
X10071356Y-9785356D01*
X10325356Y-8031356D02*
X10325356Y-7960644D01*
X10254644Y-7960644D01*
X10254644Y-8031356D01*
X10325356Y-8031356D01*
X10325356Y-8285356D02*
X10325356Y-8214644D01*
X10254644Y-8214644D01*
X10254644Y-8285356D01*
X10325356Y-8285356D01*
X10325356Y-8531356D02*
X10325356Y-8460644D01*
X10254644Y-8460644D01*
X10254644Y-8531356D01*
X10325356Y-8531356D01*
X10325356Y-8785356D02*
X10325356Y-8714644D01*
X10254644Y-8714644D01*
X10254644Y-8785356D01*
X10325356Y-8785356D01*
X10325356Y-9031356D02*
X10325356Y-8960644D01*
X10254644Y-8960644D01*
X10254644Y-9031356D01*
X10325356Y-9031356D01*
X10325356Y-9285356D02*
X10325356Y-9214644D01*
X10254644Y-9214644D01*
X10254644Y-9285356D01*
X10325356Y-9285356D01*
X10325356Y-9531356D02*
X10325356Y-9460644D01*
X10254644Y-9460644D01*
X10254644Y-9531356D01*
X10325356Y-9531356D01*
X10325356Y-9785356D02*
X10325356Y-9714644D01*
X10254644Y-9714644D01*
X10254644Y-9785356D01*
X10325356Y-9785356D01*
X10535356Y-4853356D02*
X10535356Y-4782644D01*
X10464644Y-4782644D01*
X10464644Y-4853356D01*
X10535356Y-4853356D01*
X10535356Y-5107356D02*
X10535356Y-5036644D01*
X10464644Y-5036644D01*
X10464644Y-5107356D01*
X10535356Y-5107356D01*
X10535356Y-5361356D02*
X10535356Y-5290644D01*
X10464644Y-5290644D01*
X10464644Y-5361356D01*
X10535356Y-5361356D01*
X10535356Y-5615356D02*
X10535356Y-5544644D01*
X10464644Y-5544644D01*
X10464644Y-5615356D01*
X10535356Y-5615356D01*
X10579356Y-8031356D02*
X10579356Y-7960644D01*
X10508644Y-7960644D01*
X10508644Y-8031356D01*
X10579356Y-8031356D01*
X10579356Y-8285356D02*
X10579356Y-8214644D01*
X10508644Y-8214644D01*
X10508644Y-8285356D01*
X10579356Y-8285356D01*
X10579356Y-8531356D02*
X10579356Y-8460644D01*
X10508644Y-8460644D01*
X10508644Y-8531356D01*
X10579356Y-8531356D01*
X10579356Y-8785356D02*
X10579356Y-8714644D01*
X10508644Y-8714644D01*
X10508644Y-8785356D01*
X10579356Y-8785356D01*
X10579356Y-9031356D02*
X10579356Y-8960644D01*
X10508644Y-8960644D01*
X10508644Y-9031356D01*
X10579356Y-9031356D01*
X10579356Y-9285356D02*
X10579356Y-9214644D01*
X10508644Y-9214644D01*
X10508644Y-9285356D01*
X10579356Y-9285356D01*
X10579356Y-9531356D02*
X10579356Y-9460644D01*
X10508644Y-9460644D01*
X10508644Y-9531356D01*
X10579356Y-9531356D01*
X10579356Y-9785356D02*
X10579356Y-9714644D01*
X10508644Y-9714644D01*
X10508644Y-9785356D01*
X10579356Y-9785356D01*
X10833356Y-8031356D02*
X10833356Y-7960644D01*
X10762644Y-7960644D01*
X10762644Y-8031356D01*
X10833356Y-8031356D01*
X10833356Y-8285356D02*
X10833356Y-8214644D01*
X10762644Y-8214644D01*
X10762644Y-8285356D01*
X10833356Y-8285356D01*
X10833356Y-8531356D02*
X10833356Y-8460644D01*
X10762644Y-8460644D01*
X10762644Y-8531356D01*
X10833356Y-8531356D01*
X10833356Y-8785356D02*
X10833356Y-8714644D01*
X10762644Y-8714644D01*
X10762644Y-8785356D01*
X10833356Y-8785356D01*
X10833356Y-9031356D02*
X10833356Y-8960644D01*
X10762644Y-8960644D01*
X10762644Y-9031356D01*
X10833356Y-9031356D01*
X10833356Y-9285356D02*
X10833356Y-9214644D01*
X10762644Y-9214644D01*
X10762644Y-9285356D01*
X10833356Y-9285356D01*
X10833356Y-9531356D02*
X10833356Y-9460644D01*
X10762644Y-9460644D01*
X10762644Y-9531356D01*
X10833356Y-9531356D01*
X10833356Y-9785356D02*
X10833356Y-9714644D01*
X10762644Y-9714644D01*
X10762644Y-9785356D01*
X10833356Y-9785356D01*
D13*
X9000000Y-1330000D02*
X9055000Y-1275000D01*
X9000000Y-1220000D01*
X8945000Y-1275000D01*
X9000000Y-1330000D01*
X9000000Y-1780000D02*
X9055000Y-1725000D01*
X9000000Y-1670000D01*
X8945000Y-1725000D01*
X9000000Y-1780000D01*
X9650000Y-1330000D02*
X9705000Y-1275000D01*
X9650000Y-1220000D01*
X9595000Y-1275000D01*
X9650000Y-1330000D01*
X9650000Y-1780000D02*
X9705000Y-1725000D01*
X9650000Y-1670000D01*
X9595000Y-1725000D01*
X9650000Y-1780000D01*
D11*
X1258277Y-11313984D02*
X1258277Y-11113984D01*
X1258277Y-11113984D02*
X1305896Y-11113984D01*
X1305896Y-11113984D02*
X1334467Y-11123508D01*
X1334467Y-11123508D02*
X1353515Y-11142555D01*
X1353515Y-11142555D02*
X1363039Y-11161603D01*
X1363039Y-11161603D02*
X1372563Y-11199698D01*
X1372563Y-11199698D02*
X1372563Y-11228269D01*
X1372563Y-11228269D02*
X1363039Y-11266365D01*
X1363039Y-11266365D02*
X1353515Y-11285412D01*
X1353515Y-11285412D02*
X1334467Y-11304460D01*
X1334467Y-11304460D02*
X1305896Y-11313984D01*
X1305896Y-11313984D02*
X1258277Y-11313984D01*
X1458277Y-11313984D02*
X1458277Y-11180650D01*
X1458277Y-11218746D02*
X1467801Y-11199698D01*
X1467801Y-11199698D02*
X1477324Y-11190174D01*
X1477324Y-11190174D02*
X1496372Y-11180650D01*
X1496372Y-11180650D02*
X1515420Y-11180650D01*
X1582086Y-11313984D02*
X1582086Y-11180650D01*
X1582086Y-11113984D02*
X1572562Y-11123508D01*
X1572562Y-11123508D02*
X1582086Y-11133031D01*
X1582086Y-11133031D02*
X1591610Y-11123508D01*
X1591610Y-11123508D02*
X1582086Y-11113984D01*
X1582086Y-11113984D02*
X1582086Y-11133031D01*
X1705896Y-11313984D02*
X1686848Y-11304460D01*
X1686848Y-11304460D02*
X1677324Y-11285412D01*
X1677324Y-11285412D02*
X1677324Y-11113984D01*
X1810658Y-11313984D02*
X1791610Y-11304460D01*
X1791610Y-11304460D02*
X1782086Y-11285412D01*
X1782086Y-11285412D02*
X1782086Y-11113984D01*
X2039229Y-11313984D02*
X2039229Y-11113984D01*
X2039229Y-11113984D02*
X2105896Y-11256841D01*
X2105896Y-11256841D02*
X2172563Y-11113984D01*
X2172563Y-11113984D02*
X2172563Y-11313984D01*
X2353515Y-11313984D02*
X2353515Y-11209222D01*
X2353515Y-11209222D02*
X2343991Y-11190174D01*
X2343991Y-11190174D02*
X2324944Y-11180650D01*
X2324944Y-11180650D02*
X2286848Y-11180650D01*
X2286848Y-11180650D02*
X2267801Y-11190174D01*
X2353515Y-11304460D02*
X2334467Y-11313984D01*
X2334467Y-11313984D02*
X2286848Y-11313984D01*
X2286848Y-11313984D02*
X2267801Y-11304460D01*
X2267801Y-11304460D02*
X2258277Y-11285412D01*
X2258277Y-11285412D02*
X2258277Y-11266365D01*
X2258277Y-11266365D02*
X2267801Y-11247317D01*
X2267801Y-11247317D02*
X2286848Y-11237793D01*
X2286848Y-11237793D02*
X2334467Y-11237793D01*
X2334467Y-11237793D02*
X2353515Y-11228269D01*
X2448753Y-11180650D02*
X2448753Y-11380650D01*
X2448753Y-11190174D02*
X2467801Y-11180650D01*
X2467801Y-11180650D02*
X2505896Y-11180650D01*
X2505896Y-11180650D02*
X2524944Y-11190174D01*
X2524944Y-11190174D02*
X2534467Y-11199698D01*
X2534467Y-11199698D02*
X2543991Y-11218746D01*
X2543991Y-11218746D02*
X2543991Y-11275888D01*
X2543991Y-11275888D02*
X2534467Y-11294936D01*
X2534467Y-11294936D02*
X2524944Y-11304460D01*
X2524944Y-11304460D02*
X2505896Y-11313984D01*
X2505896Y-11313984D02*
X2467801Y-11313984D01*
X2467801Y-11313984D02*
X2448753Y-11304460D01*
X2629705Y-11294936D02*
X2639229Y-11304460D01*
X2639229Y-11304460D02*
X2629705Y-11313984D01*
X2629705Y-11313984D02*
X2620182Y-11304460D01*
X2620182Y-11304460D02*
X2629705Y-11294936D01*
X2629705Y-11294936D02*
X2629705Y-11313984D01*
X2629705Y-11190174D02*
X2639229Y-11199698D01*
X2639229Y-11199698D02*
X2629705Y-11209222D01*
X2629705Y-11209222D02*
X2620182Y-11199698D01*
X2620182Y-11199698D02*
X2629705Y-11190174D01*
X2629705Y-11190174D02*
X2629705Y-11209222D01*
D12*
X967500Y-11627500D02*
X997500Y-11657500D01*
X997500Y-11627500D02*
X967500Y-11657500D01*
D11*
X1296372Y-11533984D02*
X1315420Y-11533984D01*
X1315420Y-11533984D02*
X1334467Y-11543508D01*
X1334467Y-11543508D02*
X1343991Y-11553031D01*
X1343991Y-11553031D02*
X1353515Y-11572079D01*
X1353515Y-11572079D02*
X1363039Y-11610174D01*
X1363039Y-11610174D02*
X1363039Y-11657793D01*
X1363039Y-11657793D02*
X1353515Y-11695888D01*
X1353515Y-11695888D02*
X1343991Y-11714936D01*
X1343991Y-11714936D02*
X1334467Y-11724460D01*
X1334467Y-11724460D02*
X1315420Y-11733984D01*
X1315420Y-11733984D02*
X1296372Y-11733984D01*
X1296372Y-11733984D02*
X1277324Y-11724460D01*
X1277324Y-11724460D02*
X1267801Y-11714936D01*
X1267801Y-11714936D02*
X1258277Y-11695888D01*
X1258277Y-11695888D02*
X1248753Y-11657793D01*
X1248753Y-11657793D02*
X1248753Y-11610174D01*
X1248753Y-11610174D02*
X1258277Y-11572079D01*
X1258277Y-11572079D02*
X1267801Y-11553031D01*
X1267801Y-11553031D02*
X1277324Y-11543508D01*
X1277324Y-11543508D02*
X1296372Y-11533984D01*
X1448753Y-11714936D02*
X1458277Y-11724460D01*
X1458277Y-11724460D02*
X1448753Y-11733984D01*
X1448753Y-11733984D02*
X1439229Y-11724460D01*
X1439229Y-11724460D02*
X1448753Y-11714936D01*
X1448753Y-11714936D02*
X1448753Y-11733984D01*
X1524943Y-11533984D02*
X1648753Y-11533984D01*
X1648753Y-11533984D02*
X1582086Y-11610174D01*
X1582086Y-11610174D02*
X1610658Y-11610174D01*
X1610658Y-11610174D02*
X1629705Y-11619698D01*
X1629705Y-11619698D02*
X1639229Y-11629222D01*
X1639229Y-11629222D02*
X1648753Y-11648269D01*
X1648753Y-11648269D02*
X1648753Y-11695888D01*
X1648753Y-11695888D02*
X1639229Y-11714936D01*
X1639229Y-11714936D02*
X1629705Y-11724460D01*
X1629705Y-11724460D02*
X1610658Y-11733984D01*
X1610658Y-11733984D02*
X1553515Y-11733984D01*
X1553515Y-11733984D02*
X1534467Y-11724460D01*
X1534467Y-11724460D02*
X1524943Y-11714936D01*
X1772562Y-11533984D02*
X1791610Y-11533984D01*
X1791610Y-11533984D02*
X1810658Y-11543508D01*
X1810658Y-11543508D02*
X1820182Y-11553031D01*
X1820182Y-11553031D02*
X1829705Y-11572079D01*
X1829705Y-11572079D02*
X1839229Y-11610174D01*
X1839229Y-11610174D02*
X1839229Y-11657793D01*
X1839229Y-11657793D02*
X1829705Y-11695888D01*
X1829705Y-11695888D02*
X1820182Y-11714936D01*
X1820182Y-11714936D02*
X1810658Y-11724460D01*
X1810658Y-11724460D02*
X1791610Y-11733984D01*
X1791610Y-11733984D02*
X1772562Y-11733984D01*
X1772562Y-11733984D02*
X1753515Y-11724460D01*
X1753515Y-11724460D02*
X1743991Y-11714936D01*
X1743991Y-11714936D02*
X1734467Y-11695888D01*
X1734467Y-11695888D02*
X1724943Y-11657793D01*
X1724943Y-11657793D02*
X1724943Y-11610174D01*
X1724943Y-11610174D02*
X1734467Y-11572079D01*
X1734467Y-11572079D02*
X1743991Y-11553031D01*
X1743991Y-11553031D02*
X1753515Y-11543508D01*
X1753515Y-11543508D02*
X1772562Y-11533984D01*
X1963039Y-11533984D02*
X1982086Y-11533984D01*
X1982086Y-11533984D02*
X2001134Y-11543508D01*
X2001134Y-11543508D02*
X2010658Y-11553031D01*
X2010658Y-11553031D02*
X2020182Y-11572079D01*
X2020182Y-11572079D02*
X2029705Y-11610174D01*
X2029705Y-11610174D02*
X2029705Y-11657793D01*
X2029705Y-11657793D02*
X2020182Y-11695888D01*
X2020182Y-11695888D02*
X2010658Y-11714936D01*
X2010658Y-11714936D02*
X2001134Y-11724460D01*
X2001134Y-11724460D02*
X1982086Y-11733984D01*
X1982086Y-11733984D02*
X1963039Y-11733984D01*
X1963039Y-11733984D02*
X1943991Y-11724460D01*
X1943991Y-11724460D02*
X1934467Y-11714936D01*
X1934467Y-11714936D02*
X1924943Y-11695888D01*
X1924943Y-11695888D02*
X1915420Y-11657793D01*
X1915420Y-11657793D02*
X1915420Y-11610174D01*
X1915420Y-11610174D02*
X1924943Y-11572079D01*
X1924943Y-11572079D02*
X1934467Y-11553031D01*
X1934467Y-11553031D02*
X1943991Y-11543508D01*
X1943991Y-11543508D02*
X1963039Y-11533984D01*
X2115420Y-11733984D02*
X2115420Y-11600650D01*
X2115420Y-11619698D02*
X2124944Y-11610174D01*
X2124944Y-11610174D02*
X2143991Y-11600650D01*
X2143991Y-11600650D02*
X2172563Y-11600650D01*
X2172563Y-11600650D02*
X2191610Y-11610174D01*
X2191610Y-11610174D02*
X2201134Y-11629222D01*
X2201134Y-11629222D02*
X2201134Y-11733984D01*
X2201134Y-11629222D02*
X2210658Y-11610174D01*
X2210658Y-11610174D02*
X2229705Y-11600650D01*
X2229705Y-11600650D02*
X2258277Y-11600650D01*
X2258277Y-11600650D02*
X2277325Y-11610174D01*
X2277325Y-11610174D02*
X2286848Y-11629222D01*
X2286848Y-11629222D02*
X2286848Y-11733984D01*
X2382086Y-11733984D02*
X2382086Y-11600650D01*
X2382086Y-11619698D02*
X2391610Y-11610174D01*
X2391610Y-11610174D02*
X2410658Y-11600650D01*
X2410658Y-11600650D02*
X2439229Y-11600650D01*
X2439229Y-11600650D02*
X2458277Y-11610174D01*
X2458277Y-11610174D02*
X2467801Y-11629222D01*
X2467801Y-11629222D02*
X2467801Y-11733984D01*
X2467801Y-11629222D02*
X2477325Y-11610174D01*
X2477325Y-11610174D02*
X2496372Y-11600650D01*
X2496372Y-11600650D02*
X2524944Y-11600650D01*
X2524944Y-11600650D02*
X2543991Y-11610174D01*
X2543991Y-11610174D02*
X2553515Y-11629222D01*
X2553515Y-11629222D02*
X2553515Y-11733984D01*
X2943991Y-11524460D02*
X2772563Y-11781603D01*
X3201134Y-11533984D02*
X3220182Y-11533984D01*
X3220182Y-11533984D02*
X3239229Y-11543508D01*
X3239229Y-11543508D02*
X3248753Y-11553031D01*
X3248753Y-11553031D02*
X3258277Y-11572079D01*
X3258277Y-11572079D02*
X3267801Y-11610174D01*
X3267801Y-11610174D02*
X3267801Y-11657793D01*
X3267801Y-11657793D02*
X3258277Y-11695888D01*
X3258277Y-11695888D02*
X3248753Y-11714936D01*
X3248753Y-11714936D02*
X3239229Y-11724460D01*
X3239229Y-11724460D02*
X3220182Y-11733984D01*
X3220182Y-11733984D02*
X3201134Y-11733984D01*
X3201134Y-11733984D02*
X3182086Y-11724460D01*
X3182086Y-11724460D02*
X3172563Y-11714936D01*
X3172563Y-11714936D02*
X3163039Y-11695888D01*
X3163039Y-11695888D02*
X3153515Y-11657793D01*
X3153515Y-11657793D02*
X3153515Y-11610174D01*
X3153515Y-11610174D02*
X3163039Y-11572079D01*
X3163039Y-11572079D02*
X3172563Y-11553031D01*
X3172563Y-11553031D02*
X3182086Y-11543508D01*
X3182086Y-11543508D02*
X3201134Y-11533984D01*
X3353515Y-11714936D02*
X3363039Y-11724460D01*
X3363039Y-11724460D02*
X3353515Y-11733984D01*
X3353515Y-11733984D02*
X3343991Y-11724460D01*
X3343991Y-11724460D02*
X3353515Y-11714936D01*
X3353515Y-11714936D02*
X3353515Y-11733984D01*
X3486848Y-11533984D02*
X3505896Y-11533984D01*
X3505896Y-11533984D02*
X3524944Y-11543508D01*
X3524944Y-11543508D02*
X3534467Y-11553031D01*
X3534467Y-11553031D02*
X3543991Y-11572079D01*
X3543991Y-11572079D02*
X3553515Y-11610174D01*
X3553515Y-11610174D02*
X3553515Y-11657793D01*
X3553515Y-11657793D02*
X3543991Y-11695888D01*
X3543991Y-11695888D02*
X3534467Y-11714936D01*
X3534467Y-11714936D02*
X3524944Y-11724460D01*
X3524944Y-11724460D02*
X3505896Y-11733984D01*
X3505896Y-11733984D02*
X3486848Y-11733984D01*
X3486848Y-11733984D02*
X3467801Y-11724460D01*
X3467801Y-11724460D02*
X3458277Y-11714936D01*
X3458277Y-11714936D02*
X3448753Y-11695888D01*
X3448753Y-11695888D02*
X3439229Y-11657793D01*
X3439229Y-11657793D02*
X3439229Y-11610174D01*
X3439229Y-11610174D02*
X3448753Y-11572079D01*
X3448753Y-11572079D02*
X3458277Y-11553031D01*
X3458277Y-11553031D02*
X3467801Y-11543508D01*
X3467801Y-11543508D02*
X3486848Y-11533984D01*
X3743991Y-11733984D02*
X3629706Y-11733984D01*
X3686848Y-11733984D02*
X3686848Y-11533984D01*
X3686848Y-11533984D02*
X3667801Y-11562555D01*
X3667801Y-11562555D02*
X3648753Y-11581603D01*
X3648753Y-11581603D02*
X3629706Y-11591127D01*
X3934467Y-11733984D02*
X3820182Y-11733984D01*
X3877325Y-11733984D02*
X3877325Y-11533984D01*
X3877325Y-11533984D02*
X3858277Y-11562555D01*
X3858277Y-11562555D02*
X3839229Y-11581603D01*
X3839229Y-11581603D02*
X3820182Y-11591127D01*
X4048753Y-11619698D02*
X4029706Y-11610174D01*
X4029706Y-11610174D02*
X4020182Y-11600650D01*
X4020182Y-11600650D02*
X4010658Y-11581603D01*
X4010658Y-11581603D02*
X4010658Y-11572079D01*
X4010658Y-11572079D02*
X4020182Y-11553031D01*
X4020182Y-11553031D02*
X4029706Y-11543508D01*
X4029706Y-11543508D02*
X4048753Y-11533984D01*
X4048753Y-11533984D02*
X4086848Y-11533984D01*
X4086848Y-11533984D02*
X4105896Y-11543508D01*
X4105896Y-11543508D02*
X4115420Y-11553031D01*
X4115420Y-11553031D02*
X4124944Y-11572079D01*
X4124944Y-11572079D02*
X4124944Y-11581603D01*
X4124944Y-11581603D02*
X4115420Y-11600650D01*
X4115420Y-11600650D02*
X4105896Y-11610174D01*
X4105896Y-11610174D02*
X4086848Y-11619698D01*
X4086848Y-11619698D02*
X4048753Y-11619698D01*
X4048753Y-11619698D02*
X4029706Y-11629222D01*
X4029706Y-11629222D02*
X4020182Y-11638746D01*
X4020182Y-11638746D02*
X4010658Y-11657793D01*
X4010658Y-11657793D02*
X4010658Y-11695888D01*
X4010658Y-11695888D02*
X4020182Y-11714936D01*
X4020182Y-11714936D02*
X4029706Y-11724460D01*
X4029706Y-11724460D02*
X4048753Y-11733984D01*
X4048753Y-11733984D02*
X4086848Y-11733984D01*
X4086848Y-11733984D02*
X4105896Y-11724460D01*
X4105896Y-11724460D02*
X4115420Y-11714936D01*
X4115420Y-11714936D02*
X4124944Y-11695888D01*
X4124944Y-11695888D02*
X4124944Y-11657793D01*
X4124944Y-11657793D02*
X4115420Y-11638746D01*
X4115420Y-11638746D02*
X4105896Y-11629222D01*
X4105896Y-11629222D02*
X4086848Y-11619698D01*
X4201134Y-11533984D02*
X4201134Y-11572079D01*
X4277325Y-11533984D02*
X4277325Y-11572079D01*
X4572563Y-11810174D02*
X4563039Y-11800650D01*
X4563039Y-11800650D02*
X4543991Y-11772079D01*
X4543991Y-11772079D02*
X4534468Y-11753031D01*
X4534468Y-11753031D02*
X4524944Y-11724460D01*
X4524944Y-11724460D02*
X4515420Y-11676841D01*
X4515420Y-11676841D02*
X4515420Y-11638746D01*
X4515420Y-11638746D02*
X4524944Y-11591127D01*
X4524944Y-11591127D02*
X4534468Y-11562555D01*
X4534468Y-11562555D02*
X4543991Y-11543508D01*
X4543991Y-11543508D02*
X4563039Y-11514936D01*
X4563039Y-11514936D02*
X4572563Y-11505412D01*
X4629706Y-11533984D02*
X4753515Y-11533984D01*
X4753515Y-11533984D02*
X4686849Y-11610174D01*
X4686849Y-11610174D02*
X4715420Y-11610174D01*
X4715420Y-11610174D02*
X4734468Y-11619698D01*
X4734468Y-11619698D02*
X4743991Y-11629222D01*
X4743991Y-11629222D02*
X4753515Y-11648269D01*
X4753515Y-11648269D02*
X4753515Y-11695888D01*
X4753515Y-11695888D02*
X4743991Y-11714936D01*
X4743991Y-11714936D02*
X4734468Y-11724460D01*
X4734468Y-11724460D02*
X4715420Y-11733984D01*
X4715420Y-11733984D02*
X4658277Y-11733984D01*
X4658277Y-11733984D02*
X4639230Y-11724460D01*
X4639230Y-11724460D02*
X4629706Y-11714936D01*
X4924944Y-11600650D02*
X4924944Y-11733984D01*
X4877325Y-11524460D02*
X4829706Y-11667317D01*
X4829706Y-11667317D02*
X4953515Y-11667317D01*
X5182087Y-11733984D02*
X5182087Y-11533984D01*
X5267801Y-11733984D02*
X5267801Y-11629222D01*
X5267801Y-11629222D02*
X5258277Y-11610174D01*
X5258277Y-11610174D02*
X5239230Y-11600650D01*
X5239230Y-11600650D02*
X5210658Y-11600650D01*
X5210658Y-11600650D02*
X5191611Y-11610174D01*
X5191611Y-11610174D02*
X5182087Y-11619698D01*
X5391611Y-11733984D02*
X5372563Y-11724460D01*
X5372563Y-11724460D02*
X5363039Y-11714936D01*
X5363039Y-11714936D02*
X5353515Y-11695888D01*
X5353515Y-11695888D02*
X5353515Y-11638746D01*
X5353515Y-11638746D02*
X5363039Y-11619698D01*
X5363039Y-11619698D02*
X5372563Y-11610174D01*
X5372563Y-11610174D02*
X5391611Y-11600650D01*
X5391611Y-11600650D02*
X5420182Y-11600650D01*
X5420182Y-11600650D02*
X5439230Y-11610174D01*
X5439230Y-11610174D02*
X5448753Y-11619698D01*
X5448753Y-11619698D02*
X5458277Y-11638746D01*
X5458277Y-11638746D02*
X5458277Y-11695888D01*
X5458277Y-11695888D02*
X5448753Y-11714936D01*
X5448753Y-11714936D02*
X5439230Y-11724460D01*
X5439230Y-11724460D02*
X5420182Y-11733984D01*
X5420182Y-11733984D02*
X5391611Y-11733984D01*
X5572563Y-11733984D02*
X5553515Y-11724460D01*
X5553515Y-11724460D02*
X5543992Y-11705412D01*
X5543992Y-11705412D02*
X5543992Y-11533984D01*
X5724944Y-11724460D02*
X5705896Y-11733984D01*
X5705896Y-11733984D02*
X5667801Y-11733984D01*
X5667801Y-11733984D02*
X5648753Y-11724460D01*
X5648753Y-11724460D02*
X5639230Y-11705412D01*
X5639230Y-11705412D02*
X5639230Y-11629222D01*
X5639230Y-11629222D02*
X5648753Y-11610174D01*
X5648753Y-11610174D02*
X5667801Y-11600650D01*
X5667801Y-11600650D02*
X5705896Y-11600650D01*
X5705896Y-11600650D02*
X5724944Y-11610174D01*
X5724944Y-11610174D02*
X5734468Y-11629222D01*
X5734468Y-11629222D02*
X5734468Y-11648269D01*
X5734468Y-11648269D02*
X5639230Y-11667317D01*
X5810658Y-11724460D02*
X5829706Y-11733984D01*
X5829706Y-11733984D02*
X5867801Y-11733984D01*
X5867801Y-11733984D02*
X5886849Y-11724460D01*
X5886849Y-11724460D02*
X5896372Y-11705412D01*
X5896372Y-11705412D02*
X5896372Y-11695888D01*
X5896372Y-11695888D02*
X5886849Y-11676841D01*
X5886849Y-11676841D02*
X5867801Y-11667317D01*
X5867801Y-11667317D02*
X5839230Y-11667317D01*
X5839230Y-11667317D02*
X5820182Y-11657793D01*
X5820182Y-11657793D02*
X5810658Y-11638746D01*
X5810658Y-11638746D02*
X5810658Y-11629222D01*
X5810658Y-11629222D02*
X5820182Y-11610174D01*
X5820182Y-11610174D02*
X5839230Y-11600650D01*
X5839230Y-11600650D02*
X5867801Y-11600650D01*
X5867801Y-11600650D02*
X5886849Y-11610174D01*
X5963039Y-11810174D02*
X5972563Y-11800650D01*
X5972563Y-11800650D02*
X5991611Y-11772079D01*
X5991611Y-11772079D02*
X6001134Y-11753031D01*
X6001134Y-11753031D02*
X6010658Y-11724460D01*
X6010658Y-11724460D02*
X6020182Y-11676841D01*
X6020182Y-11676841D02*
X6020182Y-11638746D01*
X6020182Y-11638746D02*
X6010658Y-11591127D01*
X6010658Y-11591127D02*
X6001134Y-11562555D01*
X6001134Y-11562555D02*
X5991611Y-11543508D01*
X5991611Y-11543508D02*
X5972563Y-11514936D01*
X5972563Y-11514936D02*
X5963039Y-11505412D01*
D12*
X997500Y-11906500D02*
G75*
G02*
X927500Y-11906500I-35000J0D01*
G01*
X927500Y-11906500D02*
G75*
G02*
X997500Y-11906500I35000J0D01*
G01*
D11*
X1296372Y-11797984D02*
X1315420Y-11797984D01*
X1315420Y-11797984D02*
X1334467Y-11807508D01*
X1334467Y-11807508D02*
X1343991Y-11817031D01*
X1343991Y-11817031D02*
X1353515Y-11836079D01*
X1353515Y-11836079D02*
X1363039Y-11874174D01*
X1363039Y-11874174D02*
X1363039Y-11921793D01*
X1363039Y-11921793D02*
X1353515Y-11959888D01*
X1353515Y-11959888D02*
X1343991Y-11978936D01*
X1343991Y-11978936D02*
X1334467Y-11988460D01*
X1334467Y-11988460D02*
X1315420Y-11997984D01*
X1315420Y-11997984D02*
X1296372Y-11997984D01*
X1296372Y-11997984D02*
X1277324Y-11988460D01*
X1277324Y-11988460D02*
X1267801Y-11978936D01*
X1267801Y-11978936D02*
X1258277Y-11959888D01*
X1258277Y-11959888D02*
X1248753Y-11921793D01*
X1248753Y-11921793D02*
X1248753Y-11874174D01*
X1248753Y-11874174D02*
X1258277Y-11836079D01*
X1258277Y-11836079D02*
X1267801Y-11817031D01*
X1267801Y-11817031D02*
X1277324Y-11807508D01*
X1277324Y-11807508D02*
X1296372Y-11797984D01*
X1448753Y-11978936D02*
X1458277Y-11988460D01*
X1458277Y-11988460D02*
X1448753Y-11997984D01*
X1448753Y-11997984D02*
X1439229Y-11988460D01*
X1439229Y-11988460D02*
X1448753Y-11978936D01*
X1448753Y-11978936D02*
X1448753Y-11997984D01*
X1524943Y-11797984D02*
X1658277Y-11797984D01*
X1658277Y-11797984D02*
X1572562Y-11997984D01*
X1772562Y-11797984D02*
X1791610Y-11797984D01*
X1791610Y-11797984D02*
X1810658Y-11807508D01*
X1810658Y-11807508D02*
X1820182Y-11817031D01*
X1820182Y-11817031D02*
X1829705Y-11836079D01*
X1829705Y-11836079D02*
X1839229Y-11874174D01*
X1839229Y-11874174D02*
X1839229Y-11921793D01*
X1839229Y-11921793D02*
X1829705Y-11959888D01*
X1829705Y-11959888D02*
X1820182Y-11978936D01*
X1820182Y-11978936D02*
X1810658Y-11988460D01*
X1810658Y-11988460D02*
X1791610Y-11997984D01*
X1791610Y-11997984D02*
X1772562Y-11997984D01*
X1772562Y-11997984D02*
X1753515Y-11988460D01*
X1753515Y-11988460D02*
X1743991Y-11978936D01*
X1743991Y-11978936D02*
X1734467Y-11959888D01*
X1734467Y-11959888D02*
X1724943Y-11921793D01*
X1724943Y-11921793D02*
X1724943Y-11874174D01*
X1724943Y-11874174D02*
X1734467Y-11836079D01*
X1734467Y-11836079D02*
X1743991Y-11817031D01*
X1743991Y-11817031D02*
X1753515Y-11807508D01*
X1753515Y-11807508D02*
X1772562Y-11797984D01*
X1963039Y-11797984D02*
X1982086Y-11797984D01*
X1982086Y-11797984D02*
X2001134Y-11807508D01*
X2001134Y-11807508D02*
X2010658Y-11817031D01*
X2010658Y-11817031D02*
X2020182Y-11836079D01*
X2020182Y-11836079D02*
X2029705Y-11874174D01*
X2029705Y-11874174D02*
X2029705Y-11921793D01*
X2029705Y-11921793D02*
X2020182Y-11959888D01*
X2020182Y-11959888D02*
X2010658Y-11978936D01*
X2010658Y-11978936D02*
X2001134Y-11988460D01*
X2001134Y-11988460D02*
X1982086Y-11997984D01*
X1982086Y-11997984D02*
X1963039Y-11997984D01*
X1963039Y-11997984D02*
X1943991Y-11988460D01*
X1943991Y-11988460D02*
X1934467Y-11978936D01*
X1934467Y-11978936D02*
X1924943Y-11959888D01*
X1924943Y-11959888D02*
X1915420Y-11921793D01*
X1915420Y-11921793D02*
X1915420Y-11874174D01*
X1915420Y-11874174D02*
X1924943Y-11836079D01*
X1924943Y-11836079D02*
X1934467Y-11817031D01*
X1934467Y-11817031D02*
X1943991Y-11807508D01*
X1943991Y-11807508D02*
X1963039Y-11797984D01*
X2115420Y-11997984D02*
X2115420Y-11864650D01*
X2115420Y-11883698D02*
X2124944Y-11874174D01*
X2124944Y-11874174D02*
X2143991Y-11864650D01*
X2143991Y-11864650D02*
X2172563Y-11864650D01*
X2172563Y-11864650D02*
X2191610Y-11874174D01*
X2191610Y-11874174D02*
X2201134Y-11893222D01*
X2201134Y-11893222D02*
X2201134Y-11997984D01*
X2201134Y-11893222D02*
X2210658Y-11874174D01*
X2210658Y-11874174D02*
X2229705Y-11864650D01*
X2229705Y-11864650D02*
X2258277Y-11864650D01*
X2258277Y-11864650D02*
X2277325Y-11874174D01*
X2277325Y-11874174D02*
X2286848Y-11893222D01*
X2286848Y-11893222D02*
X2286848Y-11997984D01*
X2382086Y-11997984D02*
X2382086Y-11864650D01*
X2382086Y-11883698D02*
X2391610Y-11874174D01*
X2391610Y-11874174D02*
X2410658Y-11864650D01*
X2410658Y-11864650D02*
X2439229Y-11864650D01*
X2439229Y-11864650D02*
X2458277Y-11874174D01*
X2458277Y-11874174D02*
X2467801Y-11893222D01*
X2467801Y-11893222D02*
X2467801Y-11997984D01*
X2467801Y-11893222D02*
X2477325Y-11874174D01*
X2477325Y-11874174D02*
X2496372Y-11864650D01*
X2496372Y-11864650D02*
X2524944Y-11864650D01*
X2524944Y-11864650D02*
X2543991Y-11874174D01*
X2543991Y-11874174D02*
X2553515Y-11893222D01*
X2553515Y-11893222D02*
X2553515Y-11997984D01*
X2943991Y-11788460D02*
X2772563Y-12045603D01*
X3201134Y-11797984D02*
X3220182Y-11797984D01*
X3220182Y-11797984D02*
X3239229Y-11807508D01*
X3239229Y-11807508D02*
X3248753Y-11817031D01*
X3248753Y-11817031D02*
X3258277Y-11836079D01*
X3258277Y-11836079D02*
X3267801Y-11874174D01*
X3267801Y-11874174D02*
X3267801Y-11921793D01*
X3267801Y-11921793D02*
X3258277Y-11959888D01*
X3258277Y-11959888D02*
X3248753Y-11978936D01*
X3248753Y-11978936D02*
X3239229Y-11988460D01*
X3239229Y-11988460D02*
X3220182Y-11997984D01*
X3220182Y-11997984D02*
X3201134Y-11997984D01*
X3201134Y-11997984D02*
X3182086Y-11988460D01*
X3182086Y-11988460D02*
X3172563Y-11978936D01*
X3172563Y-11978936D02*
X3163039Y-11959888D01*
X3163039Y-11959888D02*
X3153515Y-11921793D01*
X3153515Y-11921793D02*
X3153515Y-11874174D01*
X3153515Y-11874174D02*
X3163039Y-11836079D01*
X3163039Y-11836079D02*
X3172563Y-11817031D01*
X3172563Y-11817031D02*
X3182086Y-11807508D01*
X3182086Y-11807508D02*
X3201134Y-11797984D01*
X3353515Y-11978936D02*
X3363039Y-11988460D01*
X3363039Y-11988460D02*
X3353515Y-11997984D01*
X3353515Y-11997984D02*
X3343991Y-11988460D01*
X3343991Y-11988460D02*
X3353515Y-11978936D01*
X3353515Y-11978936D02*
X3353515Y-11997984D01*
X3486848Y-11797984D02*
X3505896Y-11797984D01*
X3505896Y-11797984D02*
X3524944Y-11807508D01*
X3524944Y-11807508D02*
X3534467Y-11817031D01*
X3534467Y-11817031D02*
X3543991Y-11836079D01*
X3543991Y-11836079D02*
X3553515Y-11874174D01*
X3553515Y-11874174D02*
X3553515Y-11921793D01*
X3553515Y-11921793D02*
X3543991Y-11959888D01*
X3543991Y-11959888D02*
X3534467Y-11978936D01*
X3534467Y-11978936D02*
X3524944Y-11988460D01*
X3524944Y-11988460D02*
X3505896Y-11997984D01*
X3505896Y-11997984D02*
X3486848Y-11997984D01*
X3486848Y-11997984D02*
X3467801Y-11988460D01*
X3467801Y-11988460D02*
X3458277Y-11978936D01*
X3458277Y-11978936D02*
X3448753Y-11959888D01*
X3448753Y-11959888D02*
X3439229Y-11921793D01*
X3439229Y-11921793D02*
X3439229Y-11874174D01*
X3439229Y-11874174D02*
X3448753Y-11836079D01*
X3448753Y-11836079D02*
X3458277Y-11817031D01*
X3458277Y-11817031D02*
X3467801Y-11807508D01*
X3467801Y-11807508D02*
X3486848Y-11797984D01*
X3629706Y-11817031D02*
X3639229Y-11807508D01*
X3639229Y-11807508D02*
X3658277Y-11797984D01*
X3658277Y-11797984D02*
X3705896Y-11797984D01*
X3705896Y-11797984D02*
X3724944Y-11807508D01*
X3724944Y-11807508D02*
X3734467Y-11817031D01*
X3734467Y-11817031D02*
X3743991Y-11836079D01*
X3743991Y-11836079D02*
X3743991Y-11855127D01*
X3743991Y-11855127D02*
X3734467Y-11883698D01*
X3734467Y-11883698D02*
X3620182Y-11997984D01*
X3620182Y-11997984D02*
X3743991Y-11997984D01*
X3810658Y-11797984D02*
X3943991Y-11797984D01*
X3943991Y-11797984D02*
X3858277Y-11997984D01*
X4105896Y-11797984D02*
X4067801Y-11797984D01*
X4067801Y-11797984D02*
X4048753Y-11807508D01*
X4048753Y-11807508D02*
X4039229Y-11817031D01*
X4039229Y-11817031D02*
X4020182Y-11845603D01*
X4020182Y-11845603D02*
X4010658Y-11883698D01*
X4010658Y-11883698D02*
X4010658Y-11959888D01*
X4010658Y-11959888D02*
X4020182Y-11978936D01*
X4020182Y-11978936D02*
X4029706Y-11988460D01*
X4029706Y-11988460D02*
X4048753Y-11997984D01*
X4048753Y-11997984D02*
X4086848Y-11997984D01*
X4086848Y-11997984D02*
X4105896Y-11988460D01*
X4105896Y-11988460D02*
X4115420Y-11978936D01*
X4115420Y-11978936D02*
X4124944Y-11959888D01*
X4124944Y-11959888D02*
X4124944Y-11912269D01*
X4124944Y-11912269D02*
X4115420Y-11893222D01*
X4115420Y-11893222D02*
X4105896Y-11883698D01*
X4105896Y-11883698D02*
X4086848Y-11874174D01*
X4086848Y-11874174D02*
X4048753Y-11874174D01*
X4048753Y-11874174D02*
X4029706Y-11883698D01*
X4029706Y-11883698D02*
X4020182Y-11893222D01*
X4020182Y-11893222D02*
X4010658Y-11912269D01*
X4201134Y-11797984D02*
X4201134Y-11836079D01*
X4277325Y-11797984D02*
X4277325Y-11836079D01*
X4572563Y-12074174D02*
X4563039Y-12064650D01*
X4563039Y-12064650D02*
X4543991Y-12036079D01*
X4543991Y-12036079D02*
X4534468Y-12017031D01*
X4534468Y-12017031D02*
X4524944Y-11988460D01*
X4524944Y-11988460D02*
X4515420Y-11940841D01*
X4515420Y-11940841D02*
X4515420Y-11902746D01*
X4515420Y-11902746D02*
X4524944Y-11855127D01*
X4524944Y-11855127D02*
X4534468Y-11826555D01*
X4534468Y-11826555D02*
X4543991Y-11807508D01*
X4543991Y-11807508D02*
X4563039Y-11778936D01*
X4563039Y-11778936D02*
X4572563Y-11769412D01*
X4734468Y-11864650D02*
X4734468Y-11997984D01*
X4686849Y-11788460D02*
X4639230Y-11931317D01*
X4639230Y-11931317D02*
X4763039Y-11931317D01*
X4991611Y-11997984D02*
X4991611Y-11797984D01*
X5077325Y-11997984D02*
X5077325Y-11893222D01*
X5077325Y-11893222D02*
X5067801Y-11874174D01*
X5067801Y-11874174D02*
X5048753Y-11864650D01*
X5048753Y-11864650D02*
X5020182Y-11864650D01*
X5020182Y-11864650D02*
X5001134Y-11874174D01*
X5001134Y-11874174D02*
X4991611Y-11883698D01*
X5201134Y-11997984D02*
X5182087Y-11988460D01*
X5182087Y-11988460D02*
X5172563Y-11978936D01*
X5172563Y-11978936D02*
X5163039Y-11959888D01*
X5163039Y-11959888D02*
X5163039Y-11902746D01*
X5163039Y-11902746D02*
X5172563Y-11883698D01*
X5172563Y-11883698D02*
X5182087Y-11874174D01*
X5182087Y-11874174D02*
X5201134Y-11864650D01*
X5201134Y-11864650D02*
X5229706Y-11864650D01*
X5229706Y-11864650D02*
X5248753Y-11874174D01*
X5248753Y-11874174D02*
X5258277Y-11883698D01*
X5258277Y-11883698D02*
X5267801Y-11902746D01*
X5267801Y-11902746D02*
X5267801Y-11959888D01*
X5267801Y-11959888D02*
X5258277Y-11978936D01*
X5258277Y-11978936D02*
X5248753Y-11988460D01*
X5248753Y-11988460D02*
X5229706Y-11997984D01*
X5229706Y-11997984D02*
X5201134Y-11997984D01*
X5382087Y-11997984D02*
X5363039Y-11988460D01*
X5363039Y-11988460D02*
X5353515Y-11969412D01*
X5353515Y-11969412D02*
X5353515Y-11797984D01*
X5534468Y-11988460D02*
X5515420Y-11997984D01*
X5515420Y-11997984D02*
X5477325Y-11997984D01*
X5477325Y-11997984D02*
X5458277Y-11988460D01*
X5458277Y-11988460D02*
X5448753Y-11969412D01*
X5448753Y-11969412D02*
X5448753Y-11893222D01*
X5448753Y-11893222D02*
X5458277Y-11874174D01*
X5458277Y-11874174D02*
X5477325Y-11864650D01*
X5477325Y-11864650D02*
X5515420Y-11864650D01*
X5515420Y-11864650D02*
X5534468Y-11874174D01*
X5534468Y-11874174D02*
X5543992Y-11893222D01*
X5543992Y-11893222D02*
X5543992Y-11912269D01*
X5543992Y-11912269D02*
X5448753Y-11931317D01*
X5620182Y-11988460D02*
X5639230Y-11997984D01*
X5639230Y-11997984D02*
X5677325Y-11997984D01*
X5677325Y-11997984D02*
X5696372Y-11988460D01*
X5696372Y-11988460D02*
X5705896Y-11969412D01*
X5705896Y-11969412D02*
X5705896Y-11959888D01*
X5705896Y-11959888D02*
X5696372Y-11940841D01*
X5696372Y-11940841D02*
X5677325Y-11931317D01*
X5677325Y-11931317D02*
X5648753Y-11931317D01*
X5648753Y-11931317D02*
X5629706Y-11921793D01*
X5629706Y-11921793D02*
X5620182Y-11902746D01*
X5620182Y-11902746D02*
X5620182Y-11893222D01*
X5620182Y-11893222D02*
X5629706Y-11874174D01*
X5629706Y-11874174D02*
X5648753Y-11864650D01*
X5648753Y-11864650D02*
X5677325Y-11864650D01*
X5677325Y-11864650D02*
X5696372Y-11874174D01*
X5772563Y-12074174D02*
X5782087Y-12064650D01*
X5782087Y-12064650D02*
X5801134Y-12036079D01*
X5801134Y-12036079D02*
X5810658Y-12017031D01*
X5810658Y-12017031D02*
X5820182Y-11988460D01*
X5820182Y-11988460D02*
X5829706Y-11940841D01*
X5829706Y-11940841D02*
X5829706Y-11902746D01*
X5829706Y-11902746D02*
X5820182Y-11855127D01*
X5820182Y-11855127D02*
X5810658Y-11826555D01*
X5810658Y-11826555D02*
X5801134Y-11807508D01*
X5801134Y-11807508D02*
X5782087Y-11778936D01*
X5782087Y-11778936D02*
X5772563Y-11769412D01*
D12*
X957500Y-12130500D02*
X957500Y-12210500D01*
X917500Y-12170500D02*
X997500Y-12170500D01*
D11*
X1296372Y-12061984D02*
X1315420Y-12061984D01*
X1315420Y-12061984D02*
X1334467Y-12071508D01*
X1334467Y-12071508D02*
X1343991Y-12081031D01*
X1343991Y-12081031D02*
X1353515Y-12100079D01*
X1353515Y-12100079D02*
X1363039Y-12138174D01*
X1363039Y-12138174D02*
X1363039Y-12185793D01*
X1363039Y-12185793D02*
X1353515Y-12223888D01*
X1353515Y-12223888D02*
X1343991Y-12242936D01*
X1343991Y-12242936D02*
X1334467Y-12252460D01*
X1334467Y-12252460D02*
X1315420Y-12261984D01*
X1315420Y-12261984D02*
X1296372Y-12261984D01*
X1296372Y-12261984D02*
X1277324Y-12252460D01*
X1277324Y-12252460D02*
X1267801Y-12242936D01*
X1267801Y-12242936D02*
X1258277Y-12223888D01*
X1258277Y-12223888D02*
X1248753Y-12185793D01*
X1248753Y-12185793D02*
X1248753Y-12138174D01*
X1248753Y-12138174D02*
X1258277Y-12100079D01*
X1258277Y-12100079D02*
X1267801Y-12081031D01*
X1267801Y-12081031D02*
X1277324Y-12071508D01*
X1277324Y-12071508D02*
X1296372Y-12061984D01*
X1448753Y-12242936D02*
X1458277Y-12252460D01*
X1458277Y-12252460D02*
X1448753Y-12261984D01*
X1448753Y-12261984D02*
X1439229Y-12252460D01*
X1439229Y-12252460D02*
X1448753Y-12242936D01*
X1448753Y-12242936D02*
X1448753Y-12261984D01*
X1572562Y-12147698D02*
X1553515Y-12138174D01*
X1553515Y-12138174D02*
X1543991Y-12128650D01*
X1543991Y-12128650D02*
X1534467Y-12109603D01*
X1534467Y-12109603D02*
X1534467Y-12100079D01*
X1534467Y-12100079D02*
X1543991Y-12081031D01*
X1543991Y-12081031D02*
X1553515Y-12071508D01*
X1553515Y-12071508D02*
X1572562Y-12061984D01*
X1572562Y-12061984D02*
X1610658Y-12061984D01*
X1610658Y-12061984D02*
X1629705Y-12071508D01*
X1629705Y-12071508D02*
X1639229Y-12081031D01*
X1639229Y-12081031D02*
X1648753Y-12100079D01*
X1648753Y-12100079D02*
X1648753Y-12109603D01*
X1648753Y-12109603D02*
X1639229Y-12128650D01*
X1639229Y-12128650D02*
X1629705Y-12138174D01*
X1629705Y-12138174D02*
X1610658Y-12147698D01*
X1610658Y-12147698D02*
X1572562Y-12147698D01*
X1572562Y-12147698D02*
X1553515Y-12157222D01*
X1553515Y-12157222D02*
X1543991Y-12166746D01*
X1543991Y-12166746D02*
X1534467Y-12185793D01*
X1534467Y-12185793D02*
X1534467Y-12223888D01*
X1534467Y-12223888D02*
X1543991Y-12242936D01*
X1543991Y-12242936D02*
X1553515Y-12252460D01*
X1553515Y-12252460D02*
X1572562Y-12261984D01*
X1572562Y-12261984D02*
X1610658Y-12261984D01*
X1610658Y-12261984D02*
X1629705Y-12252460D01*
X1629705Y-12252460D02*
X1639229Y-12242936D01*
X1639229Y-12242936D02*
X1648753Y-12223888D01*
X1648753Y-12223888D02*
X1648753Y-12185793D01*
X1648753Y-12185793D02*
X1639229Y-12166746D01*
X1639229Y-12166746D02*
X1629705Y-12157222D01*
X1629705Y-12157222D02*
X1610658Y-12147698D01*
X1772562Y-12061984D02*
X1791610Y-12061984D01*
X1791610Y-12061984D02*
X1810658Y-12071508D01*
X1810658Y-12071508D02*
X1820182Y-12081031D01*
X1820182Y-12081031D02*
X1829705Y-12100079D01*
X1829705Y-12100079D02*
X1839229Y-12138174D01*
X1839229Y-12138174D02*
X1839229Y-12185793D01*
X1839229Y-12185793D02*
X1829705Y-12223888D01*
X1829705Y-12223888D02*
X1820182Y-12242936D01*
X1820182Y-12242936D02*
X1810658Y-12252460D01*
X1810658Y-12252460D02*
X1791610Y-12261984D01*
X1791610Y-12261984D02*
X1772562Y-12261984D01*
X1772562Y-12261984D02*
X1753515Y-12252460D01*
X1753515Y-12252460D02*
X1743991Y-12242936D01*
X1743991Y-12242936D02*
X1734467Y-12223888D01*
X1734467Y-12223888D02*
X1724943Y-12185793D01*
X1724943Y-12185793D02*
X1724943Y-12138174D01*
X1724943Y-12138174D02*
X1734467Y-12100079D01*
X1734467Y-12100079D02*
X1743991Y-12081031D01*
X1743991Y-12081031D02*
X1753515Y-12071508D01*
X1753515Y-12071508D02*
X1772562Y-12061984D01*
X1963039Y-12061984D02*
X1982086Y-12061984D01*
X1982086Y-12061984D02*
X2001134Y-12071508D01*
X2001134Y-12071508D02*
X2010658Y-12081031D01*
X2010658Y-12081031D02*
X2020182Y-12100079D01*
X2020182Y-12100079D02*
X2029705Y-12138174D01*
X2029705Y-12138174D02*
X2029705Y-12185793D01*
X2029705Y-12185793D02*
X2020182Y-12223888D01*
X2020182Y-12223888D02*
X2010658Y-12242936D01*
X2010658Y-12242936D02*
X2001134Y-12252460D01*
X2001134Y-12252460D02*
X1982086Y-12261984D01*
X1982086Y-12261984D02*
X1963039Y-12261984D01*
X1963039Y-12261984D02*
X1943991Y-12252460D01*
X1943991Y-12252460D02*
X1934467Y-12242936D01*
X1934467Y-12242936D02*
X1924943Y-12223888D01*
X1924943Y-12223888D02*
X1915420Y-12185793D01*
X1915420Y-12185793D02*
X1915420Y-12138174D01*
X1915420Y-12138174D02*
X1924943Y-12100079D01*
X1924943Y-12100079D02*
X1934467Y-12081031D01*
X1934467Y-12081031D02*
X1943991Y-12071508D01*
X1943991Y-12071508D02*
X1963039Y-12061984D01*
X2115420Y-12261984D02*
X2115420Y-12128650D01*
X2115420Y-12147698D02*
X2124944Y-12138174D01*
X2124944Y-12138174D02*
X2143991Y-12128650D01*
X2143991Y-12128650D02*
X2172563Y-12128650D01*
X2172563Y-12128650D02*
X2191610Y-12138174D01*
X2191610Y-12138174D02*
X2201134Y-12157222D01*
X2201134Y-12157222D02*
X2201134Y-12261984D01*
X2201134Y-12157222D02*
X2210658Y-12138174D01*
X2210658Y-12138174D02*
X2229705Y-12128650D01*
X2229705Y-12128650D02*
X2258277Y-12128650D01*
X2258277Y-12128650D02*
X2277325Y-12138174D01*
X2277325Y-12138174D02*
X2286848Y-12157222D01*
X2286848Y-12157222D02*
X2286848Y-12261984D01*
X2382086Y-12261984D02*
X2382086Y-12128650D01*
X2382086Y-12147698D02*
X2391610Y-12138174D01*
X2391610Y-12138174D02*
X2410658Y-12128650D01*
X2410658Y-12128650D02*
X2439229Y-12128650D01*
X2439229Y-12128650D02*
X2458277Y-12138174D01*
X2458277Y-12138174D02*
X2467801Y-12157222D01*
X2467801Y-12157222D02*
X2467801Y-12261984D01*
X2467801Y-12157222D02*
X2477325Y-12138174D01*
X2477325Y-12138174D02*
X2496372Y-12128650D01*
X2496372Y-12128650D02*
X2524944Y-12128650D01*
X2524944Y-12128650D02*
X2543991Y-12138174D01*
X2543991Y-12138174D02*
X2553515Y-12157222D01*
X2553515Y-12157222D02*
X2553515Y-12261984D01*
X2943991Y-12052460D02*
X2772563Y-12309603D01*
X3201134Y-12061984D02*
X3220182Y-12061984D01*
X3220182Y-12061984D02*
X3239229Y-12071508D01*
X3239229Y-12071508D02*
X3248753Y-12081031D01*
X3248753Y-12081031D02*
X3258277Y-12100079D01*
X3258277Y-12100079D02*
X3267801Y-12138174D01*
X3267801Y-12138174D02*
X3267801Y-12185793D01*
X3267801Y-12185793D02*
X3258277Y-12223888D01*
X3258277Y-12223888D02*
X3248753Y-12242936D01*
X3248753Y-12242936D02*
X3239229Y-12252460D01*
X3239229Y-12252460D02*
X3220182Y-12261984D01*
X3220182Y-12261984D02*
X3201134Y-12261984D01*
X3201134Y-12261984D02*
X3182086Y-12252460D01*
X3182086Y-12252460D02*
X3172563Y-12242936D01*
X3172563Y-12242936D02*
X3163039Y-12223888D01*
X3163039Y-12223888D02*
X3153515Y-12185793D01*
X3153515Y-12185793D02*
X3153515Y-12138174D01*
X3153515Y-12138174D02*
X3163039Y-12100079D01*
X3163039Y-12100079D02*
X3172563Y-12081031D01*
X3172563Y-12081031D02*
X3182086Y-12071508D01*
X3182086Y-12071508D02*
X3201134Y-12061984D01*
X3353515Y-12242936D02*
X3363039Y-12252460D01*
X3363039Y-12252460D02*
X3353515Y-12261984D01*
X3353515Y-12261984D02*
X3343991Y-12252460D01*
X3343991Y-12252460D02*
X3353515Y-12242936D01*
X3353515Y-12242936D02*
X3353515Y-12261984D01*
X3486848Y-12061984D02*
X3505896Y-12061984D01*
X3505896Y-12061984D02*
X3524944Y-12071508D01*
X3524944Y-12071508D02*
X3534467Y-12081031D01*
X3534467Y-12081031D02*
X3543991Y-12100079D01*
X3543991Y-12100079D02*
X3553515Y-12138174D01*
X3553515Y-12138174D02*
X3553515Y-12185793D01*
X3553515Y-12185793D02*
X3543991Y-12223888D01*
X3543991Y-12223888D02*
X3534467Y-12242936D01*
X3534467Y-12242936D02*
X3524944Y-12252460D01*
X3524944Y-12252460D02*
X3505896Y-12261984D01*
X3505896Y-12261984D02*
X3486848Y-12261984D01*
X3486848Y-12261984D02*
X3467801Y-12252460D01*
X3467801Y-12252460D02*
X3458277Y-12242936D01*
X3458277Y-12242936D02*
X3448753Y-12223888D01*
X3448753Y-12223888D02*
X3439229Y-12185793D01*
X3439229Y-12185793D02*
X3439229Y-12138174D01*
X3439229Y-12138174D02*
X3448753Y-12100079D01*
X3448753Y-12100079D02*
X3458277Y-12081031D01*
X3458277Y-12081031D02*
X3467801Y-12071508D01*
X3467801Y-12071508D02*
X3486848Y-12061984D01*
X3620182Y-12061984D02*
X3743991Y-12061984D01*
X3743991Y-12061984D02*
X3677325Y-12138174D01*
X3677325Y-12138174D02*
X3705896Y-12138174D01*
X3705896Y-12138174D02*
X3724944Y-12147698D01*
X3724944Y-12147698D02*
X3734467Y-12157222D01*
X3734467Y-12157222D02*
X3743991Y-12176269D01*
X3743991Y-12176269D02*
X3743991Y-12223888D01*
X3743991Y-12223888D02*
X3734467Y-12242936D01*
X3734467Y-12242936D02*
X3724944Y-12252460D01*
X3724944Y-12252460D02*
X3705896Y-12261984D01*
X3705896Y-12261984D02*
X3648753Y-12261984D01*
X3648753Y-12261984D02*
X3629706Y-12252460D01*
X3629706Y-12252460D02*
X3620182Y-12242936D01*
X3934467Y-12261984D02*
X3820182Y-12261984D01*
X3877325Y-12261984D02*
X3877325Y-12061984D01*
X3877325Y-12061984D02*
X3858277Y-12090555D01*
X3858277Y-12090555D02*
X3839229Y-12109603D01*
X3839229Y-12109603D02*
X3820182Y-12119127D01*
X4115420Y-12061984D02*
X4020182Y-12061984D01*
X4020182Y-12061984D02*
X4010658Y-12157222D01*
X4010658Y-12157222D02*
X4020182Y-12147698D01*
X4020182Y-12147698D02*
X4039229Y-12138174D01*
X4039229Y-12138174D02*
X4086848Y-12138174D01*
X4086848Y-12138174D02*
X4105896Y-12147698D01*
X4105896Y-12147698D02*
X4115420Y-12157222D01*
X4115420Y-12157222D02*
X4124944Y-12176269D01*
X4124944Y-12176269D02*
X4124944Y-12223888D01*
X4124944Y-12223888D02*
X4115420Y-12242936D01*
X4115420Y-12242936D02*
X4105896Y-12252460D01*
X4105896Y-12252460D02*
X4086848Y-12261984D01*
X4086848Y-12261984D02*
X4039229Y-12261984D01*
X4039229Y-12261984D02*
X4020182Y-12252460D01*
X4020182Y-12252460D02*
X4010658Y-12242936D01*
X4201134Y-12061984D02*
X4201134Y-12100079D01*
X4277325Y-12061984D02*
X4277325Y-12100079D01*
X4572563Y-12338174D02*
X4563039Y-12328650D01*
X4563039Y-12328650D02*
X4543991Y-12300079D01*
X4543991Y-12300079D02*
X4534468Y-12281031D01*
X4534468Y-12281031D02*
X4524944Y-12252460D01*
X4524944Y-12252460D02*
X4515420Y-12204841D01*
X4515420Y-12204841D02*
X4515420Y-12166746D01*
X4515420Y-12166746D02*
X4524944Y-12119127D01*
X4524944Y-12119127D02*
X4534468Y-12090555D01*
X4534468Y-12090555D02*
X4543991Y-12071508D01*
X4543991Y-12071508D02*
X4563039Y-12042936D01*
X4563039Y-12042936D02*
X4572563Y-12033412D01*
X4753515Y-12261984D02*
X4639230Y-12261984D01*
X4696372Y-12261984D02*
X4696372Y-12061984D01*
X4696372Y-12061984D02*
X4677325Y-12090555D01*
X4677325Y-12090555D02*
X4658277Y-12109603D01*
X4658277Y-12109603D02*
X4639230Y-12119127D01*
X4820182Y-12061984D02*
X4953515Y-12061984D01*
X4953515Y-12061984D02*
X4867801Y-12261984D01*
X5039230Y-12261984D02*
X5077325Y-12261984D01*
X5077325Y-12261984D02*
X5096372Y-12252460D01*
X5096372Y-12252460D02*
X5105896Y-12242936D01*
X5105896Y-12242936D02*
X5124944Y-12214365D01*
X5124944Y-12214365D02*
X5134468Y-12176269D01*
X5134468Y-12176269D02*
X5134468Y-12100079D01*
X5134468Y-12100079D02*
X5124944Y-12081031D01*
X5124944Y-12081031D02*
X5115420Y-12071508D01*
X5115420Y-12071508D02*
X5096372Y-12061984D01*
X5096372Y-12061984D02*
X5058277Y-12061984D01*
X5058277Y-12061984D02*
X5039230Y-12071508D01*
X5039230Y-12071508D02*
X5029706Y-12081031D01*
X5029706Y-12081031D02*
X5020182Y-12100079D01*
X5020182Y-12100079D02*
X5020182Y-12147698D01*
X5020182Y-12147698D02*
X5029706Y-12166746D01*
X5029706Y-12166746D02*
X5039230Y-12176269D01*
X5039230Y-12176269D02*
X5058277Y-12185793D01*
X5058277Y-12185793D02*
X5096372Y-12185793D01*
X5096372Y-12185793D02*
X5115420Y-12176269D01*
X5115420Y-12176269D02*
X5124944Y-12166746D01*
X5124944Y-12166746D02*
X5134468Y-12147698D01*
X5372563Y-12261984D02*
X5372563Y-12061984D01*
X5458277Y-12261984D02*
X5458277Y-12157222D01*
X5458277Y-12157222D02*
X5448753Y-12138174D01*
X5448753Y-12138174D02*
X5429706Y-12128650D01*
X5429706Y-12128650D02*
X5401134Y-12128650D01*
X5401134Y-12128650D02*
X5382087Y-12138174D01*
X5382087Y-12138174D02*
X5372563Y-12147698D01*
X5582087Y-12261984D02*
X5563039Y-12252460D01*
X5563039Y-12252460D02*
X5553515Y-12242936D01*
X5553515Y-12242936D02*
X5543992Y-12223888D01*
X5543992Y-12223888D02*
X5543992Y-12166746D01*
X5543992Y-12166746D02*
X5553515Y-12147698D01*
X5553515Y-12147698D02*
X5563039Y-12138174D01*
X5563039Y-12138174D02*
X5582087Y-12128650D01*
X5582087Y-12128650D02*
X5610658Y-12128650D01*
X5610658Y-12128650D02*
X5629706Y-12138174D01*
X5629706Y-12138174D02*
X5639230Y-12147698D01*
X5639230Y-12147698D02*
X5648753Y-12166746D01*
X5648753Y-12166746D02*
X5648753Y-12223888D01*
X5648753Y-12223888D02*
X5639230Y-12242936D01*
X5639230Y-12242936D02*
X5629706Y-12252460D01*
X5629706Y-12252460D02*
X5610658Y-12261984D01*
X5610658Y-12261984D02*
X5582087Y-12261984D01*
X5763039Y-12261984D02*
X5743991Y-12252460D01*
X5743991Y-12252460D02*
X5734468Y-12233412D01*
X5734468Y-12233412D02*
X5734468Y-12061984D01*
X5915420Y-12252460D02*
X5896372Y-12261984D01*
X5896372Y-12261984D02*
X5858277Y-12261984D01*
X5858277Y-12261984D02*
X5839230Y-12252460D01*
X5839230Y-12252460D02*
X5829706Y-12233412D01*
X5829706Y-12233412D02*
X5829706Y-12157222D01*
X5829706Y-12157222D02*
X5839230Y-12138174D01*
X5839230Y-12138174D02*
X5858277Y-12128650D01*
X5858277Y-12128650D02*
X5896372Y-12128650D01*
X5896372Y-12128650D02*
X5915420Y-12138174D01*
X5915420Y-12138174D02*
X5924944Y-12157222D01*
X5924944Y-12157222D02*
X5924944Y-12176269D01*
X5924944Y-12176269D02*
X5829706Y-12195317D01*
X6001134Y-12252460D02*
X6020182Y-12261984D01*
X6020182Y-12261984D02*
X6058277Y-12261984D01*
X6058277Y-12261984D02*
X6077325Y-12252460D01*
X6077325Y-12252460D02*
X6086849Y-12233412D01*
X6086849Y-12233412D02*
X6086849Y-12223888D01*
X6086849Y-12223888D02*
X6077325Y-12204841D01*
X6077325Y-12204841D02*
X6058277Y-12195317D01*
X6058277Y-12195317D02*
X6029706Y-12195317D01*
X6029706Y-12195317D02*
X6010658Y-12185793D01*
X6010658Y-12185793D02*
X6001134Y-12166746D01*
X6001134Y-12166746D02*
X6001134Y-12157222D01*
X6001134Y-12157222D02*
X6010658Y-12138174D01*
X6010658Y-12138174D02*
X6029706Y-12128650D01*
X6029706Y-12128650D02*
X6058277Y-12128650D01*
X6058277Y-12128650D02*
X6077325Y-12138174D01*
X6153515Y-12338174D02*
X6163039Y-12328650D01*
X6163039Y-12328650D02*
X6182087Y-12300079D01*
X6182087Y-12300079D02*
X6191611Y-12281031D01*
X6191611Y-12281031D02*
X6201134Y-12252460D01*
X6201134Y-12252460D02*
X6210658Y-12204841D01*
X6210658Y-12204841D02*
X6210658Y-12166746D01*
X6210658Y-12166746D02*
X6201134Y-12119127D01*
X6201134Y-12119127D02*
X6191611Y-12090555D01*
X6191611Y-12090555D02*
X6182087Y-12071508D01*
X6182087Y-12071508D02*
X6163039Y-12042936D01*
X6163039Y-12042936D02*
X6153515Y-12033412D01*
D12*
X982856Y-12469856D02*
X982856Y-12399144D01*
X912144Y-12399144D01*
X912144Y-12469856D01*
X982856Y-12469856D01*
D11*
X1363039Y-12525984D02*
X1248753Y-12525984D01*
X1305896Y-12525984D02*
X1305896Y-12325984D01*
X1305896Y-12325984D02*
X1286848Y-12354555D01*
X1286848Y-12354555D02*
X1267801Y-12373603D01*
X1267801Y-12373603D02*
X1248753Y-12383127D01*
X1448753Y-12506936D02*
X1458277Y-12516460D01*
X1458277Y-12516460D02*
X1448753Y-12525984D01*
X1448753Y-12525984D02*
X1439229Y-12516460D01*
X1439229Y-12516460D02*
X1448753Y-12506936D01*
X1448753Y-12506936D02*
X1448753Y-12525984D01*
X1582086Y-12325984D02*
X1601134Y-12325984D01*
X1601134Y-12325984D02*
X1620182Y-12335508D01*
X1620182Y-12335508D02*
X1629705Y-12345031D01*
X1629705Y-12345031D02*
X1639229Y-12364079D01*
X1639229Y-12364079D02*
X1648753Y-12402174D01*
X1648753Y-12402174D02*
X1648753Y-12449793D01*
X1648753Y-12449793D02*
X1639229Y-12487888D01*
X1639229Y-12487888D02*
X1629705Y-12506936D01*
X1629705Y-12506936D02*
X1620182Y-12516460D01*
X1620182Y-12516460D02*
X1601134Y-12525984D01*
X1601134Y-12525984D02*
X1582086Y-12525984D01*
X1582086Y-12525984D02*
X1563039Y-12516460D01*
X1563039Y-12516460D02*
X1553515Y-12506936D01*
X1553515Y-12506936D02*
X1543991Y-12487888D01*
X1543991Y-12487888D02*
X1534467Y-12449793D01*
X1534467Y-12449793D02*
X1534467Y-12402174D01*
X1534467Y-12402174D02*
X1543991Y-12364079D01*
X1543991Y-12364079D02*
X1553515Y-12345031D01*
X1553515Y-12345031D02*
X1563039Y-12335508D01*
X1563039Y-12335508D02*
X1582086Y-12325984D01*
X1772562Y-12325984D02*
X1791610Y-12325984D01*
X1791610Y-12325984D02*
X1810658Y-12335508D01*
X1810658Y-12335508D02*
X1820182Y-12345031D01*
X1820182Y-12345031D02*
X1829705Y-12364079D01*
X1829705Y-12364079D02*
X1839229Y-12402174D01*
X1839229Y-12402174D02*
X1839229Y-12449793D01*
X1839229Y-12449793D02*
X1829705Y-12487888D01*
X1829705Y-12487888D02*
X1820182Y-12506936D01*
X1820182Y-12506936D02*
X1810658Y-12516460D01*
X1810658Y-12516460D02*
X1791610Y-12525984D01*
X1791610Y-12525984D02*
X1772562Y-12525984D01*
X1772562Y-12525984D02*
X1753515Y-12516460D01*
X1753515Y-12516460D02*
X1743991Y-12506936D01*
X1743991Y-12506936D02*
X1734467Y-12487888D01*
X1734467Y-12487888D02*
X1724943Y-12449793D01*
X1724943Y-12449793D02*
X1724943Y-12402174D01*
X1724943Y-12402174D02*
X1734467Y-12364079D01*
X1734467Y-12364079D02*
X1743991Y-12345031D01*
X1743991Y-12345031D02*
X1753515Y-12335508D01*
X1753515Y-12335508D02*
X1772562Y-12325984D01*
X1963039Y-12325984D02*
X1982086Y-12325984D01*
X1982086Y-12325984D02*
X2001134Y-12335508D01*
X2001134Y-12335508D02*
X2010658Y-12345031D01*
X2010658Y-12345031D02*
X2020182Y-12364079D01*
X2020182Y-12364079D02*
X2029705Y-12402174D01*
X2029705Y-12402174D02*
X2029705Y-12449793D01*
X2029705Y-12449793D02*
X2020182Y-12487888D01*
X2020182Y-12487888D02*
X2010658Y-12506936D01*
X2010658Y-12506936D02*
X2001134Y-12516460D01*
X2001134Y-12516460D02*
X1982086Y-12525984D01*
X1982086Y-12525984D02*
X1963039Y-12525984D01*
X1963039Y-12525984D02*
X1943991Y-12516460D01*
X1943991Y-12516460D02*
X1934467Y-12506936D01*
X1934467Y-12506936D02*
X1924943Y-12487888D01*
X1924943Y-12487888D02*
X1915420Y-12449793D01*
X1915420Y-12449793D02*
X1915420Y-12402174D01*
X1915420Y-12402174D02*
X1924943Y-12364079D01*
X1924943Y-12364079D02*
X1934467Y-12345031D01*
X1934467Y-12345031D02*
X1943991Y-12335508D01*
X1943991Y-12335508D02*
X1963039Y-12325984D01*
X2115420Y-12525984D02*
X2115420Y-12392650D01*
X2115420Y-12411698D02*
X2124944Y-12402174D01*
X2124944Y-12402174D02*
X2143991Y-12392650D01*
X2143991Y-12392650D02*
X2172563Y-12392650D01*
X2172563Y-12392650D02*
X2191610Y-12402174D01*
X2191610Y-12402174D02*
X2201134Y-12421222D01*
X2201134Y-12421222D02*
X2201134Y-12525984D01*
X2201134Y-12421222D02*
X2210658Y-12402174D01*
X2210658Y-12402174D02*
X2229705Y-12392650D01*
X2229705Y-12392650D02*
X2258277Y-12392650D01*
X2258277Y-12392650D02*
X2277325Y-12402174D01*
X2277325Y-12402174D02*
X2286848Y-12421222D01*
X2286848Y-12421222D02*
X2286848Y-12525984D01*
X2382086Y-12525984D02*
X2382086Y-12392650D01*
X2382086Y-12411698D02*
X2391610Y-12402174D01*
X2391610Y-12402174D02*
X2410658Y-12392650D01*
X2410658Y-12392650D02*
X2439229Y-12392650D01*
X2439229Y-12392650D02*
X2458277Y-12402174D01*
X2458277Y-12402174D02*
X2467801Y-12421222D01*
X2467801Y-12421222D02*
X2467801Y-12525984D01*
X2467801Y-12421222D02*
X2477325Y-12402174D01*
X2477325Y-12402174D02*
X2496372Y-12392650D01*
X2496372Y-12392650D02*
X2524944Y-12392650D01*
X2524944Y-12392650D02*
X2543991Y-12402174D01*
X2543991Y-12402174D02*
X2553515Y-12421222D01*
X2553515Y-12421222D02*
X2553515Y-12525984D01*
X2943991Y-12316460D02*
X2772563Y-12573603D01*
X3201134Y-12325984D02*
X3220182Y-12325984D01*
X3220182Y-12325984D02*
X3239229Y-12335508D01*
X3239229Y-12335508D02*
X3248753Y-12345031D01*
X3248753Y-12345031D02*
X3258277Y-12364079D01*
X3258277Y-12364079D02*
X3267801Y-12402174D01*
X3267801Y-12402174D02*
X3267801Y-12449793D01*
X3267801Y-12449793D02*
X3258277Y-12487888D01*
X3258277Y-12487888D02*
X3248753Y-12506936D01*
X3248753Y-12506936D02*
X3239229Y-12516460D01*
X3239229Y-12516460D02*
X3220182Y-12525984D01*
X3220182Y-12525984D02*
X3201134Y-12525984D01*
X3201134Y-12525984D02*
X3182086Y-12516460D01*
X3182086Y-12516460D02*
X3172563Y-12506936D01*
X3172563Y-12506936D02*
X3163039Y-12487888D01*
X3163039Y-12487888D02*
X3153515Y-12449793D01*
X3153515Y-12449793D02*
X3153515Y-12402174D01*
X3153515Y-12402174D02*
X3163039Y-12364079D01*
X3163039Y-12364079D02*
X3172563Y-12345031D01*
X3172563Y-12345031D02*
X3182086Y-12335508D01*
X3182086Y-12335508D02*
X3201134Y-12325984D01*
X3353515Y-12506936D02*
X3363039Y-12516460D01*
X3363039Y-12516460D02*
X3353515Y-12525984D01*
X3353515Y-12525984D02*
X3343991Y-12516460D01*
X3343991Y-12516460D02*
X3353515Y-12506936D01*
X3353515Y-12506936D02*
X3353515Y-12525984D01*
X3486848Y-12325984D02*
X3505896Y-12325984D01*
X3505896Y-12325984D02*
X3524944Y-12335508D01*
X3524944Y-12335508D02*
X3534467Y-12345031D01*
X3534467Y-12345031D02*
X3543991Y-12364079D01*
X3543991Y-12364079D02*
X3553515Y-12402174D01*
X3553515Y-12402174D02*
X3553515Y-12449793D01*
X3553515Y-12449793D02*
X3543991Y-12487888D01*
X3543991Y-12487888D02*
X3534467Y-12506936D01*
X3534467Y-12506936D02*
X3524944Y-12516460D01*
X3524944Y-12516460D02*
X3505896Y-12525984D01*
X3505896Y-12525984D02*
X3486848Y-12525984D01*
X3486848Y-12525984D02*
X3467801Y-12516460D01*
X3467801Y-12516460D02*
X3458277Y-12506936D01*
X3458277Y-12506936D02*
X3448753Y-12487888D01*
X3448753Y-12487888D02*
X3439229Y-12449793D01*
X3439229Y-12449793D02*
X3439229Y-12402174D01*
X3439229Y-12402174D02*
X3448753Y-12364079D01*
X3448753Y-12364079D02*
X3458277Y-12345031D01*
X3458277Y-12345031D02*
X3467801Y-12335508D01*
X3467801Y-12335508D02*
X3486848Y-12325984D01*
X3620182Y-12325984D02*
X3743991Y-12325984D01*
X3743991Y-12325984D02*
X3677325Y-12402174D01*
X3677325Y-12402174D02*
X3705896Y-12402174D01*
X3705896Y-12402174D02*
X3724944Y-12411698D01*
X3724944Y-12411698D02*
X3734467Y-12421222D01*
X3734467Y-12421222D02*
X3743991Y-12440269D01*
X3743991Y-12440269D02*
X3743991Y-12487888D01*
X3743991Y-12487888D02*
X3734467Y-12506936D01*
X3734467Y-12506936D02*
X3724944Y-12516460D01*
X3724944Y-12516460D02*
X3705896Y-12525984D01*
X3705896Y-12525984D02*
X3648753Y-12525984D01*
X3648753Y-12525984D02*
X3629706Y-12516460D01*
X3629706Y-12516460D02*
X3620182Y-12506936D01*
X3839229Y-12525984D02*
X3877325Y-12525984D01*
X3877325Y-12525984D02*
X3896372Y-12516460D01*
X3896372Y-12516460D02*
X3905896Y-12506936D01*
X3905896Y-12506936D02*
X3924944Y-12478365D01*
X3924944Y-12478365D02*
X3934467Y-12440269D01*
X3934467Y-12440269D02*
X3934467Y-12364079D01*
X3934467Y-12364079D02*
X3924944Y-12345031D01*
X3924944Y-12345031D02*
X3915420Y-12335508D01*
X3915420Y-12335508D02*
X3896372Y-12325984D01*
X3896372Y-12325984D02*
X3858277Y-12325984D01*
X3858277Y-12325984D02*
X3839229Y-12335508D01*
X3839229Y-12335508D02*
X3829706Y-12345031D01*
X3829706Y-12345031D02*
X3820182Y-12364079D01*
X3820182Y-12364079D02*
X3820182Y-12411698D01*
X3820182Y-12411698D02*
X3829706Y-12430746D01*
X3829706Y-12430746D02*
X3839229Y-12440269D01*
X3839229Y-12440269D02*
X3858277Y-12449793D01*
X3858277Y-12449793D02*
X3896372Y-12449793D01*
X3896372Y-12449793D02*
X3915420Y-12440269D01*
X3915420Y-12440269D02*
X3924944Y-12430746D01*
X3924944Y-12430746D02*
X3934467Y-12411698D01*
X4105896Y-12392650D02*
X4105896Y-12525984D01*
X4058277Y-12316460D02*
X4010658Y-12459317D01*
X4010658Y-12459317D02*
X4134467Y-12459317D01*
X4201134Y-12325984D02*
X4201134Y-12364079D01*
X4277325Y-12325984D02*
X4277325Y-12364079D01*
X4572563Y-12602174D02*
X4563039Y-12592650D01*
X4563039Y-12592650D02*
X4543991Y-12564079D01*
X4543991Y-12564079D02*
X4534468Y-12545031D01*
X4534468Y-12545031D02*
X4524944Y-12516460D01*
X4524944Y-12516460D02*
X4515420Y-12468841D01*
X4515420Y-12468841D02*
X4515420Y-12430746D01*
X4515420Y-12430746D02*
X4524944Y-12383127D01*
X4524944Y-12383127D02*
X4534468Y-12354555D01*
X4534468Y-12354555D02*
X4543991Y-12335508D01*
X4543991Y-12335508D02*
X4563039Y-12306936D01*
X4563039Y-12306936D02*
X4572563Y-12297412D01*
X4734468Y-12392650D02*
X4734468Y-12525984D01*
X4686849Y-12316460D02*
X4639230Y-12459317D01*
X4639230Y-12459317D02*
X4763039Y-12459317D01*
X4820182Y-12325984D02*
X4943991Y-12325984D01*
X4943991Y-12325984D02*
X4877325Y-12402174D01*
X4877325Y-12402174D02*
X4905896Y-12402174D01*
X4905896Y-12402174D02*
X4924944Y-12411698D01*
X4924944Y-12411698D02*
X4934468Y-12421222D01*
X4934468Y-12421222D02*
X4943991Y-12440269D01*
X4943991Y-12440269D02*
X4943991Y-12487888D01*
X4943991Y-12487888D02*
X4934468Y-12506936D01*
X4934468Y-12506936D02*
X4924944Y-12516460D01*
X4924944Y-12516460D02*
X4905896Y-12525984D01*
X4905896Y-12525984D02*
X4848753Y-12525984D01*
X4848753Y-12525984D02*
X4829706Y-12516460D01*
X4829706Y-12516460D02*
X4820182Y-12506936D01*
X5020182Y-12345031D02*
X5029706Y-12335508D01*
X5029706Y-12335508D02*
X5048753Y-12325984D01*
X5048753Y-12325984D02*
X5096372Y-12325984D01*
X5096372Y-12325984D02*
X5115420Y-12335508D01*
X5115420Y-12335508D02*
X5124944Y-12345031D01*
X5124944Y-12345031D02*
X5134468Y-12364079D01*
X5134468Y-12364079D02*
X5134468Y-12383127D01*
X5134468Y-12383127D02*
X5124944Y-12411698D01*
X5124944Y-12411698D02*
X5010658Y-12525984D01*
X5010658Y-12525984D02*
X5134468Y-12525984D01*
X5372563Y-12525984D02*
X5372563Y-12325984D01*
X5458277Y-12525984D02*
X5458277Y-12421222D01*
X5458277Y-12421222D02*
X5448753Y-12402174D01*
X5448753Y-12402174D02*
X5429706Y-12392650D01*
X5429706Y-12392650D02*
X5401134Y-12392650D01*
X5401134Y-12392650D02*
X5382087Y-12402174D01*
X5382087Y-12402174D02*
X5372563Y-12411698D01*
X5582087Y-12525984D02*
X5563039Y-12516460D01*
X5563039Y-12516460D02*
X5553515Y-12506936D01*
X5553515Y-12506936D02*
X5543992Y-12487888D01*
X5543992Y-12487888D02*
X5543992Y-12430746D01*
X5543992Y-12430746D02*
X5553515Y-12411698D01*
X5553515Y-12411698D02*
X5563039Y-12402174D01*
X5563039Y-12402174D02*
X5582087Y-12392650D01*
X5582087Y-12392650D02*
X5610658Y-12392650D01*
X5610658Y-12392650D02*
X5629706Y-12402174D01*
X5629706Y-12402174D02*
X5639230Y-12411698D01*
X5639230Y-12411698D02*
X5648753Y-12430746D01*
X5648753Y-12430746D02*
X5648753Y-12487888D01*
X5648753Y-12487888D02*
X5639230Y-12506936D01*
X5639230Y-12506936D02*
X5629706Y-12516460D01*
X5629706Y-12516460D02*
X5610658Y-12525984D01*
X5610658Y-12525984D02*
X5582087Y-12525984D01*
X5763039Y-12525984D02*
X5743991Y-12516460D01*
X5743991Y-12516460D02*
X5734468Y-12497412D01*
X5734468Y-12497412D02*
X5734468Y-12325984D01*
X5915420Y-12516460D02*
X5896372Y-12525984D01*
X5896372Y-12525984D02*
X5858277Y-12525984D01*
X5858277Y-12525984D02*
X5839230Y-12516460D01*
X5839230Y-12516460D02*
X5829706Y-12497412D01*
X5829706Y-12497412D02*
X5829706Y-12421222D01*
X5829706Y-12421222D02*
X5839230Y-12402174D01*
X5839230Y-12402174D02*
X5858277Y-12392650D01*
X5858277Y-12392650D02*
X5896372Y-12392650D01*
X5896372Y-12392650D02*
X5915420Y-12402174D01*
X5915420Y-12402174D02*
X5924944Y-12421222D01*
X5924944Y-12421222D02*
X5924944Y-12440269D01*
X5924944Y-12440269D02*
X5829706Y-12459317D01*
X6001134Y-12516460D02*
X6020182Y-12525984D01*
X6020182Y-12525984D02*
X6058277Y-12525984D01*
X6058277Y-12525984D02*
X6077325Y-12516460D01*
X6077325Y-12516460D02*
X6086849Y-12497412D01*
X6086849Y-12497412D02*
X6086849Y-12487888D01*
X6086849Y-12487888D02*
X6077325Y-12468841D01*
X6077325Y-12468841D02*
X6058277Y-12459317D01*
X6058277Y-12459317D02*
X6029706Y-12459317D01*
X6029706Y-12459317D02*
X6010658Y-12449793D01*
X6010658Y-12449793D02*
X6001134Y-12430746D01*
X6001134Y-12430746D02*
X6001134Y-12421222D01*
X6001134Y-12421222D02*
X6010658Y-12402174D01*
X6010658Y-12402174D02*
X6029706Y-12392650D01*
X6029706Y-12392650D02*
X6058277Y-12392650D01*
X6058277Y-12392650D02*
X6077325Y-12402174D01*
X6153515Y-12602174D02*
X6163039Y-12592650D01*
X6163039Y-12592650D02*
X6182087Y-12564079D01*
X6182087Y-12564079D02*
X6191611Y-12545031D01*
X6191611Y-12545031D02*
X6201134Y-12516460D01*
X6201134Y-12516460D02*
X6210658Y-12468841D01*
X6210658Y-12468841D02*
X6210658Y-12430746D01*
X6210658Y-12430746D02*
X6201134Y-12383127D01*
X6201134Y-12383127D02*
X6191611Y-12354555D01*
X6191611Y-12354555D02*
X6182087Y-12335508D01*
X6182087Y-12335508D02*
X6163039Y-12306936D01*
X6163039Y-12306936D02*
X6153515Y-12297412D01*
D13*
X942500Y-12753500D02*
X997500Y-12698500D01*
X942500Y-12643500D01*
X887500Y-12698500D01*
X942500Y-12753500D01*
D11*
X1363039Y-12789984D02*
X1248753Y-12789984D01*
X1305896Y-12789984D02*
X1305896Y-12589984D01*
X1305896Y-12589984D02*
X1286848Y-12618555D01*
X1286848Y-12618555D02*
X1267801Y-12637603D01*
X1267801Y-12637603D02*
X1248753Y-12647127D01*
X1448753Y-12770936D02*
X1458277Y-12780460D01*
X1458277Y-12780460D02*
X1448753Y-12789984D01*
X1448753Y-12789984D02*
X1439229Y-12780460D01*
X1439229Y-12780460D02*
X1448753Y-12770936D01*
X1448753Y-12770936D02*
X1448753Y-12789984D01*
X1648753Y-12789984D02*
X1534467Y-12789984D01*
X1591610Y-12789984D02*
X1591610Y-12589984D01*
X1591610Y-12589984D02*
X1572562Y-12618555D01*
X1572562Y-12618555D02*
X1553515Y-12637603D01*
X1553515Y-12637603D02*
X1534467Y-12647127D01*
X1772562Y-12589984D02*
X1791610Y-12589984D01*
X1791610Y-12589984D02*
X1810658Y-12599508D01*
X1810658Y-12599508D02*
X1820182Y-12609031D01*
X1820182Y-12609031D02*
X1829705Y-12628079D01*
X1829705Y-12628079D02*
X1839229Y-12666174D01*
X1839229Y-12666174D02*
X1839229Y-12713793D01*
X1839229Y-12713793D02*
X1829705Y-12751888D01*
X1829705Y-12751888D02*
X1820182Y-12770936D01*
X1820182Y-12770936D02*
X1810658Y-12780460D01*
X1810658Y-12780460D02*
X1791610Y-12789984D01*
X1791610Y-12789984D02*
X1772562Y-12789984D01*
X1772562Y-12789984D02*
X1753515Y-12780460D01*
X1753515Y-12780460D02*
X1743991Y-12770936D01*
X1743991Y-12770936D02*
X1734467Y-12751888D01*
X1734467Y-12751888D02*
X1724943Y-12713793D01*
X1724943Y-12713793D02*
X1724943Y-12666174D01*
X1724943Y-12666174D02*
X1734467Y-12628079D01*
X1734467Y-12628079D02*
X1743991Y-12609031D01*
X1743991Y-12609031D02*
X1753515Y-12599508D01*
X1753515Y-12599508D02*
X1772562Y-12589984D01*
X1963039Y-12589984D02*
X1982086Y-12589984D01*
X1982086Y-12589984D02*
X2001134Y-12599508D01*
X2001134Y-12599508D02*
X2010658Y-12609031D01*
X2010658Y-12609031D02*
X2020182Y-12628079D01*
X2020182Y-12628079D02*
X2029705Y-12666174D01*
X2029705Y-12666174D02*
X2029705Y-12713793D01*
X2029705Y-12713793D02*
X2020182Y-12751888D01*
X2020182Y-12751888D02*
X2010658Y-12770936D01*
X2010658Y-12770936D02*
X2001134Y-12780460D01*
X2001134Y-12780460D02*
X1982086Y-12789984D01*
X1982086Y-12789984D02*
X1963039Y-12789984D01*
X1963039Y-12789984D02*
X1943991Y-12780460D01*
X1943991Y-12780460D02*
X1934467Y-12770936D01*
X1934467Y-12770936D02*
X1924943Y-12751888D01*
X1924943Y-12751888D02*
X1915420Y-12713793D01*
X1915420Y-12713793D02*
X1915420Y-12666174D01*
X1915420Y-12666174D02*
X1924943Y-12628079D01*
X1924943Y-12628079D02*
X1934467Y-12609031D01*
X1934467Y-12609031D02*
X1943991Y-12599508D01*
X1943991Y-12599508D02*
X1963039Y-12589984D01*
X2115420Y-12789984D02*
X2115420Y-12656650D01*
X2115420Y-12675698D02*
X2124944Y-12666174D01*
X2124944Y-12666174D02*
X2143991Y-12656650D01*
X2143991Y-12656650D02*
X2172563Y-12656650D01*
X2172563Y-12656650D02*
X2191610Y-12666174D01*
X2191610Y-12666174D02*
X2201134Y-12685222D01*
X2201134Y-12685222D02*
X2201134Y-12789984D01*
X2201134Y-12685222D02*
X2210658Y-12666174D01*
X2210658Y-12666174D02*
X2229705Y-12656650D01*
X2229705Y-12656650D02*
X2258277Y-12656650D01*
X2258277Y-12656650D02*
X2277325Y-12666174D01*
X2277325Y-12666174D02*
X2286848Y-12685222D01*
X2286848Y-12685222D02*
X2286848Y-12789984D01*
X2382086Y-12789984D02*
X2382086Y-12656650D01*
X2382086Y-12675698D02*
X2391610Y-12666174D01*
X2391610Y-12666174D02*
X2410658Y-12656650D01*
X2410658Y-12656650D02*
X2439229Y-12656650D01*
X2439229Y-12656650D02*
X2458277Y-12666174D01*
X2458277Y-12666174D02*
X2467801Y-12685222D01*
X2467801Y-12685222D02*
X2467801Y-12789984D01*
X2467801Y-12685222D02*
X2477325Y-12666174D01*
X2477325Y-12666174D02*
X2496372Y-12656650D01*
X2496372Y-12656650D02*
X2524944Y-12656650D01*
X2524944Y-12656650D02*
X2543991Y-12666174D01*
X2543991Y-12666174D02*
X2553515Y-12685222D01*
X2553515Y-12685222D02*
X2553515Y-12789984D01*
X2943991Y-12580460D02*
X2772563Y-12837603D01*
X3201134Y-12589984D02*
X3220182Y-12589984D01*
X3220182Y-12589984D02*
X3239229Y-12599508D01*
X3239229Y-12599508D02*
X3248753Y-12609031D01*
X3248753Y-12609031D02*
X3258277Y-12628079D01*
X3258277Y-12628079D02*
X3267801Y-12666174D01*
X3267801Y-12666174D02*
X3267801Y-12713793D01*
X3267801Y-12713793D02*
X3258277Y-12751888D01*
X3258277Y-12751888D02*
X3248753Y-12770936D01*
X3248753Y-12770936D02*
X3239229Y-12780460D01*
X3239229Y-12780460D02*
X3220182Y-12789984D01*
X3220182Y-12789984D02*
X3201134Y-12789984D01*
X3201134Y-12789984D02*
X3182086Y-12780460D01*
X3182086Y-12780460D02*
X3172563Y-12770936D01*
X3172563Y-12770936D02*
X3163039Y-12751888D01*
X3163039Y-12751888D02*
X3153515Y-12713793D01*
X3153515Y-12713793D02*
X3153515Y-12666174D01*
X3153515Y-12666174D02*
X3163039Y-12628079D01*
X3163039Y-12628079D02*
X3172563Y-12609031D01*
X3172563Y-12609031D02*
X3182086Y-12599508D01*
X3182086Y-12599508D02*
X3201134Y-12589984D01*
X3353515Y-12770936D02*
X3363039Y-12780460D01*
X3363039Y-12780460D02*
X3353515Y-12789984D01*
X3353515Y-12789984D02*
X3343991Y-12780460D01*
X3343991Y-12780460D02*
X3353515Y-12770936D01*
X3353515Y-12770936D02*
X3353515Y-12789984D01*
X3486848Y-12589984D02*
X3505896Y-12589984D01*
X3505896Y-12589984D02*
X3524944Y-12599508D01*
X3524944Y-12599508D02*
X3534467Y-12609031D01*
X3534467Y-12609031D02*
X3543991Y-12628079D01*
X3543991Y-12628079D02*
X3553515Y-12666174D01*
X3553515Y-12666174D02*
X3553515Y-12713793D01*
X3553515Y-12713793D02*
X3543991Y-12751888D01*
X3543991Y-12751888D02*
X3534467Y-12770936D01*
X3534467Y-12770936D02*
X3524944Y-12780460D01*
X3524944Y-12780460D02*
X3505896Y-12789984D01*
X3505896Y-12789984D02*
X3486848Y-12789984D01*
X3486848Y-12789984D02*
X3467801Y-12780460D01*
X3467801Y-12780460D02*
X3458277Y-12770936D01*
X3458277Y-12770936D02*
X3448753Y-12751888D01*
X3448753Y-12751888D02*
X3439229Y-12713793D01*
X3439229Y-12713793D02*
X3439229Y-12666174D01*
X3439229Y-12666174D02*
X3448753Y-12628079D01*
X3448753Y-12628079D02*
X3458277Y-12609031D01*
X3458277Y-12609031D02*
X3467801Y-12599508D01*
X3467801Y-12599508D02*
X3486848Y-12589984D01*
X3724944Y-12656650D02*
X3724944Y-12789984D01*
X3677325Y-12580460D02*
X3629706Y-12723317D01*
X3629706Y-12723317D02*
X3753515Y-12723317D01*
X3810658Y-12589984D02*
X3934467Y-12589984D01*
X3934467Y-12589984D02*
X3867801Y-12666174D01*
X3867801Y-12666174D02*
X3896372Y-12666174D01*
X3896372Y-12666174D02*
X3915420Y-12675698D01*
X3915420Y-12675698D02*
X3924944Y-12685222D01*
X3924944Y-12685222D02*
X3934467Y-12704269D01*
X3934467Y-12704269D02*
X3934467Y-12751888D01*
X3934467Y-12751888D02*
X3924944Y-12770936D01*
X3924944Y-12770936D02*
X3915420Y-12780460D01*
X3915420Y-12780460D02*
X3896372Y-12789984D01*
X3896372Y-12789984D02*
X3839229Y-12789984D01*
X3839229Y-12789984D02*
X3820182Y-12780460D01*
X3820182Y-12780460D02*
X3810658Y-12770936D01*
X4001134Y-12589984D02*
X4124944Y-12589984D01*
X4124944Y-12589984D02*
X4058277Y-12666174D01*
X4058277Y-12666174D02*
X4086848Y-12666174D01*
X4086848Y-12666174D02*
X4105896Y-12675698D01*
X4105896Y-12675698D02*
X4115420Y-12685222D01*
X4115420Y-12685222D02*
X4124944Y-12704269D01*
X4124944Y-12704269D02*
X4124944Y-12751888D01*
X4124944Y-12751888D02*
X4115420Y-12770936D01*
X4115420Y-12770936D02*
X4105896Y-12780460D01*
X4105896Y-12780460D02*
X4086848Y-12789984D01*
X4086848Y-12789984D02*
X4029706Y-12789984D01*
X4029706Y-12789984D02*
X4010658Y-12780460D01*
X4010658Y-12780460D02*
X4001134Y-12770936D01*
X4201134Y-12589984D02*
X4201134Y-12628079D01*
X4277325Y-12589984D02*
X4277325Y-12628079D01*
X4572563Y-12866174D02*
X4563039Y-12856650D01*
X4563039Y-12856650D02*
X4543991Y-12828079D01*
X4543991Y-12828079D02*
X4534468Y-12809031D01*
X4534468Y-12809031D02*
X4524944Y-12780460D01*
X4524944Y-12780460D02*
X4515420Y-12732841D01*
X4515420Y-12732841D02*
X4515420Y-12694746D01*
X4515420Y-12694746D02*
X4524944Y-12647127D01*
X4524944Y-12647127D02*
X4534468Y-12618555D01*
X4534468Y-12618555D02*
X4543991Y-12599508D01*
X4543991Y-12599508D02*
X4563039Y-12570936D01*
X4563039Y-12570936D02*
X4572563Y-12561412D01*
X4734468Y-12656650D02*
X4734468Y-12789984D01*
X4686849Y-12580460D02*
X4639230Y-12723317D01*
X4639230Y-12723317D02*
X4763039Y-12723317D01*
X4991611Y-12789984D02*
X4991611Y-12589984D01*
X5077325Y-12789984D02*
X5077325Y-12685222D01*
X5077325Y-12685222D02*
X5067801Y-12666174D01*
X5067801Y-12666174D02*
X5048753Y-12656650D01*
X5048753Y-12656650D02*
X5020182Y-12656650D01*
X5020182Y-12656650D02*
X5001134Y-12666174D01*
X5001134Y-12666174D02*
X4991611Y-12675698D01*
X5201134Y-12789984D02*
X5182087Y-12780460D01*
X5182087Y-12780460D02*
X5172563Y-12770936D01*
X5172563Y-12770936D02*
X5163039Y-12751888D01*
X5163039Y-12751888D02*
X5163039Y-12694746D01*
X5163039Y-12694746D02*
X5172563Y-12675698D01*
X5172563Y-12675698D02*
X5182087Y-12666174D01*
X5182087Y-12666174D02*
X5201134Y-12656650D01*
X5201134Y-12656650D02*
X5229706Y-12656650D01*
X5229706Y-12656650D02*
X5248753Y-12666174D01*
X5248753Y-12666174D02*
X5258277Y-12675698D01*
X5258277Y-12675698D02*
X5267801Y-12694746D01*
X5267801Y-12694746D02*
X5267801Y-12751888D01*
X5267801Y-12751888D02*
X5258277Y-12770936D01*
X5258277Y-12770936D02*
X5248753Y-12780460D01*
X5248753Y-12780460D02*
X5229706Y-12789984D01*
X5229706Y-12789984D02*
X5201134Y-12789984D01*
X5382087Y-12789984D02*
X5363039Y-12780460D01*
X5363039Y-12780460D02*
X5353515Y-12761412D01*
X5353515Y-12761412D02*
X5353515Y-12589984D01*
X5534468Y-12780460D02*
X5515420Y-12789984D01*
X5515420Y-12789984D02*
X5477325Y-12789984D01*
X5477325Y-12789984D02*
X5458277Y-12780460D01*
X5458277Y-12780460D02*
X5448753Y-12761412D01*
X5448753Y-12761412D02*
X5448753Y-12685222D01*
X5448753Y-12685222D02*
X5458277Y-12666174D01*
X5458277Y-12666174D02*
X5477325Y-12656650D01*
X5477325Y-12656650D02*
X5515420Y-12656650D01*
X5515420Y-12656650D02*
X5534468Y-12666174D01*
X5534468Y-12666174D02*
X5543992Y-12685222D01*
X5543992Y-12685222D02*
X5543992Y-12704269D01*
X5543992Y-12704269D02*
X5448753Y-12723317D01*
X5620182Y-12780460D02*
X5639230Y-12789984D01*
X5639230Y-12789984D02*
X5677325Y-12789984D01*
X5677325Y-12789984D02*
X5696372Y-12780460D01*
X5696372Y-12780460D02*
X5705896Y-12761412D01*
X5705896Y-12761412D02*
X5705896Y-12751888D01*
X5705896Y-12751888D02*
X5696372Y-12732841D01*
X5696372Y-12732841D02*
X5677325Y-12723317D01*
X5677325Y-12723317D02*
X5648753Y-12723317D01*
X5648753Y-12723317D02*
X5629706Y-12713793D01*
X5629706Y-12713793D02*
X5620182Y-12694746D01*
X5620182Y-12694746D02*
X5620182Y-12685222D01*
X5620182Y-12685222D02*
X5629706Y-12666174D01*
X5629706Y-12666174D02*
X5648753Y-12656650D01*
X5648753Y-12656650D02*
X5677325Y-12656650D01*
X5677325Y-12656650D02*
X5696372Y-12666174D01*
X5772563Y-12866174D02*
X5782087Y-12856650D01*
X5782087Y-12856650D02*
X5801134Y-12828079D01*
X5801134Y-12828079D02*
X5810658Y-12809031D01*
X5810658Y-12809031D02*
X5820182Y-12780460D01*
X5820182Y-12780460D02*
X5829706Y-12732841D01*
X5829706Y-12732841D02*
X5829706Y-12694746D01*
X5829706Y-12694746D02*
X5820182Y-12647127D01*
X5820182Y-12647127D02*
X5810658Y-12618555D01*
X5810658Y-12618555D02*
X5801134Y-12599508D01*
X5801134Y-12599508D02*
X5782087Y-12570936D01*
X5782087Y-12570936D02*
X5772563Y-12561412D01*
M02*
